<?xml version="1.0" standalone="no"?>
<!DOCTYPE svg PUBLIC "-//W3C//DTD SVG 1.1//EN" "http://www.w3.org/Graphics/SVG/1.1/DTD/svg11.dtd">
<svg xmlns="http://www.w3.org/2000/svg">
<defs >
<font id="Gluten" horiz-adv-x="1008" ><font-face
    font-family="Gluten Thin Black"
    units-per-em="2000"
    panose-1="0 0 0 0 0 0 0 0 0 0"
    ascent="1290"
    descent="-475"
    alphabetic="0" />
<glyph unicode=" " horiz-adv-x="717" />
<glyph unicode="!" horiz-adv-x="610" d="M268 308Q220 308 184 319T121 355T78 418T51 509T35 630T29 784T27 972Q27 1018 29 1058T36 1132T51 1194T79 1244T121 1280T182 1302T265 1310Q313 1310 347 1299T406 1266T446 1217T470 1154T482 1082T487 1003T488
923Q488 834 483 758T467 620T442 507T409 420T368 358T321 321T268 308ZM248 -87Q203 -87 155 -77T75 -38T42 45Q42 98 72 135T151 193T250 213Q292 213 335 200T408 158T438 82Q438 22 411 -15T340 -69T248 -87Z" />
<glyph unicode="&quot;" horiz-adv-x="833" d="M637 788Q605 788 579 803T531 846T496 907T475 981T467 1061Q467 1101 473 1134T492 1194T526 1239T577 1268T647 1278Q677 1278 702 1270T747 1245T780 1206T801 1155T808 1095Q808 1047 801 1002T781 918T746
850T698 805T637 788ZM212 780Q175 780 146 797T94 842T56 906T33 980T25 1055Q25 1096 33 1128T58 1185T99 1226T153 1250T218 1258Q245 1258 267 1249T308 1222T338 1183T356 1134T363 1081Q363 1034 359 990T344 908T316 841T273 796T212 780Z" />
<glyph unicode="#" horiz-adv-x="2012" d="M1310 -77Q1227 -77 1189 -51T1140 24Q1139 31 1138 43T1136 68T1135 95T1134 116Q1134 157 1124 171T1077 185Q1026 185 988 185T910 185T820 185Q798 185 782 177T755 149Q750 140 747 129T740 104T736 76T733 45Q730
-14 685 -43T537 -73Q455 -73 419 -49T380 42Q379 63 378 80T374 113T367 139Q351 185 299 185Q286 185 272 185T246 185T224 184T208 184Q116 184 62 215T8 339Q8 404 40 434T145 468Q192 470 226 475T281 486Q301 492 312 502T325 528Q327 543 328 557T330 585T331
613T332 640Q332 656 322 668T299 684Q287 688 242 692T135 697Q62 697 40 737T18 833Q18 886 50 925T158 973Q189 977 233 983T302 997Q347 1010 377 1032T418 1087Q429 1122 438 1149T459 1198Q484 1245 526 1265T657 1285Q730 1285 776 1264T822 1197Q822 1178
822 1162T822 1132T823 1106T825 1084Q828 1041 850 1027T930 1013Q974 1013 1018 1015T1100 1020T1163 1025Q1208 1030 1232 1047T1259 1114Q1261 1143 1265 1164T1285 1204Q1311 1235 1359 1248T1467 1262Q1542 1262 1591 1223T1640 1128Q1640 1115 1640 1103T1640
1079T1642 1058T1644 1039Q1653 984 1705 980Q1743 977 1788 975T1887 973Q1950 973 1970 939T1990 850Q1990 795 1958 758T1838 720Q1797 720 1756 720T1683 717Q1675 717 1670 713T1660 700T1653 677Q1651 669 1650 660T1647 639T1644 615T1643 587Q1643 547
1662 528T1733 505Q1762 504 1787 500T1835 488Q1890 469 1917 434T1945 352Q1945 282 1909 242T1820 190Q1762 179 1709 175T1600 168Q1560 167 1542 124Q1539 117 1536 110T1530 93T1524 74T1518 52Q1507 10 1490 -19T1432 -62T1310 -77ZM987 483Q1012 483 1036
484T1083 486T1123 489Q1173 494 1188 509T1208 548Q1210 563 1212 578T1215 609T1217 639T1218 669Q1218 697 1201 710T1137 723Q1096 723 1054 722T971 719T888 714Q839 711 818 700T792 665Q790 650 788 636T785 607T784 580T783 553Q783 510 807 496T864 482Q890
482 921 482T987 483Z" />
<glyph unicode="$" horiz-adv-x="1188" d="M575 871Q515 871 478 889T424 940T407 1014Q407 1077 418 1123T450 1200T505 1245T582 1260Q616 1260 643 1250T688 1214T717 1144T727 1034Q727 984 714 947T667 891T575 871ZM572 -66Q532 -66 501 -54T447 -16T414
47T402 135Q402 185 411 224T442 293T497 337T582 352Q620 352 649 339T700 301T733 244T744 169Q744 109 733 65T701 -8T647 -52T572 -66ZM564 107Q474 107 404 112T278 126T176 151Q106 174 61 206T15 304Q15 375 61 418T197 462Q243 462 286 454T378 438T489
429Q523 429 546 431T581 438T593 456Q593 469 582 476T534 491T425 507Q312 522 230 555T104 642T59 776Q59 849 108 900T241 982T429 1027T645 1041Q723 1041 803 1033T950 1007T1059 958T1100 883Q1100 824 1069 789T990 738T893 722Q832 722 780 731T701 741Q685
741 675 740T660 734T655 723Q655 716 668 711T715 700T804 686Q890 674 963 643T1082 557T1127 415Q1127 339 1087 282T973 185T796 127T564 107Z" />
<glyph unicode="%" horiz-adv-x="1597" d="M342 668Q259 668 191 697T83 780T43 903Q43 993 91 1062T219 1170T395 1209Q474 1209 545 1188T662 1115T707 977Q707 902 679 845T601 748T485 688T342 668ZM373 892Q393 892 412 899T443 919T455 953Q455 978 447
995T420 1023T370 1033Q342 1033 324 1018T298 981T290 945Q290 928 302 916T333 898T373 892ZM1200 203Q1221 203 1239 210T1267 230T1278 263Q1278 283 1267 293T1239 308T1207 313Q1190 313 1173 306T1144 286T1133 253Q1133 236 1143 225T1169 209T1200 203ZM1213
-17Q1130 -17 1053 0T925 75T875 249Q875 350 933 414T1082 509T1267 540Q1348 540 1408 507T1502 416T1535 281Q1535 193 1493 126T1377 21T1213 -17ZM345 28Q276 28 237 67T197 169Q197 207 221 245T286 324T378 411Q430 457 480 503T579 595T676 687T771 778T864
869T956 960T1048 1052Q1108 1112 1172 1160T1301 1208Q1357 1208 1394 1184T1431 1097Q1431 1030 1380 967T1250 833Q1169 762 1100 695T968 565T847 440T730 319T609 199Q574 165 529 125T436 57T345 28Z" />
<glyph unicode="&amp;" horiz-adv-x="1595" d="M647 -120Q489 -120 361 -79T158 50T82 274Q82 369 108 435T177 545T267 617T358 662Q400 679 429 692T473 715T488 732Q488 740 482 746T465 756Q439 767 405 802T346 890T320 1008Q320 1116 379 1179T538 1269T758
1297Q864 1297 954 1262T1101 1158T1157 990Q1157 926 1136 880T1077 800T991 742Q972 732 963 723T954 703Q954 693 975 666T1015 619Q1029 604 1044 590T1076 566T1105 557Q1122 557 1136 577T1169 630Q1204 692 1247 710T1344 729Q1397 729 1435 697T1473 611Q1473
581 1464 551T1434 487T1380 417Q1356 390 1349 379T1342 351Q1342 336 1355 327T1395 304Q1439 282 1477 251T1538 182T1561 99Q1561 3 1498 -37T1356 -78Q1289 -78 1255 -62T1192 -6Q1174 19 1162 31T1135 44Q1122 44 1109 34T1071 0Q1045 -25 1006 -47T915 -85T796
-111T647 -120ZM701 248Q722 248 752 253T811 269T859 294T878 328Q878 339 867 354T839 387T803 421Q787 436 771 449T741 470T712 478Q695 478 673 470T628 449T586 418T556 381T544 342Q544 303 570 283T632 255T701 248ZM741 856Q758 856 772 868T797 898T813
936T819 972Q819 1017 802 1040T750 1063Q730 1063 711 1053T679 1025T666 979Q666 962 673 941T691 901T716 869T741 856Z" />
<glyph unicode="&apos;" horiz-adv-x="413" d="M197 782Q158 782 128 808T77 879T46 980T35 1096Q35 1144 42 1178T67 1234T119 1266T207 1277Q244 1277 274 1267T325 1238T358 1188T370 1117Q370 1025 360 961T328 858T274 800T197 782Z" />
<glyph unicode="(" horiz-adv-x="855" d="M645 -450Q516 -450 415 -385T240 -211Q196 -146 163 -69T108 93T74 266T62 444Q62 573 86 692T160 917T283 1106Q334 1164 389 1205T498 1268T600 1290Q672 1290 729 1253T786 1122Q786 1076 774 1029T735 930T668 814Q629
754 606 690T572 559T562 425Q562 338 578 267T630 128T724 -15Q764 -67 791 -129T818 -250Q818 -329 779 -389T645 -450Z" />
<glyph unicode=")" horiz-adv-x="785" d="M242 -426Q188 -426 140 -403T61 -335T30 -230Q30 -144 63 -62T158 107Q184 143 208 184T254 268T292 357T317 447T326 535Q326 618 296 700T203 834Q154 877 114 916T49 996T25 1081Q25 1154 54 1200T134 1269T247 1292Q300
1292 357 1274T472 1220T580 1129Q649 1056 691 972T752 796T772 604Q772 512 755 406T706 189T631 -23T533 -208Q470 -305 396 -365T242 -426Z" />
<glyph unicode="*" horiz-adv-x="1153" d="M565 392Q510 392 471 418T432 507Q432 529 432 547T432 581T430 609T427 632Q423 652 416 661T396 671Q389 671 363 655T301 615T235 572T185 543Q150 526 116 526Q67 526 39 558T11 631Q11 654 21 676T55 715Q73 728
109 745T183 779T249 810T277 833Q277 841 266 849T232 866T178 885T108 903Q68 912 49 941T29 1004Q29 1042 48 1073T98 1124T167 1143Q182 1143 201 1140T243 1120Q266 1105 299 1085T363 1050T407 1035Q420 1035 426 1046T435 1080Q436 1088 436 1098T437 1119T438
1144T438 1172Q438 1221 472 1254T590 1288Q650 1288 669 1261T688 1188Q688 1173 688 1158T690 1129T693 1103Q698 1078 710 1063T748 1047Q763 1047 781 1056T820 1079T868 1108T928 1137Q956 1148 985 1148Q1024 1148 1055 1127T1106 1072T1125 1003Q1125 976
1111 953T1068 915Q1049 906 1013 897T939 878T875 860T848 840Q848 831 861 822T895 802T939 781T985 759T1022 735Q1056 707 1071 679T1086 603Q1086 564 1048 535T959 506Q929 506 902 520T856 550Q831 572 812 599T776 651T745 693T712 710Q696 710 694 695T691
653Q691 644 692 630T694 601T697 571T698 545Q698 470 669 431T565 392Z" />
<glyph unicode="+" horiz-adv-x="1205" d="M612 178Q546 178 511 206T449 280Q445 287 442 294T437 308T433 322T429 337Q419 388 402 411T356 440T279 447Q261 447 244 448T211 450T180 455T150 463Q95 480 60 518T24 624Q24 669 53 700T127 749T220 771Q258
775 287 778T338 788T374 803Q393 815 401 836T410 891Q411 906 412 919T415 944T421 966T428 986Q456 1046 497 1066T633 1086Q683 1086 725 1067T787 1021Q795 1011 799 1000T806 975T810 947T811 916Q811 873 825 838T871 801Q903 798 937 794T1003 784T1064
770T1111 753Q1161 729 1176 691T1191 615Q1191 565 1169 537T1097 491Q1062 479 1028 472T957 463T881 458Q843 457 817 434T791 346Q791 330 790 315T785 287T779 264T771 247Q753 219 709 199T612 178Z" />
<glyph unicode="," horiz-adv-x="605" d="M280 -323Q208 -323 186 -301T163 -248Q163 -224 174 -194T201 -136Q218 -107 228 -84T238 -47Q238 -38 234 -33T215 -27Q199 -27 183 -34T145 -41Q115 -41 81 -29T23 13T-2 98Q-2 175 41 226T150 302T283 327Q414 327
493 260T572 53Q572 4 558 -45T520 -139T465 -220Q425 -266 377 -294T280 -323Z" />
<glyph unicode="-" horiz-adv-x="1422" d="M595 382Q493 382 389 391T198 423T58 489T5 598Q5 682 50 731T181 804T389 835T665 842Q806 842 934 838T1162 811T1319 739T1377 598Q1377 521 1313 477T1138 413T887 388T595 382Z" />
<glyph unicode="." horiz-adv-x="592" d="M283 -42Q195 -42 134 -12T42 68T10 172Q10 245 59 295T180 371T323 398Q387 398 436 373T514 303T543 193Q543 126 509 73T416 -11T283 -42Z" />
<glyph unicode="/" horiz-adv-x="1347" d="M193 28Q124 28 85 67T45 169Q45 207 69 245T134 324T226 411Q278 457 328 503T427 595T524 687T619 778T712 869T804 960T896 1052Q956 1112 1020 1160T1149 1208Q1205 1208 1242 1184T1279 1097Q1279 1030 1228 967T1098
833Q1017 762 948 695T816 565T695 440T578 319T457 199Q422 165 377 125T284 57T193 28Z" />
<glyph unicode="0" horiz-adv-x="1112" d="M508 -48Q413 -48 337 -20T204 61T108 185T51 341T31 520Q31 673 63 806T160 1041T325 1199T560 1257Q681 1257 774 1215T932 1095T1029 912T1062 678Q1062 568 1045 462T990 264T887 101T730 -8T508 -48ZM542 483Q564
483 581 493T612 520T635 558T648 601T653 642Q653 665 648 686T633 725T608 753T572 763Q545 763 525 749T491 711T470 658T463 600Q463 581 466 564T475 532T491 506T513 489T542 483Z" />
<glyph unicode="1" horiz-adv-x="922" d="M495 -67Q366 -67 291 -4T215 170Q215 195 218 232T225 314T236 407T247 504T257 595T265 674T268 732Q268 757 259 769T220 793Q203 801 187 808T157 822T130 837Q93 859 73 885T53 952Q53 1008 99 1060T216 1153T367
1218T513 1242Q617 1242 677 1177T767 1005T804 775T813 532Q813 493 813 457T811 386T808 321T803 261T796 206T786 157T772 112Q740 22 676 -22T495 -67Z" />
<glyph unicode="2" horiz-adv-x="1248" d="M310 -30Q229 -15 167 8T69 76T33 207Q33 276 59 340T183 451Q239 478 295 505T404 561T503 616Q542 640 569 664T612 715T627 767Q627 794 605 808T550 823Q502 823 457 804T379 755Q358 736 332 724T276 707T215 702Q153
702 99 746T45 870Q45 959 92 1026T217 1139T391 1207T582 1230Q683 1230 779 1213T955 1154T1080 1039T1127 853Q1127 794 1112 745T1070 655T1010 582Q982 555 951 533T887 494T824 464T765 441Q738 432 727 426T715 411Q715 406 719 403T735 398T765 396Q797
396 841 404T929 421T1007 430Q1093 430 1145 389T1198 273Q1198 173 1154 110T1032 12T852 -36T632 -50Q547 -50 465 -47T310 -30Z" />
<glyph unicode="3" horiz-adv-x="1288" d="M588 -82Q477 -82 379 -66T204 -18T85 66T42 187Q42 252 62 292T113 354T177 384T235 393Q307 393 363 374T469 336T568 317Q597 317 622 318T666 323T695 337T706 362Q706 379 687 393T635 420T560 446Q524 458 491
475T436 520T415 588Q415 636 448 663T521 704Q552 715 581 727T628 754T647 788Q647 811 638 823T605 841T540 847Q492 847 437 839T333 821T249 812Q155 812 104 866T53 992Q53 1057 95 1104T212 1181T383 1225T587 1240Q773 1240 895 1197T1078 1072T1138 873Q1138
837 1129 804T1106 741T1077 688Q1058 657 1052 639T1046 609Q1046 598 1057 586T1096 551Q1124 529 1152 497T1199 418T1218 307Q1218 214 1179 142T1061 19T864 -56T588 -82Z" />
<glyph unicode="4" horiz-adv-x="1262" d="M785 -35Q706 -35 645 -1T583 126Q583 141 583 156T582 186T580 213T577 235Q569 273 539 293T433 319Q376 323 314 329T199 342Q142 351 110 388T64 483T50 608Q50 662 57 718T77 829T104 932T135 1020Q151 1060 179
1099T252 1166T364 1193Q409 1193 441 1180T490 1139T507 1065Q507 1037 504 1011T495 958T485 904T477 849T473 790Q473 748 476 727T484 698T499 685Q513 678 532 677T575 675Q598 675 614 692T630 766Q630 784 631 808T634 860T638 917T643 973T649 1022T655
1058Q670 1129 712 1167T831 1205Q883 1205 918 1188T975 1138T1009 1057Q1014 1037 1018 1014T1024 965T1027 911T1030 853T1031 790T1031 723Q1031 683 1043 664T1086 644Q1118 644 1137 641T1172 630Q1200 617 1214 590T1229 504Q1229 418 1208 390T1149 351Q1133
347 1106 341T1052 329Q1030 325 1022 313T1009 269Q1005 245 1002 218T994 160T981 99Q964 33 916 -1T785 -35Z" />
<glyph unicode="5" horiz-adv-x="1148" d="M357 -35Q303 -35 254 -29T165 -10Q101 12 59 53T17 165Q17 266 80 317T256 369Q284 369 335 368T418 367Q451 367 487 369T553 377T603 395T622 427Q622 461 606 473T546 485Q494 485 434 471T290 456Q187 456 117 503T46
655Q46 715 55 777T81 900T125 1010Q164 1085 206 1127T316 1188T492 1206Q547 1206 604 1205T721 1203T845 1202Q901 1202 958 1190T1053 1141T1092 1028Q1092 955 1042 919T910 870T735 858Q704 858 651 859T567 861Q536 861 526 851T510 830Q508 824 506 817T502
801T500 784Q500 774 504 770T516 764T535 762Q551 762 573 767T629 778T715 783Q842 783 933 744T1072 626T1121 429Q1121 303 1061 215T895 71T651 -9T357 -35Z" />
<glyph unicode="6" horiz-adv-x="1242" d="M650 -40Q493 -40 380 -4T193 108T84 303T48 587Q48 673 64 759T113 924T195 1066Q249 1134 323 1175T493 1217Q585 1217 636 1177T687 1043Q687 988 667 948T623 870Q611 852 600 833T580 794T566 754T560 711Q560 698
565 694T575 690Q586 690 605 704T655 734Q698 757 748 768T848 780Q954 780 1031 733T1151 603T1193 417Q1193 320 1153 237T1041 91T869 -5T650 -40ZM625 288Q652 288 678 298T721 326T738 367Q738 395 726 413T695 440T654 449Q628 449 605 439T567 410T552
363Q552 343 557 329T573 305T596 292T625 288Z" />
<glyph unicode="7" horiz-adv-x="1143" d="M403 -27Q341 -27 287 -10T198 49T164 166Q164 251 183 324T235 458T310 567T399 652Q446 688 484 719T549 775T591 823T606 863Q606 881 584 889T525 898Q477 898 415 890T292 874T190 866Q113 866 69 889T25 1000Q25
1067 71 1122T202 1212Q241 1228 300 1239T426 1257T553 1263Q679 1263 783 1254T962 1214T1079 1121T1121 951Q1121 885 1096 823T1030 706T944 607T858 530Q792 477 738 391T657 189Q643 127 614 78T533 1T403 -27Z" />
<glyph unicode="8" horiz-adv-x="1388" d="M697 -25Q556 -25 435 -11T224 43T84 153T33 338Q33 402 51 458T102 556T180 614Q203 622 213 627T223 640Q223 647 214 654T185 669Q135 689 112 742T88 848Q88 947 139 1018T278 1134T474 1200T698 1222Q806 1222 911
1197T1103 1122T1241 1000T1293 835Q1293 790 1282 751T1248 680T1191 626Q1178 618 1172 612T1166 596Q1166 588 1171 582T1193 566Q1236 541 1265 506T1309 429T1325 338Q1325 238 1272 169T1130 56T928 -6T697 -25ZM680 318Q726 318 756 327T802 353T817 393Q817
424 802 445T757 478T685 490Q635 490 602 480T552 450T535 398Q535 371 554 354T606 327T680 318ZM670 757Q700 757 725 763T769 779T798 805T808 840Q808 861 798 879T770 911T730 932T682 940Q647 940 614 928T559 893T537 842Q537 824 545 809T570 782T612
764T670 757Z" />
<glyph unicode="9" horiz-adv-x="1168" d="M435 -47Q342 -47 290 -24T218 40T197 134Q197 209 237 250T359 310Q385 316 416 324T480 344T538 368T581 396T598 428Q598 441 593 449T575 458Q560 458 532 447Q515 440 481 436T411 432Q306 432 225 475T98 600T51
801Q51 900 96 974T219 1096T393 1169T591 1194Q752 1194 873 1141T1062 981T1130 717Q1130 584 1085 457T958 226T767 52Q694 6 610 -20T435 -47ZM591 740Q611 740 627 748T654 770T670 801T676 836Q676 860 664 876T632 902T585 911Q559 911 537 900T500 871T486
827Q486 801 502 781T542 751T591 740Z" />
<glyph unicode=":" horiz-adv-x="537" d="M248 38Q195 38 146 58T65 114T33 198Q33 245 62 281T137 339T235 360Q292 360 345 340T433 283T468 193Q468 142 435 108T351 56T248 38ZM257 637Q210 637 169 653T102 697T77 762Q77 800 99 834T169 891T290 913Q332
913 374 898T444 854T473 787Q473 740 442 706T362 655T257 637Z" />
<glyph unicode=";" horiz-adv-x="510" d="M217 625Q133 625 73 665T12 765Q12 820 67 863T217 907Q309 907 366 862T423 750Q423 704 390 677T308 637T217 625ZM224 -251Q166 -251 149 -229T131 -176Q131 -152 139 -122T161 -64Q175 -35 183 -12T191 25Q191 34
188 39T172 45Q159 45 146 38T116 31Q80 31 39 59T-2 170Q-2 247 33 298T120 374T227 399Q332 399 395 332T458 125Q458 52 434 -21T373 -148Q341 -194 302 -222T224 -251Z" />
<glyph unicode="&lt;" horiz-adv-x="892" d="M679 193Q616 193 547 212T412 257Q346 283 275 320T144 402T45 499T7 607Q7 657 28 705T87 800T172 889T272 968Q309 994 361 1020T470 1068T582 1104T679 1118Q745 1118 781 1098T817 1007Q817 953 789 912T717 839T630
781Q599 763 573 746T527 714T496 684T485 656Q485 646 498 632T534 603T587 573T652 544Q753 506 804 460T856 354Q856 275 809 234T679 193Z" />
<glyph unicode="=" horiz-adv-x="1075" d="M337 675Q255 675 182 695T63 756T17 860Q17 905 57 938T162 994T299 1027T440 1038Q485 1038 535 1037T639 1033T744 1022T843 1002Q918 983 963 950T1008 868Q1008 822 958 789T837 733Q780 715 716 704T586 686T457
678T337 675ZM413 198Q352 198 286 209T162 244T68 304T32 390Q32 467 88 504T232 554T410 567Q456 567 508 566T615 560T722 548T817 525Q900 498 937 463T975 393Q975 344 909 299T730 225Q696 216 657 211T577 203T494 199T413 198Z" />
<glyph unicode="&gt;" horiz-adv-x="828" d="M257 210Q187 210 141 248T95 343Q95 390 133 436T250 530Q277 546 303 563T354 598T397 630T427 660T438 685Q438 699 425 714T389 745T334 777T266 811T190 845Q134 870 93 896T29 958T7 1045Q7 1109 56 1128T163
1147Q204 1147 263 1131T388 1088T512 1034T612 982Q662 953 705 914T774 827T800 723Q800 673 782 624T733 531T668 450Q616 396 547 341T402 248T257 210Z" />
<glyph unicode="?" horiz-adv-x="1105" d="M460 290Q404 290 361 302T293 351T268 462Q268 515 287 560T348 645T456 722Q509 752 551 779T618 833T643 887Q643 914 630 928T590 948T527 953Q505 953 469 947T397 932T340 913Q288 888 244 872T150 856Q107 856
74 878T40 967Q40 1012 65 1052T131 1126Q185 1170 257 1202T405 1251T547 1268Q654 1268 746 1246T907 1177T1014 1061T1053 895Q1053 821 1023 763T938 662T812 588Q773 571 736 552T673 506T636 442Q615 365 583 328T460 290ZM412 -83Q334 -83 288 -50T242 52Q242
129 295 168T413 207Q463 207 508 196T583 153T613 63Q613 -2 566 -42T412 -83Z" />
<glyph unicode="@" horiz-adv-x="2082" d="M875 -90Q703 -90 548 -51T274 66T86 263T17 540Q17 673 69 788T216 997T441 1156T725 1257T1053 1292Q1276 1292 1457 1251T1769 1123T1970 898T2040 567Q2040 454 1997 379T1873 268T1680 231Q1578 231 1505 269T1373
392Q1355 418 1340 435T1310 452Q1296 452 1278 431T1222 381T1109 332T908 310Q817 310 743 340T626 426T583 558Q583 637 624 698T736 802T895 866T1077 888Q1214 888 1307 860T1465 761T1583 563Q1595 535 1611 523T1642 510Q1654 510 1663 517T1677 536T1683
563Q1683 642 1657 709T1579 831T1454 924T1286 983T1077 1004Q970 1004 875 986T701 932T567 840T479 710T448 540Q448 449 482 382T577 271T717 204T887 182Q943 182 1004 196T1125 227Q1177 241 1223 252T1305 263Q1363 263 1395 230T1428 137Q1428 98 1401
64T1324 3T1208 -45Q1133 -67 1048 -78T875 -90ZM1022 542Q1041 542 1059 549T1093 570T1118 599T1127 632Q1127 664 1103 686T1017 708Q995 708 975 701T940 681T917 654T908 623Q908 598 919 580T956 552T1022 542Z" />
<glyph unicode="A" horiz-adv-x="1685" d="M1328 -40Q1249 -40 1188 -20T1079 55Q1069 67 1062 76T1048 96T1030 121T1000 158Q977 186 954 202T905 227Q895 231 883 233T857 236T828 237Q805 237 781 235T737 227Q715 221 698 210T666 184Q652 169 640 152T616
116T587 78Q553 37 496 6T332 -25Q238 -25 175 1T81 90T50 257Q50 320 63 384T100 513T151 636T209 747T266 840T313 907Q346 951 394 1001T505 1095T649 1167T827 1195Q967 1195 1095 1140T1332 977Q1378 932 1418 874T1491 750T1551 612T1597 470T1625 331T1635
205Q1635 69 1551 15T1328 -40ZM931 570Q950 581 955 597T961 645Q961 662 957 682T946 723T930 757Q917 780 899 793T862 807Q828 807 801 778T759 719Q755 710 750 698T742 671T736 644T733 619Q733 582 765 566T835 550Q854 550 871 552T904 559T931 570Z" />
<glyph unicode="B" horiz-adv-x="1401" d="M651 -80Q524 -80 428 -71T266 -34T160 50T106 200Q100 241 95 286T85 380T77 477T72 574T70 667Q70 866 131 980T322 1142T660 1190Q759 1190 861 1176T1050 1126T1190 1030T1243 873Q1243 814 1228 777T1188 719T1136
683Q1102 666 1079 654T1056 633Q1056 626 1075 619T1126 602Q1194 581 1245 540T1326 441T1356 308Q1356 244 1331 184T1260 80Q1219 42 1150 12T995 -38T821 -69T651 -80ZM671 283Q697 283 727 287T785 300T830 325T848 363Q848 376 840 385T817 401T787 412T753
418T720 420Q707 420 689 419T654 412T625 393T613 357Q613 348 615 336T624 311T642 291T671 283ZM641 752Q657 752 675 756T712 767T750 782Q773 792 787 806T801 837Q801 854 787 868T750 892T701 907T650 913Q635 913 622 911T600 902T586 887Q584 883 583
878T581 868T580 856T580 843Q580 798 593 775T641 752Z" />
<glyph unicode="C" horiz-adv-x="1309" d="M682 -75Q545 -75 430 -41T229 62T97 231T50 465Q50 629 102 762T251 989T483 1134T787 1185Q857 1185 923 1171T1042 1129T1126 1057T1157 954Q1157 866 1116 819T1000 771Q963 771 936 773T886 777T843 782T802 784Q775
784 755 770T720 728T699 663T692 578Q692 539 697 506T715 449T754 410T822 396Q840 396 863 402T914 416T972 431T1039 437Q1159 437 1203 382T1247 237Q1247 150 1201 90T1074 -6T893 -58T682 -75Z" />
<glyph unicode="D" horiz-adv-x="1498" d="M422 -37Q302 -37 232 -9T127 80T81 236Q75 283 73 338T70 457Q70 596 78 715T111 928Q150 1071 242 1151T512 1232Q664 1232 803 1192T1060 1084T1265 928T1400 745T1448 555Q1448 455 1393 366T1240 202T1013 75T733
-8T422 -37ZM678 495Q712 495 740 502T791 522T828 549T852 578T860 605Q860 619 853 635T830 666T794 693T747 712T690 720Q668 720 655 711T633 680Q629 668 627 653T625 617Q625 596 626 578T631 546Q642 495 678 495Z" />
<glyph unicode="E" horiz-adv-x="1174" d="M561 -43Q450 -43 349 -2T178 128T86 362Q82 390 79 420T74 482T71 548T70 618Q70 807 115 932T244 1129T448 1232T716 1263Q793 1263 860 1255T977 1227T1056 1174T1085 1092Q1085 1033 1053 996T973 945Q940 935 893
928T798 916T715 910Q693 909 680 905T659 893T650 876T647 857Q647 844 652 831T669 810T701 802Q725 802 745 803T783 806T821 809T863 810Q936 810 974 769T1013 655Q1013 544 959 501T833 458Q808 458 787 458T747 458T712 459T681 459Q656 459 640 453T616
436T608 413Q608 405 612 398T627 386T653 378T691 372T745 370Q772 370 803 370T864 368T918 367Q1001 367 1042 325T1083 205Q1083 124 1033 75T904 0T733 -34T561 -43Z" />
<glyph unicode="F" horiz-adv-x="1274" d="M415 -32Q355 -32 310 -13T232 41T172 123Q150 162 134 207T105 303T85 407T74 515T70 622Q70 736 92 831T157 1001T264 1130Q343 1196 451 1231T695 1267Q783 1267 876 1248T1050 1193T1179 1106T1229 990Q1229 932
1205 900T1135 853Q1094 840 1037 837T909 833Q836 833 796 815T737 769Q733 763 730 754T724 736T722 720Q722 707 727 697T743 679T768 667T800 663Q835 663 868 663T929 660T979 654T1014 642Q1037 629 1048 603T1060 540Q1060 514 1053 488T1030 438Q1005 400
970 378T880 342T740 318Q683 311 665 278T647 195Q647 179 646 164T642 135T635 109T626 85T615 63Q585 12 532 -10T415 -32Z" />
<glyph unicode="G" horiz-adv-x="1657" d="M807 -83Q646 -83 508 -43T267 80T107 291T50 597Q50 752 101 866T240 1058T443 1182T685 1249T940 1270Q1012 1270 1085 1257T1219 1215T1317 1142T1354 1036Q1354 949 1298 907T1156 864Q1111 864 1079 867T1021 874T969
882T911 885Q844 885 795 863T715 802T668 709T652 592Q652 515 683 457T776 367T932 335Q946 335 960 336T985 339T1002 347T1009 363Q1009 376 999 385T965 404T904 423Q846 438 805 480T764 610Q764 681 812 724T938 787T1100 807Q1212 807 1304 786T1462 718T1563
600T1599 425Q1599 267 1538 167T1369 13T1117 -62T807 -83Z" />
<glyph unicode="H" horiz-adv-x="1651" d="M1220 -43Q1123 -43 1081 -20T1022 53Q1018 64 1016 77T1012 105T1009 135T1007 164T1005 190Q1003 238 996 273T966 325Q941 344 918 351T851 358Q832 358 816 356T787 350T762 341T740 328Q728 320 716 309T695 283Q688
273 683 261T673 235T664 206T656 173T648 135Q636 78 608 43T529 -7T402 -23Q289 -23 222 31T120 173Q106 209 96 249T81 334T73 425T70 520Q70 576 72 631T80 741T95 846T118 945Q144 1031 185 1097T289 1200T437 1238Q534 1238 585 1208T660 1122Q665 1111 670
1095T680 1061T689 1025T698 992T706 965Q717 928 729 899T758 853Q777 834 798 826T846 817Q877 817 897 819T932 830T963 853Q981 870 994 901T1015 992Q1019 1021 1023 1046T1032 1093T1046 1136T1068 1177Q1092 1214 1138 1238T1255 1263Q1366 1263 1429 1215T1523
1083Q1538 1043 1549 997T1567 898T1577 788T1581 670Q1581 614 1578 561T1570 457T1556 360T1538 272T1516 192Q1481 83 1406 20T1220 -43Z" />
<glyph unicode="I" horiz-adv-x="794" d="M392 -24Q240 -24 165 64T90 303Q90 358 90 413T93 522T98 631T106 738T118 841T135 940Q161 1068 225 1133T427 1199Q538 1199 595 1139T670 990Q676 959 681 921T689 840T696 752T700 660T703 569T704 483Q704 302 679
191T586 28T392 -24Z" />
<glyph unicode="J" horiz-adv-x="1403" d="M613 -92Q511 -92 418 -77T248 -29T114 58Q78 93 55 136T21 227T10 322Q10 384 33 433T96 516T188 569T298 587Q347 587 385 570T443 517Q456 495 466 474T486 435Q495 419 509 412T541 405Q557 405 566 406T582 413Q590
419 599 429T614 462T621 528Q621 544 620 582T616 671T612 776T609 880T607 963Q607 1043 629 1105T720 1202T927 1238Q1027 1238 1101 1201T1225 1095Q1245 1067 1261 1035T1290 967T1311 892T1323 811T1327 725Q1327 617 1313 526T1272 359T1208 221T1125 112Q1025
7 891 -42T613 -92Z" />
<glyph unicode="K" horiz-adv-x="1670" d="M430 -22Q276 -22 201 34T97 184Q89 211 84 247T75 325T71 407T70 484Q70 592 82 704T124 917T208 1092Q262 1167 348 1202T551 1237Q656 1237 717 1177T778 1015Q778 971 778 939T780 886T783 851T787 830T791 818Q799
805 812 800T853 794Q868 794 888 806T932 848Q976 902 1034 970T1140 1080Q1206 1136 1267 1159T1416 1182Q1495 1182 1543 1151T1613 1070T1636 967Q1636 939 1630 913T1611 862T1580 814T1536 768Q1511 746 1481 726T1414 688T1335 649Q1277 622 1249 604T1221
571Q1221 556 1230 544T1270 507Q1288 493 1311 475T1359 438T1409 401T1452 367T1483 340Q1518 308 1535 273T1553 192Q1553 113 1518 65T1423 -5T1287 -27Q1223 -27 1160 -7T1046 47Q1019 65 994 90T945 144T902 200T868 248Q833 301 813 329T777 368T745 379Q727
379 720 362T712 318Q712 310 712 301T712 281T711 261T709 239T706 217Q689 98 620 38T430 -22Z" />
<glyph unicode="L" horiz-adv-x="1375" d="M419 -72Q223 -39 147 72T70 373Q70 413 73 459T82 555T96 654T113 749T131 833Q172 1003 261 1109T495 1215Q596 1215 644 1178T708 1074T723 919Q723 895 723 872T723 825T725 780T727 736T731 695T736 655Q741 627
750 604T775 562T812 534T860 520Q952 510 1032 496T1161 469Q1184 463 1217 450T1273 417Q1297 396 1309 365T1322 282Q1322 193 1279 131T1169 27T1028 -38Q964 -59 869 -71T676 -84Q627 -84 581 -84T493 -80T419 -72Z" />
<glyph unicode="M" horiz-adv-x="2095" d="M402 -48Q301 -48 247 -9T150 115Q129 156 114 204T90 305T75 413T70 526Q70 576 76 634T94 751T124 864T165 957Q216 1046 288 1092T442 1156T604 1173Q674 1173 737 1161T845 1123Q869 1110 890 1092T931 1050T965
996T994 927Q1005 896 1020 872T1058 847Q1089 847 1106 876T1137 946Q1148 977 1161 1002T1189 1047T1221 1084T1258 1116Q1303 1150 1358 1165T1515 1180Q1604 1180 1675 1156T1801 1087T1898 983Q1939 925 1967 856T2010 713T2025 563Q2025 510 2023 457T2016
353T2000 254T1972 163Q1935 69 1865 27T1680 -15Q1610 -15 1571 10T1514 70Q1509 80 1504 94T1493 125T1482 158T1474 190Q1470 210 1464 234T1451 280T1440 318Q1432 351 1417 371T1375 392Q1343 392 1325 364T1294 292Q1292 284 1288 272T1280 246T1269 217T1257
186T1243 155Q1218 104 1174 76T1048 47Q961 47 919 74T838 160Q832 169 825 185T810 222T794 267T777 316T761 365Q749 403 739 419T707 436Q685 436 673 408T654 329Q652 316 651 302T649 272T648 235T647 188Q647 160 645 140T639 102T627 70T607 38Q577 -4
524 -26T402 -48Z" />
<glyph unicode="N" horiz-adv-x="1785" d="M387 -48Q305 -48 251 -21T159 53Q140 77 126 109T102 178T86 257T77 341T72 426T70 507Q70 711 101 859T211 1087T435 1167Q520 1167 578 1147T690 1085T815 975Q884 910 948 857T1052 803Q1068 803 1078 805T1096 815T1110
836Q1113 843 1117 854T1126 880T1136 910T1147 942T1159 974T1170 1004Q1202 1082 1261 1116T1424 1151Q1507 1151 1562 1124T1652 1046T1700 921T1715 755Q1715 713 1713 667T1705 574T1693 478T1675 384T1653 293T1624 209Q1592 127 1547 75T1439 -2T1287 -27Q1218
-27 1150 4T1017 88T890 207Q848 252 820 280T774 322T742 342T714 347Q680 347 664 315T648 186Q648 169 647 153T645 122T640 94T633 70T623 48T611 30Q580 -7 523 -27T387 -48Z" />
<glyph unicode="O" horiz-adv-x="1682" d="M735 -108Q591 -108 467 -71T249 40T103 219T50 465Q50 603 90 717T205 919T382 1069T609 1161T872 1193Q1025 1193 1162 1153T1405 1034T1571 844T1632 587Q1632 428 1557 300T1354 80T1066 -59T735 -108ZM847 476Q911
476 950 498T1008 552T1026 616Q1026 646 1014 673T980 721T929 755T865 768Q834 768 805 759T752 732T714 689T700 634Q700 607 711 580T741 529T788 491T847 476Z" />
<glyph unicode="P" horiz-adv-x="1420" d="M488 -24Q418 -24 355 5T240 86T150 205Q137 228 126 255T106 312T91 375T80 442T73 513T70 585Q70 810 136 944T343 1138T705 1198Q839 1198 961 1175T1178 1099T1328 960T1383 748Q1383 654 1352 582T1264 462T1127
389T951 364Q889 364 844 376T767 388Q730 388 722 363T713 296Q713 288 713 280T713 264T714 247T715 230T715 212Q715 96 661 36T488 -24ZM767 673Q782 673 796 677T823 690T845 709T859 736T865 768Q865 786 862 799T853 822T839 838T818 847T792 850Q770 850
749 847T710 837T682 817T672 782Q672 765 675 749T686 719T704 695T731 679T767 673Z" />
<glyph unicode="Q" horiz-adv-x="1637" d="M1298 -190Q1213 -190 1138 -147Q1106 -128 1077 -102T1025 -40Q1006 -10 987 1T945 12Q918 12 883 2T800 -18T685 -28Q541 -28 425 15T224 137T95 325T50 567Q50 717 106 835T263 1037T495 1163T777 1207Q909 1207 1032
1168T1254 1055T1410 883T1468 663Q1468 611 1460 554T1431 445T1373 361Q1348 339 1348 317Q1348 303 1382 287T1481 245Q1504 236 1527 223T1570 189T1600 137T1612 61Q1612 -14 1567 -70T1449 -158T1298 -190ZM772 528Q808 528 838 543T888 584T907 643Q907
673 893 697T849 737T768 752Q738 752 713 744T669 721T640 682T630 630Q630 605 642 586T674 554T720 535T772 528Z" />
<glyph unicode="R" horiz-adv-x="1445" d="M400 -42Q291 -42 214 0T94 118Q79 146 68 183T50 263T39 352T34 443T32 528Q32 700 68 822T170 1024T327 1149T530 1214T767 1233Q875 1233 979 1206T1169 1127T1306 999T1357 828Q1357 759 1341 715T1298 643T1236
600T1165 573Q1144 567 1128 556T1111 528Q1111 516 1139 490T1209 430T1290 361T1353 295Q1363 282 1371 269T1385 243T1395 218T1401 192T1403 167Q1403 104 1362 61T1257 -5T1121 -27Q1065 -27 1018 -15T931 22T860 84T802 172Q778 219 753 258T707 322T675
347Q670 347 667 343T663 331T662 313T661 289Q661 275 661 257T661 218T659 178T655 139T649 105Q629 19 558 -11T400 -42ZM733 717Q749 717 764 721T793 735T817 758T832 791T838 833Q838 854 830 871T806 899T772 917T732 923Q706 923 690 916T664 898T647 872Q641
860 637 846T630 815T628 774Q628 756 643 743T682 724T733 717Z" />
<glyph unicode="S" horiz-adv-x="1317" d="M543 -50Q452 -50 359 -42T188 -10T63 60T15 181Q15 262 52 307T150 369T282 387Q292 387 309 387T342 387T369 386Q403 386 430 388T478 396T509 415T520 448Q520 461 510 471T480 491T435 509T377 528Q316 547 261
577T164 648T97 740T72 853Q72 937 114 1001T229 1112T391 1188T579 1231T768 1245Q839 1245 908 1238T1034 1212T1126 1159T1160 1068Q1160 997 1127 954T1040 890T926 870Q905 870 892 870T868 870T842 870Q829 870 818 868T798 862T785 851T780 833Q780 816
792 802T825 776T876 752T942 727Q993 708 1048 676T1150 597T1227 491T1256 356Q1256 250 1196 173T1034 47T805 -26T543 -50Z" />
<glyph unicode="T" horiz-adv-x="1562" d="M745 -60Q630 -60 569 -11T493 127Q489 153 485 182T478 243T473 310T469 384T466 465T465 555Q465 638 452 675T389 712Q341 712 294 705T195 698Q141 698 99 724T32 798T8 912Q8 986 61 1038T202 1125T396 1178T612
1205T813 1213Q915 1213 1018 1210T1214 1192T1379 1146T1493 1059T1535 918Q1535 842 1512 788T1444 704T1330 675Q1271 675 1251 675T1199 676Q1159 676 1139 661T1110 612T1097 517Q1094 484 1091 451T1082 384T1071 318T1057 255T1041 197T1022 145T1000 102Q967
46 936 10T861 -43T745 -60Z" />
<glyph unicode="U" horiz-adv-x="1600" d="M764 -43Q508 -43 330 84T72 423Q60 455 51 488T34 555T22 625T15 698T12 773Q12 898 46 986T159 1120T367 1167Q454 1167 511 1139T598 1050T627 894Q627 866 627 838T630 782T635 730T643 681T655 638Q670 595 696
569T763 542Q793 542 816 554T857 587T887 636Q898 662 905 691T917 753T923 818T925 884Q925 982 959 1044T1061 1137T1223 1167Q1335 1167 1395 1126T1477 1002T1500 798Q1500 756 1498 716T1490 637T1478 561T1460 489T1437 419Q1384 276 1289 173T1061 13T764
-43Z" />
<glyph unicode="V" horiz-adv-x="1785" d="M878 -27Q809 -27 743 -1T614 68T498 163Q444 215 390 274T285 396T193 527T118 664T68 804T50 943Q50 1069 144 1139T377 1209Q496 1209 581 1162T704 1003Q716 967 728 934T751 870T774 812T796 760Q823 698 848 663T897
628Q926 628 952 660T1006 757Q1012 772 1018 791T1032 832T1046 877T1063 923Q1105 1036 1163 1091T1295 1163T1455 1181Q1539 1181 1604 1150T1706 1066T1743 948Q1743 892 1721 826T1660 689T1572 546T1470 407T1364 280T1265 175Q1198 108 1137 63T1013 -4T878
-27Z" />
<glyph unicode="W" horiz-adv-x="2241" d="M546 12Q453 12 378 43T248 130T155 260Q132 307 115 359T85 469T65 587T54 709T50 833Q50 895 59 963T97 1093T185 1192T345 1230Q500 1230 564 1177T643 1038Q646 1021 649 998T654 947T660 891T665 835T671 782Q676
743 685 718T723 693Q749 693 765 726T791 808Q797 836 803 867T817 929T831 988T846 1040Q870 1117 935 1162T1113 1207Q1178 1207 1225 1191T1307 1142T1362 1060Q1370 1042 1378 1020T1393 972T1406 921T1419 868T1430 816Q1441 759 1456 728T1508 697Q1540
697 1551 729T1570 810Q1573 828 1576 849T1583 893T1592 939T1602 983T1612 1022Q1625 1063 1655 1101T1746 1164T1913 1189Q1993 1189 2046 1164T2132 1094T2177 992T2191 870Q2191 800 2185 729T2165 587T2131 451T2082 325T2017 214Q1952 123 1839 68T1603
13Q1473 13 1381 42T1232 140Q1221 154 1211 169T1193 202T1178 239T1165 280T1155 324Q1147 371 1134 405T1095 440Q1068 440 1053 408T1026 325Q1013 271 994 228T946 151Q904 100 846 70T713 26T546 12Z" />
<glyph unicode="X" horiz-adv-x="1567" d="M289 -63Q207 -63 145 -33T47 55T12 191Q12 274 37 330T112 433Q130 451 151 464T198 489T251 509T311 528Q372 545 402 562T433 608Q433 632 412 644T339 669Q311 677 284 685T231 703T177 726T121 758Q71 790 41 845T10
976Q10 1079 55 1140T165 1227T293 1254Q378 1254 434 1233T550 1153Q587 1117 614 1080T663 1006T702 933Q722 890 736 873T778 855Q804 855 818 875T841 912Q851 932 864 957T894 1011T928 1068T968 1123Q1018 1186 1091 1218T1245 1251Q1387 1251 1445 1187T1504
1021Q1504 969 1478 910T1393 792Q1361 760 1328 734T1262 688T1199 653Q1148 628 1130 614T1112 583Q1112 570 1130 557T1174 536Q1255 509 1313 482T1414 420T1495 337Q1518 308 1529 269T1540 195Q1540 127 1496 74T1385 -10T1245 -41Q1163 -41 1108 -22T1017
29Q1000 44 983 65T950 109T920 155T893 199Q865 249 843 263T793 277Q766 277 740 257T672 172Q660 153 644 130T608 83T568 38T525 1Q489 -24 437 -43T289 -63Z" />
<glyph unicode="Y" horiz-adv-x="1557" d="M762 -20Q641 -20 586 22T508 152Q504 170 501 189T494 230T489 276T484 325Q477 405 465 467T413 552Q363 581 317 599T227 640Q172 667 133 696T68 758T31 830T19 918Q19 1005 60 1066T172 1161T327 1194Q392 1194
443 1174T539 1098Q562 1070 587 1041T637 986Q660 964 684 947T734 921T789 912Q821 912 849 930T903 976Q934 1008 962 1044T1020 1103Q1066 1139 1114 1159T1220 1179Q1304 1179 1372 1137T1480 1026T1520 877Q1520 856 1518 833T1507 784T1484 734T1442 683Q1380
622 1325 589T1195 520Q1149 499 1123 485T1081 458T1050 422Q1044 412 1038 391T1025 340T1012 273T1000 193Q987 96 925 38T762 -20Z" />
<glyph unicode="Z" horiz-adv-x="1363" d="M573 -69Q440 -69 317 -48T113 22Q61 54 35 97T8 193Q8 255 35 309T118 407Q153 435 197 466T290 529T387 592T479 651T557 703Q598 731 618 748T638 778Q638 794 618 799T557 805Q532 805 501 800T435 789T365 777T297
772Q203 772 141 788T48 843T17 945Q17 1031 70 1086T214 1174T415 1219T643 1232Q766 1232 862 1223T1028 1197T1140 1152Q1204 1112 1236 1064T1268 957Q1268 901 1240 852T1168 760T1080 678Q1058 659 1036 641T992 604T948 567T904 530T860 493Q810 452 789
432T768 403Q768 397 772 393T788 387T822 385Q844 385 886 391T976 402T1061 408Q1116 408 1164 393T1242 339T1273 229Q1273 170 1232 123T1120 39T959 -21T769 -57T573 -69Z" />
<glyph unicode="[" horiz-adv-x="900" d="M520 -452Q387 -452 284 -410T125 -281Q89 -226 66 -166T30 -23T11 181T5 481Q5 650 14 758T40 932T77 1038T122 1112Q164 1172 230 1206T390 1255T610 1270Q693 1270 758 1259T862 1221T900 1142Q900 1062 858 1028T735
993Q647 993 598 986T524 955T482 883Q466 838 449 728T431 467Q431 401 434 332T442 196T454 75T468 -18Q483 -92 521 -128T642 -178Q694 -186 732 -195T792 -223T813 -280Q813 -337 791 -375T707 -432T520 -452Z" />
<glyph unicode="\" horiz-adv-x="1128" d="M855 -18Q841 -18 826 -15T794 -4T762 14T728 36T693 64T657 97Q592 159 527 240T403 404T299 555Q253 624 214 700T145 853T99 996T82 1111Q82 1176 118 1211T222 1247Q248 1247 271 1243T314 1230T353 1210T389 1181T424
1144T458 1100Q536 991 615 874T767 641T895 422T983 238Q999 198 1007 166T1015 109Q1015 70 997 42T944 -2T855 -18Z" />
<glyph unicode="]" horiz-adv-x="935" d="M500 -460Q362 -460 274 -443T142 -389T99 -290Q99 -237 128 -208T207 -161T320 -132Q389 -118 422 -91T468 -18T490 98Q493 119 495 145T499 200T502 262T504 328T505 397Q505 521 493 618T467 780Q448 870 404 910T269
975Q206 993 164 1009T100 1052T79 1126Q79 1188 122 1222T231 1269T367 1283Q506 1283 597 1251T744 1166Q799 1116 827 1011T867 768T878 479Q878 414 877 350T875 225T870 106T863 -3T853 -98Q835 -244 790 -322T672 -430T500 -460Z" />
<glyph unicode="^" horiz-adv-x="1015" d="M135 675Q77 675 45 711T12 807Q12 845 24 890T58 984T112 1080Q155 1144 214 1198T342 1286T480 1320Q538 1320 591 1297T693 1237Q747 1197 801 1142T899 1026T971 905T998 793Q998 732 952 706T853 680Q828 680 805
688T761 710T722 741T688 777Q658 814 634 860T587 950T540 1022T485 1050Q460 1050 436 1021T389 947T342 859T295 783Q276 758 249 733T192 692T135 675Z" />
<glyph unicode="_" horiz-adv-x="1416" d="M725 -357Q508 -357 369 -351T153 -329T45 -287T15 -217Q15 -170 41 -139T140 -90T354 -63T724 -55Q984 -55 1131 -67T1340 -114T1401 -213Q1401 -276 1342 -306T1136 -347T725 -357Z" />
<glyph unicode="`" horiz-adv-x="660" d="M494 892Q429 892 353 909T209 958Q130 995 76 1046T21 1157Q21 1217 53 1243T144 1270Q195 1270 260 1248T389 1190Q472 1144 533 1085T594 972Q594 929 565 911T494 892Z" />
<glyph unicode="a" horiz-adv-x="1433" d="M569 -146Q481 -146 393 -131T233 -78T118 24T74 184Q74 271 119 330T241 425T415 477T618 493Q640 493 661 492T699 489T726 487Q746 487 754 494T762 518Q762 524 761 528T756 537T748 545Q735 555 711 560T656 566Q614
566 562 558T452 540T329 531Q211 531 145 570T78 691Q78 766 124 819T248 905T420 953T608 968Q808 968 947 931T1160 798T1234 527Q1234 496 1232 473T1227 432T1222 400T1220 370Q1220 340 1241 310T1291 245T1341 169T1363 76Q1363 -1 1314 -38T1198 -76Q1150
-76 1122 -55T1074 -12T1034 10Q1018 10 997 -1T948 -30Q915 -51 864 -78T741 -126T569 -146ZM607 162Q628 162 649 167T690 181T720 205T732 237Q732 256 721 266T693 282T659 287Q631 287 601 281T551 258T530 213Q530 194 542 183T571 167T607 162Z" />
<glyph unicode="b" horiz-adv-x="1479" d="M666 -56Q468 -56 326 -9T108 148T32 443Q32 532 41 614T66 771T107 911T160 1032T223 1131Q280 1205 355 1246T521 1287Q626 1287 684 1236T742 1099Q742 1078 741 1058T739 1017T737 979T734 945T733 915Q733 845 736
819T759 793Q779 793 810 801T878 821Q900 828 928 831T979 834Q1107 834 1197 782T1336 636T1384 417Q1384 285 1326 195T1166 49T936 -31T666 -56ZM722 260Q745 260 766 270T805 298T832 337T843 380Q843 418 823 446T771 491T708 508Q678 508 656 492T622 449T610
385Q610 344 620 316T655 274T722 260Z" />
<glyph unicode="c" horiz-adv-x="1280" d="M692 -83Q561 -83 443 -55T232 36T86 204T33 461Q33 616 77 730T207 921T419 1035T708 1073Q841 1073 923 1044T1044 966T1083 859Q1083 813 1060 776T999 717T922 695Q889 695 863 701T805 713T728 719Q694 719 666
708T617 676T585 626T573 560Q573 499 590 463T641 410T728 394Q760 394 797 399T873 411T943 423T995 428Q1065 428 1105 396T1163 317T1180 225Q1180 139 1141 80T1033 -15T877 -67T692 -83Z" />
<glyph unicode="d" horiz-adv-x="1363" d="M559 -63Q404 -63 285 -22T100 112T33 360Q33 504 80 600T223 743T462 791Q522 791 561 778T625 753Q636 748 644 745T658 741Q674 741 674 761Q674 770 672 794T665 852T657 920T650 988T647 1043Q647 1290 909 1290Q998
1290 1075 1262T1201 1169Q1221 1142 1236 1111T1263 1046T1281 972T1291 890T1294 800Q1294 501 1227 310T999 28T559 -63ZM576 243Q618 243 649 259T698 302T716 360Q716 392 705 414T674 448T628 460Q592 460 559 441T505 391T483 323Q483 298 495 280T528 253T576
243Z" />
<glyph unicode="e" horiz-adv-x="1260" d="M628 -93Q450 -93 313 -38T98 131T20 415Q20 556 69 663T206 844T408 955T653 993Q741 993 829 980T990 934T1107 845T1151 705Q1151 649 1136 608T1092 536T1027 484T945 444Q901 426 834 410T697 384T576 374Q545 374
532 368T519 344Q519 334 523 326T537 313Q548 306 565 304T605 301Q656 301 721 320T861 358T1021 377Q1111 377 1165 344T1220 213Q1220 131 1170 73T1036 -22T845 -76T628 -93ZM587 578Q610 578 640 587T694 615T717 660Q717 694 690 701T634 709Q614 709 594
703T556 685T529 658T518 626Q518 606 527 596T553 582T587 578Z" />
<glyph unicode="f" horiz-adv-x="1160" d="M633 -51Q525 -51 468 -24T382 63Q374 81 368 101T356 145T348 196T341 253T336 316Q333 354 315 366T270 379Q257 379 244 377T216 372Q200 368 183 366T148 363Q107 363 79 382T36 434T21 504Q21 546 47 585T134 653Q155
663 180 672T236 691T299 706Q316 709 320 722T324 757Q324 779 318 808T306 872T299 949Q299 1060 359 1133T521 1242T746 1278Q800 1278 857 1271T964 1245T1043 1194T1074 1113Q1074 1083 1061 1056T1015 1010Q996 999 970 992T908 983Q852 981 825 956T798
898Q798 895 798 892T798 886T800 879Q805 861 814 852T841 842Q854 842 871 846T910 860Q921 865 931 867T952 871T972 873Q1025 873 1055 835T1085 741Q1085 688 1072 650T1031 582Q1013 563 988 548T930 519Q881 498 862 459T842 366Q842 331 842 298T841 233T837
174T830 120T817 71Q798 14 756 -18T633 -51Z" />
<glyph unicode="g" horiz-adv-x="1443" d="M548 -466Q379 -466 281 -447T134 -396T72 -323T58 -239Q58 -185 95 -150T196 -96T338 -78Q383 -78 433 -77T530 -72T615 -63T678 -51Q688 -48 695 -44T707 -34T714 -24T717 -12Q717 -7 715 -2T709 6T698 10Q686 10 668
8T627 4T575 0T516 -2Q357 -2 248 46T83 194T27 449Q27 575 85 670T240 829T456 925T700 957Q835 957 951 918T1156 801T1293 610T1342 345Q1342 159 1293 9T1146 -247T898 -409T548 -466ZM683 339Q718 339 743 347T785 370T809 408T817 458Q817 497 803 523T761
562T695 575Q666 575 641 566T595 539T564 499T553 447Q553 419 568 394T612 354T683 339Z" />
<glyph unicode="h" horiz-adv-x="1462" d="M267 -50Q185 -50 140 -18T69 71Q59 92 51 125T37 201T27 292T23 390Q23 465 30 541T53 690T93 833T150 966T225 1084Q286 1163 366 1207T548 1252Q652 1252 715 1193T778 1035Q778 1007 772 979T758 924T741 873T727
831T721 801Q721 786 735 786Q752 786 771 795T816 816T881 837T977 846Q1091 846 1168 809T1291 707T1358 558T1378 380Q1378 337 1375 297T1365 223T1349 159T1327 108Q1290 41 1224 7T1057 -28Q975 -28 930 0T860 82Q851 103 844 127T832 180T822 240T813 306Q809
338 804 361T789 398T765 420T727 428Q708 428 693 423T666 407T644 378T624 334Q610 294 599 263T576 205T552 150T522 88Q487 22 423 -14T267 -50Z" />
<glyph unicode="i" horiz-adv-x="838" d="M308 -45Q196 -45 136 -7T52 103T29 276Q29 306 30 335T34 391T41 443T51 493T64 539T80 582Q125 686 213 742T440 798Q569 798 630 708T692 465Q692 425 690 387T682 315T670 248T651 187T627 132T597 84Q551 22 480
-11T308 -45ZM405 867Q260 867 194 914T128 1023Q128 1104 186 1161T331 1249T509 1280Q575 1280 631 1260T723 1196T758 1082Q758 1002 709 955T580 888T405 867Z" />
<glyph unicode="j" horiz-adv-x="852" d="M42 -468Q-35 -468 -104 -454T-216 -402T-260 -297Q-260 -223 -218 -182T-113 -121Q-72 -108 -26 -103T63 -98Q113 -98 131 -52T150 74Q150 105 148 140T142 213T134 288T127 360T121 424T118 474Q118 644 201 723T428
803Q539 803 603 764T696 653T734 486T742 278Q742 266 742 254T742 230T742 204T742 179T742 153Q742 -76 655 -212T410 -408T42 -468ZM487 898Q430 898 367 905T249 932T160 987T125 1080Q125 1146 161 1186T260 1244T407 1263Q460 1263 520 1252T635 1216T723
1152T758 1058Q758 1001 720 966T619 914T487 898Z" />
<glyph unicode="k" horiz-adv-x="1405" d="M295 -53Q201 -53 151 -10T81 111T62 292Q62 337 66 390T77 504T94 625Q105 693 119 760T150 888T186 1000T225 1088Q269 1166 329 1215T473 1265Q585 1265 622 1194T660 1008Q660 983 659 959T656 910T652 863T647 818T644
774T643 731Q643 698 647 674T663 650Q677 650 692 661T724 693Q734 706 746 721T773 752T804 785T839 816T877 845Q913 869 960 881T1054 894Q1140 894 1194 851T1249 731Q1249 683 1221 632T1130 540Q1101 521 1079 505T1041 477Q1010 452 1010 435Q1010 424
1020 415T1046 398Q1065 389 1091 376T1146 345T1203 308T1254 265Q1279 240 1294 212T1310 149Q1310 97 1281 51T1201 -23T1088 -52Q1032 -52 988 -32T903 26Q874 53 845 85T785 153T718 227Q696 251 675 268T631 286Q606 286 593 272T574 238Q557 186 540 144T503
68Q467 7 420 -23T295 -53Z" />
<glyph unicode="l" horiz-adv-x="1068" d="M573 -59Q440 -59 350 -22T205 86T121 259Q108 305 98 361T80 479T67 597T59 702T56 779Q56 928 77 1036T160 1202T340 1260Q483 1260 537 1181T591 931Q591 910 590 877T588 802T585 715T582 625T579 540T578 469Q578
429 584 396T602 338T633 300T677 286Q706 286 737 298T801 323T868 336Q915 336 943 301T971 207Q971 143 932 93T830 10T700 -41T573 -59Z" />
<glyph unicode="m" horiz-adv-x="1825" d="M252 -35Q165 -35 115 7T43 122T21 285Q21 317 23 352T32 422T47 493T69 563T100 630Q177 773 282 839T531 906Q619 906 676 878T767 807T820 718Q837 676 859 646T916 615Q953 615 976 631T1027 698Q1052 744 1092 786T1198
856T1362 884Q1510 884 1598 819T1725 635T1764 359Q1764 320 1762 284T1756 216T1745 154T1728 100Q1700 33 1648 -4T1506 -42Q1423 -42 1369 -7T1286 85Q1280 97 1275 109T1266 135T1259 162T1253 190T1248 220Q1243 263 1235 289T1216 326T1194 338Q1178 338
1163 318T1136 266T1112 203Q1081 116 1035 82T893 47Q795 47 747 92T682 197Q668 246 658 275T636 318T609 331Q596 331 580 320T550 286Q540 269 530 248T512 204T497 155Q472 48 420 7T252 -35Z" />
<glyph unicode="n" horiz-adv-x="1520" d="M295 -22Q201 -22 138 8T43 109Q34 129 29 153T20 205T17 264Q17 475 106 624T351 853T708 933Q911 933 1072 855T1328 632T1422 285Q1422 255 1418 228T1407 175T1388 127Q1354 57 1289 18T1138 -22Q1032 -22 974 4T889
80T852 198Q845 242 839 278T825 344T812 395T798 435Q782 472 764 485T720 499Q701 499 684 486T651 437Q643 419 635 395T620 338T605 265T590 174Q579 97 536 55T431 -5T295 -22Z" />
<glyph unicode="o" horiz-adv-x="1483" d="M712 -62Q582 -62 461 -35T243 51T90 203T33 428Q33 573 86 686T234 877T454 996T723 1037Q866 1037 987 1002T1199 897T1338 723T1388 478Q1388 361 1331 263T1178 92T961 -21T712 -62ZM684 414Q720 414 746 424T790
453T817 495T826 543Q826 570 814 590T782 623T738 642T687 649Q650 649 620 635T573 595T555 533Q555 499 572 472T618 430T684 414Z" />
<glyph unicode="p" horiz-adv-x="1452" d="M320 -473Q262 -473 215 -449T133 -382T74 -282Q62 -254 53 -224T37 -160T26 -92T19 -21T16 52Q16 299 98 491T341 794T733 905Q862 905 976 872T1177 772T1313 608T1362 382Q1362 270 1323 189T1212 54T1045 -24T836
-50Q778 -50 739 -42T676 -25T634 -17Q615 -17 602 -31T581 -67Q573 -88 568 -113T558 -167T550 -224T545 -280Q535 -395 476 -434T320 -473ZM734 319Q789 319 827 336T886 381T906 438Q906 465 889 491T836 535T747 553Q721 553 697 547T655 527T625 492T614 441Q614
408 627 380T667 336T734 319Z" />
<glyph unicode="q" horiz-adv-x="1460" d="M1089 -460Q1016 -460 961 -428T872 -355Q850 -328 835 -295T810 -225T797 -148Q793 -106 786 -73T760 -40Q741 -40 700 -44T585 -48Q490 -48 390 -26T204 49T65 186T12 398Q12 553 68 667T225 857T464 969T763 1007Q928
1007 1065 941T1285 759T1367 488Q1367 345 1339 258T1251 108Q1217 71 1200 43T1183 -11Q1183 -24 1195 -40T1229 -80Q1251 -104 1272 -128T1317 -182Q1331 -200 1338 -221T1345 -267Q1345 -332 1306 -375T1208 -439T1089 -460ZM717 372Q754 372 786 386T838 427T858
490Q858 521 848 543T822 580T784 600T738 607Q709 607 682 599T634 573T601 532T588 478Q588 451 599 431T628 398T670 379T717 372Z" />
<glyph unicode="r" horiz-adv-x="1261" d="M450 -47Q388 -47 341 -33T258 6T194 67Q165 104 143 149T107 246T85 354T77 467Q77 637 158 757T380 942T703 1007Q796 1007 886 991T1050 941T1167 854T1211 725Q1211 651 1182 610T1106 554T1009 538Q940 538 890
551T782 564Q739 564 707 542T675 458Q675 432 677 407T684 357T692 307T698 258T701 209Q701 82 642 18T450 -47Z" />
<glyph unicode="s" horiz-adv-x="1192" d="M567 -43Q477 -43 407 -38T281 -21T179 7Q109 33 64 70T18 182Q18 264 64 313T200 363Q246 363 289 354T381 335T492 325Q526 325 549 327T584 336T596 356Q596 371 585 379T537 396T428 415Q315 433 233 471T107 571T62
723Q62 807 111 865T244 958T432 1010T648 1027Q726 1027 806 1018T953 987T1062 932T1103 846Q1103 778 1072 737T993 679T896 661Q835 661 783 672T704 683Q688 683 678 681T663 675T658 662Q658 649 690 642T807 620Q893 607 966 572T1085 472T1130 309Q1130
222 1090 157T976 47T799 -20T567 -43Z" />
<glyph unicode="t" horiz-adv-x="1298" d="M771 -27Q665 -27 575 0T431 85T376 238Q376 258 377 279T379 320T381 360T383 396T384 428Q384 472 357 484T288 501Q267 503 248 505T208 510T161 516Q100 524 63 572T25 706Q25 767 47 799T105 846T183 872Q221 881
255 889T315 905Q341 912 360 925T385 971Q389 994 393 1014T402 1052T413 1085Q438 1150 481 1176T616 1202Q687 1202 729 1188T796 1142T835 1057Q841 1038 845 1024T852 995T858 966T864 931Q869 900 893 882T947 858Q972 853 990 850T1027 844T1070 837Q1127
829 1177 794T1228 672Q1228 598 1187 551T1085 497Q1051 493 1016 489T955 481Q935 478 913 466T886 421Q885 411 884 401T882 381T880 361T879 341T879 320Q879 298 893 284T955 269Q978 269 997 277T1037 294T1084 302Q1134 302 1155 276T1176 198Q1176 141
1139 99T1041 29T910 -13T771 -27Z" />
<glyph unicode="u" horiz-adv-x="1540" d="M750 -78Q582 -78 448 -42T218 69T73 260T22 535Q22 579 27 620T44 698T72 767Q113 847 186 893T363 940Q465 940 515 910T583 836T603 751Q605 725 606 702T610 657T614 616T620 578Q632 512 650 473T697 417T766 399Q792
399 817 412T864 458T900 550Q907 578 910 604T916 656T924 707T938 757Q964 825 1024 869T1197 913Q1296 913 1349 864T1427 732Q1434 707 1439 679T1446 621T1450 558T1452 493Q1452 285 1361 160T1112 -22T750 -78Z" />
<glyph unicode="v" horiz-adv-x="1622" d="M812 -68Q730 -68 635 -25T446 90Q401 124 358 163T274 245T198 333T133 424T80 515Q54 568 40 618T25 713Q25 780 61 831T159 911T294 940Q392 940 460 907T577 813Q595 791 610 767T640 715T669 659T696 598T723 534Q737
500 753 480T788 459Q806 459 826 480T862 539Q893 610 924 672T994 782Q1042 841 1106 875T1265 909Q1378 909 1450 854T1522 688Q1522 637 1507 581T1462 467Q1442 426 1416 385T1360 303T1297 224T1227 151T1153 85Q1068 16 980 -26T812 -68Z" />
<glyph unicode="w" horiz-adv-x="1998" d="M485 -15Q361 -15 275 38T130 174Q106 207 88 244T56 323T34 407T21 495T17 587Q17 692 48 777T143 914T301 965Q393 965 436 928T505 838Q513 823 519 808T530 777T541 746T550 716T557 689Q565 656 581 630T625 604Q647
604 661 630T685 691Q689 706 694 722T705 756T720 790T738 823Q766 869 816 902T967 935Q1056 935 1103 911T1176 848Q1185 835 1192 821T1206 791T1218 762T1227 733T1235 705Q1245 670 1256 642T1290 614Q1319 614 1332 642T1357 707Q1362 724 1368 742T1381
779T1398 817T1418 854Q1447 901 1497 934T1634 968Q1695 968 1752 948T1854 882T1926 760T1953 571Q1953 524 1949 481T1935 397T1913 322T1884 254T1848 194T1806 142Q1736 66 1639 27T1421 -12Q1308 -12 1221 37T1094 151Q1081 172 1072 191T1057 227T1047 259T1041
287Q1034 328 1021 355T977 382Q942 382 928 349T905 281Q903 271 900 259T892 235T883 209T870 181T854 151Q814 85 713 35T485 -15Z" />
<glyph unicode="x" horiz-adv-x="1515" d="M316 -94Q247 -94 185 -75T83 -8T44 125Q44 171 56 209T93 279Q118 312 153 337T233 381T327 410Q364 418 401 428T464 451T490 478Q490 492 460 502T386 520T295 532Q237 538 188 556T102 604Q62 637 40 684T18 793Q18
858 55 912T156 999T301 1032Q351 1032 396 1020T481 985Q537 954 583 906T663 799Q690 753 713 721T752 689Q761 689 773 702T800 739T833 790Q862 837 900 875T985 939Q1033 967 1087 981T1202 996Q1315 996 1381 937T1447 774Q1447 702 1419 650T1341 565Q1310
545 1273 533T1192 516Q1143 511 1108 506T1055 496T1037 483Q1037 473 1093 460T1237 433Q1269 428 1296 420T1347 399T1389 370Q1425 339 1443 294T1462 189Q1462 125 1435 81T1363 9T1265 -30T1162 -42Q1104 -42 1051 -24T951 33Q920 59 893 94T841 175Q830
197 809 229T760 262Q742 262 725 248T689 203T647 118Q633 84 614 54T570 0T514 -44Q474 -68 425 -81T316 -94Z" />
<glyph unicode="y" horiz-adv-x="1523" d="M393 -450Q296 -450 235 -398T174 -269Q174 -192 217 -142T344 -64Q384 -51 433 -34T526 5T599 52T628 107Q628 132 594 156T463 211Q390 234 325 263T207 327T114 406T54 502T32 615Q32 690 67 751T165 849T309 885Q422
885 499 846T632 724Q668 670 685 623T726 542Q743 520 763 506T802 492Q831 492 854 513T887 566Q901 608 926 672T979 774Q1018 828 1078 863T1228 898Q1376 898 1434 827T1493 639Q1493 589 1475 528T1425 400T1354 266T1271 137T1187 23Q1106 -79 1017 -165T829
-316T622 -415T393 -450Z" />
<glyph unicode="z" horiz-adv-x="1212" d="M639 -58Q525 -58 397 -48T170 -4Q88 24 45 78T2 220Q2 259 16 308T71 410T187 506Q219 524 248 539T305 568T359 593T412 614T463 632Q525 652 538 666T552 692Q552 704 533 707T482 711Q451 711 417 709T348 702T279
696T215 693Q170 693 133 709T74 756T52 833Q52 891 97 930T215 994T369 1031T525 1050Q561 1053 601 1055T684 1059T767 1062T843 1063Q1014 1063 1082 1005T1151 849Q1151 777 1111 709T976 584Q932 558 886 532T797 484T717 444T655 415Q623 402 613 391T602
365Q602 351 614 344T650 335T708 332Q760 332 822 337T973 343Q1059 343 1105 301T1152 188Q1152 121 1108 74T990 -2T825 -44T639 -58Z" />
<glyph unicode="{" horiz-adv-x="823" d="M653 -424Q621 -424 588 -421T524 -410T466 -393Q405 -370 362 -328T295 -233T264 -124Q260 -88 255 -43T241 48T222 135T194 203Q171 242 145 262T95 296T56 328T41 381Q41 415 56 437T95 478T139 514T173 556Q181 573
184 604T187 659Q187 681 186 710T183 770T180 831T179 885Q179 999 219 1071T333 1205Q381 1246 443 1266T566 1292T673 1298Q739 1298 781 1268T823 1172Q823 1128 799 1104T742 1063T680 1021T639 951Q634 931 632 912T628 875T627 836Q627 818 627 784T628
713T629 650Q629 598 616 568T581 520T536 488Q504 469 489 454T474 421Q474 405 482 395T527 371Q580 350 618 307T657 190Q657 155 656 128T652 75T648 25T646 -31Q646 -99 661 -138T717 -198Q747 -213 770 -235T794 -292Q794 -357 758 -390T653 -424Z" />
<glyph unicode="|" horiz-adv-x="577" d="M223 -435Q161 -435 123 -395T64 -288T36 -144T28 8Q28 60 30 140T35 317T42 511T50 699T59 855T68 953Q82 1055 112 1138T191 1271T307 1320Q368 1320 402 1281T451 1176T469 1028T473 858Q473 818 472 759T469 627T465
477T460 321T454 172T448 44T443 -50Q438 -137 413 -226T342 -375T223 -435Z" />
<glyph unicode="}" horiz-adv-x="843" d="M233 -420Q194 -420 154 -407T86 -365T58 -285Q58 -253 84 -231T144 -188Q206 -149 229 -119T252 -23Q252 11 249 49T241 126T237 198Q237 271 266 314T335 381T403 423T433 460Q433 475 412 485T364 512T316 558T295
643Q295 672 301 706T313 778T319 855Q319 928 291 965T203 1018Q145 1033 104 1064T62 1168Q62 1231 112 1255T217 1280Q309 1280 366 1266T490 1220Q548 1192 596 1135T675 1007T705 867Q705 843 702 818T695 766T688 712T685 655Q685 622 701 605T738 573T776
538T792 478Q792 438 771 414T721 365T670 306T648 210Q648 170 650 133T655 67T658 24Q658 -53 628 -135T539 -280Q478 -346 395 -383T233 -420Z" />
<glyph unicode="~" horiz-adv-x="1022" d="M264 927Q236 927 217 942T198 998Q198 1052 224 1098T295 1172T395 1200Q439 1200 467 1183T517 1144T556 1104T595 1087Q618 1087 633 1100T666 1148Q680 1174 696 1186T740 1198Q763 1198 782 1183T801 1121Q801 1074
773 1031T700 960T607 933Q566 933 537 949T485 985T444 1022T407 1038Q389 1038 373 1025T344 985Q327 947 307 937T264 927Z" />
<glyph unicode="&#xa0;" horiz-adv-x="717" />
<glyph unicode="&#xa1;" horiz-adv-x="557" d="M247 531Q295 531 331 520T394 484T437 421T464 330T480 209T486 55T488 -133Q488 -179 486 -219T479 -293T464 -355T436 -405T394 -441T333 -463T250 -471Q202 -471 168 -460T109 -427T69 -378T45 -315T33 -243T28
-164T27 -84Q27 5 32 81T48 219T73 332T106 419T147 481T194 518T247 531ZM267 926Q313 926 360 916T440 877T473 794Q473 742 443 704T365 646T265 626Q224 626 180 639T107 682T77 757Q77 817 104 854T176 909T267 926Z" />
<glyph unicode="&#xa2;" horiz-adv-x="997" d="M558 871Q497 871 461 889T407 940T390 1014Q390 1077 401 1123T433 1200T488 1245T565 1260Q599 1260 626 1250T671 1214T700 1144T710 1034Q710 984 697 947T650 891T558 871ZM555 -66Q515 -66 484 -54T430 -16T397
47T385 135Q385 185 394 224T425 293T480 337T565 352Q603 352 632 339T683 301T716 244T727 169Q727 109 716 65T684 -8T630 -52T555 -66ZM581 96Q440 96 318 137T122 275T47 537Q47 662 82 755T188 910T360 1002T594 1033Q702 1033 769 1009T867 946T898 859Q898
822 879 792T830 744T767 726Q741 726 720 731T673 741T610 746Q574 746 546 730T501 685T484 617Q484 568 498 538T540 495T610 482Q636 482 666 486T727 496T784 506T826 510Q883 510 916 484T962 420T976 345Q976 275 944 228T857 151T731 109T581 96Z" />
<glyph unicode="&#xa3;" horiz-adv-x="1185" d="M408 473Q336 473 264 478T131 498T33 538T-4 604Q-4 672 51 703T210 742T457 751Q555 751 644 749T803 733T913 690T954 604Q954 557 909 531T787 492T612 476T408 473ZM190 -72Q113 -72 71 -27T28 75Q28 138 51
174T105 240T158 307T182 415Q182 445 183 481T186 557T191 643T197 738Q207 883 258 1002T419 1192T716 1263Q809 1263 885 1245T1015 1189T1099 1094T1129 957Q1129 898 1092 876T1004 853Q960 853 928 868T868 905T809 941T734 957Q695 957 672 926T638 842T628
727Q628 686 628 648T626 574T624 509T620 452T614 406Q610 376 603 356T591 321T585 294Q585 269 609 269Q625 269 648 273T697 282T745 286Q795 286 837 283T913 276T968 269Q1050 258 1091 224T1132 120Q1132 38 1085 1T982 -36Q925 -36 867 -32T731 -23T536
-19Q469 -19 414 -32T306 -58T190 -72Z" />
<glyph unicode="&#xa4;" horiz-adv-x="1200" d="M622 135Q520 135 425 160T255 236T135 364T90 544Q90 658 131 740T247 875T420 954T630 980Q742 980 837 953T1002 870T1112 733T1151 542Q1151 451 1107 376T987 247T817 164T622 135ZM186 40Q143 40 109 74T75
153Q75 188 96 226T160 308Q204 352 246 377T326 402Q370 402 405 370T441 290Q441 256 423 219T369 147Q315 93 270 67T186 40ZM268 703Q239 703 209 722T146 773Q87 832 61 874T35 948Q35 986 68 1016T142 1046Q181 1046 228 1018T333 932Q358 907 371 881T385
828Q385 799 367 770T323 722T268 703ZM1061 7Q1023 7 978 33T878 114Q843 149 825 186T806 257Q806 304 841 336T921 369Q959 369 1001 344T1087 275Q1130 232 1151 194T1172 120Q1172 76 1139 42T1061 7ZM600 482Q628 482 648 490T683 513T704 545T711 583Q711
611 695 629T654 657T602 666Q580 666 562 660T529 642T507 613T499 575Q499 549 512 528T549 494T600 482ZM898 753Q871 753 844 772T799 820T781 878Q781 905 794 931T833 982Q890 1039 937 1067T1024 1096Q1064 1096 1097 1066T1131 998Q1131 967 1105 925T1020
823Q988 791 958 772T898 753Z" />
<glyph unicode="&#xa5;" horiz-adv-x="1557" d="M660 183Q568 183 474 187T302 201T177 229T129 276Q129 312 169 333T287 364T474 378T723 381Q850 381 965 379T1170 368T1312 337T1364 276Q1364 243 1306 224T1149 196T923 185T660 183ZM663 412Q567 412 469
416T289 430T158 458T108 505Q108 541 150 562T273 593T469 607T729 610Q861 610 981 608T1196 597T1344 566T1399 505Q1399 472 1339 453T1174 425T938 414T663 412ZM762 -20Q641 -20 586 22T508 152Q504 170 501 189T494 230T489 276T484 325Q477 405 465 467T413
552Q363 581 317 599T227 640Q172 667 133 696T68 758T31 830T19 918Q19 1005 60 1066T172 1161T327 1194Q392 1194 443 1174T539 1098Q562 1070 587 1041T637 986Q660 964 684 947T734 921T789 912Q821 912 849 930T903 976Q934 1008 962 1044T1020 1103Q1066
1139 1114 1159T1220 1179Q1304 1179 1372 1137T1480 1026T1520 877Q1520 856 1518 833T1507 784T1484 734T1442 683Q1380 622 1325 589T1195 520Q1149 499 1123 485T1081 458T1050 422Q1044 412 1038 391T1025 340T1012 273T1000 193Q987 96 925 38T762 -20Z"
/>
<glyph unicode="&#xa6;" horiz-adv-x="577" d="M243 521Q160 521 118 559T62 649T48 745Q48 772 49 814T52 903T57 996T64 1077T73 1129Q87 1174 115 1218T189 1291T302 1320Q392 1320 435 1257T478 1117Q478 1093 478 1053T476 964T473 868T469 781T463 719Q458
681 433 635T362 555T243 521ZM243 -444Q181 -444 142 -416T82 -345T53 -258T45 -180Q45 -146 45 -102T47 -11T49 79T53 154Q59 240 120 297T282 355Q372 355 415 295T458 142Q458 112 459 76T460 3T462 -68T463 -131Q463 -207 438 -279T364 -397T243 -444Z" />
<glyph unicode="&#xa7;" horiz-adv-x="1150" d="M546 -224Q459 -224 394 -217T278 -199T182 -174Q114 -153 74 -108T34 -7Q34 43 72 75T175 107Q220 107 273 91T384 59T502 43Q556 43 607 49T691 71T724 114Q724 132 702 147T642 174T553 198T445 220Q337 241
256 274T129 364T84 509Q84 577 125 632T238 725T405 784T609 805V617Q580 617 554 604T511 569T494 522Q494 494 520 478T592 451T699 434Q762 427 833 409T967 357T1069 269T1109 136Q1109 66 1069 2T953 -114T775 -194T546 -224ZM545 256L502 444Q556 444 607
450T691 472T724 515Q724 536 694 553T615 586T508 613T392 636Q284 657 216 695T116 789T84 918Q84 986 127 1043T246 1141T420 1206T626 1229Q703 1229 781 1214T925 1169T1031 1098T1071 1005Q1071 931 1024 906T929 881Q880 881 838 896T749 928T635 944Q606
944 585 937T553 918T542 893Q542 877 556 864T604 842T699 825Q762 818 833 800T967 748T1069 660T1109 527Q1109 457 1068 406T952 322T774 272T545 256Z" />
<glyph unicode="&#xa8;" horiz-adv-x="928" d="M269 855Q164 855 115 901T66 1007Q66 1093 122 1133T237 1173Q285 1173 328 1159T399 1109T426 1004Q426 941 395 898T269 855ZM743 858Q664 858 614 901T563 1010Q563 1087 621 1137T765 1187Q842 1187 879 1141T917
1035Q917 962 870 910T743 858Z" />
<glyph unicode="&#xa9;" horiz-adv-x="1605" d="M825 -110Q631 -110 480 -71T224 51T65 267T10 587Q10 763 68 898T233 1125T485 1264T802 1312Q977 1312 1112 1267T1341 1132T1482 909T1530 598Q1530 349 1454 193T1222 -36T825 -110ZM747 168Q913 168 1026 211T1197
352T1255 613Q1255 743 1196 841T1035 993T802 1048Q712 1048 625 1011T468 912T355 771T312 610Q312 513 342 433T430 293T568 201T747 168ZM816 258Q713 258 624 288T479 390T424 582Q424 705 470 785T607 906T826 946Q905 946 954 929T1026 883T1049 819Q1049
777 1019 749T953 721Q934 721 918 724T884 731T838 735Q811 735 791 724T758 691T746 641Q746 605 756 583T786 552T838 542Q857 542 879 545T924 552T966 559T997 562Q1059 562 1083 522T1107 441Q1107 390 1084 355T1020 298T927 268T816 258Z" />
<glyph unicode="&#xaa;" horiz-adv-x="570" d="M222 803Q174 803 129 814T56 853T27 935Q27 983 57 1010T136 1050T243 1062Q257 1062 269 1061T287 1060Q295 1060 298 1063T302 1072Q302 1076 301 1079T296 1084Q291 1088 281 1090T258 1092Q232 1092 198 1085T124
1078Q75 1078 48 1094T20 1144Q20 1186 53 1209T136 1241T239 1250Q362 1250 429 1217T496 1076Q496 1051 494 1038T491 1011Q491 995 506 978T535 940T550 890Q550 859 530 844T482 828Q452 828 440 845T414 863Q407 863 399 859T379 847Q358 834 323 819T222
803ZM238 926Q255 926 272 933T290 957Q290 968 281 972T260 977Q242 977 224 971T206 947Q206 935 216 931T238 926Z" />
<glyph unicode="&#xab;" horiz-adv-x="920" d="M809 240Q788 240 747 261T664 310T603 355Q558 395 521 436T460 527T437 644Q437 688 448 727T477 801T520 870T571 936Q596 967 633 998T709 1050T776 1071Q826 1071 850 1041T875 968Q875 933 868 902T840 839T782
768Q762 747 748 727T726 690T719 656Q719 644 728 627T754 592T793 555Q827 528 851 495T887 426T900 355Q900 300 876 270T809 240ZM392 240Q371 240 330 261T247 310T186 355Q141 395 104 436T43 527T20 644Q20 688 31 727T60 801T103 870T154 936Q179 967 216
998T292 1050T359 1071Q409 1071 433 1041T458 968Q458 933 451 902T423 839T365 768Q345 747 331 727T309 690T302 656Q302 644 311 627T337 592T376 555Q410 528 434 495T470 426T483 355Q483 300 459 270T392 240Z" />
<glyph unicode="&#xac;" horiz-adv-x="1020" d="M761 218Q674 218 644 260T613 351Q613 362 614 376T616 405T619 436T620 466Q620 495 588 504T504 515Q493 516 466 517T403 519T331 521T262 524T210 527Q162 530 119 545T48 589T20 660Q20 701 40 737T111 802T258
847T503 864Q660 864 758 846T910 797T983 727T1003 646Q1003 593 1000 548T991 464T977 396T960 341Q951 318 931 289T870 239T761 218Z" />
<glyph unicode="&#xad;" horiz-adv-x="1000" d="M420 403Q349 403 277 411T143 440T45 500T8 599Q8 701 63 748T222 808T469 821Q568 821 657 817T816 793T926 728T967 599Q967 529 922 489T800 431T625 408T420 403Z" />
<glyph unicode="&#xae;" horiz-adv-x="1647" d="M788 -117Q617 -117 475 -73T228 60T67 279T10 585Q10 756 72 890T246 1117T505 1258T825 1307Q989 1307 1125 1261T1362 1125T1517 907T1572 613Q1572 439 1513 303T1348 74T1099 -68T788 -117ZM755 143Q884 143
984 177T1154 275T1260 427T1297 623Q1297 770 1242 870T1085 1021T845 1072Q733 1072 635 1044T464 959T350 816T308 613Q308 502 340 415T431 268T573 175T755 143ZM613 260Q552 260 508 284T441 350Q430 370 423 397T413 457T408 521T406 581Q406 702 437 779T524
900T656 961T820 978Q901 978 977 951T1102 873T1152 750Q1152 711 1143 686T1119 646T1084 622T1044 607Q1032 603 1023 597T1013 581Q1013 573 1040 551T1100 501T1150 450Q1157 441 1162 432T1170 414T1176 396T1178 378Q1178 325 1129 297T1019 269Q988 269
961 276T912 297T872 332T839 381Q826 407 812 429T786 465T768 479Q765 479 763 475T761 464T760 447Q760 437 760 424T760 396T758 368T753 343Q742 294 702 277T613 260ZM801 688Q812 688 822 692T841 704T855 724T860 753Q860 769 852 780T830 798T800 804Q778
804 768 795T752 775Q747 765 745 753T742 720Q742 704 760 696T801 688Z" />
<glyph unicode="&#xaf;" horiz-adv-x="978" d="M499 911Q380 911 290 918T150 949T100 1026Q100 1074 133 1099T257 1134T525 1144Q657 1144 739 1136T859 1106T898 1043Q898 981 853 953T720 918T499 911Z" />
<glyph unicode="&#xb0;" horiz-adv-x="640" d="M312 807Q214 807 144 836T37 915T0 1022Q0 1100 41 1156T152 1242T305 1272Q395 1272 465 1252T576 1181T617 1040Q617 967 571 915T455 835T312 807ZM325 987Q369 987 388 1006T408 1065Q408 1082 395 1092T364
1107T327 1112Q308 1112 288 1105T255 1083T242 1047Q242 1027 254 1014T285 994T325 987Z" />
<glyph unicode="&#xb1;" horiz-adv-x="1200" d="M528 -6Q446 -6 363 1T211 26T100 77T58 162Q58 227 94 265T198 321T363 345T584 351Q696 351 798 348T979 328T1105 272T1151 162Q1151 102 1100 68T960 18T761 -2T528 -6ZM612 409Q546 409 511 437T449 511Q445
518 442 525T437 539T433 553T429 568Q419 619 402 642T356 672T279 678Q261 678 244 679T211 681T180 686T150 694Q95 711 60 749T24 855Q24 900 53 931T127 980T220 1002Q258 1006 287 1009T338 1019T374 1034Q393 1046 401 1067T410 1122Q411 1137 412 1150T415
1175T421 1197T428 1217Q456 1277 497 1297T633 1317Q683 1317 725 1298T787 1252Q795 1242 799 1231T806 1206T810 1178T811 1147Q811 1104 825 1069T871 1032Q903 1029 937 1025T1003 1015T1064 1001T1111 984Q1161 960 1176 922T1191 846Q1191 796 1169 768T1097
722Q1062 710 1028 703T957 694T881 689Q843 688 817 665T791 577Q791 561 790 546T785 518T779 495T771 478Q753 450 709 430T612 409Z" />
<glyph unicode="&#xb2;" horiz-adv-x="538" d="M137 668Q87 677 54 694T20 761Q20 788 30 813T81 857Q116 874 158 892T231 926Q260 941 276 957T292 989Q292 1001 279 1007T245 1014Q220 1014 198 1006T161 986Q145 973 126 968T90 963Q66 963 45 980T24 1029Q24
1076 58 1107T145 1155T257 1172Q315 1172 367 1160T453 1115T487 1022Q487 986 471 960T427 912Q408 897 387 886T346 867T308 853Q285 846 285 840Q285 836 294 835T315 834Q339 834 376 840T436 847Q470 847 490 831T511 786Q511 735 480 708T396 670T276 660Q239
660 204 661T137 668Z" />
<glyph unicode="&#xb3;" horiz-adv-x="557" d="M252 647Q189 647 136 658T50 693T17 753Q17 803 45 818T93 833Q135 833 171 818T246 802Q281 802 304 806T327 823Q327 834 307 842T253 859Q225 866 205 879T184 916Q184 936 200 946T235 962Q264 970 282 978T300
998Q300 1012 284 1017T235 1023Q198 1023 160 1016T99 1009Q63 1009 43 1030T23 1079Q23 1113 55 1134T140 1166T253 1176Q374 1176 433 1138T492 1031Q492 1009 481 991T450 955Q440 945 435 937T429 924Q429 919 437 914T459 900Q482 887 504 864T527 802Q527
753 497 718T405 665T252 647Z" />
<glyph unicode="&#xb4;" horiz-adv-x="653" d="M141 892Q99 892 70 910T41 972Q41 1025 102 1084T246 1190Q309 1225 374 1247T491 1270Q550 1270 582 1244T614 1157Q614 1097 560 1046T426 958Q358 927 282 910T141 892Z" />
<glyph unicode="&#xb5;" horiz-adv-x="1626" d="M363 -464Q307 -464 252 -441T153 -361T91 -208Q85 -179 79 -136T66 -38T53 81T42 219T35 371T32 535Q32 652 71 743T186 887T373 940Q475 940 525 910T593 836T613 751Q614 725 615 702T619 657T624 616T630 578Q642
512 660 473T707 417T776 399Q802 399 833 412T887 458T910 550Q910 589 912 618T919 671T931 715T948 757Q978 824 1036 868T1207 913Q1306 913 1359 864T1437 732Q1442 715 1446 697T1452 660T1457 620T1460 580T1461 537T1462 493Q1462 406 1465 348T1475 261T1495
232Q1515 232 1524 237T1550 242Q1567 242 1586 226T1620 175T1634 82Q1634 4 1601 -40T1519 -106T1417 -134T1325 -140Q1235 -140 1168 -100T1058 2T994 126L1091 64Q1066 4 991 -37T782 -78Q707 -78 649 -43T555 36T514 105L615 132Q615 105 616 73T618 6T621
-63T624 -130T626 -188T627 -232Q627 -350 561 -407T363 -464Z" />
<glyph unicode="&#xb6;" horiz-adv-x="1147" d="M635 -190Q547 -190 526 -139T505 0Q505 19 505 61T507 157T508 268T510 377T511 463T512 508Q512 519 507 528T488 538Q474 538 443 530T373 512T295 503Q228 503 172 540T83 648T50 819Q50 941 102 1018T237 1139T414
1199T590 1216Q641 1216 699 1212T815 1194T922 1155Q990 1119 1043 1037T1097 795Q1097 742 1095 668T1090 510T1084 342T1077 184T1072 56T1070 -23Q1070 -120 1036 -156T938 -192Q898 -192 872 -163T845 -45Q845 -20 845 30T847 148T850 290T853 442T855 586T857
706T858 787Q858 878 844 921T800 965Q779 965 768 953T751 918T745 866T743 802Q743 761 743 706T741 587T739 454T737 313T736 172T735 38Q735 -84 721 -137T635 -190Z" />
<glyph unicode="&#xb7;" horiz-adv-x="435" d="M233 497Q150 497 84 537T17 653Q17 695 48 728T126 781T220 800Q271 800 317 777T393 716T423 628Q423 556 368 527T233 497Z" />
<glyph unicode="&#xb8;" horiz-adv-x="772" d="M371 -478Q310 -478 246 -471T139 -440T95 -366Q95 -320 122 -297T192 -273Q230 -273 252 -283T298 -303T365 -313Q414 -313 441 -305T480 -283T491 -252Q491 -231 479 -225T441 -218Q420 -218 400 -224T354 -236T292
-242Q239 -242 197 -222T155 -133Q155 -103 160 -78T174 -31T195 5Q214 30 248 53T354 77Q404 77 431 54T458 0Q458 -29 449 -50T440 -95Q440 -113 458 -113Q472 -113 490 -102T535 -80T597 -69Q632 -69 666 -83T722 -133T745 -236Q745 -360 642 -419T371 -478Z"
/>
<glyph unicode="&#xb9;" horiz-adv-x="382" d="M206 653Q156 653 127 678T97 746Q97 760 99 784T105 836T112 891T118 941T121 977Q121 995 100 1002Q87 1007 74 1011T54 1018Q40 1026 32 1036T24 1063Q24 1092 57 1118T135 1160T215 1177Q269 1177 294 1134T326
1026T333 900Q333 879 333 859T331 820T327 784T321 752T313 723Q290 653 206 653Z" />
<glyph unicode="&#xba;" horiz-adv-x="623" d="M295 825Q207 825 145 850T51 919T18 1013Q18 1075 50 1127T149 1210T313 1241Q409 1241 469 1208T558 1120T587 1003Q587 946 541 906T428 846T295 825ZM308 987Q344 987 371 1000T399 1039Q399 1071 371 1090T300
1110Q272 1110 249 1094T225 1047Q225 1027 237 1014T268 994T308 987Z" />
<glyph unicode="&#xbb;" horiz-adv-x="920" d="M569 240Q520 240 495 270T470 343Q470 378 477 409T505 472T563 543Q584 565 598 584T619 622T626 655Q626 667 617 684T591 720T552 756Q501 797 473 850T445 956Q445 1071 536 1071Q557 1071 598 1050T681 1001T742
956Q787 917 825 876T885 784T908 667Q908 623 897 584T868 510T825 441T774 375Q749 345 712 314T636 261T569 240ZM390 240Q341 240 316 270T291 343Q291 378 298 409T326 472T384 543Q405 565 419 584T440 622T447 655Q447 667 438 684T412 720T373 756Q322
797 294 850T266 956Q266 1071 357 1071Q378 1071 419 1050T502 1001T563 956Q608 917 646 876T706 784T729 667Q729 623 718 584T689 510T646 441T595 375Q570 345 533 314T457 261T390 240Z" />
<glyph unicode="&#xbc;" horiz-adv-x="1257" d="M206 653Q156 653 127 678T97 746Q97 760 99 784T105 836T112 891T118 941T121 977Q121 995 100 1002Q87 1007 74 1011T54 1018Q40 1026 32 1036T24 1063Q24 1092 57 1118T135 1160T215 1177Q269 1177 294 1134T326
1026T333 900Q333 879 333 859T331 820T327 784T321 752T313 723Q290 653 206 653ZM25 -7Q6 -7 -12 1T-41 25T-52 65Q-52 95 -26 131T44 210T139 299Q191 345 241 392T342 486T441 580T538 675T633 770T726 865T819 958Q859 999 911 1047T1016 1131T1106 1167Q1119
1167 1128 1164T1144 1155T1154 1140T1157 1116Q1157 1083 1119 1029T1026 917T925 811Q849 734 782 667T654 538T533 419T415 304T294 187Q259 153 208 108T107 28T25 -7ZM1053 -14Q1022 -14 998 -1T974 49Q974 58 974 66T974 82T972 95Q970 109 958 118T911 128Q873
130 849 131T800 137Q764 142 751 172T737 242Q737 285 750 332T776 408Q787 431 808 454T869 477Q895 477 909 465T924 427Q924 413 921 400T914 372T906 344T903 313Q903 288 907 281T918 271Q929 267 941 267T965 266Q978 266 985 273T993 302Q993 313 994 330T997
366T1001 401T1004 424Q1010 453 1027 467T1073 482Q1105 482 1121 467T1143 425Q1146 412 1147 397T1150 365T1151 328T1151 285Q1151 254 1175 254Q1189 254 1199 253T1217 249Q1231 244 1237 232T1243 200Q1243 173 1235 159T1206 140Q1200 139 1188 137T1161
132Q1150 131 1147 124T1141 105Q1139 92 1137 74T1130 38Q1116 -14 1053 -14Z" />
<glyph unicode="&#xbd;" horiz-adv-x="1251" d="M206 653Q156 653 127 678T97 746Q97 760 99 784T105 836T112 891T118 941T121 977Q121 995 100 1002Q87 1007 74 1011T54 1018Q40 1026 32 1036T24 1063Q24 1092 57 1118T135 1160T215 1177Q269 1177 294 1134T326
1026T333 900Q333 879 333 859T331 820T327 784T321 752T313 723Q290 653 206 653ZM25 -7Q6 -7 -12 1T-41 25T-52 65Q-52 95 -26 131T44 210T139 299Q191 345 241 392T342 486T441 580T538 675T633 770T726 865T819 958Q859 999 911 1047T1016 1131T1106 1167Q1119
1167 1128 1164T1144 1155T1154 1140T1157 1116Q1157 1083 1119 1029T1026 917T925 811Q849 734 782 667T654 538T533 419T415 304T294 187Q259 153 208 108T107 28T25 -7ZM850 -12Q800 -3 767 14T733 81Q733 108 743 133T794 177Q829 194 871 212T944 246Q973
261 989 277T1005 309Q1005 321 992 327T958 334Q933 334 911 326T874 306Q858 293 839 288T803 283Q779 283 758 300T737 349Q737 396 771 427T858 475T970 492Q1028 492 1080 480T1166 435T1200 342Q1200 306 1184 280T1140 232Q1121 217 1100 206T1059 187T1021
173Q998 166 998 160Q998 156 1007 155T1028 154Q1052 154 1089 160T1149 167Q1183 167 1203 151T1224 106Q1224 55 1193 28T1109 -10T989 -20Q952 -20 917 -19T850 -12Z" />
<glyph unicode="&#xbe;" horiz-adv-x="1432" d="M252 647Q189 647 136 658T50 693T17 753Q17 803 45 818T93 833Q135 833 171 818T246 802Q281 802 304 806T327 823Q327 834 307 842T253 859Q225 866 205 879T184 916Q184 936 200 946T235 962Q264 970 282 978T300
998Q300 1012 284 1017T235 1023Q198 1023 160 1016T99 1009Q63 1009 43 1030T23 1079Q23 1113 55 1134T140 1166T253 1176Q374 1176 433 1138T492 1031Q492 1009 481 991T450 955Q440 945 435 937T429 924Q429 919 437 914T459 900Q482 887 504 864T527 802Q527
753 497 718T405 665T252 647ZM200 -7Q181 -7 163 1T134 25T123 65Q123 95 149 131T219 210T314 299Q366 345 416 392T517 486T616 580T713 675T808 770T901 865T994 958Q1034 999 1086 1047T1191 1131T1281 1167Q1294 1167 1303 1164T1319 1155T1329 1140T1332
1116Q1332 1083 1294 1029T1201 917T1100 811Q1024 734 957 667T829 538T708 419T590 304T469 187Q434 153 383 108T282 28T200 -7ZM1228 -14Q1197 -14 1173 -1T1149 49Q1149 58 1149 66T1149 82T1147 95Q1145 109 1133 118T1086 128Q1048 130 1024 131T975 137Q939
142 926 172T912 242Q912 285 925 332T951 408Q962 431 983 454T1044 477Q1070 477 1084 465T1099 427Q1099 413 1096 400T1089 372T1081 344T1078 313Q1078 288 1082 281T1093 271Q1104 267 1116 267T1140 266Q1153 266 1160 273T1168 302Q1168 313 1169 330T1172
366T1176 401T1179 424Q1185 453 1202 467T1248 482Q1280 482 1296 467T1318 425Q1321 412 1322 397T1325 365T1326 328T1326 285Q1326 254 1350 254Q1364 254 1374 253T1392 249Q1406 244 1412 232T1418 200Q1418 173 1410 159T1381 140Q1375 139 1363 137T1336
132Q1325 131 1322 124T1316 105Q1314 92 1312 74T1305 38Q1291 -14 1228 -14Z" />
<glyph unicode="&#xbf;" horiz-adv-x="1095" d="M638 516Q695 516 738 504T805 456T830 344Q830 291 811 246T750 162T642 84Q589 54 547 27T480 -27T455 -81Q455 -108 468 -122T508 -141T571 -147Q593 -147 629 -141T702 -126T758 -107Q810 -81 854 -66T948 -50Q992
-50 1025 -72T1058 -161Q1058 -206 1033 -246T967 -320Q914 -364 842 -396T693 -445T551 -462Q444 -462 352 -440T191 -371T84 -255T45 -89Q45 -15 75 43T160 144T286 218Q326 235 362 254T425 300T462 364Q483 441 515 478T638 516ZM686 889Q764 889 810 856T856
754Q856 677 803 638T685 599Q636 599 590 610T515 653T485 743Q485 808 532 848T686 889Z" />
<glyph unicode="&#xc0;" horiz-adv-x="1685" d="M1328 -40Q1249 -40 1188 -20T1079 55Q1069 67 1062 76T1048 96T1030 121T1000 158Q977 186 954 202T905 227Q895 231 883 233T857 236T828 237Q805 237 781 235T737 227Q715 221 698 210T666 184Q652 169 640 152T616
116T587 78Q553 37 496 6T332 -25Q238 -25 175 1T81 90T50 257Q50 320 63 384T100 513T151 636T209 747T266 840T313 907Q346 951 394 1001T505 1095T649 1167T827 1195Q967 1195 1095 1140T1332 977Q1378 932 1418 874T1491 750T1551 612T1597 470T1625 331T1635
205Q1635 69 1551 15T1328 -40ZM931 570Q950 581 955 597T961 645Q961 662 957 682T946 723T930 757Q917 780 899 793T862 807Q828 807 801 778T759 719Q755 710 750 698T742 671T736 644T733 619Q733 582 765 566T835 550Q854 550 871 552T904 559T931 570ZM867
1264Q802 1264 726 1281T582 1330Q503 1367 449 1418T394 1529Q394 1589 426 1615T517 1642Q568 1642 633 1620T762 1562Q845 1516 906 1457T967 1344Q967 1301 938 1283T867 1264Z" />
<glyph unicode="&#xc1;" horiz-adv-x="1702" d="M1328 -40Q1249 -40 1188 -20T1079 55Q1069 67 1062 76T1048 96T1030 121T1000 158Q977 186 954 202T905 227Q895 231 883 233T857 236T828 237Q805 237 781 235T737 227Q715 221 698 210T666 184Q652 169 640 152T616
116T587 78Q553 37 496 6T332 -25Q238 -25 175 1T81 90T50 257Q50 320 63 384T100 513T151 636T209 747T266 840T313 907Q346 951 394 1001T505 1095T649 1167T827 1195Q967 1195 1095 1140T1332 977Q1378 932 1418 874T1491 750T1551 612T1597 470T1625 331T1635
205Q1635 69 1551 15T1328 -40ZM931 570Q950 581 955 597T961 645Q961 662 957 682T946 723T930 757Q917 780 899 793T862 807Q828 807 801 778T759 719Q755 710 750 698T742 671T736 644T733 619Q733 582 765 566T835 550Q854 550 871 552T904 559T931 570ZM656
1297Q614 1297 585 1315T556 1377Q556 1430 617 1489T761 1595Q824 1630 889 1652T1006 1675Q1065 1675 1097 1649T1129 1562Q1129 1502 1075 1451T941 1363Q873 1332 797 1315T656 1297Z" />
<glyph unicode="&#xc2;" horiz-adv-x="1685" d="M1328 -40Q1249 -40 1188 -20T1079 55Q1069 67 1062 76T1048 96T1030 121T1000 158Q977 186 954 202T905 227Q895 231 883 233T857 236T828 237Q805 237 781 235T737 227Q715 221 698 210T666 184Q652 169 640 152T616
116T587 78Q553 37 496 6T332 -25Q238 -25 175 1T81 90T50 257Q50 320 63 384T100 513T151 636T209 747T266 840T313 907Q346 951 394 1001T505 1095T649 1167T827 1195Q967 1195 1095 1140T1332 977Q1378 932 1418 874T1491 750T1551 612T1597 470T1625 331T1635
205Q1635 69 1551 15T1328 -40ZM931 570Q950 581 955 597T961 645Q961 662 957 682T946 723T930 757Q917 780 899 793T862 807Q828 807 801 778T759 719Q755 710 750 698T742 671T736 644T733 619Q733 582 765 566T835 550Q854 550 871 552T904 559T931 570ZM552
1262Q452 1262 452 1363Q452 1407 491 1459T592 1559T721 1638T842 1669Q890 1669 953 1637T1076 1555T1174 1454T1213 1363Q1213 1317 1187 1291T1117 1265Q1062 1265 1032 1291T978 1360Q963 1386 938 1414T887 1462T845 1482Q830 1482 803 1461T748 1410T700
1355Q669 1316 637 1289T552 1262Z" />
<glyph unicode="&#xc3;" horiz-adv-x="1685" d="M1328 -40Q1249 -40 1188 -20T1079 55Q1069 67 1062 76T1048 96T1030 121T1000 158Q977 186 954 202T905 227Q895 231 883 233T857 236T828 237Q805 237 781 235T737 227Q715 221 698 210T666 184Q652 169 640 152T616
116T587 78Q553 37 496 6T332 -25Q238 -25 175 1T81 90T50 257Q50 320 63 384T100 513T151 636T209 747T266 840T313 907Q346 951 394 1001T505 1095T649 1167T827 1195Q967 1195 1095 1140T1332 977Q1378 932 1418 874T1491 750T1551 612T1597 470T1625 331T1635
205Q1635 69 1551 15T1328 -40ZM931 570Q950 581 955 597T961 645Q961 662 957 682T946 723T930 757Q917 780 899 793T862 807Q828 807 801 778T759 719Q755 710 750 698T742 671T736 644T733 619Q733 582 765 566T835 550Q854 550 871 552T904 559T931 570ZM613
1279Q585 1279 566 1294T547 1350Q547 1404 573 1450T644 1524T744 1552Q788 1552 816 1535T866 1496T905 1456T944 1439Q967 1439 982 1452T1015 1500Q1029 1526 1045 1538T1089 1550Q1112 1550 1131 1535T1150 1473Q1150 1426 1122 1383T1049 1312T956 1285Q915
1285 886 1301T834 1337T793 1374T756 1390Q738 1390 722 1377T693 1337Q676 1299 656 1289T613 1279Z" />
<glyph unicode="&#xc4;" horiz-adv-x="1685" d="M1328 -40Q1249 -40 1188 -20T1079 55Q1069 67 1062 76T1048 96T1030 121T1000 158Q977 186 954 202T905 227Q895 231 883 233T857 236T828 237Q805 237 781 235T737 227Q715 221 698 210T666 184Q652 169 640 152T616
116T587 78Q553 37 496 6T332 -25Q238 -25 175 1T81 90T50 257Q50 320 63 384T100 513T151 636T209 747T266 840T313 907Q346 951 394 1001T505 1095T649 1167T827 1195Q967 1195 1095 1140T1332 977Q1378 932 1418 874T1491 750T1551 612T1597 470T1625 331T1635
205Q1635 69 1551 15T1328 -40ZM931 570Q950 581 955 597T961 645Q961 662 957 682T946 723T930 757Q917 780 899 793T862 807Q828 807 801 778T759 719Q755 710 750 698T742 671T736 644T733 619Q733 582 765 566T835 550Q854 550 871 552T904 559T931 570ZM631
1227Q526 1227 477 1273T428 1379Q428 1465 484 1505T599 1545Q647 1545 690 1531T761 1481T788 1376Q788 1313 757 1270T631 1227ZM1105 1230Q1026 1230 976 1273T925 1382Q925 1459 983 1509T1127 1559Q1204 1559 1241 1513T1279 1407Q1279 1334 1232 1282T1105
1230Z" />
<glyph unicode="&#xc5;" horiz-adv-x="1685" d="M1328 -40Q1249 -40 1188 -20T1079 55Q1069 67 1062 76T1048 96T1030 121T1000 158Q977 186 954 202T905 227Q895 231 883 233T857 236T828 237Q805 237 781 235T737 227Q715 221 698 210T666 184Q652 169 640 152T616
116T587 78Q553 37 496 6T332 -25Q238 -25 175 1T81 90T50 257Q50 320 63 384T100 513T151 636T209 747T266 840T313 907Q346 951 394 1001T505 1095T649 1167T827 1195Q967 1195 1095 1140T1332 977Q1378 932 1418 874T1491 750T1551 612T1597 470T1625 331T1635
205Q1635 69 1551 15T1328 -40ZM931 570Q950 581 955 597T961 645Q961 662 957 682T946 723T930 757Q917 780 899 793T862 807Q828 807 801 778T759 719Q755 710 750 698T742 671T736 644T733 619Q733 582 765 566T835 550Q854 550 871 552T904 559T931 570ZM820
1262Q708 1262 647 1306T586 1431Q586 1510 648 1562T834 1614Q956 1614 1011 1569T1067 1443Q1067 1373 1028 1334T932 1278T820 1262ZM831 1399Q862 1399 876 1412T890 1448Q890 1475 872 1489T824 1503Q800 1503 786 1490T771 1450Q771 1425 788 1412T831 1399Z"
/>
<glyph unicode="&#xc6;" horiz-adv-x="2088" d="M219 -25Q166 -25 128 -8T70 50T50 156Q50 213 60 273T91 396T139 522T203 646T280 765Q366 886 472 983T692 1137T919 1195Q1045 1195 1132 1153T1274 1036T1359 861T1400 643T1411 398Q1411 363 1379 329T1270
273T1061 250Q1002 250 938 254T819 263T731 267Q693 267 651 229T565 145T481 70Q439 42 394 21T305 -13T219 -25ZM839 570Q859 570 882 571T927 576T962 589T976 613Q976 633 973 661T962 715T935 759T887 777Q866 777 849 770T817 751T793 723T775 690T765 655T761
622Q761 604 765 594T780 578T804 572T839 570ZM1475 -10Q1364 -10 1264 31T1093 161T1000 395Q996 423 993 453T988 515T985 581T984 651Q984 840 1029 965T1158 1162T1362 1265T1630 1296Q1707 1296 1774 1288T1891 1260T1970 1207T1999 1125Q1999 1066 1967
1029T1887 978Q1854 968 1807 961T1712 949T1629 943Q1607 942 1594 938T1573 926T1564 909T1561 890Q1561 877 1566 864T1583 843T1615 835Q1639 835 1659 836T1697 839T1735 842T1777 843Q1850 843 1888 802T1927 688Q1927 577 1873 534T1747 491Q1722 491 1701
491T1661 491T1626 492T1595 492Q1570 492 1554 486T1530 469T1522 446Q1522 438 1526 431T1541 419T1567 411T1605 405T1659 403Q1686 403 1717 403T1778 401T1832 400Q1915 400 1956 358T1997 238Q1997 157 1947 108T1818 33T1647 -1T1475 -10Z" />
<glyph unicode="&#xc7;" horiz-adv-x="1309" d="M682 -55Q545 -55 430 -24T229 72T97 234T50 465Q50 629 102 762T251 989T483 1134T787 1185Q857 1185 923 1171T1042 1129T1126 1057T1157 954Q1157 866 1116 819T1000 771Q963 771 936 773T886 777T843 782T802
784Q775 784 755 770T720 728T699 663T692 578Q692 539 697 506T715 449T754 410T822 396Q840 396 863 402T914 416T972 431T1039 437Q1159 437 1203 382T1247 237Q1247 150 1201 93T1074 4T893 -41T682 -55ZM762 -476Q701 -476 637 -469T530 -438T486 -364Q486
-318 513 -295T583 -271Q621 -271 643 -281T689 -301T756 -311Q805 -311 832 -303T871 -281T882 -250Q882 -229 870 -223T832 -216Q811 -216 791 -222T745 -234T683 -240Q630 -240 588 -220T546 -131Q546 -101 551 -76T565 -29T586 7Q605 32 639 55T745 79Q795
79 822 56T849 2Q849 -27 840 -48T831 -93Q831 -111 849 -111Q863 -111 881 -100T926 -78T988 -67Q1023 -67 1057 -81T1113 -131T1136 -234Q1136 -358 1033 -417T762 -476Z" />
<glyph unicode="&#xc8;" horiz-adv-x="1174" d="M561 -43Q450 -43 349 -2T178 128T86 362Q82 390 79 420T74 482T71 548T70 618Q70 807 115 932T244 1129T448 1232T716 1263Q793 1263 860 1255T977 1227T1056 1174T1085 1092Q1085 1033 1053 996T973 945Q940 935
893 928T798 916T715 910Q693 909 680 905T659 893T650 876T647 857Q647 844 652 831T669 810T701 802Q725 802 745 803T783 806T821 809T863 810Q936 810 974 769T1013 655Q1013 544 959 501T833 458Q808 458 787 458T747 458T712 459T681 459Q656 459 640 453T616
436T608 413Q608 405 612 398T627 386T653 378T691 372T745 370Q772 370 803 370T864 368T918 367Q1001 367 1042 325T1083 205Q1083 124 1033 75T904 0T733 -34T561 -43ZM633 1349Q568 1349 492 1366T348 1415Q269 1452 215 1503T160 1614Q160 1674 192 1700T283
1727Q334 1727 399 1705T528 1647Q611 1601 672 1542T733 1429Q733 1386 704 1368T633 1349Z" />
<glyph unicode="&#xc9;" horiz-adv-x="1174" d="M561 -43Q450 -43 349 -2T178 128T86 362Q82 390 79 420T74 482T71 548T70 618Q70 807 115 932T244 1129T448 1232T716 1263Q793 1263 860 1255T977 1227T1056 1174T1085 1092Q1085 1033 1053 996T973 945Q940 935
893 928T798 916T715 910Q693 909 680 905T659 893T650 876T647 857Q647 844 652 831T669 810T701 802Q725 802 745 803T783 806T821 809T863 810Q936 810 974 769T1013 655Q1013 544 959 501T833 458Q808 458 787 458T747 458T712 459T681 459Q656 459 640 453T616
436T608 413Q608 405 612 398T627 386T653 378T691 372T745 370Q772 370 803 370T864 368T918 367Q1001 367 1042 325T1083 205Q1083 124 1033 75T904 0T733 -34T561 -43ZM547 1317Q505 1317 476 1335T447 1397Q447 1450 508 1509T652 1615Q715 1650 780 1672T897
1695Q956 1695 988 1669T1020 1582Q1020 1522 966 1471T832 1383Q764 1352 688 1335T547 1317Z" />
<glyph unicode="&#xca;" horiz-adv-x="1174" d="M561 -43Q450 -43 349 -2T178 128T86 362Q82 390 79 420T74 482T71 548T70 618Q70 807 115 932T244 1129T448 1232T716 1263Q793 1263 860 1255T977 1227T1056 1174T1085 1092Q1085 1033 1053 996T973 945Q940 935
893 928T798 916T715 910Q693 909 680 905T659 893T650 876T647 857Q647 844 652 831T669 810T701 802Q725 802 745 803T783 806T821 809T863 810Q936 810 974 769T1013 655Q1013 544 959 501T833 458Q808 458 787 458T747 458T712 459T681 459Q656 459 640 453T616
436T608 413Q608 405 612 398T627 386T653 378T691 372T745 370Q772 370 803 370T864 368T918 367Q1001 367 1042 325T1083 205Q1083 124 1033 75T904 0T733 -34T561 -43ZM318 1347Q218 1347 218 1448Q218 1492 257 1544T358 1644T487 1723T608 1754Q656 1754 719
1722T842 1640T940 1539T979 1448Q979 1402 953 1376T883 1350Q828 1350 798 1376T744 1445Q729 1471 704 1499T653 1547T611 1567Q596 1567 569 1546T514 1495T466 1440Q435 1401 403 1374T318 1347Z" />
<glyph unicode="&#xcb;" horiz-adv-x="1174" d="M561 -43Q450 -43 349 -2T178 128T86 362Q82 390 79 420T74 482T71 548T70 618Q70 807 115 932T244 1129T448 1232T716 1263Q793 1263 860 1255T977 1227T1056 1174T1085 1092Q1085 1033 1053 996T973 945Q940 935
893 928T798 916T715 910Q693 909 680 905T659 893T650 876T647 857Q647 844 652 831T669 810T701 802Q725 802 745 803T783 806T821 809T863 810Q936 810 974 769T1013 655Q1013 544 959 501T833 458Q808 458 787 458T747 458T712 459T681 459Q656 459 640 453T616
436T608 413Q608 405 612 398T627 386T653 378T691 372T745 370Q772 370 803 370T864 368T918 367Q1001 367 1042 325T1083 205Q1083 124 1033 75T904 0T733 -34T561 -43ZM397 1312Q292 1312 243 1358T194 1464Q194 1550 250 1590T365 1630Q413 1630 456 1616T527
1566T554 1461Q554 1398 523 1355T397 1312ZM871 1315Q792 1315 742 1358T691 1467Q691 1544 749 1594T893 1644Q970 1644 1007 1598T1045 1492Q1045 1419 998 1367T871 1315Z" />
<glyph unicode="&#xcc;" horiz-adv-x="794" d="M392 -24Q240 -24 165 64T90 303Q90 358 90 413T93 522T98 631T106 738T118 841T135 940Q161 1068 225 1133T427 1199Q538 1199 595 1139T670 990Q676 959 681 921T689 840T696 752T700 660T703 569T704 483Q704
302 679 191T586 28T392 -24ZM706 1226Q641 1226 565 1243T421 1292Q342 1329 288 1380T233 1491Q233 1551 265 1577T356 1604Q407 1604 472 1582T601 1524Q684 1478 745 1419T806 1306Q806 1263 777 1245T706 1226Z" />
<glyph unicode="&#xcd;" horiz-adv-x="794" d="M392 -24Q240 -24 165 64T90 303Q90 358 90 413T93 522T98 631T106 738T118 841T135 940Q161 1068 225 1133T427 1199Q538 1199 595 1139T670 990Q676 959 681 921T689 840T696 752T700 660T703 569T704 483Q704
302 679 191T586 28T392 -24ZM393 1194Q351 1194 322 1212T293 1274Q293 1327 354 1386T498 1492Q561 1527 626 1549T743 1572Q802 1572 834 1546T866 1459Q866 1399 812 1348T678 1260Q610 1229 534 1212T393 1194Z" />
<glyph unicode="&#xce;" horiz-adv-x="794" d="M392 -24Q240 -24 165 64T90 303Q90 358 90 413T93 522T98 631T106 738T118 841T135 940Q161 1068 225 1133T427 1199Q538 1199 595 1139T670 990Q676 959 681 921T689 840T696 752T700 660T703 569T704 483Q704
302 679 191T586 28T392 -24ZM397 1228Q297 1228 297 1329Q297 1373 336 1425T437 1525T566 1604T687 1635Q735 1635 798 1603T921 1521T1019 1420T1058 1329Q1058 1283 1032 1257T962 1231Q907 1231 877 1257T823 1326Q808 1352 783 1380T732 1428T690 1448Q675
1448 648 1427T593 1376T545 1321Q514 1282 482 1255T397 1228Z" />
<glyph unicode="&#xcf;" horiz-adv-x="794" d="M392 -24Q240 -24 165 64T90 303Q90 358 90 413T93 522T98 631T106 738T118 841T135 940Q161 1068 225 1133T427 1199Q538 1199 595 1139T670 990Q676 959 681 921T689 840T696 752T700 660T703 569T704 483Q704
302 679 191T586 28T392 -24ZM453 1192Q348 1192 299 1238T250 1344Q250 1430 306 1470T421 1510Q469 1510 512 1496T583 1446T610 1341Q610 1278 579 1235T453 1192ZM927 1195Q848 1195 798 1238T747 1347Q747 1424 805 1474T949 1524Q1026 1524 1063 1478T1101
1372Q1101 1299 1054 1247T927 1195Z" />
<glyph unicode="&#xd0;" horiz-adv-x="1498" d="M240 518Q146 518 82 525T-14 551T-47 606Q-47 652 -12 673T98 700T289 706Q386 706 474 704T631 694T739 665T779 606Q779 575 735 557T615 531T442 520T240 518ZM422 -37Q302 -37 232 -9T127 80T81 236Q75 283
73 338T70 457Q70 596 78 715T111 928Q150 1071 242 1151T512 1232Q664 1232 803 1192T1060 1084T1265 928T1400 745T1448 555Q1448 455 1393 366T1240 202T1013 75T733 -8T422 -37ZM678 495Q712 495 740 502T791 522T828 549T852 578T860 605Q860 619 853 635T830
666T794 693T747 712T690 720Q668 720 655 711T633 680Q629 668 627 653T625 617Q625 596 626 578T631 546Q642 495 678 495Z" />
<glyph unicode="&#xd1;" horiz-adv-x="1785" d="M387 -48Q305 -48 251 -21T159 53Q140 77 126 109T102 178T86 257T77 341T72 426T70 507Q70 711 101 859T211 1087T435 1167Q520 1167 578 1147T690 1085T815 975Q884 910 948 857T1052 803Q1068 803 1078 805T1096
815T1110 836Q1113 843 1117 854T1126 880T1136 910T1147 942T1159 974T1170 1004Q1202 1082 1261 1116T1424 1151Q1507 1151 1562 1124T1652 1046T1700 921T1715 755Q1715 713 1713 667T1705 574T1693 478T1675 384T1653 293T1624 209Q1592 127 1547 75T1439 -2T1287
-27Q1218 -27 1150 4T1017 88T890 207Q848 252 820 280T774 322T742 342T714 347Q680 347 664 315T648 186Q648 169 647 153T645 122T640 94T633 70T623 48T611 30Q580 -7 523 -27T387 -48ZM678 1257Q650 1257 631 1272T612 1328Q612 1382 638 1428T709 1502T809
1530Q853 1530 881 1513T931 1474T970 1434T1009 1417Q1032 1417 1047 1430T1080 1478Q1094 1504 1110 1516T1154 1528Q1177 1528 1196 1513T1215 1451Q1215 1404 1187 1361T1114 1290T1021 1263Q980 1263 951 1279T899 1315T858 1352T821 1368Q803 1368 787 1355T758
1315Q741 1277 721 1267T678 1257Z" />
<glyph unicode="&#xd2;" horiz-adv-x="1682" d="M735 -108Q591 -108 467 -71T249 40T103 219T50 465Q50 603 90 717T205 919T382 1069T609 1161T872 1193Q1025 1193 1162 1153T1405 1034T1571 844T1632 587Q1632 428 1557 300T1354 80T1066 -59T735 -108ZM847
476Q911 476 950 498T1008 552T1026 616Q1026 646 1014 673T980 721T929 755T865 768Q834 768 805 759T752 732T714 689T700 634Q700 607 711 580T741 529T788 491T847 476ZM907 1287Q842 1287 766 1304T622 1353Q543 1390 489 1441T434 1552Q434 1612 466 1638T557
1665Q608 1665 673 1643T802 1585Q885 1539 946 1480T1007 1367Q1007 1324 978 1306T907 1287Z" />
<glyph unicode="&#xd3;" horiz-adv-x="1682" d="M735 -108Q591 -108 467 -71T249 40T103 219T50 465Q50 603 90 717T205 919T382 1069T609 1161T872 1193Q1025 1193 1162 1153T1405 1034T1571 844T1632 587Q1632 428 1557 300T1354 80T1066 -59T735 -108ZM847
476Q911 476 950 498T1008 552T1026 616Q1026 646 1014 673T980 721T929 755T865 768Q834 768 805 759T752 732T714 689T700 634Q700 607 711 580T741 529T788 491T847 476ZM821 1255Q779 1255 750 1273T721 1335Q721 1388 782 1447T926 1553Q989 1588 1054 1610T1171
1633Q1230 1633 1262 1607T1294 1520Q1294 1460 1240 1409T1106 1321Q1038 1290 962 1273T821 1255Z" />
<glyph unicode="&#xd4;" horiz-adv-x="1682" d="M735 -108Q591 -108 467 -71T249 40T103 219T50 465Q50 603 90 717T205 919T382 1069T609 1161T872 1193Q1025 1193 1162 1153T1405 1034T1571 844T1632 587Q1632 428 1557 300T1354 80T1066 -59T735 -108ZM847
476Q911 476 950 498T1008 552T1026 616Q1026 646 1014 673T980 721T929 755T865 768Q834 768 805 759T752 732T714 689T700 634Q700 607 711 580T741 529T788 491T847 476ZM592 1285Q492 1285 492 1386Q492 1430 531 1482T632 1582T761 1661T882 1692Q930 1692
993 1660T1116 1578T1214 1477T1253 1386Q1253 1340 1227 1314T1157 1288Q1102 1288 1072 1314T1018 1383Q1003 1409 978 1437T927 1485T885 1505Q870 1505 843 1484T788 1433T740 1378Q709 1339 677 1312T592 1285Z" />
<glyph unicode="&#xd5;" horiz-adv-x="1682" d="M735 -108Q591 -108 467 -71T249 40T103 219T50 465Q50 603 90 717T205 919T382 1069T609 1161T872 1193Q1025 1193 1162 1153T1405 1034T1571 844T1632 587Q1632 428 1557 300T1354 80T1066 -59T735 -108ZM847
476Q911 476 950 498T1008 552T1026 616Q1026 646 1014 673T980 721T929 755T865 768Q834 768 805 759T752 732T714 689T700 634Q700 607 711 580T741 529T788 491T847 476ZM653 1302Q625 1302 606 1317T587 1373Q587 1427 613 1473T684 1547T784 1575Q828 1575
856 1558T906 1519T945 1479T984 1462Q1007 1462 1022 1475T1055 1523Q1069 1549 1085 1561T1129 1573Q1152 1573 1171 1558T1190 1496Q1190 1449 1162 1406T1089 1335T996 1308Q955 1308 926 1324T874 1360T833 1397T796 1413Q778 1413 762 1400T733 1360Q716
1322 696 1312T653 1302Z" />
<glyph unicode="&#xd6;" horiz-adv-x="1682" d="M735 -108Q591 -108 467 -71T249 40T103 219T50 465Q50 603 90 717T205 919T382 1069T609 1161T872 1193Q1025 1193 1162 1153T1405 1034T1571 844T1632 587Q1632 428 1557 300T1354 80T1066 -59T735 -108ZM847
476Q911 476 950 498T1008 552T1026 616Q1026 646 1014 673T980 721T929 755T865 768Q834 768 805 759T752 732T714 689T700 634Q700 607 711 580T741 529T788 491T847 476ZM671 1250Q566 1250 517 1296T468 1402Q468 1488 524 1528T639 1568Q687 1568 730 1554T801
1504T828 1399Q828 1336 797 1293T671 1250ZM1145 1253Q1066 1253 1016 1296T965 1405Q965 1482 1023 1532T1167 1582Q1244 1582 1281 1536T1319 1430Q1319 1357 1272 1305T1145 1253Z" />
<glyph unicode="&#xd7;" horiz-adv-x="1000" d="M63 230Q17 279 17 347Q17 378 29 410T68 473Q112 523 164 576T272 684T380 789T481 886T563 967Q616 1020 664 1049T757 1078Q821 1078 882 1018Q940 961 940 890Q940 839 911 787T830 687Q797 656 749 610T647
512T541 408T445 311T377 237Q344 198 304 177T219 156Q180 156 141 174T63 230ZM895 213Q867 176 835 159T768 142Q724 142 678 169T587 242Q556 275 507 323T400 427T287 537T185 639T113 718Q80 759 60 802T39 889Q39 925 55 961T107 1033Q127 1052 152 1062T207
1073Q238 1073 271 1060T338 1017Q388 973 443 922T553 817T662 712T761 614T845 533Q898 483 924 438T950 348Q950 316 937 283T895 213Z" />
<glyph unicode="&#xd8;" horiz-adv-x="1678" d="M133 -196Q91 -196 55 -179T-4 -131T-27 -59Q-27 -6 13 57T117 187T255 314T396 424T511 503L754 224Q719 184 663 130T537 18T395 -87T254 -166T133 -196ZM1180 677L927 917Q952 946 999 994T1105 1097T1227 1201T1347
1281T1446 1312Q1488 1312 1526 1289T1588 1226T1612 1142Q1612 1083 1567 1012T1452 872T1310 752T1180 677ZM735 -108Q591 -108 467 -71T249 40T103 219T50 465Q50 603 90 717T205 919T382 1069T609 1161T872 1193Q1025 1193 1162 1153T1405 1034T1571 844T1632
587Q1632 428 1557 300T1354 80T1066 -59T735 -108ZM847 476Q911 476 950 498T1008 552T1026 616Q1026 646 1014 673T980 721T929 755T865 768Q834 768 805 759T752 732T714 689T700 634Q700 607 711 580T741 529T788 491T847 476Z" />
<glyph unicode="&#xd9;" horiz-adv-x="1600" d="M764 -43Q508 -43 330 84T72 423Q60 455 51 488T34 555T22 625T15 698T12 773Q12 898 46 986T159 1120T367 1167Q454 1167 511 1139T598 1050T627 894Q627 866 627 838T630 782T635 730T643 681T655 638Q670 595
696 569T763 542Q793 542 816 554T857 587T887 636Q898 662 905 691T917 753T923 818T925 884Q925 982 959 1044T1061 1137T1223 1167Q1335 1167 1395 1126T1477 1002T1500 798Q1500 756 1498 716T1490 637T1478 561T1460 489T1437 419Q1384 276 1289 173T1061
13T764 -43ZM840 1276Q775 1276 699 1293T555 1342Q476 1379 422 1430T367 1541Q367 1601 399 1627T490 1654Q541 1654 606 1632T735 1574Q818 1528 879 1469T940 1356Q940 1313 911 1295T840 1276Z" />
<glyph unicode="&#xda;" horiz-adv-x="1600" d="M764 -43Q508 -43 330 84T72 423Q60 455 51 488T34 555T22 625T15 698T12 773Q12 898 46 986T159 1120T367 1167Q454 1167 511 1139T598 1050T627 894Q627 866 627 838T630 782T635 730T643 681T655 638Q670 595
696 569T763 542Q793 542 816 554T857 587T887 636Q898 662 905 691T917 753T923 818T925 884Q925 982 959 1044T1061 1137T1223 1167Q1335 1167 1395 1126T1477 1002T1500 798Q1500 756 1498 716T1490 637T1478 561T1460 489T1437 419Q1384 276 1289 173T1061
13T764 -43ZM754 1244Q712 1244 683 1262T654 1324Q654 1377 715 1436T859 1542Q922 1577 987 1599T1104 1622Q1163 1622 1195 1596T1227 1509Q1227 1449 1173 1398T1039 1310Q971 1279 895 1262T754 1244Z" />
<glyph unicode="&#xdb;" horiz-adv-x="1600" d="M764 -43Q508 -43 330 84T72 423Q60 455 51 488T34 555T22 625T15 698T12 773Q12 898 46 986T159 1120T367 1167Q454 1167 511 1139T598 1050T627 894Q627 866 627 838T630 782T635 730T643 681T655 638Q670 595
696 569T763 542Q793 542 816 554T857 587T887 636Q898 662 905 691T917 753T923 818T925 884Q925 982 959 1044T1061 1137T1223 1167Q1335 1167 1395 1126T1477 1002T1500 798Q1500 756 1498 716T1490 637T1478 561T1460 489T1437 419Q1384 276 1289 173T1061
13T764 -43ZM525 1274Q425 1274 425 1375Q425 1419 464 1471T565 1571T694 1650T815 1681Q863 1681 926 1649T1049 1567T1147 1466T1186 1375Q1186 1329 1160 1303T1090 1277Q1035 1277 1005 1303T951 1372Q936 1398 911 1426T860 1474T818 1494Q803 1494 776 1473T721
1422T673 1367Q642 1328 610 1301T525 1274Z" />
<glyph unicode="&#xdc;" horiz-adv-x="1600" d="M764 -43Q508 -43 330 84T72 423Q60 455 51 488T34 555T22 625T15 698T12 773Q12 898 46 986T159 1120T367 1167Q454 1167 511 1139T598 1050T627 894Q627 866 627 838T630 782T635 730T643 681T655 638Q670 595
696 569T763 542Q793 542 816 554T857 587T887 636Q898 662 905 691T917 753T923 818T925 884Q925 982 959 1044T1061 1137T1223 1167Q1335 1167 1395 1126T1477 1002T1500 798Q1500 756 1498 716T1490 637T1478 561T1460 489T1437 419Q1384 276 1289 173T1061
13T764 -43ZM604 1239Q499 1239 450 1285T401 1391Q401 1477 457 1517T572 1557Q620 1557 663 1543T734 1493T761 1388Q761 1325 730 1282T604 1239ZM1078 1242Q999 1242 949 1285T898 1394Q898 1471 956 1521T1100 1571Q1177 1571 1214 1525T1252 1419Q1252 1346
1205 1294T1078 1242Z" />
<glyph unicode="&#xdd;" horiz-adv-x="1557" d="M762 -20Q641 -20 586 22T508 152Q504 170 501 189T494 230T489 276T484 325Q477 405 465 467T413 552Q363 581 317 599T227 640Q172 667 133 696T68 758T31 830T19 918Q19 1005 60 1066T172 1161T327 1194Q392
1194 443 1174T539 1098Q562 1070 587 1041T637 986Q660 964 684 947T734 921T789 912Q821 912 849 930T903 976Q934 1008 962 1044T1020 1103Q1066 1139 1114 1159T1220 1179Q1304 1179 1372 1137T1480 1026T1520 877Q1520 856 1518 833T1507 784T1484 734T1442
683Q1380 622 1325 589T1195 520Q1149 499 1123 485T1081 458T1050 422Q1044 412 1038 391T1025 340T1012 273T1000 193Q987 96 925 38T762 -20ZM758 1244Q716 1244 687 1262T658 1324Q658 1377 719 1436T863 1542Q926 1577 991 1599T1108 1622Q1167 1622 1199
1596T1231 1509Q1231 1449 1177 1398T1043 1310Q975 1279 899 1262T758 1244Z" />
<glyph unicode="&#xde;" horiz-adv-x="1272" d="M313 -48Q268 -48 213 -27T112 33T50 122Q31 178 22 243T9 378T5 510Q5 594 9 693T22 879T42 1007Q58 1065 101 1103T199 1162T305 1182Q384 1182 446 1162T546 1084T585 917Q586 890 607 887T663 890T737 900Q876
912 961 892T1095 828T1173 725Q1190 693 1197 633T1202 511T1180 415Q1142 339 1080 297T933 238T745 223Q694 224 658 226T603 224T583 198Q583 99 556 46T470 -27T313 -48ZM648 487Q684 487 721 493T784 516T810 563Q810 607 771 625T695 643Q676 643 659 641T627
632T602 617Q589 608 581 595T570 568T570 539T582 513Q588 506 595 501T611 493T629 489T648 487Z" />
<glyph unicode="&#xdf;" horiz-adv-x="1435" d="M323 -57Q226 -57 167 -24T78 71T37 221T26 421Q26 476 32 532T50 646T81 757T124 862T179 957T247 1038Q339 1127 468 1175T773 1223Q862 1223 947 1205T1100 1146T1209 1039T1250 876Q1250 785 1219 735T1167
664Q1148 643 1138 631T1128 610Q1128 600 1144 590T1205 559Q1259 535 1298 492T1357 392T1378 275Q1378 193 1342 126T1243 9T1102 -66T938 -93Q876 -93 807 -81T689 -31T641 83Q641 135 663 161T721 198T795 217Q831 224 859 237T903 266T919 300Q919 326 886
342T812 372Q753 392 720 425T687 512Q687 563 704 589T762 643Q789 661 797 675T806 717Q806 747 794 766T759 794T708 803Q677 803 646 775T593 691T572 550Q572 470 571 407T566 292T555 198T537 117T508 40Q484 -15 441 -36T323 -57Z" />
<glyph unicode="&#xe0;" horiz-adv-x="1433" d="M569 -146Q481 -146 393 -131T233 -78T118 24T74 184Q74 271 119 330T241 425T415 477T618 493Q640 493 661 492T699 489T726 487Q746 487 754 494T762 518Q762 524 761 528T756 537T748 545Q735 555 711 560T656
566Q614 566 562 558T452 540T329 531Q211 531 145 570T78 691Q78 766 124 819T248 905T420 953T608 968Q808 968 947 931T1160 798T1234 527Q1234 496 1232 473T1227 432T1222 400T1220 370Q1220 340 1241 310T1291 245T1341 169T1363 76Q1363 -1 1314 -38T1198
-76Q1150 -76 1122 -55T1074 -12T1034 10Q1018 10 997 -1T948 -30Q915 -51 864 -78T741 -126T569 -146ZM607 162Q628 162 649 167T690 181T720 205T732 237Q732 256 721 266T693 282T659 287Q631 287 601 281T551 258T530 213Q530 194 542 183T571 167T607 162ZM678
1029Q613 1029 537 1046T393 1095Q314 1132 260 1183T205 1294Q205 1354 237 1380T328 1407Q379 1407 444 1385T573 1327Q656 1281 717 1222T778 1109Q778 1066 749 1048T678 1029Z" />
<glyph unicode="&#xe1;" horiz-adv-x="1433" d="M569 -146Q481 -146 393 -131T233 -78T118 24T74 184Q74 271 119 330T241 425T415 477T618 493Q640 493 661 492T699 489T726 487Q746 487 754 494T762 518Q762 524 761 528T756 537T748 545Q735 555 711 560T656
566Q614 566 562 558T452 540T329 531Q211 531 145 570T78 691Q78 766 124 819T248 905T420 953T608 968Q808 968 947 931T1160 798T1234 527Q1234 496 1232 473T1227 432T1222 400T1220 370Q1220 340 1241 310T1291 245T1341 169T1363 76Q1363 -1 1314 -38T1198
-76Q1150 -76 1122 -55T1074 -12T1034 10Q1018 10 997 -1T948 -30Q915 -51 864 -78T741 -126T569 -146ZM607 162Q628 162 649 167T690 181T720 205T732 237Q732 256 721 266T693 282T659 287Q631 287 601 281T551 258T530 213Q530 194 542 183T571 167T607 162ZM592
997Q550 997 521 1015T492 1077Q492 1130 553 1189T697 1295Q760 1330 825 1352T942 1375Q1001 1375 1033 1349T1065 1262Q1065 1202 1011 1151T877 1063Q809 1032 733 1015T592 997Z" />
<glyph unicode="&#xe2;" horiz-adv-x="1433" d="M569 -146Q481 -146 393 -131T233 -78T118 24T74 184Q74 271 119 330T241 425T415 477T618 493Q640 493 661 492T699 489T726 487Q746 487 754 494T762 518Q762 524 761 528T756 537T748 545Q735 555 711 560T656
566Q614 566 562 558T452 540T329 531Q211 531 145 570T78 691Q78 766 124 819T248 905T420 953T608 968Q808 968 947 931T1160 798T1234 527Q1234 496 1232 473T1227 432T1222 400T1220 370Q1220 340 1241 310T1291 245T1341 169T1363 76Q1363 -1 1314 -38T1198
-76Q1150 -76 1122 -55T1074 -12T1034 10Q1018 10 997 -1T948 -30Q915 -51 864 -78T741 -126T569 -146ZM607 162Q628 162 649 167T690 181T720 205T732 237Q732 256 721 266T693 282T659 287Q631 287 601 281T551 258T530 213Q530 194 542 183T571 167T607 162ZM363
1027Q263 1027 263 1128Q263 1172 302 1224T403 1324T532 1403T653 1434Q701 1434 764 1402T887 1320T985 1219T1024 1128Q1024 1082 998 1056T928 1030Q873 1030 843 1056T789 1125Q774 1151 749 1179T698 1227T656 1247Q641 1247 614 1226T559 1175T511 1120Q480
1081 448 1054T363 1027Z" />
<glyph unicode="&#xe3;" horiz-adv-x="1433" d="M569 -146Q481 -146 393 -131T233 -78T118 24T74 184Q74 271 119 330T241 425T415 477T618 493Q640 493 661 492T699 489T726 487Q746 487 754 494T762 518Q762 524 761 528T756 537T748 545Q735 555 711 560T656
566Q614 566 562 558T452 540T329 531Q211 531 145 570T78 691Q78 766 124 819T248 905T420 953T608 968Q808 968 947 931T1160 798T1234 527Q1234 496 1232 473T1227 432T1222 400T1220 370Q1220 340 1241 310T1291 245T1341 169T1363 76Q1363 -1 1314 -38T1198
-76Q1150 -76 1122 -55T1074 -12T1034 10Q1018 10 997 -1T948 -30Q915 -51 864 -78T741 -126T569 -146ZM607 162Q628 162 649 167T690 181T720 205T732 237Q732 256 721 266T693 282T659 287Q631 287 601 281T551 258T530 213Q530 194 542 183T571 167T607 162ZM424
1044Q396 1044 377 1059T358 1115Q358 1169 384 1215T455 1289T555 1317Q599 1317 627 1300T677 1261T716 1221T755 1204Q778 1204 793 1217T826 1265Q840 1291 856 1303T900 1315Q923 1315 942 1300T961 1238Q961 1191 933 1148T860 1077T767 1050Q726 1050 697
1066T645 1102T604 1139T567 1155Q549 1155 533 1142T504 1102Q487 1064 467 1054T424 1044Z" />
<glyph unicode="&#xe4;" horiz-adv-x="1433" d="M569 -146Q481 -146 393 -131T233 -78T118 24T74 184Q74 271 119 330T241 425T415 477T618 493Q640 493 661 492T699 489T726 487Q746 487 754 494T762 518Q762 524 761 528T756 537T748 545Q735 555 711 560T656
566Q614 566 562 558T452 540T329 531Q211 531 145 570T78 691Q78 766 124 819T248 905T420 953T608 968Q808 968 947 931T1160 798T1234 527Q1234 496 1232 473T1227 432T1222 400T1220 370Q1220 340 1241 310T1291 245T1341 169T1363 76Q1363 -1 1314 -38T1198
-76Q1150 -76 1122 -55T1074 -12T1034 10Q1018 10 997 -1T948 -30Q915 -51 864 -78T741 -126T569 -146ZM607 162Q628 162 649 167T690 181T720 205T732 237Q732 256 721 266T693 282T659 287Q631 287 601 281T551 258T530 213Q530 194 542 183T571 167T607 162ZM442
992Q337 992 288 1038T239 1144Q239 1230 295 1270T410 1310Q458 1310 501 1296T572 1246T599 1141Q599 1078 568 1035T442 992ZM916 995Q837 995 787 1038T736 1147Q736 1224 794 1274T938 1324Q1015 1324 1052 1278T1090 1172Q1090 1099 1043 1047T916 995Z"
/>
<glyph unicode="&#xe5;" horiz-adv-x="1433" d="M569 -146Q481 -146 393 -131T233 -78T118 24T74 184Q74 271 119 330T241 425T415 477T618 493Q640 493 661 492T699 489T726 487Q746 487 754 494T762 518Q762 524 761 528T756 537T748 545Q735 555 711 560T656
566Q614 566 562 558T452 540T329 531Q211 531 145 570T78 691Q78 766 124 819T248 905T420 953T608 968Q808 968 947 931T1160 798T1234 527Q1234 496 1232 473T1227 432T1222 400T1220 370Q1220 340 1241 310T1291 245T1341 169T1363 76Q1363 -1 1314 -38T1198
-76Q1150 -76 1122 -55T1074 -12T1034 10Q1018 10 997 -1T948 -30Q915 -51 864 -78T741 -126T569 -146ZM607 162Q628 162 649 167T690 181T720 205T732 237Q732 256 721 266T693 282T659 287Q631 287 601 281T551 258T530 213Q530 194 542 183T571 167T607 162ZM631
1027Q519 1027 458 1071T397 1196Q397 1275 459 1327T645 1379Q767 1379 822 1334T878 1208Q878 1138 839 1099T743 1043T631 1027ZM642 1164Q673 1164 687 1177T701 1213Q701 1240 683 1254T635 1268Q611 1268 597 1255T582 1215Q582 1190 599 1177T642 1164Z"
/>
<glyph unicode="&#xe6;" horiz-adv-x="2048" d="M666 1040Q845 1040 982 985T1196 816T1274 532Q1274 391 1225 284T1088 103T886 -8T641 -46Q553 -46 465 -32T304 14T187 102T143 242Q143 298 158 339T202 411T267 463T349 503Q394 521 461 537T597 563T718 573Q750
573 762 580T775 603Q775 614 771 621T757 634Q746 641 729 643T689 646Q638 646 574 627T433 589T273 570Q183 570 129 603T74 734Q74 816 124 874T258 969T449 1023T666 1040ZM707 369Q684 369 654 360T600 332T577 287Q577 253 604 246T660 238Q680 238 700
244T738 262T765 289T776 321Q776 342 767 352T742 365T707 369ZM1416 -20Q1238 -20 1101 35T886 204T808 488Q808 629 857 736T994 917T1196 1028T1441 1066Q1529 1066 1617 1053T1778 1007T1895 918T1939 778Q1939 722 1924 681T1880 609T1815 557T1733 517Q1689
499 1622 483T1485 457T1364 447Q1333 447 1320 441T1307 417Q1307 407 1311 399T1325 386Q1336 379 1353 377T1393 374Q1444 374 1509 393T1649 431T1809 450Q1899 450 1953 417T2008 286Q2008 204 1958 146T1824 51T1633 -3T1416 -20ZM1375 651Q1398 651 1428
660T1482 688T1505 733Q1505 767 1478 774T1422 782Q1402 782 1382 776T1344 758T1317 731T1306 699Q1306 679 1315 669T1341 655T1375 651Z" />
<glyph unicode="&#xe7;" horiz-adv-x="1280" d="M692 -44Q561 -44 443 -17T232 71T86 233T33 482Q33 631 77 742T207 926T419 1036T708 1073Q841 1073 923 1045T1044 969T1083 866Q1083 821 1060 786T999 729T922 708Q889 708 863 714T805 725T728 731Q694 731
666 720T617 689T585 641T573 577Q573 518 590 483T641 433T728 417Q760 417 797 422T873 433T943 445T995 450Q1065 450 1105 419T1163 343T1180 253Q1180 170 1141 113T1033 22T877 -28T692 -44ZM686 -473Q625 -473 561 -466T454 -435T410 -361Q410 -315 437
-292T507 -268Q545 -268 567 -278T613 -298T680 -308Q729 -308 756 -300T795 -278T806 -247Q806 -226 794 -220T756 -213Q735 -213 715 -219T669 -231T607 -237Q554 -237 512 -217T470 -128Q470 -98 475 -73T489 -26T510 10Q529 35 563 58T669 82Q719 82 746 59T773
5Q773 -24 764 -45T755 -90Q755 -108 773 -108Q787 -108 805 -97T850 -75T912 -64Q947 -64 981 -78T1037 -128T1060 -231Q1060 -355 957 -414T686 -473Z" />
<glyph unicode="&#xe8;" horiz-adv-x="1260" d="M628 -93Q450 -93 313 -38T98 131T20 415Q20 556 69 663T206 844T408 955T653 993Q741 993 829 980T990 934T1107 845T1151 705Q1151 649 1136 608T1092 536T1027 484T945 444Q901 426 834 410T697 384T576 374Q545
374 532 368T519 344Q519 334 523 326T537 313Q548 306 565 304T605 301Q656 301 721 320T861 358T1021 377Q1111 377 1165 344T1220 213Q1220 131 1170 73T1036 -22T845 -76T628 -93ZM587 578Q610 578 640 587T694 615T717 660Q717 694 690 701T634 709Q614 709
594 703T556 685T529 658T518 626Q518 606 527 596T553 582T587 578ZM689 1149Q624 1149 548 1166T404 1215Q325 1252 271 1303T216 1414Q216 1474 248 1500T339 1527Q390 1527 455 1505T584 1447Q667 1401 728 1342T789 1229Q789 1186 760 1168T689 1149Z" />
<glyph unicode="&#xe9;" horiz-adv-x="1260" d="M628 -93Q450 -93 313 -38T98 131T20 415Q20 556 69 663T206 844T408 955T653 993Q741 993 829 980T990 934T1107 845T1151 705Q1151 649 1136 608T1092 536T1027 484T945 444Q901 426 834 410T697 384T576 374Q545
374 532 368T519 344Q519 334 523 326T537 313Q548 306 565 304T605 301Q656 301 721 320T861 358T1021 377Q1111 377 1165 344T1220 213Q1220 131 1170 73T1036 -22T845 -76T628 -93ZM587 578Q610 578 640 587T694 615T717 660Q717 694 690 701T634 709Q614 709
594 703T556 685T529 658T518 626Q518 606 527 596T553 582T587 578ZM603 1117Q561 1117 532 1135T503 1197Q503 1250 564 1309T708 1415Q771 1450 836 1472T953 1495Q1012 1495 1044 1469T1076 1382Q1076 1322 1022 1271T888 1183Q820 1152 744 1135T603 1117Z"
/>
<glyph unicode="&#xea;" horiz-adv-x="1260" d="M628 -93Q450 -93 313 -38T98 131T20 415Q20 556 69 663T206 844T408 955T653 993Q741 993 829 980T990 934T1107 845T1151 705Q1151 649 1136 608T1092 536T1027 484T945 444Q901 426 834 410T697 384T576 374Q545
374 532 368T519 344Q519 334 523 326T537 313Q548 306 565 304T605 301Q656 301 721 320T861 358T1021 377Q1111 377 1165 344T1220 213Q1220 131 1170 73T1036 -22T845 -76T628 -93ZM587 578Q610 578 640 587T694 615T717 660Q717 694 690 701T634 709Q614 709
594 703T556 685T529 658T518 626Q518 606 527 596T553 582T587 578ZM374 1147Q274 1147 274 1248Q274 1292 313 1344T414 1444T543 1523T664 1554Q712 1554 775 1522T898 1440T996 1339T1035 1248Q1035 1202 1009 1176T939 1150Q884 1150 854 1176T800 1245Q785
1271 760 1299T709 1347T667 1367Q652 1367 625 1346T570 1295T522 1240Q491 1201 459 1174T374 1147Z" />
<glyph unicode="&#xeb;" horiz-adv-x="1260" d="M628 -93Q450 -93 313 -38T98 131T20 415Q20 556 69 663T206 844T408 955T653 993Q741 993 829 980T990 934T1107 845T1151 705Q1151 649 1136 608T1092 536T1027 484T945 444Q901 426 834 410T697 384T576 374Q545
374 532 368T519 344Q519 334 523 326T537 313Q548 306 565 304T605 301Q656 301 721 320T861 358T1021 377Q1111 377 1165 344T1220 213Q1220 131 1170 73T1036 -22T845 -76T628 -93ZM587 578Q610 578 640 587T694 615T717 660Q717 694 690 701T634 709Q614 709
594 703T556 685T529 658T518 626Q518 606 527 596T553 582T587 578ZM453 1112Q348 1112 299 1158T250 1264Q250 1350 306 1390T421 1430Q469 1430 512 1416T583 1366T610 1261Q610 1198 579 1155T453 1112ZM927 1115Q848 1115 798 1158T747 1267Q747 1344 805
1394T949 1444Q1026 1444 1063 1398T1101 1292Q1101 1219 1054 1167T927 1115Z" />
<glyph unicode="&#xec;" horiz-adv-x="788" d="M308 -45Q196 -45 136 -7T52 103T29 276Q29 306 30 335T34 391T41 443T51 493T64 539T80 582Q125 686 213 757T440 828Q526 828 582 780T665 649T692 465Q692 425 690 387T682 315T670 248T651 187T627 132T597 84Q551
22 480 -11T308 -45ZM709 892Q644 892 568 909T424 958Q345 995 291 1046T236 1157Q236 1217 268 1243T359 1270Q410 1270 475 1248T604 1190Q687 1144 748 1085T809 972Q809 929 780 911T709 892Z" />
<glyph unicode="&#xed;" horiz-adv-x="788" d="M308 -45Q196 -45 136 -7T52 103T29 276Q29 306 30 335T34 391T41 443T51 493T64 539T80 582Q125 686 213 757T440 828Q526 828 582 780T665 649T692 465Q692 425 690 387T682 315T670 248T651 187T627 132T597 84Q551
22 480 -11T308 -45ZM367 860Q325 860 296 878T267 940Q267 993 328 1052T472 1158Q535 1193 600 1215T717 1238Q776 1238 808 1212T840 1125Q840 1065 786 1014T652 926Q584 895 508 878T367 860Z" />
<glyph unicode="&#xee;" horiz-adv-x="788" d="M308 -45Q196 -45 136 -7T52 103T29 276Q29 306 30 335T34 391T41 443T51 493T64 539T80 582Q125 686 213 757T440 828Q526 828 582 780T665 649T692 465Q692 425 690 387T682 315T670 248T651 187T627 132T597 84Q551
22 480 -11T308 -45ZM394 890Q294 890 294 991Q294 1035 333 1087T434 1187T563 1266T684 1297Q732 1297 795 1265T918 1183T1016 1082T1055 991Q1055 945 1029 919T959 893Q904 893 874 919T820 988Q805 1014 780 1042T729 1090T687 1110Q672 1110 645 1089T590
1038T542 983Q511 944 479 917T394 890Z" />
<glyph unicode="&#xef;" horiz-adv-x="788" d="M308 -45Q196 -45 136 -7T52 103T29 276Q29 306 30 335T34 391T41 443T51 493T64 539T80 582Q125 686 213 757T440 828Q526 828 582 780T665 649T692 465Q692 425 690 387T682 315T670 248T651 187T627 132T597 84Q551
22 480 -11T308 -45ZM473 855Q368 855 319 901T270 1007Q270 1093 326 1133T441 1173Q489 1173 532 1159T603 1109T630 1004Q630 941 599 898T473 855ZM947 858Q868 858 818 901T767 1010Q767 1087 825 1137T969 1187Q1046 1187 1083 1141T1121 1035Q1121 962 1074
910T947 858Z" />
<glyph unicode="&#xf0;" horiz-adv-x="1191" d="M541 -63Q432 -63 339 -32T178 57T71 195T33 373Q33 454 64 517T152 625T283 692T443 715Q479 715 505 710T550 696T583 679Q594 673 600 673Q607 673 607 681Q607 686 604 693Q597 708 581 730T544 778T501 825T458
861Q441 848 419 835T372 810T325 792T284 785Q227 785 211 809T194 867Q194 880 199 893T211 920Q224 942 243 962T281 997T313 1020Q303 1033 285 1043T246 1063Q207 1081 172 1107T137 1179Q137 1223 167 1245T254 1267Q275 1267 309 1257T382 1233T452 1203T500
1176Q517 1193 546 1214T610 1253Q633 1264 656 1271T699 1279Q761 1279 801 1254T841 1178Q841 1163 833 1144T812 1106T781 1067T743 1030Q814 970 877 891T990 723T1067 541T1096 360Q1096 210 1025 117T828 -19T541 -63ZM556 248Q579 248 601 253T642 269T672
299T684 344Q684 367 675 386T651 420T616 443T573 451Q544 451 515 437T466 398T446 340Q446 314 461 293T502 260T556 248Z" />
<glyph unicode="&#xf1;" horiz-adv-x="1520" d="M295 -22Q201 -22 138 8T43 109Q34 129 29 153T20 205T17 264Q17 475 106 624T351 853T708 933Q911 933 1072 855T1328 632T1422 285Q1422 255 1418 228T1407 175T1388 127Q1354 57 1289 18T1138 -22Q1032 -22 974
4T889 80T852 198Q845 242 839 278T825 344T812 395T798 435Q782 472 764 485T720 499Q701 499 684 486T651 437Q643 419 635 395T620 338T605 265T590 174Q579 97 536 55T431 -5T295 -22ZM496 1051Q468 1051 449 1066T430 1122Q430 1176 456 1222T527 1296T627
1324Q671 1324 699 1307T749 1268T788 1228T827 1211Q850 1211 865 1224T898 1272Q912 1298 928 1310T972 1322Q995 1322 1014 1307T1033 1245Q1033 1198 1005 1155T932 1084T839 1057Q798 1057 769 1073T717 1109T676 1146T639 1162Q621 1162 605 1149T576 1109Q559
1071 539 1061T496 1051Z" />
<glyph unicode="&#xf2;" horiz-adv-x="1483" d="M712 -62Q582 -62 461 -35T243 51T90 203T33 428Q33 573 86 686T234 877T454 996T723 1037Q866 1037 987 1002T1199 897T1338 723T1388 478Q1388 361 1331 263T1178 92T961 -21T712 -62ZM684 414Q720 414 746 424T790
453T817 495T826 543Q826 570 814 590T782 623T738 642T687 649Q650 649 620 635T573 595T555 533Q555 499 572 472T618 430T684 414ZM782 1129Q717 1129 641 1146T497 1195Q418 1232 364 1283T309 1394Q309 1454 341 1480T432 1507Q483 1507 548 1485T677 1427Q760
1381 821 1322T882 1209Q882 1166 853 1148T782 1129Z" />
<glyph unicode="&#xf3;" horiz-adv-x="1483" d="M712 -62Q582 -62 461 -35T243 51T90 203T33 428Q33 573 86 686T234 877T454 996T723 1037Q866 1037 987 1002T1199 897T1338 723T1388 478Q1388 361 1331 263T1178 92T961 -21T712 -62ZM684 414Q720 414 746 424T790
453T817 495T826 543Q826 570 814 590T782 623T738 642T687 649Q650 649 620 635T573 595T555 533Q555 499 572 472T618 430T684 414ZM696 1097Q654 1097 625 1115T596 1177Q596 1230 657 1289T801 1395Q864 1430 929 1452T1046 1475Q1105 1475 1137 1449T1169
1362Q1169 1302 1115 1251T981 1163Q913 1132 837 1115T696 1097Z" />
<glyph unicode="&#xf4;" horiz-adv-x="1483" d="M712 -62Q582 -62 461 -35T243 51T90 203T33 428Q33 573 86 686T234 877T454 996T723 1037Q866 1037 987 1002T1199 897T1338 723T1388 478Q1388 361 1331 263T1178 92T961 -21T712 -62ZM684 414Q720 414 746 424T790
453T817 495T826 543Q826 570 814 590T782 623T738 642T687 649Q650 649 620 635T573 595T555 533Q555 499 572 472T618 430T684 414ZM467 1127Q367 1127 367 1228Q367 1272 406 1324T507 1424T636 1503T757 1534Q805 1534 868 1502T991 1420T1089 1319T1128 1228Q1128
1182 1102 1156T1032 1130Q977 1130 947 1156T893 1225Q878 1251 853 1279T802 1327T760 1347Q745 1347 718 1326T663 1275T615 1220Q584 1181 552 1154T467 1127Z" />
<glyph unicode="&#xf5;" horiz-adv-x="1483" d="M712 -62Q582 -62 461 -35T243 51T90 203T33 428Q33 573 86 686T234 877T454 996T723 1037Q866 1037 987 1002T1199 897T1338 723T1388 478Q1388 361 1331 263T1178 92T961 -21T712 -62ZM684 414Q720 414 746 424T790
453T817 495T826 543Q826 570 814 590T782 623T738 642T687 649Q650 649 620 635T573 595T555 533Q555 499 572 472T618 430T684 414ZM528 1144Q500 1144 481 1159T462 1215Q462 1269 488 1315T559 1389T659 1417Q703 1417 731 1400T781 1361T820 1321T859 1304Q882
1304 897 1317T930 1365Q944 1391 960 1403T1004 1415Q1027 1415 1046 1400T1065 1338Q1065 1291 1037 1248T964 1177T871 1150Q830 1150 801 1166T749 1202T708 1239T671 1255Q653 1255 637 1242T608 1202Q591 1164 571 1154T528 1144Z" />
<glyph unicode="&#xf6;" horiz-adv-x="1483" d="M712 -62Q582 -62 461 -35T243 51T90 203T33 428Q33 573 86 686T234 877T454 996T723 1037Q866 1037 987 1002T1199 897T1338 723T1388 478Q1388 361 1331 263T1178 92T961 -21T712 -62ZM684 414Q720 414 746 424T790
453T817 495T826 543Q826 570 814 590T782 623T738 642T687 649Q650 649 620 635T573 595T555 533Q555 499 572 472T618 430T684 414ZM546 1092Q441 1092 392 1138T343 1244Q343 1330 399 1370T514 1410Q562 1410 605 1396T676 1346T703 1241Q703 1178 672 1135T546
1092ZM1020 1095Q941 1095 891 1138T840 1247Q840 1324 898 1374T1042 1424Q1119 1424 1156 1378T1194 1272Q1194 1199 1147 1147T1020 1095Z" />
<glyph unicode="&#xf7;" horiz-adv-x="1232" d="M600 72Q517 72 451 112T384 229Q384 271 415 304T493 356T587 376Q638 376 684 353T760 292T790 204Q790 156 765 127T697 85T600 72ZM509 455Q427 455 344 461T192 483T81 528T39 603Q39 660 75 694T179 744T344
765T565 770Q677 770 779 767T960 749T1086 700T1132 603Q1132 550 1081 520T941 476T742 459T509 455ZM590 877Q507 877 441 917T374 1034Q374 1076 405 1109T483 1161T577 1181Q628 1181 674 1158T750 1097T780 1009Q780 936 725 907T590 877Z" />
<glyph unicode="&#xf8;" horiz-adv-x="1483" d="M22 -233Q-30 -233 -73 -208T-117 -148Q-117 -114 -80 -57T15 70Q73 139 145 210T288 337Q355 390 398 415T479 435T563 387Q636 323 627 262T538 105Q477 32 398 -39T237 -160Q182 -194 127 -213T22 -233ZM1045
647Q984 621 929 628T837 666T796 743T832 842Q878 901 936 962T1053 1075Q1112 1125 1163 1157T1248 1190Q1352 1190 1406 1164T1460 1087Q1460 1059 1445 1027T1398 957Q1370 920 1332 876T1248 788Q1203 745 1152 708T1045 647ZM712 -62Q582 -62 461 -35T243
51T90 203T33 428Q33 573 86 686T234 877T454 996T723 1037Q866 1037 987 1002T1199 897T1338 723T1388 478Q1388 361 1331 263T1178 92T961 -21T712 -62ZM684 414Q720 414 746 424T790 453T817 495T826 543Q826 570 814 590T782 623T738 642T687 649Q650 649 620
635T573 595T555 533Q555 499 572 472T618 430T684 414Z" />
<glyph unicode="&#xf9;" horiz-adv-x="1540" d="M750 -78Q582 -78 448 -42T218 69T73 260T22 535Q22 579 27 620T44 698T72 767Q113 847 186 893T363 940Q465 940 515 910T583 836T603 751Q605 725 606 702T610 657T614 616T620 578Q632 512 650 473T697 417T766
399Q792 399 817 412T864 458T900 550Q907 578 910 604T916 656T924 707T938 757Q964 825 1024 869T1197 913Q1296 913 1349 864T1427 732Q1434 707 1439 679T1446 621T1450 558T1452 493Q1452 285 1361 160T1112 -22T750 -78ZM827 998Q762 998 686 1015T542 1064Q463
1101 409 1152T354 1263Q354 1323 386 1349T477 1376Q528 1376 593 1354T722 1296Q805 1250 866 1191T927 1078Q927 1035 898 1017T827 998Z" />
<glyph unicode="&#xfa;" horiz-adv-x="1540" d="M750 -78Q582 -78 448 -42T218 69T73 260T22 535Q22 579 27 620T44 698T72 767Q113 847 186 893T363 940Q465 940 515 910T583 836T603 751Q605 725 606 702T610 657T614 616T620 578Q632 512 650 473T697 417T766
399Q792 399 817 412T864 458T900 550Q907 578 910 604T916 656T924 707T938 757Q964 825 1024 869T1197 913Q1296 913 1349 864T1427 732Q1434 707 1439 679T1446 621T1450 558T1452 493Q1452 285 1361 160T1112 -22T750 -78ZM741 966Q699 966 670 984T641 1046Q641
1099 702 1158T846 1264Q909 1299 974 1321T1091 1344Q1150 1344 1182 1318T1214 1231Q1214 1171 1160 1120T1026 1032Q958 1001 882 984T741 966Z" />
<glyph unicode="&#xfb;" horiz-adv-x="1540" d="M750 -78Q582 -78 448 -42T218 69T73 260T22 535Q22 579 27 620T44 698T72 767Q113 847 186 893T363 940Q465 940 515 910T583 836T603 751Q605 725 606 702T610 657T614 616T620 578Q632 512 650 473T697 417T766
399Q792 399 817 412T864 458T900 550Q907 578 910 604T916 656T924 707T938 757Q964 825 1024 869T1197 913Q1296 913 1349 864T1427 732Q1434 707 1439 679T1446 621T1450 558T1452 493Q1452 285 1361 160T1112 -22T750 -78ZM512 996Q412 996 412 1097Q412 1141
451 1193T552 1293T681 1372T802 1403Q850 1403 913 1371T1036 1289T1134 1188T1173 1097Q1173 1051 1147 1025T1077 999Q1022 999 992 1025T938 1094Q923 1120 898 1148T847 1196T805 1216Q790 1216 763 1195T708 1144T660 1089Q629 1050 597 1023T512 996Z" />
<glyph unicode="&#xfc;" horiz-adv-x="1540" d="M750 -78Q582 -78 448 -42T218 69T73 260T22 535Q22 579 27 620T44 698T72 767Q113 847 186 893T363 940Q465 940 515 910T583 836T603 751Q605 725 606 702T610 657T614 616T620 578Q632 512 650 473T697 417T766
399Q792 399 817 412T864 458T900 550Q907 578 910 604T916 656T924 707T938 757Q964 825 1024 869T1197 913Q1296 913 1349 864T1427 732Q1434 707 1439 679T1446 621T1450 558T1452 493Q1452 285 1361 160T1112 -22T750 -78ZM591 961Q486 961 437 1007T388 1113Q388
1199 444 1239T559 1279Q607 1279 650 1265T721 1215T748 1110Q748 1047 717 1004T591 961ZM1065 964Q986 964 936 1007T885 1116Q885 1193 943 1243T1087 1293Q1164 1293 1201 1247T1239 1141Q1239 1068 1192 1016T1065 964Z" />
<glyph unicode="&#xfd;" horiz-adv-x="1523" d="M393 -450Q296 -450 235 -398T174 -269Q174 -192 217 -142T344 -64Q384 -51 433 -34T526 5T599 52T628 107Q628 132 594 156T463 211Q390 234 325 263T207 327T114 406T54 502T32 615Q32 690 67 751T165 849T309
885Q422 885 499 846T632 724Q668 670 685 623T726 542Q743 520 763 506T802 492Q831 492 854 513T887 566Q901 608 926 672T979 774Q1018 828 1078 863T1228 898Q1376 898 1434 827T1493 639Q1493 589 1475 528T1425 400T1354 266T1271 137T1187 23Q1106 -79 1017
-165T829 -316T622 -415T393 -450ZM726 965Q684 965 655 983T626 1045Q626 1098 687 1157T831 1263Q894 1298 959 1320T1076 1343Q1135 1343 1167 1317T1199 1230Q1199 1170 1145 1119T1011 1031Q943 1000 867 983T726 965Z" />
<glyph unicode="&#xfe;" horiz-adv-x="1454" d="M384 -475Q275 -475 210 -420T116 -278Q97 -220 83 -148T57 3T38 161T27 312T23 443Q23 532 29 613T48 768T84 905T138 1023Q181 1095 235 1145T351 1223T484 1250Q597 1250 644 1202T691 1053Q691 1025 689 997T683
943T676 893T670 851T667 817Q667 785 684 785Q707 785 732 797T790 826T866 855T967 868Q1069 868 1143 834T1265 736T1336 589T1359 403Q1359 297 1339 211T1274 64T1161 -30T992 -63Q901 -63 852 -56T774 -43T710 -36Q657 -36 641 -70T624 -163Q624 -182 623
-205T620 -252T615 -297T608 -332Q587 -402 534 -438T384 -475ZM693 260Q716 260 737 267T776 289T803 330T814 393Q814 440 799 464T757 498T699 508Q662 508 622 482T581 385Q581 375 582 366T584 347T588 330T594 315Q603 298 617 286T650 267T693 260Z" />
<glyph unicode="&#xff;" horiz-adv-x="1523" d="M393 -450Q296 -450 235 -398T174 -269Q174 -192 217 -142T344 -64Q384 -51 433 -34T526 5T599 52T628 107Q628 132 594 156T463 211Q390 234 325 263T207 327T114 406T54 502T32 615Q32 690 67 751T165 849T309
885Q422 885 499 846T632 724Q668 670 685 623T726 542Q743 520 763 506T802 492Q831 492 854 513T887 566Q901 608 926 672T979 774Q1018 828 1078 863T1228 898Q1376 898 1434 827T1493 639Q1493 589 1475 528T1425 400T1354 266T1271 137T1187 23Q1106 -79 1017
-165T829 -316T622 -415T393 -450ZM576 960Q471 960 422 1006T373 1112Q373 1198 429 1238T544 1278Q592 1278 635 1264T706 1214T733 1109Q733 1046 702 1003T576 960ZM1050 963Q971 963 921 1006T870 1115Q870 1192 928 1242T1072 1292Q1149 1292 1186 1246T1224
1140Q1224 1067 1177 1015T1050 963Z" />
<glyph unicode="&#x2013;" horiz-adv-x="1330" d="M669 447Q470 447 339 458T133 492T27 548T-5 626Q-5 676 38 714T166 779T377 818T668 832Q740 832 826 827T997 808T1154 773T1268 715T1311 630Q1311 550 1235 511T1015 460T669 447Z" />
<glyph unicode="&#x2014;" horiz-adv-x="1713" d="M874 447Q620 447 454 458T191 492T55 548T15 626Q15 676 70 714T233 779T502 818T873 832Q964 832 1074 827T1292 808T1491 773T1637 715T1692 630Q1692 550 1595 511T1314 460T874 447Z" />
<glyph unicode="&#x2018;" horiz-adv-x="538" d="M220 734Q168 734 137 763T91 837T76 922Q76 967 92 1021T137 1120Q184 1191 248 1223T391 1255Q429 1255 452 1232T475 1180Q475 1161 465 1143T440 1108T411 1078Q391 1060 380 1031T365 971T361 914Q361 829
331 782T220 734Z" />
<glyph unicode="&#x2019;" horiz-adv-x="592" d="M342 724Q263 724 237 770T211 894Q211 932 202 981T161 1058Q147 1071 132 1087T107 1122T97 1160Q97 1189 120 1212T181 1235Q234 1235 277 1221T357 1178T425 1100Q454 1055 470 1001T486 902Q486 861 472 820T426
751T342 724Z" />
<glyph unicode="&#x201a;" horiz-adv-x="467" d="M280 -404Q201 -404 175 -358T149 -234Q149 -196 140 -147T99 -70Q85 -57 70 -41T45 -6T35 32Q35 61 58 84T119 107Q172 107 215 93T295 50T363 -28Q392 -73 408 -127T424 -226Q424 -267 410 -308T364 -377T280 -404Z" />
<glyph unicode="&#x201c;" horiz-adv-x="848" d="M187 799Q114 799 79 848T44 958Q44 994 52 1038T77 1123T116 1191Q160 1241 212 1262T318 1284Q335 1284 359 1280T401 1262T419 1213Q419 1195 412 1180T392 1149T360 1114Q331 1084 320 1042T305 952Q301 886
274 843T187 799ZM549 734Q497 734 466 763T420 837T405 922Q405 967 421 1021T466 1120Q513 1191 577 1223T720 1255Q758 1255 781 1232T804 1180Q804 1161 794 1143T769 1108T740 1078Q720 1060 709 1031T694 971T690 914Q690 829 660 782T549 734Z" />
<glyph unicode="&#x201d;" horiz-adv-x="778" d="M624 759Q558 759 530 802T496 912Q493 959 482 998T441 1074Q425 1095 414 1110T398 1140T392 1173Q392 1207 410 1221T452 1240T493 1244Q546 1244 599 1223T695 1151Q718 1125 734 1084T758 998T767 918Q767
857 733 808T624 759ZM252 724Q173 724 147 770T121 894Q121 932 112 981T71 1058Q57 1071 42 1087T17 1122T7 1160Q7 1189 30 1212T91 1235Q144 1235 187 1221T267 1178T335 1100Q364 1055 380 1001T396 902Q396 861 382 820T336 751T252 724Z" />
<glyph unicode="&#x201e;" horiz-adv-x="810" d="M642 -370Q576 -370 548 -327T514 -217Q511 -170 500 -131T459 -55Q443 -34 432 -19T416 11T410 44Q410 78 428 92T470 111T511 115Q564 115 617 94T713 22Q736 -4 752 -45T776 -131T785 -211Q785 -272 751 -321T642
-370ZM270 -405Q191 -405 165 -359T139 -235Q139 -197 130 -148T89 -71Q75 -58 60 -42T35 -7T25 31Q25 60 48 83T109 106Q162 106 205 92T285 49T353 -29Q382 -74 398 -128T414 -227Q414 -268 400 -309T354 -378T270 -405Z" />
<glyph unicode="&#x2022;" horiz-adv-x="632" d="M322 404Q252 404 187 422T79 489T37 630Q37 710 78 762T182 841T308 867Q377 867 439 846T542 779T582 659Q582 571 546 515T450 431T322 404Z" />
<glyph unicode="&#x2039;" horiz-adv-x="499" d="M392 240Q371 240 330 261T247 310T186 355Q141 395 104 436T43 527T20 644Q20 688 31 727T60 801T103 870T154 936Q179 967 216 998T292 1050T359 1071Q409 1071 433 1041T458 968Q458 933 451 902T423 839T365
768Q345 747 331 727T309 690T302 656Q302 644 311 627T337 592T376 555Q410 528 434 495T470 426T483 355Q483 300 459 270T392 240Z" />
<glyph unicode="&#x203a;" horiz-adv-x="499" d="M144 240Q95 240 70 270T45 343Q45 378 52 409T80 472T138 543Q159 565 173 584T194 622T201 655Q201 667 192 684T166 720T127 756Q76 797 48 850T20 956Q20 1071 111 1071Q132 1071 173 1050T256 1001T317 956Q362
917 400 876T460 784T483 667Q483 623 472 584T443 510T400 441T349 375Q324 345 287 314T211 261T144 240Z" />
</font>
</defs>
</svg>
