<?xml version="1.0" standalone="no"?>
<!DOCTYPE svg PUBLIC "-//W3C//DTD SVG 1.1//EN" "http://www.w3.org/Graphics/SVG/1.1/DTD/svg11.dtd">
<svg xmlns="http://www.w3.org/2000/svg">
<defs >
<font id="Gluten" horiz-adv-x="1008" ><font-face
    font-family="Gluten Thin Light"
    units-per-em="2000"
    panose-1="0 0 0 0 0 0 0 0 0 0"
    ascent="1290"
    descent="-475"
    alphabetic="0" />
<glyph unicode=" " horiz-adv-x="592" />
<glyph unicode="!" horiz-adv-x="385" d="M167 259Q150 259 138 266T116 292T100 346T89 433T82 561T79 739T77 972Q77 1026 77 1069T80 1145T86 1202T96 1243T112 1269T135 1283T166 1288Q183 1288 196 1283T217 1265T232 1234T241 1186T246 1119T248 1030T248
916Q248 795 247 701T241 538T232 420T220 339T205 290T188 266T167 259ZM156 -48Q130 -48 102 -42T56 -19T37 32Q37 64 54 87T100 123T158 136Q182 136 207 128T250 102T267 56Q267 19 251 -4T210 -37T156 -48Z" />
<glyph unicode="&quot;" horiz-adv-x="441" d="M339 828Q326 828 315 838T296 869T282 923T274 1001T271 1104Q271 1136 273 1163T280 1213T294 1250T315 1274T344 1282Q358 1282 368 1277T387 1259T400 1230T407 1187T410 1130Q410 1066 408 1016T400 931T386
873T366 839T339 828ZM103 797Q87 797 76 812T56 856T42 924T34 1010T31 1110Q31 1146 34 1173T42 1220T57 1251T77 1269T103 1275Q116 1275 126 1265T143 1238T155 1198T162 1150T164 1098Q164 1035 163 986T157 902T145 843T128 808T103 797Z" />
<glyph unicode="#" horiz-adv-x="1613" d="M1087 -45Q1054 -45 1039 -31T1022 12Q1023 42 1023 74T1025 136T1026 190T1027 229Q1027 265 1012 274T942 284Q869 284 817 284T713 282T586 280Q563 280 549 267T529 228Q527 214 524 190T517 137T512 84T508 44Q507
5 489 -18T428 -42Q399 -42 385 -26T370 29Q369 50 371 83T376 152T377 210Q373 272 338 278Q324 281 292 282T220 285T146 286T93 287Q55 287 34 299T12 341Q12 366 31 378T89 393Q124 396 181 398T285 401Q323 403 346 411T372 447Q376 476 379 507T384 573T389
647T391 729Q391 763 367 777T292 792Q253 793 207 795T128 801Q93 803 73 817T53 853Q53 878 80 892T163 909Q224 910 275 912T367 918Q403 923 417 955T437 1065Q441 1091 446 1118T458 1170Q469 1205 487 1227T538 1250Q567 1250 583 1234T599 1184Q599 1160
598 1133T595 1080T592 1034T590 1003Q591 965 605 943T659 921Q732 921 812 922T958 924T1047 928Q1075 930 1090 953T1108 1025Q1110 1061 1112 1088T1122 1139Q1134 1179 1153 1198T1198 1217Q1231 1217 1246 1180T1261 1101Q1261 1089 1261 1071T1260 1032T1259
993T1258 959Q1260 916 1294 915Q1340 914 1386 913T1483 911Q1532 911 1559 899T1587 858Q1587 829 1549 815T1450 801Q1408 801 1367 800T1286 798Q1272 798 1263 789T1248 751T1238 664Q1237 641 1235 615T1231 563T1227 516T1225 481Q1225 447 1235 429T1279
410Q1329 410 1368 408T1438 402Q1477 396 1496 383T1515 352Q1515 322 1497 308T1445 289Q1401 285 1351 283T1244 281Q1202 280 1195 236Q1192 211 1188 182T1181 124T1174 67T1167 17Q1164 -3 1156 -17T1131 -38T1087 -45ZM813 399Q850 399 871 399T913 400T969
401Q1013 403 1033 423T1058 484Q1061 508 1064 544T1069 620T1074 692T1076 744Q1076 785 1059 794T998 803Q928 803 877 802T774 801T652 799Q609 798 590 783T568 742Q567 724 564 688T556 609T549 525T546 461Q546 424 562 412T612 400Q662 400 716 400T813
399Z" />
<glyph unicode="$" horiz-adv-x="1030" d="M461 985Q436 985 422 993T401 1019T394 1064Q394 1113 398 1149T410 1208T431 1243T461 1255Q474 1255 485 1245T503 1213T515 1160T519 1087Q519 1050 515 1028T498 995T461 985ZM459 -50Q444 -50 432 -43T413 -18T401
29T397 101Q397 137 400 162T411 203T432 226T464 234Q479 234 490 228T509 210T521 180T526 135Q526 81 522 45T509 -12T488 -41T459 -50ZM473 139Q413 139 343 144T208 160T100 186Q69 197 49 211T29 249Q29 276 48 289T103 303Q134 303 184 293T300 272T437
261Q514 261 586 273T704 314T750 396Q750 443 722 472T626 522T438 565Q314 587 230 621T102 705T58 823Q58 881 95 924T197 995T347 1038T526 1053Q579 1053 637 1048T745 1032T825 1007T856 972Q856 953 846 942T817 925T775 919Q733 919 673 928T535 937Q463
937 402 924T302 884T264 812Q264 769 298 740T399 690T561 652Q693 628 776 595T900 512T940 391Q940 322 901 274T796 196T646 153T473 139Z" />
<glyph unicode="%" horiz-adv-x="1467" d="M313 676Q230 676 166 703T66 782T30 903Q30 993 77 1061T205 1169T382 1208Q467 1208 534 1180T639 1101T678 977Q678 913 648 859T566 763T449 699T313 676ZM324 771Q381 771 437 798T530 869T568 964Q568 1013 545
1048T476 1103T360 1123Q296 1123 246 1095T167 1022T138 924Q138 862 164 829T234 783T324 771ZM1063 75Q1125 75 1173 100T1250 170T1278 274Q1278 319 1256 358T1190 420T1076 444Q1021 444 966 419T874 347T837 230Q837 175 871 141T957 91T1063 75ZM1059 -21Q978
-21 901 3T774 81T723 226Q723 331 779 401T922 505T1102 540Q1183 540 1248 508T1352 417T1390 278Q1390 190 1346 123T1227 17T1059 -21ZM227 50Q205 50 192 62T179 96Q179 113 209 152T290 246T402 364Q424 384 467 430T569 538T692 671T823 812T945 945T1046
1054T1110 1122Q1151 1165 1176 1184T1227 1204Q1245 1204 1258 1196T1272 1165Q1272 1141 1251 1113T1193 1047Q1156 1009 1093 940T949 782T782 598T610 410T454 241Q414 200 369 156T286 81T227 50Z" />
<glyph unicode="&amp;" horiz-adv-x="1363" d="M511 -107Q377 -107 272 -65T106 60T45 269Q45 346 72 409T145 523T248 612T365 678Q422 703 452 717T494 739T505 752Q505 759 499 765T480 783Q436 822 402 867T349 962T329 1061Q329 1146 376 1198T500 1273T664
1297Q752 1297 828 1269T951 1185T998 1051Q998 974 963 917T872 820T753 750Q734 742 727 734T719 720Q719 710 754 669T850 559Q885 521 917 486T973 430T1008 408Q1017 408 1029 436T1053 494Q1073 547 1093 574T1135 601Q1155 601 1168 588T1181 551Q1181 538
1175 511T1156 452T1129 392Q1117 368 1111 351T1105 323Q1105 305 1123 282T1187 210Q1219 181 1250 147T1302 82T1323 30Q1323 -1 1305 -13T1260 -25Q1231 -25 1195 7T1128 78Q1101 112 1077 138T1040 165Q1029 165 1019 157T989 121Q964 80 924 40T825 -34T689
-87T511 -107ZM529 25Q625 25 698 54T822 125T898 209T924 278Q924 289 908 313T860 375T781 467Q741 511 704 552T638 619T597 645Q578 645 534 630T434 584T328 510T243 408T209 281Q209 203 250 145T363 56T529 25ZM633 803Q664 803 704 821T783 873T846 950T871
1043Q871 1116 817 1159T654 1203Q606 1203 561 1188T488 1141T459 1056Q459 1009 480 964T531 883T589 825T633 803Z" />
<glyph unicode="&apos;" horiz-adv-x="316" d="M152 864Q135 864 122 883T99 936T85 1009T80 1089Q80 1143 83 1180T94 1238T117 1269T157 1279Q178 1279 192 1269T215 1239T226 1191T230 1126Q230 1051 225 1001T209 920T185 877T152 864Z" />
<glyph unicode="(" horiz-adv-x="569" d="M461 -391Q423 -391 388 -369T321 -307Q256 -240 205 -148T117 48T62 259T43 465Q43 593 67 715T138 944T249 1130Q285 1174 332 1212T423 1275T494 1299Q520 1299 537 1288T554 1247Q554 1227 534 1205T476 1143T383
1031Q320 947 284 853T233 661T218 468Q218 347 251 220T342 -25T471 -231Q492 -257 503 -281T515 -328Q515 -353 503 -372T461 -391Z" />
<glyph unicode=")" horiz-adv-x="549" d="M79 -386Q61 -386 45 -379T18 -357T8 -324Q8 -292 24 -265T79 -203Q123 -171 165 -122T244 -9T307 131T350 293T366 472Q366 630 333 762T229 1001Q185 1065 140 1109T64 1182T33 1230Q33 1252 42 1267T67 1289T102 1296Q134
1296 179 1267T271 1196T348 1111Q402 1040 442 952T504 751T527 491Q527 376 502 258T433 29T328 -169T197 -312Q171 -343 139 -364T79 -386Z" />
<glyph unicode="*" horiz-adv-x="933" d="M459 533Q431 533 418 555T405 617Q405 627 405 652T406 707T407 762T407 799Q406 837 401 849T382 861Q370 861 344 846T283 805T205 752T119 697Q94 683 73 683Q54 683 43 696T31 725Q31 737 37 749T60 771Q99 795 147
821T242 872T318 915T348 941Q348 948 323 958T259 983T177 1011T96 1038Q76 1044 58 1060T40 1098Q40 1113 47 1125T66 1143T91 1150Q106 1150 123 1145T158 1130Q199 1110 250 1086T342 1043T392 1025Q401 1025 404 1043T407 1087Q408 1104 408 1122T407 1160T407
1196T406 1227Q406 1270 419 1290T466 1310Q492 1310 500 1290T508 1226Q508 1211 508 1189T507 1142T506 1095Q508 1068 514 1048T537 1028Q547 1028 575 1041T639 1073T712 1111T779 1142Q806 1154 826 1154Q840 1154 850 1147T866 1129T872 1106Q872 1093 863
1083T835 1063Q808 1049 764 1032T675 997T599 966T568 944Q568 938 593 923T658 888T738 848T810 811T852 782Q866 770 872 757T878 726Q878 710 865 698T832 685Q820 685 808 691T783 706Q760 724 722 753T644 811T570 859T522 879Q510 879 506 863T502 814Q502
795 503 771T506 721T509 670T511 623Q511 582 501 558T459 533Z" />
<glyph unicode="+" horiz-adv-x="1085" d="M534 165Q502 165 491 212T472 333Q471 352 471 368T470 399T468 427T466 451Q462 489 453 509T429 537T386 545Q373 545 342 545T272 544T199 544T140 546Q89 550 57 563T25 608Q25 629 44 642T100 662T194 671Q236
672 280 674T362 679T417 685Q437 688 447 703T461 769Q462 783 463 799T465 835T467 876T469 922Q476 1011 492 1043T545 1076Q573 1076 588 1036T608 954Q610 926 611 903T613 858T614 818T616 783Q618 726 629 706T663 684Q677 683 713 682T794 680T879 676T944
672Q994 666 1022 654T1050 617Q1050 588 1016 575T925 558Q884 555 834 553T739 551T669 550Q644 549 631 529T615 454Q614 441 614 427T612 397T610 365T608 332Q603 260 588 213T534 165Z" />
<glyph unicode="," horiz-adv-x="480" d="M154 -239Q136 -228 140 -211T159 -174Q183 -148 200 -113T221 -49Q225 -33 225 -20T217 -4Q209 -2 196 -4T163 -7Q126 -7 97 15T62 75Q54 102 60 127T84 173T132 207Q168 226 204 223T270 199T318 143Q350 86 344 22T307
-113Q296 -137 281 -159T248 -199T212 -225Q198 -237 182 -241T154 -239Z" />
<glyph unicode="-" horiz-adv-x="1089" d="M466 540Q339 540 252 542T113 552T37 574T14 611Q14 639 36 656T114 683T268 696T520 700Q686 700 792 698T958 687T1042 661T1066 615Q1066 589 1041 574T950 551T768 542T466 540Z" />
<glyph unicode="." horiz-adv-x="448" d="M216 -24Q164 -24 129 -6T76 40T57 99Q57 142 85 170T156 214T238 229Q275 229 303 215T349 175T366 112Q366 73 346 42T292 -6T216 -24Z" />
<glyph unicode="/" horiz-adv-x="1138" d="M68 50Q45 50 33 62T20 96Q20 113 50 152T131 246T243 364Q265 384 308 430T410 538T533 671T663 812T786 945T887 1054T951 1122Q991 1165 1016 1184T1067 1204Q1086 1204 1099 1196T1113 1165Q1113 1141 1091 1113T1034
1047Q997 1009 933 940T789 782T622 598T451 410T294 241Q255 200 210 156T127 81T68 50Z" />
<glyph unicode="0" horiz-adv-x="992" d="M427 -46Q351 -46 290 -14T182 77T104 214T56 386T40 582Q40 724 71 846T162 1059T311 1201T513 1252Q611 1252 685 1210T809 1092T885 911T910 680Q910 572 892 467T837 269T742 106T606 -5T427 -46ZM436 137Q499 137
550 167T639 250T704 369T743 513T757 664Q757 742 744 817T702 953T627 1050T516 1086Q436 1086 377 1045T278 935T218 777T198 593Q198 528 208 463T239 339T289 235T355 164T436 137Z" />
<glyph unicode="1" horiz-adv-x="561" d="M306 -67Q263 -67 240 -37T216 48Q216 91 219 155T227 297T238 458T250 623T262 778T270 909T273 999Q273 1036 268 1050T240 1068Q218 1070 188 1059T129 1035T83 1025Q67 1030 61 1040T54 1063Q54 1088 85 1119T164
1177T258 1223T338 1242Q376 1242 399 1222T434 1166T451 1086T456 993Q456 954 454 898T449 777T440 639T430 493T420 347T410 210T402 90Q392 10 370 -28T306 -67Z" />
<glyph unicode="2" horiz-adv-x="991" d="M292 -43Q233 -39 186 -27T112 11T85 82Q85 125 99 161T158 239Q194 279 261 339T408 471T561 615Q610 663 648 712T708 808T731 897Q731 1005 675 1047T518 1089Q430 1089 370 1062T270 998Q243 972 221 940T179 884T139
860Q116 860 99 874T82 916Q82 961 111 1016T197 1121T334 1203T521 1235Q607 1235 677 1218T798 1163T876 1066T904 923Q904 859 881 801T815 686T714 571Q678 534 632 489T536 397T443 310T368 240Q341 216 328 195T315 150Q315 135 336 129T387 120T446 118Q493
118 564 126T705 143T818 152Q850 152 870 139T891 99Q891 65 870 42T807 3T698 -22T541 -39Q487 -42 421 -44T292 -43Z" />
<glyph unicode="3" horiz-adv-x="1041" d="M457 -87Q374 -87 298 -73T160 -35T62 17T26 74Q26 94 33 107T50 127T73 138T96 142Q121 142 174 121T303 78T471 56Q545 56 607 70T716 112T788 178T814 263Q814 333 784 374T701 438T580 473Q520 485 476 503T410 549T387
609Q387 662 426 687T535 733Q601 750 649 775T724 840T751 938Q751 1004 712 1039T606 1087T455 1101Q371 1101 304 1089T189 1064T117 1051Q85 1051 66 1067T46 1109Q46 1139 84 1163T186 1205T324 1232T475 1242Q628 1242 728 1207T877 1108T926 961Q926 893
897 840T815 749T693 690Q646 672 624 658T601 618Q601 590 636 575T714 548Q782 534 846 503T951 413T992 257Q992 177 959 114T859 5T692 -63T457 -87Z" />
<glyph unicode="4" horiz-adv-x="991" d="M639 -52Q607 -52 588 -34T569 28Q569 44 569 69T570 123T571 179T572 230Q570 278 553 297T466 318Q388 319 314 323T186 340Q141 351 114 381T76 457T64 559Q64 601 73 659T97 780T128 901T158 1001Q175 1059 191 1098T227
1157T274 1177Q289 1177 299 1171T315 1153T321 1121Q321 1092 311 1046T287 943T259 826T235 707T225 600Q225 558 231 533T254 493T299 471Q333 461 389 458T496 455Q554 455 572 470T590 524Q590 539 591 578T595 671T600 787T605 906T609 1012T612 1086Q615
1139 630 1182T678 1225Q701 1225 715 1214T738 1171T749 1077Q750 1053 750 1015T751 928T750 826T749 714T748 600T747 492Q747 472 758 465T791 457Q819 457 850 461T910 463Q936 460 953 450T970 413Q970 375 946 361T884 342Q859 340 829 336T778 326Q750
320 740 299T726 227Q725 197 723 159T718 86T712 31Q705 -12 688 -32T639 -52Z" />
<glyph unicode="5" horiz-adv-x="958" d="M239 -9Q194 -9 159 -6T96 4Q64 13 48 29T31 74Q31 109 56 126T132 143Q156 143 194 142T276 141Q364 141 443 154T582 199T677 281T711 407Q711 507 647 549T468 591Q388 591 332 579T207 566Q113 566 75 610T36 741Q36
792 45 848T70 957T100 1052Q121 1111 154 1144T240 1192T366 1206Q426 1206 466 1205T554 1203T678 1202Q724 1202 760 1197T818 1178T839 1135Q839 1108 819 1095T763 1078T688 1073Q623 1073 548 1076T399 1079Q331 1079 294 1062T239 989Q231 961 222 924T205
846T198 769Q198 734 206 718T233 698T280 693Q309 693 351 698T439 709T525 714Q639 714 720 681T844 579T888 404Q888 289 839 210T701 83T495 13T239 -9Z" />
<glyph unicode="6" horiz-adv-x="1031" d="M508 -26Q393 -26 310 7T172 109T92 278T66 517Q66 642 94 759T165 971T251 1126Q284 1170 318 1192T384 1214Q413 1214 429 1200T445 1157Q445 1134 431 1110T397 1057Q373 1023 348 973T301 868T266 762T252 678Q252
670 254 663T263 656Q272 656 296 674T369 716Q421 741 481 753T603 766Q708 766 790 721T919 598T966 417Q966 318 934 237T841 96T696 6T508 -26ZM502 100Q602 100 669 141T771 251T806 397Q806 481 768 535T668 615T533 641Q464 641 397 617T286 541T242 404Q242
338 258 282T307 186T389 123T502 100Z" />
<glyph unicode="7" horiz-adv-x="901" d="M300 -37Q280 -37 262 -30T232 -5T220 43Q220 148 235 238T278 405T339 549T413 669Q462 744 511 802T602 906T669 991T694 1061Q694 1108 653 1122T535 1137Q444 1137 356 1130T199 1115T97 1108Q66 1108 50 1116T33
1153Q33 1183 71 1205T174 1241Q225 1250 293 1256T432 1265T561 1269Q631 1269 688 1261T786 1234T849 1179T871 1089Q871 1040 841 986T761 870T656 739T550 586Q487 488 441 359T388 64Q384 29 374 6T346 -27T300 -37Z" />
<glyph unicode="8" horiz-adv-x="1159" d="M572 -25Q462 -25 368 -5T204 57T95 165T56 323Q56 386 81 443T146 543T227 602Q259 615 272 624T286 642Q286 650 274 659T243 677Q177 711 140 768T102 889Q102 972 144 1035T257 1140T417 1203T602 1225Q694 1225
779 1204T933 1139T1041 1034T1081 891Q1081 839 1057 792T994 710T915 655Q903 649 896 644T888 629Q888 623 892 617T917 602Q977 578 1015 537T1072 441T1091 315Q1091 222 1050 157T936 52T770 -6T572 -25ZM585 101Q682 101 758 127T877 204T921 329Q921 423
880 479T767 558T603 582Q495 582 411 557T279 476T231 327Q231 250 279 200T407 126T585 101ZM584 684Q651 684 711 700T816 745T888 813T915 896Q915 944 891 983T824 1052T722 1097T592 1113Q492 1113 418 1083T302 1002T260 886Q260 845 286 809T358 745T462
701T584 684Z" />
<glyph unicode="9" horiz-adv-x="1036" d="M326 -31Q299 -31 282 -24T258 -4T251 27Q251 54 269 72T332 108Q374 126 428 158T540 232T645 318T723 410T753 498Q753 517 750 524T737 531Q727 531 700 513Q671 493 612 465T451 437Q335 437 248 477T113 596T64
794Q64 890 98 964T193 1089T336 1166T512 1193Q646 1193 749 1151T913 1017T973 772Q973 596 918 462T753 223T479 24Q436 -1 397 -16T326 -31ZM484 558Q543 558 600 575T704 627T779 713T807 834Q807 912 767 966T661 1048T518 1077Q427 1077 361 1044T258 949T221
794Q221 723 257 670T353 587T484 558Z" />
<glyph unicode=":" horiz-adv-x="376" d="M156 82Q125 82 97 96T51 136T33 194Q33 228 49 253T92 294T149 309Q181 309 211 295T261 254T281 191Q281 155 262 131T214 95T156 82ZM171 662Q142 662 116 673T75 706T59 754Q59 783 73 808T116 850T191 866Q217 866
242 854T286 822T304 773Q304 738 285 713T236 675T171 662Z" />
<glyph unicode=";" horiz-adv-x="510" d="M230 657Q177 657 138 686T99 761Q99 803 127 835T230 867Q286 867 316 839T347 761Q347 726 330 703T285 669T230 657ZM186 -165Q171 -157 175 -142T190 -108Q209 -85 222 -55T239 1Q243 17 243 28T236 42Q229 45 219
43T192 41Q163 41 140 59T112 109Q103 144 117 174T168 226Q196 245 225 245T279 228T317 182Q343 134 338 77T308 -44Q295 -78 274 -107T233 -149Q221 -161 209 -166T186 -165Z" />
<glyph unicode="&lt;" horiz-adv-x="698" d="M584 213Q555 213 496 234T368 283Q306 309 245 344T133 421T52 505T21 587Q21 632 44 677T108 766T197 854T299 938Q328 960 369 988T454 1043T537 1086T597 1104Q624 1104 639 1094T654 1059Q654 1038 623 1008T538
938T411 849Q382 831 345 800T274 735T216 667T193 609Q193 584 214 556T270 501T342 452T414 416Q551 359 602 329T653 275Q653 248 637 231T584 213Z" />
<glyph unicode="=" horiz-adv-x="924" d="M257 759Q185 759 131 765T47 785T17 823Q17 840 38 853T97 874T184 887T292 892Q331 892 389 892T514 890T640 886T742 881Q804 876 840 864T876 830Q876 809 845 796T755 776Q705 771 639 768T502 763T366 760T257 759ZM281
342Q228 342 182 346T102 358T48 381T29 416Q29 445 61 457T151 474T288 478Q328 478 384 478T501 479T617 478T709 473Q777 466 811 454T846 419Q846 395 792 378T635 354Q605 352 558 350T458 346T358 343T281 342Z" />
<glyph unicode="&gt;" horiz-adv-x="764" d="M200 212Q175 212 159 225T143 259Q143 275 156 295T204 337Q231 353 275 384T371 455T469 539T544 621T574 691Q574 723 545 758T468 829T362 895T245 952T135 991Q113 1000 95 1010T67 1034T57 1066Q57 1090 77 1101T130
1113Q166 1113 215 1097T318 1056T420 1005T504 957Q554 927 601 889T680 804T712 701Q712 657 684 608T615 511T535 427Q477 374 412 325T290 244T200 212Z" />
<glyph unicode="?" horiz-adv-x="1015" d="M417 283Q394 283 378 293T354 325T345 382Q345 455 376 516T463 629T590 724Q654 763 703 802T781 884T810 978Q810 1034 773 1072T669 1128T518 1147Q453 1147 388 1132T268 1087T177 1016Q158 1001 140 993T102 984Q84
984 71 995T57 1030Q57 1046 65 1061T88 1090Q131 1145 196 1185T344 1246T521 1268Q623 1268 705 1248T845 1190T934 1099T965 979Q965 904 933 848T848 748T730 665Q676 633 625 596T538 511T493 399Q483 342 468 313T417 283ZM396 -45Q353 -45 324 -21T295 41Q295
82 324 110T396 138Q424 138 449 129T491 101T508 48Q508 16 484 -14T396 -45Z" />
<glyph unicode="@" horiz-adv-x="1850" d="M820 -70Q657 -70 513 -32T258 83T86 273T23 540Q23 673 69 788T201 997T401 1156T654 1257T947 1292Q1146 1292 1303 1246T1572 1108T1743 881T1802 567Q1802 471 1769 405T1672 304T1518 269Q1420 269 1358 312T1259
442Q1249 464 1241 478T1222 492Q1208 492 1187 465T1124 401T1005 338T802 310Q711 310 637 340T520 426T477 558Q477 637 518 698T630 802T789 866T971 888Q1071 888 1145 860T1267 762T1339 563Q1351 476 1392 426T1504 375Q1563 375 1599 398T1651 464T1667
566Q1667 647 1647 733T1580 898T1450 1041T1246 1142T952 1179Q809 1179 689 1147T474 1056T315 918T216 742T181 540Q181 419 229 326T364 170T566 75T817 42Q947 42 1025 63T1151 106Q1194 127 1220 137T1262 148Q1285 148 1296 136T1308 101Q1308 80 1286 58T1219
12T1102 -32Q1038 -51 967 -60T820 -70ZM850 413Q911 413 965 430T1061 478T1127 550T1152 638Q1152 726 1098 764T939 803Q877 803 818 787T712 742T636 673T607 582Q607 529 639 491T726 433T850 413Z" />
<glyph unicode="A" horiz-adv-x="1426" d="M1269 -40Q1236 -40 1213 -20T1171 39Q1162 69 1151 111T1128 196T1105 278T1085 340Q1073 373 1054 388T990 408Q969 410 923 413T822 420T719 423Q646 423 572 420T445 412Q399 409 379 396T344 348Q332 317 318 271T289
175T260 77Q242 27 219 4T153 -19Q124 -19 104 -9T75 25T65 87Q65 129 78 193T113 335T163 493T219 649T273 785T318 882Q352 948 394 1008T488 1113T601 1185T735 1212Q855 1212 949 1133T1114 927Q1139 886 1166 818T1222 666T1274 493T1319 319T1350 163T1361
46Q1361 -1 1337 -20T1269 -40ZM1001 547Q1023 550 1030 562T1038 602Q1038 636 1027 686T995 793T947 900Q908 974 857 1023T745 1072Q683 1072 626 1024T522 897Q503 865 483 824T445 741T417 661T405 597Q405 569 427 559T507 548Q637 548 732 547T892 546T1001
547Z" />
<glyph unicode="B" horiz-adv-x="1233" d="M478 -50Q371 -50 299 -39T183 4T119 92T94 239Q93 287 93 352T96 490T101 636T109 772T117 878Q128 1000 181 1071T333 1172T579 1203Q668 1203 752 1185T905 1130T1013 1033T1053 888Q1053 820 1025 772T956 693T878
649Q842 635 817 628T791 614Q791 608 830 602T927 580Q1000 559 1053 525T1136 441T1166 319Q1166 247 1126 183T1033 79Q993 48 933 24T797 -16T641 -41T478 -50ZM466 88Q585 88 682 103T849 151T956 230T994 341Q994 397 950 434T833 492T673 523T501 536T347
539Q328 539 315 530T292 497T278 434T273 331Q273 258 278 211T303 137T361 99T466 88ZM316 661Q406 661 477 663T606 673T716 693Q799 715 847 759T896 893Q896 943 867 980T788 1043T680 1080T560 1092Q503 1092 452 1081T364 1046T310 989Q302 972 296 940T284
871T277 798T275 732Q275 698 283 680T316 661Z" />
<glyph unicode="C" horiz-adv-x="1185" d="M652 -62Q515 -62 407 -22T222 95T106 278T65 518Q65 664 107 786T232 997T433 1136T707 1185Q789 1185 857 1168T973 1124T1048 1067T1075 1007Q1075 976 1058 962T1015 947Q992 947 972 961T920 992T833 1024T688 1038Q614
1038 542 1008T411 916T317 765T282 556Q282 466 306 384T379 238T504 137T682 99Q762 99 817 120T910 170T977 219T1030 241Q1071 241 1086 222T1101 168Q1101 132 1070 92T979 17T837 -40T652 -62Z" />
<glyph unicode="D" horiz-adv-x="1306" d="M334 -18Q266 -18 222 5T152 73T113 186Q98 262 92 367T85 602Q85 718 91 819T113 999Q134 1100 181 1158T326 1216Q486 1216 625 1178T878 1076T1072 932T1197 767T1241 600Q1241 504 1199 413T1078 244T888 107T637
15T334 -18ZM410 163Q535 163 635 190T812 262T940 366T1018 488T1044 613Q1044 665 1013 723T924 838T783 940T597 1013T373 1041Q342 1041 323 1013T294 934Q285 889 280 829T274 703Q274 551 279 444T301 271Q329 163 410 163Z" />
<glyph unicode="E" horiz-adv-x="1130" d="M494 -65Q363 -65 280 -18T153 122T95 357Q92 392 90 430T87 509T86 593T85 683Q85 851 116 959T214 1129T390 1215T653 1240Q728 1240 797 1234T919 1217T1004 1188T1035 1148Q1035 1126 1022 1114T986 1099Q955 1096
904 1100T789 1109T657 1114Q553 1114 482 1099T369 1049T307 951T288 797Q288 751 299 730T356 702T499 696Q520 696 553 696T622 696T690 697T739 698Q814 698 841 683T868 639Q868 597 838 582T752 567Q728 567 696 567T629 567T561 566T503 566Q400 566 352
561T291 536T277 469Q277 392 283 331T305 224T351 149T428 105T543 90Q628 90 709 96T856 108T956 114Q993 114 1009 100T1026 59Q1026 27 977 3T849 -36T676 -58T494 -65Z" />
<glyph unicode="F" horiz-adv-x="1038" d="M263 -32Q237 -32 218 -11T185 41T162 100Q153 136 143 200T122 342T104 500T90 645T85 750Q85 852 104 932T158 1072T240 1173Q309 1232 406 1254T616 1277Q683 1277 749 1269T870 1244T956 1207T989 1160Q989 1139
976 1129T939 1115Q898 1112 824 1120T659 1129Q561 1129 494 1108T386 1044Q355 1014 338 972T312 875T304 749Q304 719 307 696T318 655T337 630T369 621Q402 621 452 624T557 632T660 638T739 639Q783 636 806 627T829 594Q829 582 824 571T807 551Q790 537
738 533T590 520T352 490Q326 487 315 470T304 422Q304 408 307 370T316 283T325 184T332 94T333 35Q326 -5 308 -18T263 -32Z" />
<glyph unicode="G" horiz-adv-x="1397" d="M698 -75Q546 -75 429 -32T230 97T107 308T65 597Q65 737 103 843T209 1024T365 1147T553 1217T754 1239Q830 1239 901 1226T1030 1189T1121 1138T1155 1080Q1155 1052 1135 1035T1086 1017Q1065 1017 1039 1028T973
1055T874 1082T728 1094Q632 1094 549 1060T403 962T305 805T270 592Q270 413 325 301T483 136T730 84Q813 84 884 100T1008 150T1091 235T1121 356Q1121 412 1089 455T995 523T843 551Q754 554 705 567T656 621Q656 653 681 669T758 692T884 698Q984 698 1064
679T1201 621T1288 520T1319 376Q1319 254 1273 168T1144 28T947 -50T698 -75Z" />
<glyph unicode="H" horiz-adv-x="1269" d="M1051 -18Q1019 -18 1003 -1T982 57Q981 97 981 142T981 232T982 321T982 400T983 462Q982 515 973 534T944 560Q923 568 856 575T637 582Q550 582 498 582T415 579T369 573T338 564Q324 559 311 545T295 497Q294 480
293 458T290 406T289 339T287 256T285 152Q282 83 271 48T241 1T194 -11Q150 -11 130 38T101 158Q98 199 95 257T90 381T87 508T85 614Q85 685 87 747T92 863T99 964T108 1049Q118 1114 132 1156T169 1218T221 1238Q257 1238 273 1205T296 1085Q297 1052 298 1020T301
958T304 904T306 861T309 831Q314 795 322 775T361 751Q399 746 476 746T641 746Q710 746 772 744T880 742T944 744Q962 749 972 765T987 823Q988 842 989 872T993 941T997 1025T1002 1117Q1008 1200 1027 1231T1077 1263Q1115 1263 1134 1228T1165 1103Q1169 1080
1172 1036T1178 931T1182 803T1184 665Q1184 610 1183 548T1178 423T1170 302T1161 195T1151 110Q1139 38 1114 10T1051 -18Z" />
<glyph unicode="I" horiz-adv-x="416" d="M200 -11Q151 -11 128 29T105 130Q105 158 105 216T106 354T108 523T111 704T116 878T124 1023Q133 1114 153 1148T222 1183Q264 1183 281 1147T303 1044Q304 999 305 929T307 774T308 603T308 436T308 291T306 192Q305
115 295 71T263 8T200 -11Z" />
<glyph unicode="J" horiz-adv-x="1073" d="M468 -66Q401 -66 339 -53T226 -12T140 52Q98 98 72 155T35 276T23 402Q23 435 30 460T50 503T80 529T120 538Q144 538 159 520T182 451Q188 391 199 342T229 251Q262 179 316 145T450 111Q529 111 576 133T659 199Q700
250 721 323T749 485T757 671Q757 753 755 821T749 943T741 1037T735 1106T732 1152Q732 1180 740 1199T770 1228T828 1238Q861 1238 884 1223T924 1180Q935 1159 944 1127T960 1053T972 956T979 837T982 695Q982 553 969 453T934 283T882 165T820 78Q751 -3 657
-34T468 -66Z" />
<glyph unicode="K" horiz-adv-x="1143" d="M199 -18Q146 -18 123 25T92 165Q90 217 89 271T88 378T89 485T93 589Q98 689 108 788T137 982T186 1164Q207 1211 236 1232T308 1253Q342 1253 360 1231T379 1176Q379 1157 374 1114T360 1016T345 907T332 809T327 748Q329
725 334 715T357 704Q373 704 393 714T437 742Q497 787 594 858T794 1009Q878 1074 938 1113T1031 1152Q1056 1152 1070 1144T1091 1121T1098 1088Q1098 1073 1087 1054T1054 1010T1000 958T927 900Q869 857 798 809T662 719T554 650Q525 634 513 623T500 603Q500
594 507 583T533 556Q549 541 584 510T664 440T750 363T826 296T872 255Q965 169 1004 122T1043 54Q1043 31 1033 17T1005 -4T963 -11Q928 -11 873 21T724 139Q632 226 576 282T486 373T428 434T378 484Q363 504 353 514T335 529T321 534Q312 534 308 526T303 498Q303
493 303 464T301 393T299 309T297 232T296 184Q292 68 271 25T199 -18Z" />
<glyph unicode="L" horiz-adv-x="1045" d="M286 -25Q169 2 127 103T85 372Q85 423 88 489T95 629T105 771T116 897T126 988Q142 1113 171 1164T251 1215Q283 1215 298 1200T319 1158T324 1092Q324 1059 322 1015T318 918T312 808T307 694T304 583T303 481Q304
384 312 321T347 222T428 171T575 156Q642 153 702 153T803 153Q869 159 908 161T966 158Q981 152 987 141T994 109Q994 77 971 55T906 16T805 -13Q741 -27 659 -35T498 -43Q467 -43 428 -42T351 -36T286 -25Z" />
<glyph unicode="M" horiz-adv-x="1486" d="M200 -48Q152 -48 134 -14T105 80Q100 122 96 170T90 273T88 383T87 497Q89 573 92 648T102 791T116 911T133 993Q153 1064 190 1107T278 1171T387 1191Q457 1191 506 1157T580 1056Q595 1019 609 964T638 848T663 727T684
620Q695 557 709 510T754 463Q782 463 796 500T816 582Q824 637 833 701T855 831T880 955T909 1059Q933 1121 981 1155T1102 1190Q1154 1190 1197 1171T1275 1113T1333 1018Q1353 973 1366 894T1388 713T1398 498Q1399 446 1399 393T1398 287T1395 183T1388 83Q1379
32 1356 9T1288 -15Q1259 -15 1243 1T1222 51Q1221 89 1220 131T1217 219T1214 310T1210 402Q1208 492 1203 575T1192 724T1175 824Q1156 884 1133 915T1065 946Q1030 946 1002 917T960 829Q955 802 947 761T931 671T916 568T901 465T888 373Q875 289 843 247T751
205Q680 205 651 262T597 413Q591 446 582 493T562 593T542 698T522 790T507 856Q493 910 468 936T411 962Q362 962 341 928T308 817Q303 791 300 748T294 652T290 538T288 415Q288 351 288 293T287 184T284 95T279 34Q272 -3 255 -25T200 -48Z" />
<glyph unicode="N" horiz-adv-x="1369" d="M231 -48Q198 -48 177 -23T143 48Q136 73 129 133T116 274T104 443T94 616T88 765T85 863Q85 962 97 1030T144 1134T242 1170Q289 1170 341 1122T468 970T655 698Q808 463 897 355T1023 246Q1041 246 1053 256T1071 298T1079
394Q1080 422 1080 478T1078 606T1074 751T1071 892T1069 1005T1070 1065Q1078 1122 1098 1142T1156 1163Q1182 1163 1200 1154T1230 1125T1248 1074T1256 999Q1258 971 1259 912T1263 776T1266 614T1267 451T1267 309T1261 211Q1253 135 1233 83T1177 6T1083 -20Q1028
-20 960 43T811 217T635 469Q575 558 523 636T428 772T358 864T317 898Q296 898 289 873T281 770Q281 719 283 656T290 524T299 387T307 254T312 136T313 42Q305 -12 286 -30T231 -48Z" />
<glyph unicode="O" horiz-adv-x="1557" d="M713 -103Q569 -103 450 -57T245 75T112 281T65 550Q65 688 109 793T228 975T397 1099T593 1170T793 1193Q946 1193 1073 1148T1295 1017T1440 815T1492 553Q1492 394 1435 272T1272 66T1025 -60T713 -103ZM746 94Q943
94 1061 157T1233 325T1286 557Q1286 674 1248 764T1142 916T985 1009T794 1041Q693 1041 602 1011T441 925T329 788T288 607Q288 487 322 392T417 231T563 130T746 94Z" />
<glyph unicode="P" horiz-adv-x="1171" d="M256 -21Q228 -21 207 -6T169 44T139 140Q133 173 127 225T115 341T104 472T94 603T88 721T85 812Q85 962 123 1046T249 1164T488 1199Q613 1199 727 1176T929 1105T1069 981T1121 802Q1121 722 1084 663T981 564T826
500T630 468Q561 462 493 462T358 463Q333 463 326 444T319 389Q319 367 320 335T323 267T327 194T330 128T331 76Q331 27 313 3T256 -21ZM372 577Q453 577 534 583T688 605T818 648T908 716T941 814Q941 878 909 922T827 996T719 1043T609 1067T521 1074Q452 1074
406 1063T334 1029T296 972T284 891Q284 822 286 770T294 681T310 622T335 588T372 577Z" />
<glyph unicode="Q" horiz-adv-x="1527" d="M1352 -216Q1317 -216 1285 -187Q1258 -155 1217 -95T1134 26Q1125 40 1115 45T1091 50Q1061 50 1011 31T882 -7T685 -27Q550 -27 437 14T240 133T111 324T65 579Q65 718 119 833T270 1032T493 1162T761 1208Q907 1208
1027 1168T1234 1049T1368 858T1416 602Q1416 514 1400 444T1353 319T1282 223Q1253 195 1253 175Q1253 161 1267 146T1309 109Q1335 77 1360 45T1405 -19T1437 -78T1449 -129Q1449 -155 1435 -174T1399 -205T1352 -216ZM717 159Q867 159 980 209T1156 356T1219
595Q1219 744 1169 844T1017 996T761 1048Q659 1048 569 1013T410 917T302 773T263 594Q263 493 295 412T387 275T530 189T717 159Z" />
<glyph unicode="R" horiz-adv-x="1085" d="M184 -42Q143 -42 118 -11T79 87Q75 115 71 161T63 262T57 376T53 489T52 586Q52 723 64 830T106 1016T187 1147T313 1224T495 1250Q598 1250 689 1229T851 1164T961 1055T1001 902Q1001 817 960 759T854 664T714 608T573
579Q537 575 525 570T512 554Q512 546 521 535T548 507T591 467T648 411Q681 379 725 335T816 244T901 154T965 82T990 43Q990 22 978 8T948 -13T906 -20Q879 -20 843 0T763 56T673 139T579 239Q504 318 446 376T349 467T295 499Q284 499 278 490T269 456T266 390T265
282Q265 265 266 238T267 179T268 120T269 70T268 41Q263 -3 241 -22T184 -42ZM382 648Q420 648 476 655T594 679T709 726T796 800T830 904Q830 967 800 1010T719 1079T607 1117T485 1129Q421 1129 378 1112T310 1058T271 962Q265 930 261 898T256 835T254 776Q254
727 262 699T297 660T382 648Z" />
<glyph unicode="S" horiz-adv-x="1117" d="M476 -48Q387 -48 307 -33T164 7T65 63T29 126Q29 150 40 163T69 183T110 189Q130 189 172 171T280 133T434 113Q522 113 588 120T697 147T762 200T784 288Q784 340 759 380T688 452T581 514T448 572Q366 606 295 642T170
720T87 815T57 939Q57 1013 91 1066T182 1156T309 1213T451 1242T588 1251Q676 1251 750 1238T881 1201T968 1150T999 1093Q999 1072 989 1058T963 1037T928 1029Q909 1029 870 1050T769 1093T613 1114Q555 1114 499 1106T396 1078T322 1024T294 936Q294 887 317
850T383 783T481 727T603 674Q690 638 767 598T902 511T993 404T1027 272Q1027 181 986 119T870 21T695 -32T476 -48Z" />
<glyph unicode="T" horiz-adv-x="1246" d="M585 -43Q541 -43 520 -9T495 105Q494 139 494 200T496 337T500 497T504 661T507 809T509 922Q509 977 492 994T415 1011Q349 1011 284 1001T155 991Q130 991 110 999T78 1023T67 1063Q67 1092 100 1113T193 1151T338
1176T526 1190T745 1195Q812 1195 876 1193T996 1183T1095 1163T1162 1131T1186 1082Q1186 1056 1174 1040T1137 1015T1080 1007Q1028 1007 988 1010T895 1014Q813 1014 777 1004T731 961T720 862Q719 818 717 766T713 656T706 538T698 418T690 302T683 197T676
107Q668 50 658 17T631 -29T585 -43Z" />
<glyph unicode="U" horiz-adv-x="1251" d="M598 -35Q396 -35 278 73T106 360Q95 400 87 442T72 530T63 622T58 718T56 818Q56 957 68 1037T107 1150T177 1184Q207 1184 225 1153T252 1042T261 815Q261 772 262 729T266 645T273 565T284 490T300 421Q333 301 403
229T600 156Q678 156 736 189T835 282T902 419Q916 462 926 509T942 607T952 711T955 818Q955 954 965 1030T997 1138T1057 1169Q1095 1169 1114 1134T1141 1017T1148 800Q1148 751 1146 704T1139 610T1127 521T1110 436T1087 355Q1049 238 983 150T820 14T598
-35Z" />
<glyph unicode="V" horiz-adv-x="1304" d="M566 -27Q523 -27 484 10T408 102T341 216Q316 262 283 336T215 499T145 682T84 859T41 1006T25 1098Q25 1144 55 1168T131 1193Q172 1193 201 1172T247 1101Q268 1023 296 925T356 723T416 528T471 371Q504 287 529
238T572 189Q592 189 627 236T708 361Q747 424 789 507T876 684T962 874T1038 1060Q1055 1102 1074 1125T1118 1157T1170 1166Q1199 1166 1221 1154T1255 1122T1268 1076Q1268 1044 1246 982T1186 838T1101 666T1004 489T908 327T825 202Q783 146 738 94T650 7T566
-27Z" />
<glyph unicode="W" horiz-adv-x="1622" d="M355 -13Q290 -13 245 24T170 133T118 304Q107 359 98 428T83 574T72 731T67 885T65 1024Q65 1064 69 1097T84 1155T114 1194T164 1208Q213 1208 234 1174T260 1073Q261 991 262 921T267 788T274 668T283 552T295 435Q308
323 335 266T404 209Q447 209 472 260T523 422Q537 481 550 548T576 685T601 822T625 949Q651 1090 692 1166T817 1243Q865 1243 896 1203T949 1098T985 957Q994 906 1003 854T1022 747T1041 639T1058 536T1075 440Q1092 334 1111 281T1172 227Q1211 227 1238 284T1286
436Q1299 492 1309 558T1328 694T1343 833T1355 962T1363 1072Q1368 1110 1379 1136T1411 1177T1467 1192Q1492 1192 1509 1181T1537 1149T1552 1101T1557 1040Q1557 991 1553 917T1539 756T1517 581T1488 415T1450 279Q1404 143 1339 73T1194 3Q1103 3 1053 66T972
264Q963 308 954 354T937 450T919 551T900 657T882 767Q866 868 850 928T806 988Q780 988 761 924T723 768Q697 630 674 499T617 255Q584 153 546 95T462 12T355 -13Z" />
<glyph unicode="X" horiz-adv-x="1254" d="M112 -19Q86 -19 66 -10T35 18T23 61Q23 87 32 107T60 147Q78 168 117 212T208 312T309 420T397 513Q443 554 469 583T496 628Q496 642 483 664T427 720Q394 749 349 788T257 869T168 947T99 1006Q76 1023 64 1046T51
1094Q51 1124 64 1143T98 1170T139 1179Q173 1179 200 1165T254 1125Q290 1093 338 1045T439 940T541 827Q574 785 597 762T636 739Q649 739 665 752T702 790Q727 817 758 858T824 945T890 1033T945 1108Q979 1155 1008 1173T1069 1192Q1113 1192 1129 1172T1146
1120Q1146 1099 1135 1072T1098 1012Q1069 972 1027 918T938 810T850 717Q809 681 791 660T772 628Q772 617 785 603T825 562Q916 474 986 395T1108 250T1194 132Q1207 115 1212 97T1218 63Q1218 42 1205 26T1173 0T1131 -10Q1102 -10 1080 1T1037 36Q1011 67 972
119T888 231T803 341T736 423Q702 463 680 482T642 502Q627 502 604 480T545 413Q488 345 446 296T369 204T294 117T203 15Q186 0 165 -9T112 -19Z" />
<glyph unicode="Y" horiz-adv-x="1167" d="M550 -20Q506 -20 489 5T463 82Q461 103 460 131T457 191T455 255T452 315Q449 373 439 414T387 485Q341 517 297 549T217 618Q177 658 144 716T88 841T52 973T39 1094Q39 1130 51 1155T86 1193T139 1206Q166 1206 187
1176T224 1077Q234 1027 251 974T291 869Q320 800 360 742T449 649T556 614Q607 614 657 645T754 726Q814 792 861 876T932 1033Q961 1111 983 1147T1032 1184Q1059 1184 1079 1170T1111 1132T1123 1077Q1123 1024 1106 962T1058 835T986 711T899 606Q853 560 805
525T721 464Q696 446 683 430T664 393T652 343Q650 320 648 287T643 217T638 144T631 78Q626 32 606 6T550 -20Z" />
<glyph unicode="Z" horiz-adv-x="1052" d="M481 -34Q373 -34 277 -24T122 6Q69 22 42 48T15 108Q15 154 46 209T141 328Q182 371 241 432T369 564T503 705T624 836T713 941Q743 976 756 1001T769 1042Q769 1056 747 1063T682 1071Q664 1071 614 1070T500 1066T377
1063T279 1061Q200 1061 154 1066T87 1083T66 1119Q66 1148 88 1167T158 1197T280 1214T459 1219Q538 1219 624 1217T781 1209T884 1195Q933 1183 958 1157T983 1093Q983 1063 972 1034T941 975T896 914Q877 888 832 836T727 714T599 571T466 424T346 294Q305 250
284 220T263 167Q263 154 288 145T377 131T553 126Q624 126 685 131T793 141T865 146Q890 146 907 141T934 123T943 87Q943 61 913 42T832 8T719 -16T596 -29T481 -34Z" />
<glyph unicode="[" horiz-adv-x="508" d="M325 -390Q242 -390 183 -371T82 -297Q58 -266 44 -190T22 -3T11 242T8 522Q8 648 12 745T26 918T51 1054T88 1163Q109 1204 144 1228T231 1264T351 1275Q398 1275 431 1271T482 1255T500 1223Q500 1191 469 1179T383
1166Q331 1166 299 1157T247 1126T216 1069Q195 1003 179 861T163 521Q163 412 167 299T178 85T193 -86T207 -183Q219 -229 243 -251T331 -279Q375 -283 403 -288T444 -302T457 -327Q457 -349 447 -363T408 -383T325 -390Z" />
<glyph unicode="\" horiz-adv-x="976" d="M790 31Q765 59 719 118T615 258T495 425T376 596T273 746T203 852Q181 878 160 906T123 963T94 1015Q83 1036 74 1057T60 1099T52 1137T51 1167Q57 1183 73 1186T114 1178Q134 1159 178 1102T282 965T408 793T539 609T658
437T748 301Q772 267 795 232T838 164T873 102T896 50Q900 35 899 25T894 9Q883 0 869 0T835 8T790 31Z" />
<glyph unicode="]" horiz-adv-x="530" d="M247 -407Q185 -407 140 -402T70 -384T46 -345Q46 -323 62 -312T112 -296T196 -288Q250 -284 277 -267T315 -209T333 -98Q336 -67 339 -12T345 116T350 271T355 437T357 601Q357 736 348 836T319 1003Q297 1087 254 1116T148
1157Q99 1165 74 1172T39 1189T29 1217Q29 1240 45 1252T88 1268T146 1273Q263 1273 331 1233T436 1105Q462 1052 475 977T494 813T499 625Q499 537 497 445T491 264T484 97T476 -42T468 -137Q458 -248 430 -306T356 -385T247 -407Z" />
<glyph unicode="^" horiz-adv-x="867" d="M85 841Q59 841 45 852T31 890Q31 908 43 938T79 1004T132 1080Q178 1140 225 1187T326 1262T439 1290Q500 1290 544 1265T644 1191Q677 1162 712 1124T776 1046T823 970T841 911Q841 884 826 870T792 856Q777 856 758
873T717 916T676 968T642 1010Q621 1035 597 1064T547 1119T492 1162T433 1179Q403 1179 374 1160T317 1109T264 1043T219 981Q203 958 177 925T126 867T85 841Z" />
<glyph unicode="_" horiz-adv-x="1376" d="M712 -177Q486 -177 348 -175T137 -167T40 -151T15 -122Q15 -104 66 -92T210 -71T431 -60T715 -57Q958 -57 1097 -61T1294 -78T1353 -117Q1353 -142 1296 -155T1099 -172T712 -177Z" />
<glyph unicode="`" horiz-adv-x="660" d="M509 936Q466 936 392 966T244 1035Q180 1069 146 1099T112 1164Q112 1192 127 1205T168 1219Q200 1219 253 1196T359 1138Q442 1085 495 1041T549 972Q549 953 539 945T509 936Z" />
<glyph unicode="a" horiz-adv-x="1159" d="M447 -87Q367 -87 298 -71T175 -21T93 68T63 201Q63 294 108 353T231 445T405 490T606 503Q640 503 675 501T742 497T796 495Q823 495 832 503T842 534Q842 579 831 614T798 676T748 721Q703 752 640 765T505 778Q421
778 360 760T256 724T179 705Q140 705 120 718T99 759Q99 791 129 820T214 873T343 909T505 923Q678 923 793 878T965 732T1023 465Q1023 411 1017 371T1003 302T989 251T983 213Q983 190 998 171T1032 133T1067 94T1082 50Q1082 13 1058 -2T1008 -17Q979 -17 961
3T926 43T886 63Q872 63 857 56T817 31Q788 9 742 -18T625 -66T447 -87ZM471 35Q541 35 606 57T723 118T805 211T836 326Q836 363 811 379T728 399T572 403Q479 403 400 385T274 323T226 206Q226 148 254 111T338 54T471 35Z" />
<glyph unicode="b" horiz-adv-x="1159" d="M538 -16Q368 -16 263 44T108 220T58 504Q58 571 62 646T74 798T92 945T115 1075T143 1177Q161 1216 187 1237T245 1259Q284 1259 303 1235T322 1169Q322 1145 319 1114T312 1047T304 974T297 901T294 835Q294 797 297
773T315 748Q328 748 353 761T410 794Q446 818 504 838T655 859Q786 859 879 806T1023 657T1073 434Q1073 322 1034 238T923 97T754 12T538 -16ZM559 106Q610 106 666 121T772 170T852 263T884 406Q884 509 851 580T750 690T580 728Q488 728 417 695T305 600T264
454Q264 352 293 274T386 151T559 106Z" />
<glyph unicode="c" horiz-adv-x="1132" d="M587 -55Q471 -55 371 -22T194 75T76 232T33 445Q33 573 74 675T192 851T374 962T608 1001Q705 1001 775 983T885 938T924 883Q924 868 916 855T894 835T864 828Q843 828 816 838T745 859T628 870Q538 870 465 841T338
759T255 633T226 472Q226 357 275 278T407 157T595 115Q693 115 759 135T867 183T935 230T979 251Q1004 251 1017 240T1036 213T1042 182Q1042 147 1013 106T926 29T783 -31T587 -55Z" />
<glyph unicode="d" horiz-adv-x="1119" d="M502 -51Q357 -51 252 1T90 152T33 395Q33 529 87 622T241 765T478 814Q557 814 609 797T696 760Q721 745 741 734T771 723Q787 723 787 754Q787 783 782 827T769 922T754 1023T741 1116T736 1184Q736 1277 821 1277Q853
1277 880 1259T924 1207Q938 1170 952 1103T978 952T1001 785T1017 629T1023 511Q1023 323 970 198T802 11T502 -51ZM508 69Q609 69 678 106T783 215T819 386Q819 483 783 549T681 648T522 682Q423 682 351 649T239 549T200 382Q200 286 238 216T345 108T508 69Z"
/>
<glyph unicode="e" horiz-adv-x="1123" d="M603 -64Q437 -64 317 -14T132 141T67 411Q67 546 112 647T235 817T416 919T636 953Q716 953 785 936T908 882T991 791T1021 662Q1021 576 983 524T880 444T732 403T562 386Q522 382 468 380T366 377T292 376Q262 376
252 368T241 337Q241 309 256 270T302 195Q357 125 429 102T610 79Q697 79 764 99T880 138T965 157Q993 157 1009 147T1025 105Q1025 76 994 46T907 -9T773 -49T603 -64ZM517 469Q609 469 687 485T812 543T860 659Q860 746 797 791T616 837Q547 837 482 813T365
745T284 647T254 530Q254 500 279 488T361 472T517 469Z" />
<glyph unicode="f" horiz-adv-x="945" d="M486 -63Q446 -63 426 -43T397 20Q394 48 388 98T375 209T360 331T345 445T334 528Q332 548 322 556T293 564Q278 564 251 559T175 543Q126 532 99 525T54 518Q40 518 30 524T13 541T6 568Q6 586 21 602T71 633Q88 640
130 651T217 674T290 693Q305 696 310 708T316 744Q316 775 312 809T303 880T298 954Q298 1062 339 1135T458 1247T647 1285Q689 1285 726 1279T790 1261T834 1236T850 1204Q850 1187 841 1178T815 1165Q796 1162 766 1164T695 1165Q575 1165 526 1106T476 927Q476
908 477 886T481 841T487 800Q491 773 500 762T525 751Q538 751 576 761T666 787Q704 800 745 811T818 831T866 839Q889 839 901 827T913 793Q913 769 895 753T820 714Q783 700 728 681T590 634Q547 619 532 600T517 553Q517 527 521 476T532 362T544 235T553 117T555
31Q550 -21 534 -42T486 -63Z" />
<glyph unicode="g" horiz-adv-x="1241" d="M531 -437Q416 -437 329 -419T184 -373T97 -314T67 -257Q67 -237 79 -223T112 -202T159 -194Q184 -194 219 -209T302 -243T417 -276T569 -289Q664 -288 730 -254T837 -164T896 -43T915 89Q915 100 914 107T909 119T901
124Q890 124 864 100T793 45T680 -10T517 -34Q359 -34 253 20T93 173T38 409Q38 533 84 623T210 770T395 855T614 883Q738 883 834 845T997 733T1097 556T1131 321Q1131 119 1093 -25T978 -261T790 -394T531 -437ZM559 101Q634 101 702 125T822 194T904 299T934
432Q934 518 896 587T785 696T607 736Q546 736 480 722T356 671T262 570T226 407Q226 314 267 245T382 139T559 101Z" />
<glyph unicode="h" horiz-adv-x="1173" d="M146 -50Q117 -50 101 -31T76 32Q73 56 70 102T65 212T62 357T61 530Q61 593 63 660T71 795T85 925T105 1043T129 1143Q148 1198 175 1225T235 1252Q272 1252 292 1223T312 1131Q312 1093 309 1047T302 951T294 857T288
775T285 719Q285 686 296 686Q306 686 329 713T397 776T514 839T694 866Q803 866 874 825T987 716T1045 567T1063 405Q1063 364 1058 312T1043 207T1021 106T995 29Q980 0 957 -14T901 -28Q875 -28 861 -15T841 20Q838 41 842 81T852 172T863 278T867 386Q866 441
855 498T819 605T748 684T632 714Q543 714 476 683T364 605T296 509T269 424Q266 353 263 294T254 186T244 100T231 33Q219 -9 198 -29T146 -50Z" />
<glyph unicode="i" horiz-adv-x="567" d="M217 -24Q183 -24 162 -9T133 40T124 128Q124 163 125 215T130 329T137 455T145 579T155 686T164 761Q179 816 208 841T283 867Q325 867 344 834T363 734Q363 706 361 653T356 532T348 393T339 256T328 140T317 68Q303
15 279 -4T217 -24ZM279 1040Q195 1040 167 1069T138 1133Q138 1178 170 1208T250 1254T344 1269Q379 1269 407 1258T451 1223T467 1160Q467 1118 442 1092T373 1053T279 1040Z" />
<glyph unicode="j" horiz-adv-x="594" d="M80 -460Q18 -460 -32 -448T-112 -415T-141 -364Q-141 -339 -127 -324T-90 -305Q-62 -301 -14 -307T93 -313Q166 -313 198 -208T230 93Q230 128 228 178T222 287T216 406T209 524T204 628T201 706Q201 781 227 811T301
841Q336 841 356 825T387 777T403 698T411 587Q414 553 417 502T423 390T428 271T431 161T433 78Q433 -81 399 -202T287 -391T80 -460ZM319 1032Q285 1032 253 1038T195 1057T154 1089T139 1134Q139 1177 159 1202T216 1238T304 1250Q336 1250 367 1243T423 1222T463
1185T478 1133Q478 1103 458 1081T403 1045T319 1032Z" />
<glyph unicode="k" horiz-adv-x="1025" d="M143 -37Q114 -37 98 -22T76 20T69 84Q69 129 77 202T97 370T119 575Q129 680 140 768T161 927T181 1054T200 1147Q217 1213 240 1240T293 1267Q330 1267 344 1236T358 1137Q358 1103 355 1059T347 964T337 862T327 761T319
668T316 594Q316 562 319 543T333 523Q342 523 353 530T380 552Q397 567 429 597T501 665T579 738T645 799T682 832Q705 848 728 858T772 868Q801 868 818 852T835 814Q835 792 818 765T769 709Q705 642 640 591T516 481Q493 458 493 445Q493 438 499 432T520 415Q549
392 601 357T713 281T828 203T917 139Q939 122 951 108T964 76Q964 60 954 45T927 20T887 11Q862 11 836 24T785 55Q740 85 676 130T546 225T425 318Q400 339 378 351T337 364Q318 364 306 351T288 312Q266 206 251 140T224 35Q210 -7 191 -22T143 -37Z" />
<glyph unicode="l" horiz-adv-x="627" d="M358 -51Q267 -51 213 -9T132 134T99 411Q95 451 94 512T94 645T97 788T101 919T107 1018Q112 1103 120 1156T148 1235T206 1261Q253 1261 270 1231T288 1126Q288 1096 286 1048T281 941T274 819T267 696T262 585T260
498Q260 363 268 280T291 154T329 94T379 78Q419 78 443 93T486 123T525 138Q544 138 554 125T565 90Q565 65 550 40T506 -5T440 -38T358 -51Z" />
<glyph unicode="m" horiz-adv-x="1484" d="M125 -16Q99 -16 82 -2T56 42T47 116Q47 165 49 222T57 340T72 461T93 578T123 681Q166 788 231 847T389 907Q459 907 504 866T581 757T636 612Q652 561 672 521T714 480Q743 480 776 522T843 626Q893 716 939 779T1039
876T1160 909Q1250 909 1304 852T1383 698T1408 487Q1408 439 1406 387T1399 281T1387 177T1371 84Q1357 30 1338 10T1286 -10Q1259 -10 1242 7T1218 55Q1216 78 1217 109T1220 179T1224 264T1227 363T1228 476Q1227 538 1216 594T1181 686T1116 722Q1077 722 1042
689T975 600T908 481Q858 381 813 328T705 274Q643 274 609 321T551 457Q533 524 514 579T469 667T404 700Q366 700 336 664T280 555Q253 472 238 387T217 224T210 83Q204 31 185 8T125 -16Z" />
<glyph unicode="n" horiz-adv-x="1210" d="M132 -22Q95 -22 75 2T46 79Q44 106 44 141T45 220T52 320Q66 516 131 652T313 859T593 931Q757 931 871 864T1044 654T1104 285Q1104 243 1103 208T1100 144T1093 92Q1082 29 1060 4T997 -22Q962 -22 943 -8T917 34T906
106Q904 187 902 248T896 359T887 451T871 539Q847 653 786 714T602 775Q481 775 410 709T300 531Q284 484 274 434T257 331T247 222T240 104Q236 53 222 26T185 -12T132 -22Z" />
<glyph unicode="o" horiz-adv-x="1311" d="M615 -51Q501 -51 397 -25T210 57T81 204T33 428Q33 573 79 681T207 860T397 966T627 1002Q736 1002 842 975T1034 887T1173 729T1225 492Q1225 390 1186 293T1069 119T878 -4T615 -51ZM610 119Q725 119 805 154T934
248T1007 375T1030 511Q1030 606 994 672T897 779T762 838T611 857Q510 857 420 814T274 683T218 460Q218 351 262 275T393 159T610 119Z" />
<glyph unicode="p" horiz-adv-x="1157" d="M157 -468Q135 -468 119 -456T90 -415T69 -335Q63 -288 58 -235T48 -127T42 -15T38 96T36 201Q36 401 91 555T265 797T579 885Q705 885 798 849T951 749T1041 598T1070 408Q1070 301 1042 215T949 67T777 -26T511 -59Q438
-59 391 -48T316 -26T276 -15Q257 -15 249 -26T238 -82Q236 -101 236 -142T235 -231T234 -318T233 -377Q231 -427 212 -447T157 -468ZM488 84Q646 84 737 124T866 240T905 425Q905 509 879 582T783 700T584 746Q490 746 425 715T319 625T260 487T242 313Q242 218
263 169T339 102T488 84Z" />
<glyph unicode="q" horiz-adv-x="1267" d="M1072 -377Q1046 -377 1022 -360T975 -318Q950 -290 925 -252T878 -175T846 -108Q827 -67 811 -40T773 -13Q753 -13 710 -18T575 -23Q487 -23 397 3T232 84T111 224T65 428Q65 561 109 658T233 818T418 912T645 943Q810
943 931 888T1119 726T1186 466Q1186 338 1144 249T1033 102Q992 67 973 48T954 15Q954 4 968 -21T1003 -75Q1031 -117 1062 -161T1124 -246Q1141 -267 1149 -283T1158 -311Q1158 -333 1145 -348T1111 -370T1072 -377ZM614 128Q729 128 818 168T957 286T1007 477Q1007
570 975 632T889 731T771 783T645 799Q582 799 515 783T391 729T297 623T261 451Q261 368 292 307T376 207T491 148T614 128Z" />
<glyph unicode="r" horiz-adv-x="923" d="M242 -21Q220 -21 202 -11T169 19T142 63Q125 102 112 152T89 258T75 367T70 464Q70 627 127 738T293 907T561 965Q624 965 680 956T781 931T851 891T877 838Q877 816 867 802T842 782T810 776Q768 776 713 792T565 808Q416
808 344 715T272 468Q272 413 277 362T290 266T305 182T318 114T323 68Q323 19 302 -1T242 -21Z" />
<glyph unicode="s" horiz-adv-x="933" d="M448 -32Q392 -32 326 -27T200 -10T100 17Q69 29 51 45T32 87Q32 117 50 132T103 147Q131 147 178 136T286 114T414 102Q485 102 551 115T659 159T702 244Q702 293 676 323T588 377T413 423Q298 447 219 483T99 573T58
699Q58 761 93 807T190 885T331 931T498 947Q549 947 603 941T705 924T781 897T810 858Q810 837 800 824T772 804T732 798Q692 798 636 807T508 817Q442 817 386 804T295 762T260 687Q260 619 330 582T534 517Q656 492 733 457T848 368T886 239Q886 164 850 112T751
29T611 -17T448 -32Z" />
<glyph unicode="t" horiz-adv-x="952" d="M595 -20Q551 -20 504 -6T421 49T377 171Q373 202 370 242T363 329T358 426T354 530T351 638Q350 683 337 697T294 714Q275 716 244 717T180 720T122 723Q88 727 72 743T55 790Q55 810 64 821T92 839T135 847Q191 851
226 854T291 859Q324 863 336 876T352 924Q355 945 356 974T358 1033T363 1084Q371 1129 386 1151T436 1174Q465 1174 481 1163T504 1130T516 1072Q517 1039 518 1013T520 967T522 931T524 899Q527 870 541 859T587 845Q614 843 649 840T718 833T770 827Q808 822
832 809T857 765Q857 738 838 723T783 705Q716 704 661 705T576 706Q552 705 542 694T530 632Q530 588 530 542T533 450T537 361T543 278T551 208Q561 141 584 120T640 98Q688 98 713 118T755 157T793 177Q814 177 823 166T833 134Q833 107 812 80T757 30T681 -6T595
-20Z" />
<glyph unicode="u" horiz-adv-x="1223" d="M550 -63Q410 -63 315 -17T162 115T78 320T52 585Q52 620 54 655T60 724T69 784Q83 850 109 877T172 905Q206 905 223 889T246 847T252 795Q253 777 253 751T252 695T251 637T252 586Q255 446 283 337T376 166T557 104Q678
104 749 153T858 295T914 515Q918 545 921 577T927 643T933 711T940 780Q948 844 969 878T1034 913Q1071 913 1089 885T1113 805Q1115 766 1115 728T1114 651T1111 576T1105 503Q1090 323 1028 197T848 4T550 -63Z" />
<glyph unicode="v" horiz-adv-x="1240" d="M610 -73Q565 -73 512 -27T399 97Q373 130 337 188T261 318T181 463T109 602T57 711Q42 744 34 770T25 817Q25 841 37 858T70 884T113 893Q149 893 176 871T230 800Q240 780 264 731T320 615T387 477T457 337T518 219Q546
169 569 138T607 107Q622 107 645 137T693 217Q757 340 823 497T960 822Q987 874 1010 894T1070 915Q1105 915 1125 897T1146 843Q1146 822 1140 796T1123 741Q1108 695 1081 628T1020 485T949 333T877 193T813 87Q761 17 709 -28T610 -73Z" />
<glyph unicode="w" horiz-adv-x="1422" d="M307 -2Q252 -2 213 25T144 106Q129 136 115 200T87 346T64 515T49 679T43 808Q43 850 53 881T83 930T135 948Q173 948 192 920T220 826Q224 786 228 729T240 608T255 481T271 365T288 281Q297 245 312 225T346 205Q366
205 380 228T404 289Q418 348 432 423T463 578T496 733T533 870Q553 921 590 951T690 982Q747 982 778 953T825 882Q837 846 852 788T883 663T914 528T941 404T960 313Q970 264 984 238T1016 212Q1038 212 1052 231T1080 292Q1092 327 1105 394T1129 543T1151 703T1170
841Q1182 901 1201 925T1256 949Q1277 949 1295 941T1327 916T1348 870T1356 799Q1356 759 1351 701T1335 576T1313 440T1286 308T1256 196T1226 118Q1195 65 1152 34T1048 3Q986 3 946 42T887 133Q873 190 856 265T820 421T783 575T750 703Q741 742 729 768T688
795Q661 795 643 769T614 702Q604 662 591 601T563 469T535 329T507 204T483 115Q463 67 417 33T307 -2Z" />
<glyph unicode="x" horiz-adv-x="1225" d="M141 -27Q119 -27 101 -20T71 3T60 42Q60 62 69 82T99 125Q116 143 152 176T234 247T328 321Q370 354 406 384T466 437T489 474Q489 485 464 507T399 559T316 618Q267 651 222 688T143 756Q123 775 111 796T98 843Q98
866 111 883T145 910T190 920Q212 920 233 910T276 883Q314 854 359 811T445 720Q506 651 547 610T607 568Q619 568 643 589T699 643T761 713Q810 769 841 801T904 863Q930 888 961 907T1020 926Q1056 926 1077 907T1098 854Q1098 827 1083 799T1038 741Q1013 715
975 684T888 615Q819 562 786 536T743 497T732 470Q732 457 773 427T912 326Q952 297 990 265T1059 204T1106 159Q1134 131 1147 107T1161 58Q1161 40 1154 27T1133 5T1105 -7T1074 -11Q1049 -11 1026 0T972 35Q941 61 895 106T778 227Q703 304 665 343T609 382Q598
382 584 371T537 325T442 218Q406 176 366 134T293 59T240 12Q218 -4 193 -15T141 -27Z" />
<glyph unicode="y" horiz-adv-x="1114" d="M159 -375Q126 -375 108 -358T89 -315Q89 -286 114 -260T181 -211Q235 -173 287 -130T383 -44T453 34T479 91Q479 109 452 136T369 203Q320 239 272 292T180 408T102 537T49 664T29 774Q29 799 40 818T70 849T113 860Q154
860 182 836T238 747Q280 618 341 509T461 325Q492 288 524 261T574 233Q601 233 627 261T671 319Q735 415 776 523T858 750Q879 802 906 836T966 870Q1012 870 1030 846T1048 782Q1048 718 1027 640T969 478T889 314T798 165T709 49Q648 -22 574 -96T424 -234T280
-336T159 -375Z" />
<glyph unicode="z" horiz-adv-x="1063" d="M516 -24Q407 -24 317 -20T163 -3Q83 11 50 39T17 117Q17 141 26 166T60 218T132 277Q168 303 225 344T351 433T487 530T613 620T709 688Q760 720 774 736T788 766Q788 784 764 789T699 794Q639 794 568 791T423 783T287
775T179 772Q155 772 137 777T109 795T99 825Q99 845 117 859T171 882T263 898T394 910Q431 913 487 915T605 921T721 926T811 928Q896 928 945 903T995 821Q995 780 976 741T885 652Q820 606 737 547T568 427T412 317T299 237Q264 214 251 197T237 163Q237 146
260 138T345 127T520 124Q636 124 719 128T863 133Q917 133 942 119T968 76Q968 46 940 27T855 -3T714 -19T516 -24Z" />
<glyph unicode="{" horiz-adv-x="555" d="M494 -379Q480 -379 463 -374T430 -362T400 -347Q365 -326 334 -293T284 -214T263 -112Q262 -33 259 27T245 134T210 221T145 301Q127 322 110 337T79 367T57 397T49 435Q49 456 56 472T76 502T102 527T128 554Q170 591
184 634T198 740Q198 758 197 777T194 816T191 857T190 899Q190 992 215 1056T282 1176Q304 1203 334 1228T397 1269T454 1285Q479 1285 494 1273T509 1233Q509 1213 497 1199T465 1168T425 1126T388 1061Q378 1039 369 1013T354 957T348 895Q348 872 349 841T353
779T355 729Q355 686 348 652T328 592T301 549Q276 516 246 491T215 445Q215 427 234 409T288 367Q334 337 366 283T405 157Q407 128 407 87T407 1T411 -83T423 -149Q440 -200 462 -231T509 -278Q527 -289 536 -300T546 -331Q546 -356 532 -367T494 -379Z" />
<glyph unicode="|" horiz-adv-x="291" d="M118 -302Q94 -302 80 -282T58 -221T49 -124T46 7Q46 60 46 150T48 350T50 573T52 789T55 966T58 1071Q63 1156 73 1213T102 1299T152 1328Q175 1328 188 1311T206 1256T213 1158T214 1010Q214 970 214 907T212 765T210
599T208 426T206 261T204 119T202 15Q201 -72 194 -144T168 -259T118 -302Z" />
<glyph unicode="}" horiz-adv-x="516" d="M88 -357Q74 -357 61 -352T40 -337T32 -310Q32 -290 48 -274T83 -244Q126 -210 162 -160T198 -17Q198 23 198 76T200 181T209 270Q221 335 243 369T289 420T329 448T346 477Q346 491 329 505T290 541T251 597T234 685Q234
707 238 744T247 825T252 911Q252 1003 224 1065T120 1155Q94 1164 75 1177T55 1220Q55 1244 75 1254T118 1265Q156 1265 204 1248T294 1188Q325 1160 348 1118T384 1023T398 914Q398 885 396 858T390 801T384 741T381 674Q381 638 397 615T434 575T471 537T487
486Q487 448 472 426T435 386T393 344T363 278Q356 247 353 203T349 109T348 10Q348 -90 312 -167T227 -291Q198 -320 160 -338T88 -357Z" />
<glyph unicode="~" horiz-adv-x="1022" d="M235 947Q218 947 207 957T195 988Q195 1027 222 1069T292 1141T379 1170Q420 1170 452 1147T511 1095T563 1042T616 1019Q651 1019 671 1032T710 1089Q724 1124 736 1135T765 1146Q777 1146 787 1138T797 1106Q797 1059
772 1020T706 958T620 935Q575 935 542 957T481 1007T430 1058T379 1080Q350 1080 327 1055T283 987Q272 965 261 956T235 947Z" />
<glyph unicode="&#xa0;" horiz-adv-x="592" />
<glyph unicode="&#xa1;" horiz-adv-x="372" d="M146 575Q162 575 174 568T196 542T212 488T223 401T230 273T234 95T235 -138Q235 -192 235 -235T232 -311T227 -368T217 -409T201 -435T178 -449T147 -454Q129 -454 117 -449T95 -431T81 -400T72 -352T67 -285T65
-196T65 -82Q65 39 66 133T71 296T80 414T93 495T108 544T125 568T146 575ZM157 882Q183 882 211 876T257 853T276 802Q276 770 259 747T214 711T155 698Q131 698 106 706T64 732T46 778Q46 816 62 838T103 871T157 882Z" />
<glyph unicode="&#xa2;" horiz-adv-x="1020" d="M537 978Q512 978 498 988T477 1017T470 1064Q470 1113 474 1149T486 1208T507 1243T537 1255Q550 1255 561 1244T579 1209T591 1154T595 1080Q595 1043 591 1020T574 988T537 978ZM535 -50Q520 -50 508 -43T489
-18T477 29T473 101Q473 134 476 158T487 197T508 219T540 227Q555 227 566 222T585 204T597 175T602 135Q602 81 598 45T585 -12T564 -41T535 -50ZM541 140Q411 140 305 190T135 335T72 565Q72 673 107 760T207 909T361 1003T559 1036Q641 1036 700 1021T793 983T827
937Q827 925 820 915T801 898T776 891Q759 891 736 900T676 918T576 928Q474 928 397 885T275 764T231 587Q231 489 273 421T387 317T547 281Q632 281 688 298T780 339T838 380T874 398Q896 398 907 389T922 367T927 341Q927 312 902 278T828 212T707 161T541 140Z"
/>
<glyph unicode="&#xa3;" horiz-adv-x="883" d="M287 562Q206 562 150 564T59 571T9 586T-7 612Q-7 640 20 653T119 672T323 677Q430 677 499 675T607 667T662 649T678 616Q678 598 661 587T602 570T483 564T287 562ZM159 -45Q124 -45 96 -28T67 27Q67 55 81 82T113
149T146 255T160 426Q160 451 160 488T158 569T156 656T156 734Q158 891 197 1010T324 1196T560 1264Q619 1264 669 1248T756 1205T815 1147T836 1083Q836 1062 823 1053T790 1044Q764 1044 743 1059T700 1094T646 1129T568 1144Q470 1144 414 1093T335 950T312
732Q312 703 313 669T314 599T316 528T317 464T316 414Q315 312 302 247T277 147T264 106Q264 92 281 92Q295 92 324 100T392 117T472 126Q529 126 568 122T647 114T742 109Q789 106 813 94T837 53Q837 15 801 1T723 -13Q677 -13 633 -8T540 2T424 7Q365 7 320
-6T236 -32T159 -45Z" />
<glyph unicode="&#xa4;" horiz-adv-x="1088" d="M550 125Q455 125 369 147T214 218T107 343T68 529Q68 650 106 738T212 883T369 967T560 995Q649 995 737 972T897 900T1012 770T1055 573Q1055 489 1023 409T926 265T768 163T550 125ZM95 78Q78 78 64 91T50 122Q50
142 69 171T135 246Q168 279 193 296T237 313Q255 313 272 298T289 263Q289 247 278 228T243 185Q185 127 151 103T95 78ZM195 790Q181 790 163 803T119 841Q73 888 49 923T25 980Q25 996 37 1007T66 1018Q88 1018 125 991T219 907Q236 891 244 877T252 850Q252
837 243 823T221 800T195 790ZM1015 63Q994 63 960 87T868 170Q845 193 834 212T822 247Q822 267 838 282T874 297Q894 297 918 280T975 230Q1021 184 1040 155T1060 107Q1060 89 1047 76T1015 63ZM546 261Q641 261 707 290T814 367T874 472T893 585Q893 690 842
752T711 842T547 870Q484 870 426 850T322 790T249 687T222 542Q222 452 258 390T367 294T546 261ZM858 833Q846 833 833 842T810 866T801 892Q801 906 809 920T834 950Q890 1006 927 1033T987 1061Q1003 1061 1015 1050T1028 1023Q1028 1002 1004 967T934 884Q908
859 890 846T858 833Z" />
<glyph unicode="&#xa5;" horiz-adv-x="1167" d="M488 242Q372 242 294 243T169 249T101 261T80 283Q80 299 100 309T171 326T310 334T536 337Q686 337 782 336T931 329T1006 313T1027 287Q1027 272 1005 263T924 249T760 244T488 242ZM483 439Q357 439 272 440T136
446T62 458T40 480Q40 496 61 506T137 523T288 531T536 534Q700 534 804 532T967 525T1048 510T1071 483Q1071 468 1047 459T959 446T781 441T483 439ZM550 -20Q506 -20 489 5T463 82Q461 103 460 131T457 191T455 255T452 315Q449 373 439 414T387 485Q341 517
297 549T217 618Q177 658 144 716T88 841T52 973T39 1094Q39 1130 51 1155T86 1193T139 1206Q166 1206 187 1176T224 1077Q234 1027 251 974T291 869Q320 800 360 742T449 649T556 614Q607 614 657 645T754 726Q814 792 861 876T932 1033Q961 1111 983 1147T1032
1184Q1059 1184 1079 1170T1111 1132T1123 1077Q1123 1024 1106 962T1058 835T986 711T899 606Q853 560 805 525T721 464Q696 446 683 430T664 393T652 343Q650 320 648 287T643 217T638 144T631 78Q626 32 606 6T550 -20Z" />
<glyph unicode="&#xa6;" horiz-adv-x="291" d="M123 590Q92 590 76 608T56 660T51 738Q51 768 51 814T53 914T55 1018T57 1108T60 1163Q63 1202 73 1240T102 1303T148 1328Q185 1328 200 1295T216 1183Q216 1158 216 1114T214 1016T212 910T209 812T207 742Q206
703 198 668T172 612T123 590ZM128 -320Q104 -320 90 -306T67 -269T56 -217T53 -162Q53 -126 52 -67T51 57T50 174T49 250Q51 334 73 375T137 417Q174 417 189 373T205 270Q205 238 206 183T207 65T207 -52T208 -139Q208 -188 201 -229T176 -295T128 -320Z" />
<glyph unicode="&#xa7;" horiz-adv-x="963" d="M458 -199Q402 -199 338 -193T214 -176T115 -150Q86 -139 69 -121T51 -82Q51 -60 67 -49T111 -38Q140 -38 189 -51T302 -77T432 -90Q507 -90 580 -76T701 -29T749 62Q749 101 731 128T675 177T577 216T432 252Q318
277 240 312T120 400T79 524Q79 582 112 629T203 709T339 759T503 777L499 687Q430 687 370 669T272 616T234 530Q234 481 268 447T368 391T522 349Q613 331 683 308T800 252T872 177T896 74Q896 3 860 -48T761 -133T620 -182T458 -199ZM457 267L432 356Q507 356
580 370T701 417T749 508Q749 547 729 575T669 623T566 661T419 696Q305 721 230 759T117 850T79 972Q79 1030 112 1076T205 1155T342 1205T508 1222Q558 1222 612 1215T712 1194T788 1162T817 1122Q817 1097 800 1088T755 1078Q726 1078 692 1085T612 1099T505
1107Q437 1107 378 1092T282 1047T246 969Q246 922 277 888T371 829T522 787Q613 769 683 746T800 693T872 619T896 517Q896 447 859 399T760 322T620 280T457 267Z" />
<glyph unicode="&#xa8;" horiz-adv-x="928" d="M278 926Q213 926 187 949T160 1012Q160 1055 194 1080T266 1106Q295 1106 320 1098T361 1069T377 1012Q377 976 354 951T278 926ZM665 927Q620 927 591 952T561 1015Q561 1060 594 1088T677 1117Q723 1117 745 1091T768
1030Q768 988 740 958T665 927Z" />
<glyph unicode="&#xa9;" horiz-adv-x="1605" d="M812 -97Q618 -97 471 -51T224 86T74 305T24 599Q24 775 82 908T245 1131T492 1266T802 1312Q977 1312 1112 1269T1340 1139T1481 920T1529 611Q1529 362 1450 206T1212 -24T812 -97ZM776 18Q998 18 1139 79T1347
273T1415 617Q1415 792 1351 923T1151 1129T806 1203Q663 1203 543 1162T335 1044T198 858T149 612Q149 462 197 351T330 165T530 55T776 18ZM814 198Q692 198 593 245T436 381T378 595Q378 729 435 828T595 981T831 1035Q905 1035 961 1022T1048 988T1079 947Q1079
932 1067 922T1038 911Q1022 911 1001 919T943 936T846 945Q747 945 671 903T552 785T509 612Q509 517 550 450T661 348T818 313Q901 313 955 331T1044 371T1098 411T1133 429Q1159 429 1167 414T1175 383Q1175 359 1152 327T1084 266T971 218T814 198Z" />
<glyph unicode="&#xaa;" horiz-adv-x="520" d="M193 818Q149 818 114 830T58 867T37 936Q37 987 67 1013T146 1050T251 1060Q272 1060 284 1059T307 1057Q318 1057 322 1060T326 1073Q326 1090 321 1108T298 1139Q279 1151 261 1154T217 1157Q171 1157 138 1140T81
1122Q63 1122 53 1128T43 1149Q43 1170 66 1188T129 1219T217 1231Q324 1231 377 1189T431 1045Q431 1017 427 999T423 966Q423 954 432 938T451 907T461 877Q461 862 450 854T424 846Q406 846 396 863T374 880Q368 880 362 877T345 867Q328 853 294 836T193 818ZM210
892Q251 892 285 914T320 975Q320 992 303 995T241 999Q199 999 167 986T135 939Q135 913 155 903T210 892Z" />
<glyph unicode="&#xab;" horiz-adv-x="643" d="M580 237Q570 237 546 252T495 290T445 333Q402 375 360 422T290 518T262 609Q262 645 275 682T312 758T362 836T419 911Q439 939 471 974T533 1035T579 1061Q598 1061 607 1051T617 1024Q617 1009 596 973T541 891T468
796Q448 772 426 739T389 673T374 613Q374 591 391 561T434 501T485 446Q530 404 559 372T602 316T617 279Q617 257 609 247T580 237ZM338 237Q328 237 304 252T253 290T203 333Q160 375 118 422T48 518T20 609Q20 645 33 682T70 758T120 836T177 911Q197 939 229
974T291 1035T337 1061Q356 1061 365 1051T375 1024Q375 1009 354 973T299 891T226 796Q206 772 184 739T147 673T132 613Q132 591 149 561T192 501T243 446Q288 404 317 372T360 316T375 279Q375 257 367 247T338 237Z" />
<glyph unicode="&#xac;" horiz-adv-x="948" d="M817 265Q786 265 772 285T758 338Q758 349 759 370T761 418T764 466T765 498Q765 518 750 531T680 544Q670 545 623 545T509 545T372 546T246 546T165 547Q120 548 88 555T38 574T20 604Q20 621 33 635T87 659T212
675T439 681Q587 681 679 674T821 653T888 619T906 573Q906 532 905 497T902 431T897 376T890 329Q887 313 879 298T856 274T817 265Z" />
<glyph unicode="&#xad;" horiz-adv-x="850" d="M350 545Q265 545 203 547T101 556T42 576T22 611Q22 647 58 665T174 688T389 694Q504 694 580 692T701 682T765 658T784 615Q784 591 766 577T701 556T569 547T350 545Z" />
<glyph unicode="&#xae;" horiz-adv-x="1616" d="M803 -99Q615 -99 470 -51T225 88T75 308T24 599Q24 773 83 906T248 1129T497 1265T808 1311Q980 1311 1115 1268T1345 1137T1489 920T1539 615Q1539 431 1491 297T1348 75T1117 -56T803 -99ZM778 12Q946 12 1068
48T1269 160T1387 350T1425 619Q1425 799 1362 931T1164 1136T817 1209Q668 1209 545 1171T334 1056T197 869T148 613Q148 459 196 346T331 159T531 49T778 12ZM562 187Q537 187 522 208T499 272Q495 295 492 336T487 426T484 522T482 605Q482 716 494 798T537
935T624 1016T766 1043Q858 1043 933 1018T1053 942T1098 815Q1098 758 1070 719T998 656T903 618T807 599Q783 596 775 593T766 583Q766 577 776 566T806 538T853 491Q882 464 921 425T999 345T1063 276T1089 239Q1089 221 1075 212T1040 202Q1023 202 999 215T944
253T880 308T815 375Q765 429 727 468T664 529T630 550Q624 550 621 538T618 494T617 402Q617 387 617 362T619 312T620 266T620 240Q617 212 603 200T562 187ZM699 656Q728 656 775 663T869 688T948 736T980 815Q980 867 947 898T865 942T763 956Q704 956 673
932T630 852Q624 821 622 791T620 736Q620 689 633 673T699 656Z" />
<glyph unicode="&#xaf;" horiz-adv-x="876" d="M444 973Q340 973 261 975T138 989T93 1027Q93 1052 121 1064T230 1079T466 1083Q566 1083 642 1080T761 1068T804 1037Q804 1007 765 993T646 976T444 973Z" />
<glyph unicode="&#xb0;" horiz-adv-x="615" d="M303 809Q216 809 152 839T52 918T17 1024Q17 1103 53 1158T154 1243T301 1272Q379 1272 443 1249T545 1175T584 1036Q584 969 547 918T445 838T303 809ZM304 893Q386 893 436 930T486 1048Q486 1099 461 1131T393
1179T301 1195Q258 1195 217 1177T149 1125T122 1038Q122 990 149 958T218 910T304 893Z" />
<glyph unicode="&#xb1;" horiz-adv-x="1084" d="M475 113Q362 113 286 115T165 124T101 142T81 173Q81 196 100 211T168 234T302 245T523 248Q669 248 762 246T906 237T977 215T997 176Q997 155 976 142T899 123T741 115T475 113ZM534 324Q502 324 491 371T472
492Q471 511 471 527T470 559T468 587T466 611Q462 649 453 669T429 696T386 704Q373 704 342 704T272 704T199 703T140 705Q89 710 57 723T25 767Q25 788 44 801T100 822T194 830Q236 831 280 833T362 839T417 844Q437 847 447 862T461 929Q462 943 463 959T465
995T467 1035T469 1082Q476 1171 492 1203T545 1236Q573 1236 588 1196T608 1113Q610 1086 611 1062T613 1017T614 978T616 943Q618 886 629 865T663 844Q677 843 713 842T794 840T879 836T944 832Q994 826 1022 814T1050 776Q1050 747 1016 735T925 718Q884 715
834 713T739 711T669 709Q644 709 631 688T615 614Q614 601 614 587T612 557T610 525T608 492Q603 420 588 372T534 324Z" />
<glyph unicode="&#xb2;" horiz-adv-x="458" d="M133 664Q95 666 66 678T36 722Q36 741 42 756T73 791Q100 815 152 851T251 927Q283 952 303 979T324 1030Q324 1067 301 1082T235 1097Q196 1097 169 1086T128 1063Q108 1047 94 1030T66 1013Q55 1013 45 1021T35
1043Q35 1072 60 1102T130 1153T238 1174Q290 1174 330 1162T394 1121T417 1044Q417 1006 395 975T335 909Q308 886 280 864T227 823T184 791Q160 773 160 758Q160 750 179 749T215 747Q246 747 297 753T377 760Q394 760 404 753T415 732Q415 708 397 694T341 674T248
664Q224 663 190 663T133 664Z" />
<glyph unicode="&#xb3;" horiz-adv-x="479" d="M212 646Q161 646 116 656T42 682T13 718Q13 740 26 747T50 754Q70 754 114 738T216 721Q279 721 320 740T362 792Q362 828 333 844T261 867Q221 874 198 887T175 922Q175 944 193 953T240 971Q278 981 305 998T333
1045Q333 1079 298 1091T209 1103Q155 1103 115 1093T59 1083Q42 1083 32 1092T22 1116Q22 1135 51 1148T126 1169T219 1177Q325 1177 375 1144T426 1058Q426 1023 401 997T329 955Q310 949 301 943T291 927Q291 916 306 910T341 899Q386 889 421 864T457 786Q457
743 430 711T348 663T212 646Z" />
<glyph unicode="&#xb4;" horiz-adv-x="653" d="M157 936Q139 936 128 944T117 972Q117 997 171 1041T307 1138Q359 1172 412 1195T498 1219Q524 1219 539 1206T554 1164Q554 1129 520 1099T422 1035Q350 996 275 966T157 936Z" />
<glyph unicode="&#xb5;" horiz-adv-x="1244" d="M184 -456Q164 -456 145 -447T112 -416T92 -357Q89 -328 85 -271T77 -136T69 32T62 218T57 407T55 585Q55 660 66 733T103 856T174 905Q209 905 226 889T248 847T255 795Q255 777 255 751T254 695T254 637T254 586Q257
446 285 337T378 166T559 104Q681 104 760 153T877 294T916 515Q916 548 916 582T918 652T921 722T925 790Q932 854 954 883T1020 913Q1057 913 1076 885T1101 805Q1102 780 1103 756T1105 706T1106 656T1107 606T1107 555T1107 503Q1107 344 1110 251T1121 118T1146
78Q1166 78 1178 83T1207 88Q1216 88 1224 83T1239 63T1245 25Q1245 -1 1234 -18T1203 -44T1159 -57T1111 -61Q1059 -61 1024 -39T969 41T939 211L973 171Q926 63 824 0T558 -63Q468 -63 401 -34T290 45T223 152L254 174Q256 101 258 38T262 -81T267 -181T271 -262T274
-323T276 -363Q276 -411 251 -433T184 -456Z" />
<glyph unicode="&#xb6;" horiz-adv-x="921" d="M553 -190Q516 -190 508 -147T500 -16Q500 3 500 52T500 166T501 300T501 432T501 536T502 588Q502 612 493 622T468 632Q447 632 425 625T374 610T297 602Q225 602 168 637T77 735T44 881Q44 989 85 1053T191 1150T326
1192T453 1203Q486 1203 542 1200T659 1184T765 1146Q821 1113 846 1034T871 795Q871 742 870 666T866 504T862 330T859 165T856 32T854 -48Q854 -115 840 -149T799 -184Q777 -184 765 -159T753 -45Q753 -20 753 34T755 160T758 314T761 479T763 635T765 764T766
848Q766 977 746 1024T686 1072Q661 1072 647 1039T625 957T616 865T613 802Q613 744 613 683T611 558T609 429T607 298T606 167T605 38Q605 -84 595 -137T553 -190Z" />
<glyph unicode="&#xb7;" horiz-adv-x="287" d="M150 543Q101 543 62 571T23 652Q23 681 41 704T86 740T141 754Q171 754 198 738T242 695T260 635Q260 585 228 564T150 543Z" />
<glyph unicode="&#xb8;" horiz-adv-x="772" d="M329 -418Q280 -418 241 -413T178 -395T154 -358Q154 -332 171 -323T209 -314Q226 -314 244 -318T284 -327T332 -332Q384 -332 432 -323T512 -293T544 -234Q544 -199 528 -185T478 -170Q437 -170 405 -183T343 -210T282
-224Q250 -224 228 -210T206 -147Q206 -127 212 -97T226 -39T241 4Q251 28 266 41T311 54Q333 54 343 42T354 13Q354 -9 342 -49T329 -122Q329 -145 343 -145Q361 -145 383 -131T439 -103T520 -89Q559 -89 589 -105T636 -152T654 -224Q654 -319 573 -368T329 -418Z"
/>
<glyph unicode="&#xb9;" horiz-adv-x="269" d="M146 653Q123 653 110 668T97 708Q97 730 99 767T106 847T114 933T120 1009T123 1061Q123 1086 109 1088Q92 1089 70 1083T40 1077Q32 1079 28 1085T24 1098Q24 1114 49 1132T107 1164T160 1177Q187 1177 200 1157T217
1107T221 1045Q221 1022 220 989T215 919T209 844T203 774T197 717Q188 653 146 653Z" />
<glyph unicode="&#xba;" horiz-adv-x="623" d="M295 838Q225 838 167 862T73 930T37 1028Q37 1087 70 1132T165 1202T312 1228Q387 1228 440 1201T520 1129T548 1028Q548 967 510 925T413 860T295 838ZM297 920Q375 920 412 958T450 1047Q450 1086 410 1120T294
1155Q241 1155 195 1130T148 1046Q148 1003 169 976T225 934T297 920Z" />
<glyph unicode="&#xbb;" horiz-adv-x="643" d="M326 230Q309 230 299 240T289 267Q289 283 310 318T365 400T438 495Q458 519 479 552T516 618T532 678Q532 701 515 730T471 790T420 845Q354 909 322 950T289 1012Q289 1054 326 1054Q336 1054 360 1039T411 1001T460
958Q504 916 546 869T616 773T644 682Q644 646 630 609T594 533T544 455T487 380Q467 353 435 318T373 256T326 230ZM325 230Q308 230 298 240T288 267Q288 283 309 318T364 400T437 495Q457 519 478 552T515 618T531 678Q531 701 514 730T470 790T419 845Q353
909 321 950T288 1012Q288 1054 325 1054Q335 1054 359 1039T410 1001T459 958Q503 916 545 869T615 773T643 682Q643 646 629 609T593 533T543 455T486 380Q466 353 434 318T372 256T325 230Z" />
<glyph unicode="&#xbc;" horiz-adv-x="993" d="M146 653Q123 653 110 668T97 708Q97 730 99 767T106 847T114 933T120 1009T123 1061Q123 1086 109 1088Q92 1089 70 1083T40 1077Q32 1079 28 1085T24 1098Q24 1114 49 1132T107 1164T160 1177Q187 1177 200 1157T217
1107T221 1045Q221 1022 220 989T215 919T209 844T203 774T197 717Q188 653 146 653ZM-112 8Q-119 8 -125 10T-135 18T-139 33Q-139 49 -109 87T-28 179T84 297Q106 317 149 363T251 472T375 606T505 747T628 881T729 991T794 1059Q821 1088 845 1111T889 1148T925
1163Q930 1163 933 1162T940 1158T945 1152T947 1142Q947 1129 932 1107T895 1058T850 1008Q815 968 753 900T611 745T446 564T277 379T121 212Q82 170 35 123T-53 42T-112 8ZM829 -19Q813 -19 803 -11T792 18Q792 27 792 40T792 68T793 93Q792 111 784 119T743
127Q709 128 677 129T618 136Q588 143 576 167T563 227Q563 262 577 313T605 402Q617 434 629 453T663 472Q674 472 681 466T688 444Q688 430 682 408T668 358T653 304T647 253Q647 227 654 218T678 204Q693 200 717 199T762 198Q785 198 793 204T802 226Q802 236
803 264T806 326T809 390T812 432Q814 455 822 472T847 489Q867 489 873 475T882 430Q883 414 883 390T883 336T884 275T884 213Q884 196 904 196Q917 196 931 196T957 197Q970 195 976 190T983 172Q983 155 974 148T945 138Q935 137 922 135T897 131Q884 129 880
121T875 94Q873 76 872 53T867 16Q861 -19 829 -19Z" />
<glyph unicode="&#xbd;" horiz-adv-x="992" d="M146 653Q123 653 110 668T97 708Q97 730 99 767T106 847T114 933T120 1009T123 1061Q123 1086 109 1088Q92 1089 70 1083T40 1077Q32 1079 28 1085T24 1098Q24 1114 49 1132T107 1164T160 1177Q187 1177 200 1157T217
1107T221 1045Q221 1022 220 989T215 919T209 844T203 774T197 717Q188 653 146 653ZM-112 8Q-119 8 -125 10T-135 18T-139 33Q-139 49 -109 87T-28 179T84 297Q106 317 149 363T251 472T375 606T505 747T628 881T729 991T794 1059Q821 1088 845 1111T889 1148T925
1163Q930 1163 933 1162T940 1158T945 1152T947 1142Q947 1129 932 1107T895 1058T850 1008Q815 968 753 900T611 745T446 564T277 379T121 212Q82 170 35 123T-53 42T-112 8ZM668 -16Q630 -14 601 -2T571 42Q571 61 577 76T608 111Q635 135 687 171T786 247Q818
272 838 299T859 350Q859 387 836 402T770 417Q731 417 704 406T663 383Q643 367 629 350T601 333Q590 333 580 341T570 363Q570 392 595 422T665 473T773 494Q825 494 865 482T929 441T952 364Q952 326 930 295T870 229Q843 206 815 184T762 143T719 111Q695 93
695 78Q695 70 714 69T750 67Q781 67 832 73T912 80Q929 80 939 73T950 52Q950 28 932 14T876 -6T783 -16Q759 -17 725 -17T668 -16Z" />
<glyph unicode="&#xbe;" horiz-adv-x="1203" d="M212 646Q161 646 116 656T42 682T13 718Q13 740 26 747T50 754Q70 754 114 738T216 721Q279 721 320 740T362 792Q362 828 333 844T261 867Q221 874 198 887T175 922Q175 944 193 953T240 971Q278 981 305 998T333
1045Q333 1079 298 1091T209 1103Q155 1103 115 1093T59 1083Q42 1083 32 1092T22 1116Q22 1135 51 1148T126 1169T219 1177Q325 1177 375 1144T426 1058Q426 1023 401 997T329 955Q310 949 301 943T291 927Q291 916 306 910T341 899Q386 889 421 864T457 786Q457
743 430 711T348 663T212 646ZM98 8Q91 8 85 10T75 18T71 33Q71 49 101 87T182 179T294 297Q316 317 359 363T461 472T585 606T715 747T838 881T939 991T1004 1059Q1031 1088 1055 1111T1099 1148T1135 1163Q1140 1163 1143 1162T1150 1158T1155 1152T1157 1142Q1157
1129 1142 1107T1105 1058T1060 1008Q1025 968 963 900T821 745T656 564T487 379T331 212Q292 170 245 123T157 42T98 8ZM1039 -19Q1023 -19 1013 -11T1002 18Q1002 27 1002 40T1002 68T1003 93Q1002 111 994 119T953 127Q919 128 887 129T828 136Q798 143 786
167T773 227Q773 262 787 313T815 402Q827 434 839 453T873 472Q884 472 891 466T898 444Q898 430 892 408T878 358T863 304T857 253Q857 227 864 218T888 204Q903 200 927 199T972 198Q995 198 1003 204T1012 226Q1012 236 1013 264T1016 326T1019 390T1022 432Q1024
455 1032 472T1057 489Q1077 489 1083 475T1092 430Q1093 414 1093 390T1093 336T1094 275T1094 213Q1094 196 1114 196Q1127 196 1141 196T1167 197Q1180 195 1186 190T1193 172Q1193 155 1184 148T1155 138Q1145 137 1132 135T1107 131Q1094 129 1090 121T1085
94Q1083 76 1082 53T1077 16Q1071 -19 1039 -19Z" />
<glyph unicode="&#xbf;" horiz-adv-x="1013" d="M606 533Q629 533 645 523T669 491T678 434Q678 362 647 301T560 188T433 92Q370 53 321 14T243 -67T214 -162Q214 -218 251 -255T354 -312T505 -331Q570 -331 635 -315T756 -270T846 -200Q866 -184 884 -176T921
-168Q940 -168 953 -178T966 -214Q966 -230 958 -245T936 -274Q892 -329 827 -369T680 -430T502 -452Q401 -452 319 -432T179 -374T90 -283T59 -163Q59 -87 91 -31T176 69T294 151Q348 184 399 221T486 305T530 417Q540 474 555 503T606 533ZM628 861Q671 861 699
837T728 775Q728 735 700 707T627 678Q600 678 574 687T532 715T515 768Q515 800 539 830T628 861Z" />
<glyph unicode="&#xc0;" horiz-adv-x="1426" d="M1269 -40Q1236 -40 1213 -20T1171 39Q1162 69 1151 111T1128 196T1105 278T1085 340Q1073 373 1054 388T990 408Q969 410 923 413T822 420T719 423Q646 423 572 420T445 412Q399 409 379 396T344 348Q332 317 318
271T289 175T260 77Q242 27 219 4T153 -19Q124 -19 104 -9T75 25T65 87Q65 129 78 193T113 335T163 493T219 649T273 785T318 882Q352 948 394 1008T488 1113T601 1185T735 1212Q855 1212 949 1133T1114 927Q1139 886 1166 818T1222 666T1274 493T1319 319T1350
163T1361 46Q1361 -1 1337 -20T1269 -40ZM1001 547Q1023 550 1030 562T1038 602Q1038 636 1027 686T995 793T947 900Q908 974 857 1023T745 1072Q683 1072 626 1024T522 897Q503 865 483 824T445 741T417 661T405 597Q405 569 427 559T507 548Q637 548 732 547T892
546T1001 547ZM779 1302Q736 1302 662 1332T514 1401Q450 1435 416 1465T382 1530Q382 1558 397 1571T438 1585Q470 1585 523 1562T629 1504Q712 1451 765 1407T819 1338Q819 1319 809 1311T779 1302Z" />
<glyph unicode="&#xc1;" horiz-adv-x="1451" d="M1269 -40Q1236 -40 1213 -20T1171 39Q1162 69 1151 111T1128 196T1105 278T1085 340Q1073 373 1054 388T990 408Q969 410 923 413T822 420T719 423Q646 423 572 420T445 412Q399 409 379 396T344 348Q332 317 318
271T289 175T260 77Q242 27 219 4T153 -19Q124 -19 104 -9T75 25T65 87Q65 129 78 193T113 335T163 493T219 649T273 785T318 882Q352 948 394 1008T488 1113T601 1185T735 1212Q855 1212 949 1133T1114 927Q1139 886 1166 818T1222 666T1274 493T1319 319T1350
163T1361 46Q1361 -1 1337 -20T1269 -40ZM1001 547Q1023 550 1030 562T1038 602Q1038 636 1027 686T995 793T947 900Q908 974 857 1023T745 1072Q683 1072 626 1024T522 897Q503 865 483 824T445 741T417 661T405 597Q405 569 427 559T507 548Q637 548 732 547T892
546T1001 547ZM597 1341Q579 1341 568 1349T557 1377Q557 1402 611 1446T747 1543Q799 1577 852 1600T938 1624Q964 1624 979 1611T994 1569Q994 1534 960 1504T862 1440Q790 1401 715 1371T597 1341Z" />
<glyph unicode="&#xc2;" horiz-adv-x="1426" d="M1269 -40Q1236 -40 1213 -20T1171 39Q1162 69 1151 111T1128 196T1105 278T1085 340Q1073 373 1054 388T990 408Q969 410 923 413T822 420T719 423Q646 423 572 420T445 412Q399 409 379 396T344 348Q332 317 318
271T289 175T260 77Q242 27 219 4T153 -19Q124 -19 104 -9T75 25T65 87Q65 129 78 193T113 335T163 493T219 649T273 785T318 882Q352 948 394 1008T488 1113T601 1185T735 1212Q855 1212 949 1133T1114 927Q1139 886 1166 818T1222 666T1274 493T1319 319T1350
163T1361 46Q1361 -1 1337 -20T1269 -40ZM1001 547Q1023 550 1030 562T1038 602Q1038 636 1027 686T995 793T947 900Q908 974 857 1023T745 1072Q683 1072 626 1024T522 897Q503 865 483 824T445 741T417 661T405 597Q405 569 427 559T507 548Q637 548 732 547T892
546T1001 547ZM460 1283Q419 1283 419 1325Q419 1355 455 1403T546 1500T658 1582T757 1615Q797 1615 847 1584T945 1505T1024 1412T1055 1336Q1055 1316 1045 1305T1017 1294Q988 1294 966 1316T909 1386Q886 1417 858 1445T801 1492T749 1510Q729 1510 698 1488T634
1433T570 1366Q532 1321 509 1302T460 1283Z" />
<glyph unicode="&#xc3;" horiz-adv-x="1426" d="M1269 -40Q1236 -40 1213 -20T1171 39Q1162 69 1151 111T1128 196T1105 278T1085 340Q1073 373 1054 388T990 408Q969 410 923 413T822 420T719 423Q646 423 572 420T445 412Q399 409 379 396T344 348Q332 317 318
271T289 175T260 77Q242 27 219 4T153 -19Q124 -19 104 -9T75 25T65 87Q65 129 78 193T113 335T163 493T219 649T273 785T318 882Q352 948 394 1008T488 1113T601 1185T735 1212Q855 1212 949 1133T1114 927Q1139 886 1166 818T1222 666T1274 493T1319 319T1350
163T1361 46Q1361 -1 1337 -20T1269 -40ZM1001 547Q1023 550 1030 562T1038 602Q1038 636 1027 686T995 793T947 900Q908 974 857 1023T745 1072Q683 1072 626 1024T522 897Q503 865 483 824T445 741T417 661T405 597Q405 569 427 559T507 548Q637 548 732 547T892
546T1001 547ZM494 1293Q477 1293 466 1303T454 1334Q454 1373 481 1415T551 1487T638 1516Q679 1516 711 1493T770 1441T822 1388T875 1365Q910 1365 930 1378T969 1435Q983 1470 995 1481T1024 1492Q1036 1492 1046 1484T1056 1452Q1056 1405 1031 1366T965 1304T879
1281Q834 1281 801 1303T740 1353T689 1404T638 1426Q609 1426 586 1401T542 1333Q531 1311 520 1302T494 1293Z" />
<glyph unicode="&#xc4;" horiz-adv-x="1426" d="M1269 -40Q1236 -40 1213 -20T1171 39Q1162 69 1151 111T1128 196T1105 278T1085 340Q1073 373 1054 388T990 408Q969 410 923 413T822 420T719 423Q646 423 572 420T445 412Q399 409 379 396T344 348Q332 317 318
271T289 175T260 77Q242 27 219 4T153 -19Q124 -19 104 -9T75 25T65 87Q65 129 78 193T113 335T163 493T219 649T273 785T318 882Q352 948 394 1008T488 1113T601 1185T735 1212Q855 1212 949 1133T1114 927Q1139 886 1166 818T1222 666T1274 493T1319 319T1350
163T1361 46Q1361 -1 1337 -20T1269 -40ZM1001 547Q1023 550 1030 562T1038 602Q1038 636 1027 686T995 793T947 900Q908 974 857 1023T745 1072Q683 1072 626 1024T522 897Q503 865 483 824T445 741T417 661T405 597Q405 569 427 559T507 548Q637 548 732 547T892
546T1001 547ZM558 1292Q493 1292 467 1315T440 1378Q440 1421 474 1446T546 1472Q575 1472 600 1464T641 1435T657 1378Q657 1342 634 1317T558 1292ZM945 1293Q900 1293 871 1318T841 1381Q841 1426 874 1454T957 1483Q1003 1483 1025 1457T1048 1396Q1048 1354
1020 1324T945 1293Z" />
<glyph unicode="&#xc5;" horiz-adv-x="1426" d="M1269 -40Q1236 -40 1213 -20T1171 39Q1162 69 1151 111T1128 196T1105 278T1085 340Q1073 373 1054 388T990 408Q969 410 923 413T822 420T719 423Q646 423 572 420T445 412Q399 409 379 396T344 348Q332 317 318
271T289 175T260 77Q242 27 219 4T153 -19Q124 -19 104 -9T75 25T65 87Q65 129 78 193T113 335T163 493T219 649T273 785T318 882Q352 948 394 1008T488 1113T601 1185T735 1212Q855 1212 949 1133T1114 927Q1139 886 1166 818T1222 666T1274 493T1319 319T1350
163T1361 46Q1361 -1 1337 -20T1269 -40ZM1001 547Q1023 550 1030 562T1038 602Q1038 636 1027 686T995 793T947 900Q908 974 857 1023T745 1072Q683 1072 626 1024T522 897Q503 865 483 824T445 741T417 661T405 597Q405 569 427 559T507 548Q637 548 732 547T892
546T1001 547ZM738 1272Q653 1272 591 1315T529 1428Q529 1499 588 1543T752 1587Q840 1587 891 1546T942 1440Q942 1389 912 1352T834 1293T738 1272ZM737 1348Q794 1348 819 1376T845 1442Q845 1471 817 1495T735 1519Q696 1519 663 1500T629 1439Q629 1393 662
1371T737 1348Z" />
<glyph unicode="&#xc6;" horiz-adv-x="2133" d="M119 -19Q102 -19 90 -13T71 6T65 41Q65 68 82 125T127 256T188 407T254 555T315 674Q393 822 485 944T684 1139T911 1212Q996 1212 1054 1174T1148 1071T1203 922T1230 748T1238 568Q1238 521 1229 485T1196 428T1128
407Q1041 407 927 410T696 416T485 419Q450 419 418 385T354 299T291 192Q242 98 212 53T161 -5T119 -19ZM771 538Q876 538 939 538T1034 542T1076 551T1086 570Q1086 649 1080 735T1053 896T996 1017T895 1064Q851 1064 803 1037T708 965T618 866T544 756T493
653T474 576Q474 563 483 556T523 544T612 539T771 538ZM1498 -32Q1366 -32 1283 15T1156 155T1098 390Q1095 425 1093 463T1090 542T1089 626T1088 716Q1088 884 1119 992T1218 1162T1393 1248T1656 1273Q1731 1273 1800 1267T1922 1250T2007 1221T2038 1181Q2038
1159 2025 1147T1989 1132Q1958 1129 1907 1133T1793 1142T1660 1147Q1556 1147 1485 1132T1372 1082T1310 984T1291 830Q1291 784 1303 763T1359 735T1503 729Q1523 729 1556 729T1625 729T1693 730T1742 731Q1817 731 1844 716T1872 672Q1872 630 1841 615T1755
600Q1731 600 1699 600T1632 600T1564 599T1506 599Q1404 599 1356 594T1295 569T1281 502Q1281 425 1287 364T1309 257T1354 182T1431 138T1546 123Q1631 123 1713 129T1859 141T1959 147Q1996 147 2012 133T2029 92Q2029 60 1980 36T1852 -3T1679 -25T1498 -32Z"
/>
<glyph unicode="&#xc7;" horiz-adv-x="1185" d="M652 -57Q515 -57 407 -18T222 97T106 278T65 518Q65 664 107 786T232 997T433 1136T707 1185Q789 1185 857 1168T973 1124T1048 1067T1075 1007Q1075 976 1058 962T1015 947Q992 947 972 961T920 992T833 1024T688
1038Q614 1038 542 1008T411 916T317 765T282 556Q282 466 306 384T379 238T504 137T682 99Q762 99 817 120T910 170T977 219T1030 241Q1071 241 1086 222T1101 168Q1101 132 1070 93T979 20T837 -35T652 -57ZM705 -455Q656 -455 617 -450T554 -432T530 -395Q530
-369 547 -360T585 -351Q602 -351 620 -355T660 -364T708 -369Q760 -369 808 -360T888 -330T920 -271Q920 -236 904 -222T854 -207Q813 -207 781 -220T719 -247T658 -261Q626 -261 604 -247T582 -184Q582 -164 588 -134T602 -76T617 -33Q627 -9 642 4T687 17Q709
17 719 5T730 -24Q730 -46 718 -86T705 -159Q705 -182 719 -182Q737 -182 759 -168T815 -140T896 -126Q935 -126 965 -142T1012 -189T1030 -261Q1030 -356 949 -405T705 -455Z" />
<glyph unicode="&#xc8;" horiz-adv-x="1130" d="M494 -65Q363 -65 280 -18T153 122T95 357Q92 392 90 430T87 509T86 593T85 683Q85 851 116 959T214 1129T390 1215T653 1240Q728 1240 797 1234T919 1217T1004 1188T1035 1148Q1035 1126 1022 1114T986 1099Q955
1096 904 1100T789 1109T657 1114Q553 1114 482 1099T369 1049T307 951T288 797Q288 751 299 730T356 702T499 696Q520 696 553 696T622 696T690 697T739 698Q814 698 841 683T868 639Q868 597 838 582T752 567Q728 567 696 567T629 567T561 566T503 566Q400 566
352 561T291 536T277 469Q277 392 283 331T305 224T351 149T428 105T543 90Q628 90 709 96T856 108T956 114Q993 114 1009 100T1026 59Q1026 27 977 3T849 -36T676 -58T494 -65ZM611 1335Q568 1335 494 1365T346 1434Q282 1468 248 1498T214 1563Q214 1591 229
1604T270 1618Q302 1618 355 1595T461 1537Q544 1484 597 1440T651 1371Q651 1352 641 1344T611 1335Z" />
<glyph unicode="&#xc9;" horiz-adv-x="1130" d="M494 -65Q363 -65 280 -18T153 122T95 357Q92 392 90 430T87 509T86 593T85 683Q85 851 116 959T214 1129T390 1215T653 1240Q728 1240 797 1234T919 1217T1004 1188T1035 1148Q1035 1126 1022 1114T986 1099Q955
1096 904 1100T789 1109T657 1114Q553 1114 482 1099T369 1049T307 951T288 797Q288 751 299 730T356 702T499 696Q520 696 553 696T622 696T690 697T739 698Q814 698 841 683T868 639Q868 597 838 582T752 567Q728 567 696 567T629 567T561 566T503 566Q400 566
352 561T291 536T277 469Q277 392 283 331T305 224T351 149T428 105T543 90Q628 90 709 96T856 108T956 114Q993 114 1009 100T1026 59Q1026 27 977 3T849 -36T676 -58T494 -65ZM516 1303Q498 1303 487 1311T476 1338Q476 1363 530 1407T666 1505Q718 1538 771
1561T857 1585Q883 1585 898 1572T913 1530Q913 1496 879 1466T781 1401Q709 1362 634 1333T516 1303Z" />
<glyph unicode="&#xca;" horiz-adv-x="1130" d="M494 -65Q363 -65 280 -18T153 122T95 357Q92 392 90 430T87 509T86 593T85 683Q85 851 116 959T214 1129T390 1215T653 1240Q728 1240 797 1234T919 1217T1004 1188T1035 1148Q1035 1126 1022 1114T986 1099Q955
1096 904 1100T789 1109T657 1114Q553 1114 482 1099T369 1049T307 951T288 797Q288 751 299 730T356 702T499 696Q520 696 553 696T622 696T690 697T739 698Q814 698 841 683T868 639Q868 597 838 582T752 567Q728 567 696 567T629 567T561 566T503 566Q400 566
352 561T291 536T277 469Q277 392 283 331T305 224T351 149T428 105T543 90Q628 90 709 96T856 108T956 114Q993 114 1009 100T1026 59Q1026 27 977 3T849 -36T676 -58T494 -65ZM292 1316Q251 1316 251 1358Q251 1388 287 1436T378 1533T490 1615T589 1648Q629
1648 679 1617T777 1538T856 1445T887 1369Q887 1349 877 1338T849 1327Q820 1327 798 1349T741 1419Q718 1450 690 1478T633 1525T581 1543Q561 1543 530 1521T466 1466T402 1399Q364 1354 341 1335T292 1316Z" />
<glyph unicode="&#xcb;" horiz-adv-x="1130" d="M494 -65Q363 -65 280 -18T153 122T95 357Q92 392 90 430T87 509T86 593T85 683Q85 851 116 959T214 1129T390 1215T653 1240Q728 1240 797 1234T919 1217T1004 1188T1035 1148Q1035 1126 1022 1114T986 1099Q955
1096 904 1100T789 1109T657 1114Q553 1114 482 1099T369 1049T307 951T288 797Q288 751 299 730T356 702T499 696Q520 696 553 696T622 696T690 697T739 698Q814 698 841 683T868 639Q868 597 838 582T752 567Q728 567 696 567T629 567T561 566T503 566Q400 566
352 561T291 536T277 469Q277 392 283 331T305 224T351 149T428 105T543 90Q628 90 709 96T856 108T956 114Q993 114 1009 100T1026 59Q1026 27 977 3T849 -36T676 -58T494 -65ZM390 1325Q325 1325 299 1348T272 1411Q272 1454 306 1479T378 1505Q407 1505 432
1497T473 1468T489 1411Q489 1375 466 1350T390 1325ZM777 1326Q732 1326 703 1351T673 1414Q673 1459 706 1487T789 1516Q835 1516 857 1490T880 1429Q880 1387 852 1357T777 1326Z" />
<glyph unicode="&#xcc;" horiz-adv-x="416" d="M200 -11Q151 -11 128 29T105 130Q105 158 105 216T106 354T108 523T111 704T116 878T124 1023Q133 1114 153 1148T222 1183Q264 1183 281 1147T303 1044Q304 999 305 929T307 774T308 603T308 436T308 291T306 192Q305
115 295 71T263 8T200 -11ZM267 1232Q224 1232 150 1262T2 1330Q-63 1365 -96 1395T-130 1460Q-130 1487 -115 1501T-74 1515Q-43 1515 10 1492T117 1434Q200 1381 253 1337T307 1268Q307 1249 297 1241T267 1232Z" />
<glyph unicode="&#xcd;" horiz-adv-x="416" d="M200 -11Q151 -11 128 29T105 130Q105 158 105 216T106 354T108 523T111 704T116 878T124 1023Q133 1114 153 1148T222 1183Q264 1183 281 1147T303 1044Q304 999 305 929T307 774T308 603T308 436T308 291T306 192Q305
115 295 71T263 8T200 -11ZM193 1217Q175 1217 164 1225T153 1253Q153 1278 207 1322T343 1419Q396 1453 449 1476T534 1500Q560 1500 575 1487T591 1445Q591 1410 557 1380T458 1316Q386 1277 312 1247T193 1217Z" />
<glyph unicode="&#xce;" horiz-adv-x="416" d="M200 -11Q151 -11 128 29T105 130Q105 158 105 216T106 354T108 523T111 704T116 878T124 1023Q133 1114 153 1148T222 1183Q264 1183 281 1147T303 1044Q304 999 305 929T307 774T308 603T308 436T308 291T306 192Q305
115 295 71T263 8T200 -11ZM-49 1226Q-89 1226 -89 1268Q-89 1298 -53 1346T38 1443T150 1524T249 1558Q289 1558 339 1526T437 1448T515 1355T546 1279Q546 1259 536 1248T509 1236Q480 1236 458 1258T401 1328Q378 1360 350 1388T293 1435T241 1453Q220 1453
190 1431T126 1376T62 1308Q23 1264 0 1245T-49 1226Z" />
<glyph unicode="&#xcf;" horiz-adv-x="416" d="M200 -11Q151 -11 128 29T105 130Q105 158 105 216T106 354T108 523T111 704T116 878T124 1023Q133 1114 153 1148T222 1183Q264 1183 281 1147T303 1044Q304 999 305 929T307 774T308 603T308 436T308 291T306 192Q305
115 295 71T263 8T200 -11ZM37 1233Q-28 1233 -54 1256T-81 1319Q-81 1362 -47 1387T25 1413Q54 1413 79 1405T120 1376T136 1319Q136 1283 113 1258T37 1233ZM424 1234Q379 1234 350 1259T320 1322Q320 1367 353 1395T436 1424Q482 1424 504 1398T527 1337Q527
1295 499 1265T424 1234Z" />
<glyph unicode="&#xd0;" horiz-adv-x="1306" d="M233 574Q124 574 68 576T-9 587T-29 613Q-29 635 -7 646T80 661T268 666Q374 666 442 664T550 657T604 643T620 617Q620 602 604 593T544 580T426 575T233 574ZM334 -18Q266 -18 222 5T152 73T113 186Q98 262 92
367T85 602Q85 718 91 819T113 999Q134 1100 181 1158T326 1216Q486 1216 625 1178T878 1076T1072 932T1197 767T1241 600Q1241 504 1199 413T1078 244T888 107T637 15T334 -18ZM410 163Q535 163 635 190T812 262T940 366T1018 488T1044 613Q1044 665 1013 723T924
838T783 940T597 1013T373 1041Q342 1041 323 1013T294 934Q285 889 280 829T274 703Q274 551 279 444T301 271Q329 163 410 163Z" />
<glyph unicode="&#xd1;" horiz-adv-x="1369" d="M231 -48Q198 -48 177 -23T143 48Q136 73 129 133T116 274T104 443T94 616T88 765T85 863Q85 962 97 1030T144 1134T242 1170Q289 1170 341 1122T468 970T655 698Q808 463 897 355T1023 246Q1041 246 1053 256T1071
298T1079 394Q1080 422 1080 478T1078 606T1074 751T1071 892T1069 1005T1070 1065Q1078 1122 1098 1142T1156 1163Q1182 1163 1200 1154T1230 1125T1248 1074T1256 999Q1258 971 1259 912T1263 776T1266 614T1267 451T1267 309T1261 211Q1253 135 1233 83T1177
6T1083 -20Q1028 -20 960 43T811 217T635 469Q575 558 523 636T428 772T358 864T317 898Q296 898 289 873T281 770Q281 719 283 656T290 524T299 387T307 254T312 136T313 42Q305 -12 286 -30T231 -48ZM433 1265Q416 1265 405 1275T393 1306Q393 1345 420 1387T490
1459T577 1488Q618 1488 650 1465T709 1413T761 1360T814 1337Q849 1337 869 1350T908 1407Q922 1442 934 1453T963 1464Q975 1464 985 1456T995 1424Q995 1377 970 1338T904 1276T818 1253Q773 1253 740 1275T679 1325T628 1376T577 1398Q548 1398 525 1373T481
1305Q470 1283 459 1274T433 1265Z" />
<glyph unicode="&#xd2;" horiz-adv-x="1557" d="M713 -103Q569 -103 450 -57T245 75T112 281T65 550Q65 688 109 793T228 975T397 1099T593 1170T793 1193Q946 1193 1073 1148T1295 1017T1440 815T1492 553Q1492 394 1435 272T1272 66T1025 -60T713 -103ZM746
94Q943 94 1061 157T1233 325T1286 557Q1286 674 1248 764T1142 916T985 1009T794 1041Q693 1041 602 1011T441 925T329 788T288 607Q288 487 322 392T417 231T563 130T746 94ZM834 1282Q791 1282 717 1312T569 1381Q505 1415 471 1445T437 1510Q437 1538 452 1551T493
1565Q525 1565 578 1542T684 1484Q767 1431 820 1387T874 1318Q874 1299 864 1291T834 1282Z" />
<glyph unicode="&#xd3;" horiz-adv-x="1557" d="M713 -103Q569 -103 450 -57T245 75T112 281T65 550Q65 688 109 793T228 975T397 1099T593 1170T793 1193Q946 1193 1073 1148T1295 1017T1440 815T1492 553Q1492 394 1435 272T1272 66T1025 -60T713 -103ZM746
94Q943 94 1061 157T1233 325T1286 557Q1286 674 1248 764T1142 916T985 1009T794 1041Q693 1041 602 1011T441 925T329 788T288 607Q288 487 322 392T417 231T563 130T746 94ZM740 1250Q722 1250 711 1258T700 1285Q700 1310 754 1354T890 1452Q942 1485 995 1508T1081
1532Q1107 1532 1122 1519T1137 1477Q1137 1443 1103 1413T1005 1348Q933 1309 858 1280T740 1250Z" />
<glyph unicode="&#xd4;" horiz-adv-x="1557" d="M713 -103Q569 -103 450 -57T245 75T112 281T65 550Q65 688 109 793T228 975T397 1099T593 1170T793 1193Q946 1193 1073 1148T1295 1017T1440 815T1492 553Q1492 394 1435 272T1272 66T1025 -60T713 -103ZM746
94Q943 94 1061 157T1233 325T1286 557Q1286 674 1248 764T1142 916T985 1009T794 1041Q693 1041 602 1011T441 925T329 788T288 607Q288 487 322 392T417 231T563 130T746 94ZM515 1263Q474 1263 474 1305Q474 1335 510 1383T601 1480T713 1562T812 1595Q852 1595
902 1564T1000 1485T1079 1392T1110 1316Q1110 1296 1100 1285T1072 1274Q1043 1274 1021 1296T964 1366Q941 1397 913 1425T856 1472T804 1490Q784 1490 753 1468T689 1413T625 1346Q587 1301 564 1282T515 1263Z" />
<glyph unicode="&#xd5;" horiz-adv-x="1557" d="M713 -103Q569 -103 450 -57T245 75T112 281T65 550Q65 688 109 793T228 975T397 1099T593 1170T793 1193Q946 1193 1073 1148T1295 1017T1440 815T1492 553Q1492 394 1435 272T1272 66T1025 -60T713 -103ZM746
94Q943 94 1061 157T1233 325T1286 557Q1286 674 1248 764T1142 916T985 1009T794 1041Q693 1041 602 1011T441 925T329 788T288 607Q288 487 322 392T417 231T563 130T746 94ZM550 1273Q533 1273 522 1283T510 1314Q510 1353 537 1395T607 1467T694 1496Q735 1496
767 1473T826 1421T878 1368T931 1345Q966 1345 986 1358T1025 1415Q1039 1450 1051 1461T1080 1472Q1092 1472 1102 1464T1112 1432Q1112 1385 1087 1346T1021 1284T935 1261Q890 1261 857 1283T796 1333T745 1384T694 1406Q665 1406 642 1381T598 1313Q587 1291
576 1282T550 1273Z" />
<glyph unicode="&#xd6;" horiz-adv-x="1557" d="M713 -103Q569 -103 450 -57T245 75T112 281T65 550Q65 688 109 793T228 975T397 1099T593 1170T793 1193Q946 1193 1073 1148T1295 1017T1440 815T1492 553Q1492 394 1435 272T1272 66T1025 -60T713 -103ZM746
94Q943 94 1061 157T1233 325T1286 557Q1286 674 1248 764T1142 916T985 1009T794 1041Q693 1041 602 1011T441 925T329 788T288 607Q288 487 322 392T417 231T563 130T746 94ZM614 1272Q549 1272 523 1295T496 1358Q496 1401 530 1426T602 1452Q631 1452 656 1444T697
1415T713 1358Q713 1322 690 1297T614 1272ZM1001 1273Q956 1273 927 1298T897 1361Q897 1406 930 1434T1013 1463Q1059 1463 1081 1437T1104 1376Q1104 1334 1076 1304T1001 1273Z" />
<glyph unicode="&#xd7;" horiz-adv-x="957" d="M57 190Q41 209 41 231Q41 247 54 271T107 334Q153 382 213 441T337 565T462 690T576 804T664 893Q728 957 764 983T823 1009Q846 1009 867 988Q886 969 886 944Q886 917 858 877T768 776Q735 744 680 690T559 570T429
441T313 325T235 245Q193 200 164 182T113 163Q98 163 84 170T57 190ZM875 181Q866 169 855 164T832 158Q807 158 769 187T670 277Q639 310 585 363T467 478T340 603T226 716T147 797Q100 847 78 883T56 943Q56 956 61 968T78 991Q84 997 92 1000T110 1003Q131
1003 165 981T246 911Q294 865 350 809T467 693T584 576T691 468T778 383Q843 320 869 286T895 228Q895 216 890 205T875 181Z" />
<glyph unicode="&#xd8;" horiz-adv-x="1567" d="M31 -196Q17 -196 5 -190T-16 -173T-24 -147Q-24 -124 4 -86T77 -3T172 86T266 166T337 221L411 102Q392 80 356 44T273 -34T180 -112T94 -172T31 -196ZM1246 894L1153 991Q1168 1009 1202 1045T1280 1125T1366
1209T1445 1274T1496 1300Q1511 1300 1523 1292T1543 1269T1551 1236Q1551 1207 1517 1159T1433 1057T1332 960T1246 894ZM713 -103Q569 -103 450 -57T245 75T112 281T65 550Q65 688 109 793T228 975T397 1099T593 1170T793 1193Q946 1193 1073 1148T1295 1017T1440
815T1492 553Q1492 394 1435 272T1272 66T1025 -60T713 -103ZM746 94Q943 94 1061 157T1233 325T1286 557Q1286 674 1248 764T1142 916T985 1009T794 1041Q693 1041 602 1011T441 925T329 788T288 607Q288 487 322 392T417 231T563 130T746 94Z" />
<glyph unicode="&#xd9;" horiz-adv-x="1251" d="M598 -35Q396 -35 278 73T106 360Q95 400 87 442T72 530T63 622T58 718T56 818Q56 957 68 1037T107 1150T177 1184Q207 1184 225 1153T252 1042T261 815Q261 772 262 729T266 645T273 565T284 490T300 421Q333 301
403 229T600 156Q678 156 736 189T835 282T902 419Q916 462 926 509T942 607T952 711T955 818Q955 954 965 1030T997 1138T1057 1169Q1095 1169 1114 1134T1141 1017T1148 800Q1148 751 1146 704T1139 610T1127 521T1110 436T1087 355Q1049 238 983 150T820 14T598
-35ZM681 1307Q638 1307 564 1337T416 1406Q352 1440 318 1470T284 1535Q284 1563 299 1576T340 1590Q372 1590 425 1567T531 1509Q614 1456 667 1412T721 1343Q721 1324 711 1316T681 1307Z" />
<glyph unicode="&#xda;" horiz-adv-x="1251" d="M598 -35Q396 -35 278 73T106 360Q95 400 87 442T72 530T63 622T58 718T56 818Q56 957 68 1037T107 1150T177 1184Q207 1184 225 1153T252 1042T261 815Q261 772 262 729T266 645T273 565T284 490T300 421Q333 301
403 229T600 156Q678 156 736 189T835 282T902 419Q916 462 926 509T942 607T952 711T955 818Q955 954 965 1030T997 1138T1057 1169Q1095 1169 1114 1134T1141 1017T1148 800Q1148 751 1146 704T1139 610T1127 521T1110 436T1087 355Q1049 238 983 150T820 14T598
-35ZM586 1275Q568 1275 557 1283T546 1310Q546 1335 600 1379T736 1477Q788 1510 841 1533T927 1557Q953 1557 968 1544T983 1502Q983 1468 949 1438T851 1373Q779 1334 704 1305T586 1275Z" />
<glyph unicode="&#xdb;" horiz-adv-x="1251" d="M598 -35Q396 -35 278 73T106 360Q95 400 87 442T72 530T63 622T58 718T56 818Q56 957 68 1037T107 1150T177 1184Q207 1184 225 1153T252 1042T261 815Q261 772 262 729T266 645T273 565T284 490T300 421Q333 301
403 229T600 156Q678 156 736 189T835 282T902 419Q916 462 926 509T942 607T952 711T955 818Q955 954 965 1030T997 1138T1057 1169Q1095 1169 1114 1134T1141 1017T1148 800Q1148 751 1146 704T1139 610T1127 521T1110 436T1087 355Q1049 238 983 150T820 14T598
-35ZM362 1288Q321 1288 321 1330Q321 1360 357 1408T448 1505T560 1587T659 1620Q699 1620 749 1589T847 1510T926 1417T957 1341Q957 1321 947 1310T919 1299Q890 1299 868 1321T811 1391Q788 1422 760 1450T703 1497T651 1515Q631 1515 600 1493T536 1438T472
1371Q434 1326 411 1307T362 1288Z" />
<glyph unicode="&#xdc;" horiz-adv-x="1251" d="M598 -35Q396 -35 278 73T106 360Q95 400 87 442T72 530T63 622T58 718T56 818Q56 957 68 1037T107 1150T177 1184Q207 1184 225 1153T252 1042T261 815Q261 772 262 729T266 645T273 565T284 490T300 421Q333 301
403 229T600 156Q678 156 736 189T835 282T902 419Q916 462 926 509T942 607T952 711T955 818Q955 954 965 1030T997 1138T1057 1169Q1095 1169 1114 1134T1141 1017T1148 800Q1148 751 1146 704T1139 610T1127 521T1110 436T1087 355Q1049 238 983 150T820 14T598
-35ZM461 1297Q396 1297 370 1320T343 1383Q343 1426 377 1451T449 1477Q478 1477 503 1469T544 1440T560 1383Q560 1347 537 1322T461 1297ZM848 1298Q803 1298 774 1323T744 1386Q744 1431 777 1459T860 1488Q906 1488 928 1462T951 1401Q951 1359 923 1329T848
1298Z" />
<glyph unicode="&#xdd;" horiz-adv-x="1167" d="M550 -20Q506 -20 489 5T463 82Q461 103 460 131T457 191T455 255T452 315Q449 373 439 414T387 485Q341 517 297 549T217 618Q177 658 144 716T88 841T52 973T39 1094Q39 1130 51 1155T86 1193T139 1206Q166 1206
187 1176T224 1077Q234 1027 251 974T291 869Q320 800 360 742T449 649T556 614Q607 614 657 645T754 726Q814 792 861 876T932 1033Q961 1111 983 1147T1032 1184Q1059 1184 1079 1170T1111 1132T1123 1077Q1123 1024 1106 962T1058 835T986 711T899 606Q853 560
805 525T721 464Q696 446 683 430T664 393T652 343Q650 320 648 287T643 217T638 144T631 78Q626 32 606 6T550 -20ZM522 1251Q504 1251 493 1259T482 1286Q482 1311 536 1355T672 1453Q724 1486 777 1509T863 1533Q889 1533 904 1520T919 1478Q919 1444 885 1414T787
1349Q715 1310 640 1281T522 1251Z" />
<glyph unicode="&#xde;" horiz-adv-x="1021" d="M151 -48Q130 -48 111 -27T77 32T54 122Q45 178 39 250T29 397T26 535Q26 620 28 713T33 885T42 1007Q50 1066 63 1105T96 1163T142 1182Q171 1182 191 1162T221 1084T235 917Q236 890 263 887T331 891T412 900Q564
910 668 889T836 824T936 725Q963 684 971 627T971 513T936 411Q896 341 823 301T655 244T458 223Q396 221 345 224T264 222T234 181Q234 82 228 33T203 -32T151 -48ZM413 328Q545 331 638 353T780 426T829 562Q829 686 722 745T397 796Q366 795 330 793T268 779T238
741Q234 709 231 659T227 552T227 448T233 374Q236 355 257 346T307 332T366 328T413 328Z" />
<glyph unicode="&#xdf;" horiz-adv-x="987" d="M147 -39Q115 -39 96 -23T66 23T51 100T46 209Q46 304 48 385T54 538T66 669T82 782T105 878T135 961Q185 1089 268 1152T480 1216Q544 1216 601 1195T704 1134T775 1037T801 908Q801 823 762 761T677 646Q660 627
653 612T645 585Q645 566 662 553T715 527Q773 508 820 475T894 394T922 284Q922 215 887 159T794 62T663 0T517 -22Q488 -22 459 -18T412 -2T393 36Q393 56 407 68T453 88T533 103Q588 112 639 138T724 202T757 284Q757 355 713 388T602 442Q545 460 514 485T483
556Q483 596 508 630T573 702Q610 738 626 781T642 865Q642 920 618 964T550 1035T449 1062Q387 1062 346 1015T280 886T246 696Q244 658 242 610T238 503T234 375T229 224T221 48Q215 0 199 -19T147 -39Z" />
<glyph unicode="&#xe0;" horiz-adv-x="1159" d="M447 -87Q367 -87 298 -71T175 -21T93 68T63 201Q63 294 108 353T231 445T405 490T606 503Q640 503 675 501T742 497T796 495Q823 495 832 503T842 534Q842 579 831 614T798 676T748 721Q703 752 640 765T505 778Q421
778 360 760T256 724T179 705Q140 705 120 718T99 759Q99 791 129 820T214 873T343 909T505 923Q678 923 793 878T965 732T1023 465Q1023 411 1017 371T1003 302T989 251T983 213Q983 190 998 171T1032 133T1067 94T1082 50Q1082 13 1058 -2T1008 -17Q979 -17 961
3T926 43T886 63Q872 63 857 56T817 31Q788 9 742 -18T625 -66T447 -87ZM471 35Q541 35 606 57T723 118T805 211T836 326Q836 363 811 379T728 399T572 403Q479 403 400 385T274 323T226 206Q226 148 254 111T338 54T471 35ZM567 1012Q524 1012 450 1042T302 1111Q238
1145 204 1175T170 1240Q170 1268 185 1281T226 1295Q258 1295 311 1272T417 1214Q500 1161 553 1117T607 1048Q607 1029 597 1021T567 1012Z" />
<glyph unicode="&#xe1;" horiz-adv-x="1159" d="M447 -87Q367 -87 298 -71T175 -21T93 68T63 201Q63 294 108 353T231 445T405 490T606 503Q640 503 675 501T742 497T796 495Q823 495 832 503T842 534Q842 579 831 614T798 676T748 721Q703 752 640 765T505 778Q421
778 360 760T256 724T179 705Q140 705 120 718T99 759Q99 791 129 820T214 873T343 909T505 923Q678 923 793 878T965 732T1023 465Q1023 411 1017 371T1003 302T989 251T983 213Q983 190 998 171T1032 133T1067 94T1082 50Q1082 13 1058 -2T1008 -17Q979 -17 961
3T926 43T886 63Q872 63 857 56T817 31Q788 9 742 -18T625 -66T447 -87ZM471 35Q541 35 606 57T723 118T805 211T836 326Q836 363 811 379T728 399T572 403Q479 403 400 385T274 323T226 206Q226 148 254 111T338 54T471 35ZM472 980Q454 980 443 988T432 1015Q432
1040 486 1084T622 1182Q674 1215 727 1238T813 1262Q839 1262 854 1249T869 1207Q869 1173 835 1143T737 1078Q665 1039 590 1010T472 980Z" />
<glyph unicode="&#xe2;" horiz-adv-x="1159" d="M447 -87Q367 -87 298 -71T175 -21T93 68T63 201Q63 294 108 353T231 445T405 490T606 503Q640 503 675 501T742 497T796 495Q823 495 832 503T842 534Q842 579 831 614T798 676T748 721Q703 752 640 765T505 778Q421
778 360 760T256 724T179 705Q140 705 120 718T99 759Q99 791 129 820T214 873T343 909T505 923Q678 923 793 878T965 732T1023 465Q1023 411 1017 371T1003 302T989 251T983 213Q983 190 998 171T1032 133T1067 94T1082 50Q1082 13 1058 -2T1008 -17Q979 -17 961
3T926 43T886 63Q872 63 857 56T817 31Q788 9 742 -18T625 -66T447 -87ZM471 35Q541 35 606 57T723 118T805 211T836 326Q836 363 811 379T728 399T572 403Q479 403 400 385T274 323T226 206Q226 148 254 111T338 54T471 35ZM248 993Q207 993 207 1035Q207 1065
243 1113T334 1210T446 1292T545 1325Q585 1325 635 1294T733 1215T812 1122T843 1046Q843 1026 833 1015T805 1004Q776 1004 754 1026T697 1096Q674 1127 646 1155T589 1202T537 1220Q517 1220 486 1198T422 1143T358 1076Q320 1031 297 1012T248 993Z" />
<glyph unicode="&#xe3;" horiz-adv-x="1159" d="M447 -87Q367 -87 298 -71T175 -21T93 68T63 201Q63 294 108 353T231 445T405 490T606 503Q640 503 675 501T742 497T796 495Q823 495 832 503T842 534Q842 579 831 614T798 676T748 721Q703 752 640 765T505 778Q421
778 360 760T256 724T179 705Q140 705 120 718T99 759Q99 791 129 820T214 873T343 909T505 923Q678 923 793 878T965 732T1023 465Q1023 411 1017 371T1003 302T989 251T983 213Q983 190 998 171T1032 133T1067 94T1082 50Q1082 13 1058 -2T1008 -17Q979 -17 961
3T926 43T886 63Q872 63 857 56T817 31Q788 9 742 -18T625 -66T447 -87ZM471 35Q541 35 606 57T723 118T805 211T836 326Q836 363 811 379T728 399T572 403Q479 403 400 385T274 323T226 206Q226 148 254 111T338 54T471 35ZM283 1003Q266 1003 255 1013T243 1044Q243
1083 270 1125T340 1197T427 1226Q468 1226 500 1203T559 1151T611 1098T664 1075Q699 1075 719 1088T758 1145Q772 1180 784 1191T813 1202Q825 1202 835 1194T845 1162Q845 1115 820 1076T754 1014T668 991Q623 991 590 1013T529 1063T478 1114T427 1136Q398
1136 375 1111T331 1043Q320 1021 309 1012T283 1003Z" />
<glyph unicode="&#xe4;" horiz-adv-x="1159" d="M447 -87Q367 -87 298 -71T175 -21T93 68T63 201Q63 294 108 353T231 445T405 490T606 503Q640 503 675 501T742 497T796 495Q823 495 832 503T842 534Q842 579 831 614T798 676T748 721Q703 752 640 765T505 778Q421
778 360 760T256 724T179 705Q140 705 120 718T99 759Q99 791 129 820T214 873T343 909T505 923Q678 923 793 878T965 732T1023 465Q1023 411 1017 371T1003 302T989 251T983 213Q983 190 998 171T1032 133T1067 94T1082 50Q1082 13 1058 -2T1008 -17Q979 -17 961
3T926 43T886 63Q872 63 857 56T817 31Q788 9 742 -18T625 -66T447 -87ZM471 35Q541 35 606 57T723 118T805 211T836 326Q836 363 811 379T728 399T572 403Q479 403 400 385T274 323T226 206Q226 148 254 111T338 54T471 35ZM347 1002Q282 1002 256 1025T229 1088Q229
1131 263 1156T335 1182Q364 1182 389 1174T430 1145T446 1088Q446 1052 423 1027T347 1002ZM734 1003Q689 1003 660 1028T630 1091Q630 1136 663 1164T746 1193Q792 1193 814 1167T837 1106Q837 1064 809 1034T734 1003Z" />
<glyph unicode="&#xe5;" horiz-adv-x="1159" d="M447 -87Q367 -87 298 -71T175 -21T93 68T63 201Q63 294 108 353T231 445T405 490T606 503Q640 503 675 501T742 497T796 495Q823 495 832 503T842 534Q842 579 831 614T798 676T748 721Q703 752 640 765T505 778Q421
778 360 760T256 724T179 705Q140 705 120 718T99 759Q99 791 129 820T214 873T343 909T505 923Q678 923 793 878T965 732T1023 465Q1023 411 1017 371T1003 302T989 251T983 213Q983 190 998 171T1032 133T1067 94T1082 50Q1082 13 1058 -2T1008 -17Q979 -17 961
3T926 43T886 63Q872 63 857 56T817 31Q788 9 742 -18T625 -66T447 -87ZM471 35Q541 35 606 57T723 118T805 211T836 326Q836 363 811 379T728 399T572 403Q479 403 400 385T274 323T226 206Q226 148 254 111T338 54T471 35ZM527 982Q442 982 380 1025T318 1138Q318
1209 377 1253T541 1297Q629 1297 680 1256T731 1150Q731 1099 701 1062T623 1003T527 982ZM526 1058Q583 1058 608 1086T634 1152Q634 1181 606 1205T524 1229Q485 1229 452 1210T418 1149Q418 1103 451 1081T526 1058Z" />
<glyph unicode="&#xe6;" horiz-adv-x="1918" d="M497 1012Q664 1012 784 962T969 807T1033 537Q1033 401 989 300T866 130T685 28T465 -6Q385 -6 316 11T193 65T110 156T80 286Q80 371 118 423T221 504T368 544T539 561Q579 565 632 567T735 571T809 572Q839 572
849 580T860 611Q860 638 844 677T799 753Q744 822 672 845T490 868Q404 868 337 849T220 810T136 790Q107 790 92 801T76 842Q76 872 107 902T194 956T328 996T497 1012ZM584 479Q492 479 414 462T289 404T241 289Q241 201 304 156T485 110Q554 110 619 134T735
202T817 300T847 417Q847 447 822 460T740 476T584 479ZM1399 34Q1232 34 1112 84T928 240T863 509Q863 645 907 746T1030 916T1211 1018T1431 1052Q1511 1052 1580 1035T1703 981T1786 889T1816 760Q1816 675 1778 623T1675 542T1528 501T1357 485Q1318 480 1264
478T1161 475T1087 474Q1058 474 1047 466T1036 435Q1036 408 1052 369T1097 293Q1152 224 1225 201T1406 178Q1492 178 1559 197T1676 236T1760 256Q1789 256 1805 245T1821 204Q1821 174 1790 144T1702 89T1568 49T1399 34ZM1312 567Q1405 567 1482 583T1607
641T1655 757Q1655 844 1593 890T1412 936Q1342 936 1277 912T1161 844T1080 746T1050 629Q1050 599 1074 586T1157 570T1312 567Z" />
<glyph unicode="&#xe7;" horiz-adv-x="1132" d="M587 -45Q471 -45 371 -12T194 84T76 239T33 451Q33 577 74 678T192 852T374 962T608 1001Q705 1001 775 983T885 939T924 885Q924 870 916 858T894 838T864 831Q843 831 816 841T745 862T628 873Q538 873 465 844T338
762T255 637T226 477Q226 362 275 283T407 163T595 121Q693 121 759 141T867 189T935 236T979 257Q1004 257 1017 246T1036 220T1042 189Q1042 155 1013 115T926 38T783 -22T587 -45ZM601 -436Q552 -436 513 -432T450 -414T426 -376Q426 -350 443 -341T482 -332Q499
-332 517 -336T557 -345T604 -350Q656 -350 704 -341T784 -311T816 -252Q816 -217 800 -203T750 -188Q710 -188 677 -201T615 -228T555 -242Q523 -242 501 -228T478 -165Q478 -145 484 -115T499 -57T513 -14Q523 10 539 23T583 36Q605 36 615 24T626 -5Q626 -28
614 -67T601 -140Q601 -163 616 -163Q633 -163 656 -149T711 -121T792 -107Q831 -107 861 -123T909 -170T927 -242Q927 -337 846 -386T601 -436Z" />
<glyph unicode="&#xe8;" horiz-adv-x="1123" d="M603 -64Q437 -64 317 -14T132 141T67 411Q67 546 112 647T235 817T416 919T636 953Q716 953 785 936T908 882T991 791T1021 662Q1021 576 983 524T880 444T732 403T562 386Q522 382 468 380T366 377T292 376Q262
376 252 368T241 337Q241 309 256 270T302 195Q357 125 429 102T610 79Q697 79 764 99T880 138T965 157Q993 157 1009 147T1025 105Q1025 76 994 46T907 -9T773 -49T603 -64ZM517 469Q609 469 687 485T812 543T860 659Q860 746 797 791T616 837Q547 837 482 813T365
745T284 647T254 530Q254 500 279 488T361 472T517 469ZM670 1086Q627 1086 553 1116T405 1185Q341 1219 307 1249T273 1314Q273 1342 288 1355T329 1369Q361 1369 414 1346T520 1288Q603 1235 656 1191T710 1122Q710 1103 700 1095T670 1086Z" />
<glyph unicode="&#xe9;" horiz-adv-x="1123" d="M603 -64Q437 -64 317 -14T132 141T67 411Q67 546 112 647T235 817T416 919T636 953Q716 953 785 936T908 882T991 791T1021 662Q1021 576 983 524T880 444T732 403T562 386Q522 382 468 380T366 377T292 376Q262
376 252 368T241 337Q241 309 256 270T302 195Q357 125 429 102T610 79Q697 79 764 99T880 138T965 157Q993 157 1009 147T1025 105Q1025 76 994 46T907 -9T773 -49T603 -64ZM517 469Q609 469 687 485T812 543T860 659Q860 746 797 791T616 837Q547 837 482 813T365
745T284 647T254 530Q254 500 279 488T361 472T517 469ZM575 1054Q557 1054 546 1062T535 1089Q535 1114 589 1158T725 1256Q777 1289 830 1312T916 1336Q942 1336 957 1323T972 1281Q972 1247 938 1217T840 1152Q768 1113 693 1084T575 1054Z" />
<glyph unicode="&#xea;" horiz-adv-x="1123" d="M603 -64Q437 -64 317 -14T132 141T67 411Q67 546 112 647T235 817T416 919T636 953Q716 953 785 936T908 882T991 791T1021 662Q1021 576 983 524T880 444T732 403T562 386Q522 382 468 380T366 377T292 376Q262
376 252 368T241 337Q241 309 256 270T302 195Q357 125 429 102T610 79Q697 79 764 99T880 138T965 157Q993 157 1009 147T1025 105Q1025 76 994 46T907 -9T773 -49T603 -64ZM517 469Q609 469 687 485T812 543T860 659Q860 746 797 791T616 837Q547 837 482 813T365
745T284 647T254 530Q254 500 279 488T361 472T517 469ZM351 1067Q310 1067 310 1109Q310 1139 346 1187T437 1284T549 1366T648 1399Q688 1399 738 1368T836 1289T915 1196T946 1120Q946 1100 936 1089T908 1078Q879 1078 857 1100T800 1170Q777 1201 749 1229T692
1276T640 1294Q620 1294 589 1272T525 1217T461 1150Q423 1105 400 1086T351 1067Z" />
<glyph unicode="&#xeb;" horiz-adv-x="1123" d="M603 -64Q437 -64 317 -14T132 141T67 411Q67 546 112 647T235 817T416 919T636 953Q716 953 785 936T908 882T991 791T1021 662Q1021 576 983 524T880 444T732 403T562 386Q522 382 468 380T366 377T292 376Q262
376 252 368T241 337Q241 309 256 270T302 195Q357 125 429 102T610 79Q697 79 764 99T880 138T965 157Q993 157 1009 147T1025 105Q1025 76 994 46T907 -9T773 -49T603 -64ZM517 469Q609 469 687 485T812 543T860 659Q860 746 797 791T616 837Q547 837 482 813T365
745T284 647T254 530Q254 500 279 488T361 472T517 469ZM449 1076Q384 1076 358 1099T331 1162Q331 1205 365 1230T437 1256Q466 1256 491 1248T532 1219T548 1162Q548 1126 525 1101T449 1076ZM836 1077Q791 1077 762 1102T732 1165Q732 1210 765 1238T848 1267Q894
1267 916 1241T939 1180Q939 1138 911 1108T836 1077Z" />
<glyph unicode="&#xec;" horiz-adv-x="446" d="M195 -45Q156 -45 135 -21T105 42T96 127Q96 152 96 184T98 253T100 330T104 413T109 499T115 586Q130 742 160 809T245 876Q277 876 295 842T320 740T328 570Q328 523 327 475T324 380T319 289T313 205T305 131T296
70Q283 20 259 -12T195 -45ZM281 963Q238 963 164 993T16 1062Q-48 1096 -82 1126T-116 1191Q-116 1219 -101 1232T-60 1246Q-28 1246 25 1223T131 1165Q214 1112 267 1068T321 999Q321 980 311 972T281 963Z" />
<glyph unicode="&#xed;" horiz-adv-x="446" d="M195 -45Q156 -45 135 -21T105 42T96 127Q96 152 96 184T98 253T100 330T104 413T109 499T115 586Q130 742 160 809T245 876Q277 876 295 842T320 740T328 570Q328 523 327 475T324 380T319 289T313 205T305 131T296
70Q283 20 259 -12T195 -45ZM186 931Q168 931 157 939T146 966Q146 991 200 1035T336 1133Q388 1166 441 1189T527 1213Q553 1213 568 1200T583 1158Q583 1124 549 1094T451 1029Q379 990 304 961T186 931Z" />
<glyph unicode="&#xee;" horiz-adv-x="446" d="M195 -45Q156 -45 135 -21T105 42T96 127Q96 152 96 184T98 253T100 330T104 413T109 499T115 586Q130 742 160 809T245 876Q277 876 295 842T320 740T328 570Q328 523 327 475T324 380T319 289T313 205T305 131T296
70Q283 20 259 -12T195 -45ZM-38 944Q-79 944 -79 986Q-79 1016 -43 1064T48 1161T160 1243T259 1276Q299 1276 349 1245T447 1166T526 1073T557 997Q557 977 547 966T519 955Q490 955 468 977T411 1047Q388 1078 360 1106T303 1153T251 1171Q231 1171 200 1149T136
1094T72 1027Q34 982 11 963T-38 944Z" />
<glyph unicode="&#xef;" horiz-adv-x="446" d="M195 -45Q156 -45 135 -21T105 42T96 127Q96 152 96 184T98 253T100 330T104 413T109 499T115 586Q130 742 160 809T245 876Q277 876 295 842T320 740T328 570Q328 523 327 475T324 380T319 289T313 205T305 131T296
70Q283 20 259 -12T195 -45ZM60 953Q-5 953 -31 976T-58 1039Q-58 1082 -24 1107T48 1133Q77 1133 102 1125T143 1096T159 1039Q159 1003 136 978T60 953ZM447 954Q402 954 373 979T343 1042Q343 1087 376 1115T459 1144Q505 1144 527 1118T550 1057Q550 1015 522
985T447 954Z" />
<glyph unicode="&#xf0;" horiz-adv-x="1074" d="M482 -42Q405 -42 327 -17T182 58T76 183T36 358Q36 441 68 509T157 626T288 703T450 730Q523 730 578 714T675 674T744 630Q761 618 770 618Q779 618 779 628Q779 637 775 644Q769 656 744 694T676 783T574 885T441
974Q428 961 400 938T339 889T278 847T237 830Q213 830 201 841T189 869Q189 876 192 883T201 899Q215 917 248 943T316 994T366 1033Q283 1077 228 1097T133 1127Q107 1135 83 1146T59 1179Q59 1200 73 1210T112 1220Q137 1220 182 1208T280 1176T377 1136T445
1102Q476 1129 521 1168T603 1242Q622 1257 638 1265T668 1274Q691 1274 705 1265T720 1237Q720 1224 704 1201T661 1151T606 1097T550 1048Q663 978 745 899T881 733T961 558T988 377Q988 239 918 146T732 5T482 -42ZM489 87Q580 87 644 113T750 182T810 274T830
369Q830 415 800 458T720 537T607 592T475 612Q381 612 319 573T225 474T193 349Q193 274 230 215T333 121T489 87Z" />
<glyph unicode="&#xf1;" horiz-adv-x="1210" d="M132 -22Q95 -22 75 2T46 79Q44 106 44 141T45 220T52 320Q66 516 131 652T313 859T593 931Q757 931 871 864T1044 654T1104 285Q1104 243 1103 208T1100 144T1093 92Q1082 29 1060 4T997 -22Q962 -22 943 -8T917
34T906 106Q904 187 902 248T896 359T887 451T871 539Q847 653 786 714T602 775Q481 775 410 709T300 531Q284 484 274 434T257 331T247 222T240 104Q236 53 222 26T185 -12T132 -22ZM365 1038Q348 1038 337 1048T325 1079Q325 1118 352 1160T422 1232T509 1261Q550
1261 582 1238T641 1186T693 1133T746 1110Q781 1110 801 1123T840 1180Q854 1215 866 1226T895 1237Q907 1237 917 1229T927 1197Q927 1150 902 1111T836 1049T750 1026Q705 1026 672 1048T611 1098T560 1149T509 1171Q480 1171 457 1146T413 1078Q402 1056 391
1047T365 1038Z" />
<glyph unicode="&#xf2;" horiz-adv-x="1311" d="M615 -51Q501 -51 397 -25T210 57T81 204T33 428Q33 573 79 681T207 860T397 966T627 1002Q736 1002 842 975T1034 887T1173 729T1225 492Q1225 390 1186 293T1069 119T878 -4T615 -51ZM610 119Q725 119 805 154T934
248T1007 375T1030 511Q1030 606 994 672T897 779T762 838T611 857Q510 857 420 814T274 683T218 460Q218 351 262 275T393 159T610 119ZM679 1088Q636 1088 562 1118T414 1187Q350 1221 316 1251T282 1316Q282 1344 297 1357T338 1371Q370 1371 423 1348T529 1290Q612
1237 665 1193T719 1124Q719 1105 709 1097T679 1088Z" />
<glyph unicode="&#xf3;" horiz-adv-x="1311" d="M615 -51Q501 -51 397 -25T210 57T81 204T33 428Q33 573 79 681T207 860T397 966T627 1002Q736 1002 842 975T1034 887T1173 729T1225 492Q1225 390 1186 293T1069 119T878 -4T615 -51ZM610 119Q725 119 805 154T934
248T1007 375T1030 511Q1030 606 994 672T897 779T762 838T611 857Q510 857 420 814T274 683T218 460Q218 351 262 275T393 159T610 119ZM585 1056Q567 1056 556 1064T545 1091Q545 1116 599 1160T735 1258Q787 1291 840 1314T926 1338Q952 1338 967 1325T982 1283Q982
1249 948 1219T850 1154Q778 1115 703 1086T585 1056Z" />
<glyph unicode="&#xf4;" horiz-adv-x="1311" d="M615 -51Q501 -51 397 -25T210 57T81 204T33 428Q33 573 79 681T207 860T397 966T627 1002Q736 1002 842 975T1034 887T1173 729T1225 492Q1225 390 1186 293T1069 119T878 -4T615 -51ZM610 119Q725 119 805 154T934
248T1007 375T1030 511Q1030 606 994 672T897 779T762 838T611 857Q510 857 420 814T274 683T218 460Q218 351 262 275T393 159T610 119ZM360 1069Q319 1069 319 1111Q319 1141 355 1189T446 1286T558 1368T657 1401Q697 1401 747 1370T845 1291T924 1198T955 1122Q955
1102 945 1091T917 1080Q888 1080 866 1102T809 1172Q786 1203 758 1231T701 1278T649 1296Q629 1296 598 1274T534 1219T470 1152Q432 1107 409 1088T360 1069Z" />
<glyph unicode="&#xf5;" horiz-adv-x="1311" d="M615 -51Q501 -51 397 -25T210 57T81 204T33 428Q33 573 79 681T207 860T397 966T627 1002Q736 1002 842 975T1034 887T1173 729T1225 492Q1225 390 1186 293T1069 119T878 -4T615 -51ZM610 119Q725 119 805 154T934
248T1007 375T1030 511Q1030 606 994 672T897 779T762 838T611 857Q510 857 420 814T274 683T218 460Q218 351 262 275T393 159T610 119ZM395 1079Q378 1079 367 1089T355 1120Q355 1159 382 1201T452 1273T539 1302Q580 1302 612 1279T671 1227T723 1174T776 1151Q811
1151 831 1164T870 1221Q884 1256 896 1267T925 1278Q937 1278 947 1270T957 1238Q957 1191 932 1152T866 1090T780 1067Q735 1067 702 1089T641 1139T590 1190T539 1212Q510 1212 487 1187T443 1119Q432 1097 421 1088T395 1079Z" />
<glyph unicode="&#xf6;" horiz-adv-x="1311" d="M615 -51Q501 -51 397 -25T210 57T81 204T33 428Q33 573 79 681T207 860T397 966T627 1002Q736 1002 842 975T1034 887T1173 729T1225 492Q1225 390 1186 293T1069 119T878 -4T615 -51ZM610 119Q725 119 805 154T934
248T1007 375T1030 511Q1030 606 994 672T897 779T762 838T611 857Q510 857 420 814T274 683T218 460Q218 351 262 275T393 159T610 119ZM459 1078Q394 1078 368 1101T341 1164Q341 1207 375 1232T447 1258Q476 1258 501 1250T542 1221T558 1164Q558 1128 535 1103T459
1078ZM846 1079Q801 1079 772 1104T742 1167Q742 1212 775 1240T858 1269Q904 1269 926 1243T949 1182Q949 1140 921 1110T846 1079Z" />
<glyph unicode="&#xf7;" horiz-adv-x="1042" d="M499 253Q447 253 407 277T367 348Q367 375 383 396T428 429T490 441Q522 441 551 430T598 396T616 344Q616 314 601 294T559 264T499 253ZM427 558Q315 558 239 560T118 567T54 584T34 612Q34 634 53 647T120 668T254
679T475 682Q622 682 715 680T859 671T929 651T949 616Q949 596 928 584T851 567T693 560T427 558ZM495 795Q443 795 402 820T361 892Q361 918 380 938T428 971T486 983Q518 983 547 969T594 931T612 876Q612 832 578 814T495 795Z" />
<glyph unicode="&#xf8;" horiz-adv-x="1311" d="M49 -135Q23 -139 5 -129T-13 -102Q-13 -85 6 -57T56 4Q84 33 117 67T186 129Q220 157 243 170T286 184T323 168Q351 145 339 116T285 39Q254 4 218 -28T144 -87Q118 -106 95 -118T49 -135ZM1043 764Q1019 751 997
752T962 766T948 800T967 846Q990 873 1015 900T1068 951Q1097 977 1122 995T1163 1016Q1200 1021 1220 1012T1240 978Q1240 965 1231 948T1207 912Q1194 895 1172 872T1132 832Q1109 812 1089 795T1043 764ZM615 -51Q501 -51 397 -25T210 57T81 204T33 428Q33
573 79 681T207 860T397 966T627 1002Q736 1002 842 975T1034 887T1173 729T1225 492Q1225 390 1186 293T1069 119T878 -4T615 -51ZM610 119Q725 119 805 154T934 248T1007 375T1030 511Q1030 606 994 672T897 779T762 838T611 857Q510 857 420 814T274 683T218
460Q218 351 262 275T393 159T610 119Z" />
<glyph unicode="&#xf9;" horiz-adv-x="1223" d="M550 -63Q410 -63 315 -17T162 115T78 320T52 585Q52 620 54 655T60 724T69 784Q83 850 109 877T172 905Q206 905 223 889T246 847T252 795Q253 777 253 751T252 695T251 637T252 586Q255 446 283 337T376 166T557
104Q678 104 749 153T858 295T914 515Q918 545 921 577T927 643T933 711T940 780Q948 844 969 878T1034 913Q1071 913 1089 885T1113 805Q1115 766 1115 728T1114 651T1111 576T1105 503Q1090 323 1028 197T848 4T550 -63ZM642 988Q599 988 525 1018T377 1087Q313
1121 279 1151T245 1216Q245 1244 260 1257T301 1271Q333 1271 386 1248T492 1190Q575 1137 628 1093T682 1024Q682 1005 672 997T642 988Z" />
<glyph unicode="&#xfa;" horiz-adv-x="1223" d="M550 -63Q410 -63 315 -17T162 115T78 320T52 585Q52 620 54 655T60 724T69 784Q83 850 109 877T172 905Q206 905 223 889T246 847T252 795Q253 777 253 751T252 695T251 637T252 586Q255 446 283 337T376 166T557
104Q678 104 749 153T858 295T914 515Q918 545 921 577T927 643T933 711T940 780Q948 844 969 878T1034 913Q1071 913 1089 885T1113 805Q1115 766 1115 728T1114 651T1111 576T1105 503Q1090 323 1028 197T848 4T550 -63ZM547 956Q529 956 518 964T507 991Q507
1016 561 1060T697 1158Q749 1191 802 1214T888 1238Q914 1238 929 1225T944 1183Q944 1149 910 1119T812 1054Q740 1015 665 986T547 956Z" />
<glyph unicode="&#xfb;" horiz-adv-x="1223" d="M550 -63Q410 -63 315 -17T162 115T78 320T52 585Q52 620 54 655T60 724T69 784Q83 850 109 877T172 905Q206 905 223 889T246 847T252 795Q253 777 253 751T252 695T251 637T252 586Q255 446 283 337T376 166T557
104Q678 104 749 153T858 295T914 515Q918 545 921 577T927 643T933 711T940 780Q948 844 969 878T1034 913Q1071 913 1089 885T1113 805Q1115 766 1115 728T1114 651T1111 576T1105 503Q1090 323 1028 197T848 4T550 -63ZM323 969Q282 969 282 1011Q282 1041 318
1089T409 1186T521 1268T620 1301Q660 1301 710 1270T808 1191T887 1098T918 1022Q918 1002 908 991T880 980Q851 980 829 1002T772 1072Q749 1103 721 1131T664 1178T612 1196Q592 1196 561 1174T497 1119T433 1052Q395 1007 372 988T323 969Z" />
<glyph unicode="&#xfc;" horiz-adv-x="1223" d="M550 -63Q410 -63 315 -17T162 115T78 320T52 585Q52 620 54 655T60 724T69 784Q83 850 109 877T172 905Q206 905 223 889T246 847T252 795Q253 777 253 751T252 695T251 637T252 586Q255 446 283 337T376 166T557
104Q678 104 749 153T858 295T914 515Q918 545 921 577T927 643T933 711T940 780Q948 844 969 878T1034 913Q1071 913 1089 885T1113 805Q1115 766 1115 728T1114 651T1111 576T1105 503Q1090 323 1028 197T848 4T550 -63ZM422 978Q357 978 331 1001T304 1064Q304
1107 338 1132T410 1158Q439 1158 464 1150T505 1121T521 1064Q521 1028 498 1003T422 978ZM809 979Q764 979 735 1004T705 1067Q705 1112 738 1140T821 1169Q867 1169 889 1143T912 1082Q912 1040 884 1010T809 979Z" />
<glyph unicode="&#xfd;" horiz-adv-x="1114" d="M159 -375Q126 -375 108 -358T89 -315Q89 -286 114 -260T181 -211Q235 -173 287 -130T383 -44T453 34T479 91Q479 109 452 136T369 203Q320 239 272 292T180 408T102 537T49 664T29 774Q29 799 40 818T70 849T113
860Q154 860 182 836T238 747Q280 618 341 509T461 325Q492 288 524 261T574 233Q601 233 627 261T671 319Q735 415 776 523T858 750Q879 802 906 836T966 870Q1012 870 1030 846T1048 782Q1048 718 1027 640T969 478T889 314T798 165T709 49Q648 -22 574 -96T424
-234T280 -336T159 -375ZM461 930Q443 930 432 938T421 965Q421 990 475 1034T611 1132Q663 1165 716 1188T802 1212Q828 1212 843 1199T858 1157Q858 1123 824 1093T726 1028Q654 989 579 960T461 930Z" />
<glyph unicode="&#xfe;" horiz-adv-x="1159" d="M193 -451Q151 -451 127 -407T94 -270Q87 -209 82 -134T73 22T66 187T62 351T61 504Q61 575 64 655T73 816T91 970T116 1102Q132 1148 151 1181T192 1232T238 1250Q281 1250 297 1227T314 1157Q314 1133 311 1100T303
1029T294 953T286 878T282 810Q282 761 301 761Q316 761 341 777T407 814T509 851T657 867Q756 867 833 836T964 746T1045 607T1073 429Q1073 325 1042 241T954 97T814 5T628 -28Q546 -28 485 -11T386 24T329 41Q295 41 284 1T273 -106Q273 -118 273 -145T273 -205T273
-269T271 -321Q266 -387 250 -419T193 -451ZM551 99Q602 99 659 114T767 163T849 258T881 410Q881 514 849 585T751 692T582 728Q431 728 346 670T261 504Q261 489 262 456T264 384T266 312T269 264Q271 225 306 187T403 124T551 99Z" />
<glyph unicode="&#xff;" horiz-adv-x="1114" d="M159 -375Q126 -375 108 -358T89 -315Q89 -286 114 -260T181 -211Q235 -173 287 -130T383 -44T453 34T479 91Q479 109 452 136T369 203Q320 239 272 292T180 408T102 537T49 664T29 774Q29 799 40 818T70 849T113
860Q154 860 182 836T238 747Q280 618 341 509T461 325Q492 288 524 261T574 233Q601 233 627 261T671 319Q735 415 776 523T858 750Q879 802 906 836T966 870Q1012 870 1030 846T1048 782Q1048 718 1027 640T969 478T889 314T798 165T709 49Q648 -22 574 -96T424
-234T280 -336T159 -375ZM335 952Q270 952 244 975T217 1038Q217 1081 251 1106T323 1132Q352 1132 377 1124T418 1095T434 1038Q434 1002 411 977T335 952ZM722 953Q677 953 648 978T618 1041Q618 1086 651 1114T734 1143Q780 1143 802 1117T825 1056Q825 1014
797 984T722 953Z" />
<glyph unicode="&#x2013;" horiz-adv-x="1096" d="M563 560Q382 560 271 563T102 575T22 595T1 625Q1 644 45 658T167 682T347 696T565 701Q663 701 744 699T887 693T992 682T1057 662T1079 630Q1079 600 1028 585T864 565T563 560Z" />
<glyph unicode="&#x2014;" horiz-adv-x="1512" d="M787 560Q536 560 382 563T146 575T35 595T6 625Q6 644 68 658T238 682T489 696T790 701Q929 701 1042 699T1241 693T1386 682T1475 662T1505 630Q1505 600 1434 585T1206 565T787 560Z" />
<glyph unicode="&#x2018;" horiz-adv-x="279" d="M120 823Q95 823 80 843T58 897T51 968Q51 1010 58 1054T82 1139Q102 1184 131 1215T201 1246Q223 1246 234 1235T246 1203Q246 1185 240 1169T225 1138T208 1106Q199 1088 193 1057T185 995T182 939Q182 871 167
847T120 823Z" />
<glyph unicode="&#x2019;" horiz-adv-x="298" d="M167 813Q136 813 122 836T108 926Q108 961 100 1010T73 1087Q62 1104 53 1119T37 1151T31 1183Q31 1203 42 1214T75 1226Q102 1226 124 1212T164 1173T196 1119Q216 1078 226 1038T236 955Q236 918 230 886T208
833T167 813Z" />
<glyph unicode="&#x201a;" horiz-adv-x="371" d="M216 -315Q185 -315 171 -292T157 -202Q157 -167 149 -118T122 -41Q111 -24 102 -9T86 23T80 55Q80 75 91 86T124 98Q151 98 173 84T213 45T245 -9Q265 -50 275 -90T285 -173Q285 -210 279 -242T257 -295T216 -315Z" />
<glyph unicode="&#x201c;" horiz-adv-x="480" d="M93 869Q59 869 46 899T33 966Q33 1000 38 1038T54 1114T81 1183Q102 1222 132 1248T194 1275Q205 1275 217 1273T237 1262T245 1237Q245 1227 242 1219T232 1203T218 1186Q183 1146 171 1087T154 969Q150 924
135 897T93 869ZM330 823Q304 823 289 843T267 897T260 968Q260 1010 268 1054T291 1139Q311 1184 341 1215T411 1246Q433 1246 444 1235T455 1203Q455 1185 449 1169T435 1138T418 1106Q409 1088 403 1057T395 995T392 939Q392 871 377 847T330 823Z" />
<glyph unicode="&#x201d;" horiz-adv-x="440" d="M371 836Q343 836 327 864T308 937Q303 995 291 1053T243 1154Q236 1163 231 1170T222 1186T219 1205Q219 1221 227 1229T247 1240T270 1243Q301 1243 331 1216T383 1150Q399 1120 409 1082T425 1006T431 933Q431
897 418 867T371 836ZM144 813Q113 813 99 836T85 926Q85 961 78 1010T50 1087Q39 1104 30 1119T15 1151T9 1183Q9 1203 20 1214T53 1226Q80 1226 102 1212T141 1173T174 1119Q193 1078 203 1038T214 955Q214 918 208 886T186 833T144 813Z" />
<glyph unicode="&#x201e;" horiz-adv-x="485" d="M394 -293Q366 -293 350 -265T331 -192Q326 -134 314 -76T266 25Q259 34 254 41T245 57T242 76Q242 92 250 100T270 111T293 114Q324 114 354 87T406 21Q422 -9 432 -47T448 -123T454 -196Q454 -232 441 -262T394
-293ZM167 -316Q136 -316 122 -293T108 -203Q108 -168 101 -119T73 -42Q62 -25 53 -10T38 22T32 54Q32 74 43 85T76 97Q103 97 125 83T164 44T197 -10Q216 -51 226 -91T237 -174Q237 -211 231 -243T209 -296T167 -316Z" />
<glyph unicode="&#x2022;" horiz-adv-x="411" d="M207 496Q164 496 125 508T61 551T36 635Q36 689 61 723T126 773T205 789Q247 789 285 774T348 726T373 645Q373 600 349 567T288 515T207 496Z" />
<glyph unicode="&#x2039;" horiz-adv-x="400" d="M338 237Q328 237 304 252T253 290T203 333Q160 375 118 422T48 518T20 609Q20 645 33 682T70 758T120 836T177 911Q197 939 229 974T291 1035T337 1061Q356 1061 365 1051T375 1024Q375 1009 354 973T299 891T226
796Q206 772 184 739T147 673T132 613Q132 591 149 561T192 501T243 446Q288 404 317 372T360 316T375 279Q375 257 367 247T338 237Z" />
<glyph unicode="&#x203a;" horiz-adv-x="400" d="M71 230Q54 230 44 240T34 267Q34 283 55 318T110 400T183 495Q203 519 224 552T261 618T277 678Q277 701 260 730T216 790T165 845Q99 909 67 950T34 1012Q34 1054 71 1054Q81 1054 105 1039T156 1001T205 958Q249
916 291 869T361 773T389 682Q389 646 375 609T339 533T289 455T232 380Q212 353 180 318T118 256T71 230Z" />
</font>
</defs>
</svg>
