<?xml version="1.0" standalone="no"?>
<!DOCTYPE svg PUBLIC "-//W3C//DTD SVG 1.1//EN" "http://www.w3.org/Graphics/SVG/1.1/DTD/svg11.dtd">
<svg xmlns="http://www.w3.org/2000/svg">
<defs >
<font id="Gluten" horiz-adv-x="1008" ><font-face
    font-family="Gluten Thin SemiBold"
    units-per-em="2000"
    panose-1="0 0 0 0 0 0 0 0 0 0"
    ascent="1290"
    descent="-475"
    alphabetic="0" />
<glyph unicode=" " horiz-adv-x="654" />
<glyph unicode="!" horiz-adv-x="498" d="M217 283Q185 283 161 292T119 324T89 382T70 471T59 596T54 761T52 972Q52 1022 53 1063T58 1138T69 1198T87 1244T116 1275T158 1293T216 1299Q248 1299 271 1291T312 1266T339 1225T355 1170T364 1100T367 1016T368
920Q368 815 365 730T354 579T337 463T315 380T287 324T254 293T217 283ZM202 -67Q166 -67 129 -59T65 -28T39 39Q39 81 63 111T125 158T204 174Q237 174 271 164T329 130T353 69Q353 21 331 -9T275 -53T202 -67Z" />
<glyph unicode="&quot;" horiz-adv-x="637" d="M488 808Q466 808 447 821T414 858T389 915T374 991T369 1082Q369 1118 373 1148T386 1203T410 1245T446 1271T496 1280Q517 1280 535 1273T567 1252T590 1218T604 1171T609 1113Q609 1056 604 1009T590 925T566
861T532 822T488 808ZM158 788Q131 788 111 804T75 849T49 915T33 995T28 1082Q28 1121 33 1151T50 1203T78 1239T115 1259T161 1266Q181 1266 197 1257T225 1230T246 1191T259 1142T263 1089Q263 1034 260 988T250 905T231 842T201 802T158 788Z" />
<glyph unicode="#" horiz-adv-x="1813" d="M1198 -61Q1140 -61 1114 -41T1081 18Q1081 36 1081 58T1080 102T1080 143T1080 173Q1080 211 1068 223T1010 235Q947 235 902 235T812 234T703 233Q680 233 666 222T642 188Q638 177 635 159T629 121T624 80T621 44Q618
-5 587 -31T483 -58Q427 -58 402 -38T375 35Q374 56 374 81T375 132T372 174Q362 229 319 232Q305 233 282 234T233 235T185 235T151 235Q85 235 48 257T10 340Q10 385 35 406T117 431Q158 433 204 436T283 444Q312 447 329 456T349 488Q351 509 353 532T357 580T360
631T361 684Q361 710 344 723T296 738Q270 741 224 744T132 749Q77 750 57 777T36 843Q36 882 65 909T161 941Q207 944 254 948T334 958Q375 967 397 994T427 1076Q435 1106 442 1133T458 1184Q477 1225 507 1246T597 1267Q648 1267 679 1248T711 1190Q711 1169
710 1148T709 1106T708 1070T708 1044Q710 1003 728 985T794 967Q853 967 915 968T1029 972T1105 976Q1141 980 1161 1000T1183 1069Q1185 1102 1188 1126T1204 1171Q1223 1207 1257 1223T1332 1240Q1386 1240 1418 1202T1451 1115Q1451 1102 1451 1087T1450 1055T1450
1025T1451 999Q1457 950 1500 947Q1541 946 1587 944T1685 942Q1741 942 1765 919T1789 854Q1789 812 1753 787T1644 761Q1602 761 1561 760T1484 758Q1474 758 1467 751T1454 726T1446 670Q1444 655 1442 638T1439 602T1436 566T1434 534Q1434 497 1448 478T1506
457Q1545 457 1578 454T1637 445Q1683 432 1706 408T1730 352Q1730 302 1703 275T1633 240Q1581 232 1530 229T1422 224Q1381 224 1368 180Q1365 164 1362 146T1356 109T1349 71T1343 34Q1335 3 1322 -18T1281 -50T1198 -61ZM900 441Q931 441 954 442T998 444T1046
445Q1093 448 1110 466T1133 516Q1135 536 1138 562T1143 615T1146 666T1147 707Q1147 741 1130 752T1068 763Q1012 763 965 762T872 760T770 756Q724 755 704 742T680 703Q678 687 676 662T671 608T667 553T665 507Q665 467 685 454T738 441Q776 441 818 441T900
441Z" />
<glyph unicode="$" horiz-adv-x="1109" d="M518 928Q476 928 450 941T413 980T401 1039Q401 1095 408 1136T430 1204T468 1244T521 1257Q545 1257 564 1247T596 1213T616 1152T623 1061Q623 1017 614 987T583 943T518 928ZM515 -58Q488 -58 467 -48T430 -17T407
38T399 118Q399 161 405 193T426 248T465 282T523 293Q550 293 570 284T605 256T627 212T635 152Q635 95 628 55T605 -10T568 -46T515 -58ZM518 123Q444 123 373 128T242 143T138 168Q87 186 55 209T22 277Q22 326 54 354T150 383Q188 383 235 374T339 355T463
345Q519 345 566 352T642 376T671 426Q671 456 652 474T580 506T431 536Q313 555 230 588T103 674T58 799Q58 865 101 912T219 989T388 1033T585 1047Q651 1047 720 1041T847 1020T942 982T978 928Q978 889 957 866T903 832T834 821Q783 821 727 830T618 839Q574
839 538 832T481 809T460 768Q460 743 483 726T557 695T683 669Q791 651 870 619T991 535T1033 403Q1033 330 994 277T884 190T721 140T518 123Z" />
<glyph unicode="%" horiz-adv-x="1532" d="M327 672Q244 672 179 700T75 781T36 903Q36 993 84 1062T212 1169T388 1208Q471 1208 540 1184T650 1108T692 977Q692 908 663 852T583 755T466 694T327 672ZM348 831Q387 831 424 848T486 894T511 959Q511 995 496
1021T448 1063T365 1078Q319 1078 285 1056T233 1001T214 935Q214 895 233 873T284 841T348 831ZM1131 139Q1173 139 1206 155T1258 200T1278 268Q1278 301 1262 326T1215 365T1141 379Q1106 379 1070 363T1009 317T985 241Q985 206 1007 183T1063 150T1131 139ZM1136
-19Q1054 -19 977 2T849 78T799 237Q799 341 856 408T1002 507T1185 540Q1266 540 1328 508T1427 416T1463 280Q1463 192 1420 125T1302 19T1136 -19ZM286 39Q240 39 214 64T188 133Q188 160 215 198T288 285T390 387Q427 421 474 467T574 567T684 679T797 795T905
907T1001 1007T1079 1087Q1129 1138 1174 1172T1264 1206Q1301 1206 1326 1190T1352 1131Q1352 1086 1316 1040T1222 940Q1163 885 1096 817T958 673T814 519T670 364T531 220Q494 182 449 140T361 69T286 39Z" />
<glyph unicode="&amp;" horiz-adv-x="1479" d="M579 -114Q433 -114 317 -72T132 55T64 271Q64 357 90 422T161 534T257 615T361 670Q411 691 440 704T483 727T497 742Q497 749 491 755T473 770Q438 794 404 834T348 926T325 1034Q325 1131 378 1188T520 1271T711
1297Q808 1297 891 1265T1026 1172T1078 1020Q1078 950 1050 899T975 810T872 746Q853 737 845 728T837 711Q837 702 865 668T933 589Q957 562 981 538T1025 498T1056 482Q1070 482 1083 506T1111 562Q1138 620 1170 642T1239 665Q1276 665 1301 642T1327 581Q1327
559 1319 530T1295 469T1254 405Q1236 379 1230 365T1224 337Q1224 321 1239 305T1291 257Q1329 231 1363 199T1420 132T1442 65Q1442 1 1402 -25T1308 -51Q1260 -51 1225 -27T1160 36Q1137 66 1119 85T1087 104Q1076 104 1064 95T1030 60Q1005 28 965 -3T870 -60T742
-99T579 -114ZM615 136Q673 136 725 153T816 197T878 252T901 303Q901 314 888 334T849 382T792 444Q764 474 737 500T689 544T654 561Q637 561 603 550T531 516T457 464T399 395T376 311Q376 253 409 214T497 156T615 136ZM687 829Q711 829 738 844T790 885T829
943T845 1008Q845 1067 810 1100T702 1133Q668 1133 636 1121T584 1083T563 1018Q563 986 576 953T611 892T653 846T687 829Z" />
<glyph unicode="&apos;" horiz-adv-x="364" d="M175 823Q146 823 124 846T88 908T66 994T58 1093Q58 1144 62 1179T80 1236T118 1268T182 1278Q211 1278 233 1268T270 1238T292 1189T300 1122Q300 1038 292 981T268 889T229 839T175 823Z" />
<glyph unicode="(" horiz-adv-x="712" d="M553 -420Q470 -420 402 -376T281 -259Q226 -193 184 -109T113 70T68 263T52 455Q52 583 77 704T149 930T266 1118Q310 1169 360 1209T460 1272T547 1295Q596 1295 633 1271T670 1185Q670 1151 654 1117T606 1036T526
922Q475 850 445 771T403 610T390 446Q390 343 414 243T486 51T598 -123Q628 -162 647 -205T667 -289Q667 -341 641 -380T553 -420Z" />
<glyph unicode=")" horiz-adv-x="667" d="M160 -406Q124 -406 92 -391T40 -346T19 -277Q19 -218 43 -163T118 -48Q154 -14 187 31T249 129T300 244T334 370T346 504Q346 624 315 731T216 917Q169 971 127 1013T57 1089T29 1155Q29 1203 48 1233T101 1279T175 1294Q217
1294 268 1271T371 1208T464 1120Q525 1048 566 962T628 773T649 547Q649 444 629 332T570 109T479 -96T365 -260Q320 -324 267 -365T160 -406Z" />
<glyph unicode="*" horiz-adv-x="1043" d="M512 463Q470 463 445 487T419 562Q419 578 419 600T419 644T419 686T417 715Q414 745 408 755T389 766Q379 766 353 750T292 710T220 662T152 620Q122 604 94 604Q61 604 41 627T21 678Q21 695 29 712T58 743Q86 761
128 783T213 826T284 863T313 887Q313 894 295 903T246 924T178 948T102 971Q72 978 54 1001T35 1051Q35 1078 48 1099T82 1133T129 1146Q144 1146 162 1142T201 1125Q232 1108 274 1086T352 1047T400 1030Q411 1030 415 1044T421 1083Q422 1096 422 1110T422 1140T422
1170T422 1199Q422 1245 446 1272T528 1299Q571 1299 584 1275T598 1207Q598 1192 598 1174T598 1136T600 1099Q603 1073 612 1056T642 1038Q655 1038 678 1048T729 1075T790 1109T853 1140Q881 1151 906 1151Q932 1151 953 1137T986 1100T999 1054Q999 1035 987
1018T951 989Q929 977 889 964T807 938T737 913T708 892Q708 884 727 872T777 845T839 815T897 785T937 759Q961 739 971 718T982 665Q982 637 956 617T895 596Q874 596 855 605T819 628Q795 648 767 676T710 731T658 776T617 794Q603 794 600 779T597 734Q597
719 598 700T600 661T603 621T604 584Q604 526 585 495T512 463Z" />
<glyph unicode="+" horiz-adv-x="1145" d="M573 171Q524 171 501 209T461 306Q458 319 456 331T453 354T450 375T447 394Q440 439 428 460T393 489T332 496Q317 496 293 496T242 497T189 500T145 504Q92 515 58 541T24 616Q24 649 48 671T114 705T207 721Q247
723 284 726T350 733T395 744Q415 751 424 769T436 830Q437 845 438 859T440 889T444 921T448 954Q466 1028 495 1054T589 1081Q628 1081 657 1051T697 987Q702 969 705 951T710 916T712 882T714 850Q714 800 727 772T767 743Q790 741 825 739T898 732T971 723T1027
713Q1077 698 1099 673T1121 616Q1121 576 1093 556T1011 524Q973 517 931 513T848 507T775 504Q744 503 724 481T703 400Q703 386 702 371T698 342T694 315T689 289Q678 240 648 206T573 171Z" />
<glyph unicode="," horiz-adv-x="542" d="M217 -281Q172 -276 163 -257T161 -211Q173 -186 187 -154T211 -92Q221 -70 226 -52T228 -26Q223 -20 214 -19T189 -17Q162 -17 140 -10T103 17Q85 31 71 49T53 93T65 152Q83 201 123 225T210 250T300 235Q382 207 418
141T439 -30Q434 -66 420 -102T384 -169T339 -223Q311 -251 280 -267T217 -281Z" />
<glyph unicode="-" horiz-adv-x="1256" d="M531 461Q416 461 321 466T156 487T48 531T10 604Q10 661 43 694T147 744T328 766T593 771Q746 771 863 768T1060 749T1180 701T1221 606Q1221 555 1176 525T1044 482T828 465T531 461Z" />
<glyph unicode="." horiz-adv-x="520" d="M249 -33Q180 -33 132 -9T59 53T34 136Q34 193 72 232T168 293T281 314Q331 314 370 295T432 239T455 153Q455 99 428 57T354 -9T249 -33Z" />
<glyph unicode="/" horiz-adv-x="1242" d="M130 39Q85 39 59 64T32 133Q32 160 59 198T132 285T234 387Q271 421 318 467T418 567T528 679T641 795T749 907T845 1007T923 1087Q974 1138 1019 1172T1108 1206Q1145 1206 1170 1190T1196 1131Q1196 1086 1160 1040T1066
940Q1007 885 941 817T803 673T659 519T514 364T376 220Q338 182 293 140T205 69T130 39Z" />
<glyph unicode="0" horiz-adv-x="1052" d="M468 -47Q382 -47 314 -17T193 69T106 199T54 363T36 551Q36 699 67 826T161 1050T318 1200T536 1254Q646 1254 730 1212T871 1094T957 912T986 679Q986 570 969 465T913 267T815 104T668 -7T468 -47ZM489 310Q531 310
565 330T626 385T669 464T696 557T705 653Q705 704 696 752T668 839T617 901T544 924Q491 924 451 897T384 823T344 717T331 596Q331 554 337 513T357 436T390 371T434 326T489 310Z" />
<glyph unicode="1" horiz-adv-x="741" d="M401 -67Q314 -67 265 -21T215 109Q215 143 218 193T226 305T237 433T249 564T260 687T268 792T271 866Q271 897 264 910T230 931Q211 936 188 934T143 929T106 931Q80 945 67 963T53 1008Q53 1048 92 1089T190 1165T313
1221T426 1242Q496 1242 538 1199T600 1086T628 930T635 763Q635 723 634 677T630 581T624 480T616 377T608 276T598 183T587 101Q566 16 523 -25T401 -67Z" />
<glyph unicode="2" horiz-adv-x="1119" d="M301 -36Q231 -27 177 -10T91 43T59 144Q59 201 79 251T171 345Q217 378 278 422T406 516T532 616Q576 652 609 688T660 761T679 832Q679 899 640 927T534 956Q466 956 413 933T324 877Q300 854 276 832T227 796T177
781Q135 781 99 810T63 893Q63 960 101 1021T207 1129T363 1204T552 1232Q645 1232 728 1215T876 1158T978 1052T1016 888Q1016 826 996 773T942 671T862 576Q830 545 791 511T712 446T634 387T566 341Q540 324 528 310T515 281Q515 271 527 266T561 259T605 257Q645
257 702 265T817 282T913 291Q972 291 1008 264T1044 186Q1044 119 1012 76T920 7T775 -29T586 -44Q517 -46 443 -46T301 -36Z" />
<glyph unicode="3" horiz-adv-x="1164" d="M522 -85Q426 -85 338 -70T182 -26T74 41T34 130Q34 173 47 200T81 241T124 261T165 267Q214 267 269 247T386 207T519 187Q571 187 615 194T691 218T742 257T760 313Q760 356 735 383T668 429T570 460Q522 472 484 490T423
535T401 599Q401 649 437 675T528 718Q576 733 615 751T676 797T699 863Q699 907 675 931T606 964T498 974Q432 974 371 964T261 942T183 931Q120 931 85 966T50 1051Q50 1098 90 1133T199 1193T354 1229T531 1241Q700 1241 811 1202T977 1090T1032 917Q1032 865
1013 822T961 745T885 689Q852 665 838 649T824 614Q824 594 846 580T905 550Q953 531 999 499T1075 415T1105 282Q1105 196 1069 128T960 12T778 -60T522 -85Z" />
<glyph unicode="4" horiz-adv-x="1126" d="M712 -44Q657 -44 617 -18T576 77Q576 93 576 113T577 154T576 196T574 232Q569 276 546 296T450 319Q382 321 314 326T193 341Q141 351 112 385T70 470T57 584Q57 632 65 689T87 804T116 916T146 1011Q163 1060 185
1099T239 1161T319 1185Q349 1185 370 1176T403 1146T414 1093Q414 1064 408 1028T392 951T372 865T356 778T349 695Q349 653 353 630T369 595T399 578Q423 570 460 568T536 565Q576 565 593 581T610 645Q610 661 611 692T615 765T619 852T624 939T629 1017T633
1072Q643 1134 671 1174T755 1215Q792 1215 816 1201T856 1155T879 1067Q882 1045 884 1014T887 946T888 868T889 783T889 695T889 608Q889 578 901 564T938 550Q968 550 993 550T1041 546Q1068 538 1083 520T1099 458Q1099 396 1077 375T1017 347Q996 344 968
339T915 328Q890 322 881 306T868 248Q865 221 862 189T856 124T846 65Q834 11 801 -16T712 -44Z" />
<glyph unicode="5" horiz-adv-x="1053" d="M298 -22Q248 -22 206 -18T131 -3Q82 12 53 41T24 119Q24 188 68 222T194 256Q220 256 264 255T347 254Q408 254 465 261T567 288T640 338T667 417Q667 484 627 511T507 538Q441 538 383 525T248 511Q150 511 96 557T41
698Q41 753 50 812T76 929T112 1031Q143 1098 181 1136T278 1190T429 1206Q486 1206 535 1205T638 1203T761 1202Q813 1202 859 1194T936 1159T966 1081Q966 1032 930 1007T836 974T711 966Q664 966 599 968T483 970Q433 970 409 956T375 910Q370 893 364 871T354
824T349 777Q349 754 355 744T374 731T408 728Q430 728 462 733T534 744T620 749Q740 749 826 713T958 602T1004 417Q1004 296 949 212T798 77T573 2T298 -22Z" />
<glyph unicode="6" horiz-adv-x="1136" d="M579 -33Q443 -33 345 2T183 108T88 290T57 552Q57 658 79 759T139 948T223 1096Q267 1152 321 1184T438 1216Q499 1216 532 1189T566 1100Q566 1061 549 1029T510 963Q492 938 474 903T440 831T416 758T406 695Q406
684 410 679T419 673Q429 673 451 689T512 725Q560 749 615 761T725 773Q831 773 911 727T1035 601T1079 417Q1079 319 1043 237T941 94T782 0T579 -33ZM564 194Q627 194 673 219T746 288T772 382Q772 438 747 474T682 527T594 545Q546 545 501 528T426 476T397
383Q397 340 408 305T440 245T493 207T564 194Z" />
<glyph unicode="7" horiz-adv-x="1022" d="M352 -32Q311 -32 275 -20T215 22T192 105Q192 199 209 281T256 432T325 558T406 661Q454 716 498 760T576 841T630 907T650 962Q650 994 618 1005T530 1017Q461 1017 386 1010T245 995T144 987Q89 987 59 1002T29 1077Q29
1125 71 1163T188 1226Q233 1239 296 1248T428 1261T557 1266Q655 1266 735 1258T874 1224T964 1150T996 1020Q996 963 968 905T895 788T800 673T704 558Q639 482 589 375T522 126Q514 78 494 42T440 -13T352 -32Z" />
<glyph unicode="8" horiz-adv-x="1274" d="M634 -25Q509 -25 402 -8T214 49T89 158T44 331Q44 394 66 451T124 550T204 608Q231 618 243 625T255 641Q255 649 244 657T214 673Q156 700 126 755T95 868Q95 959 141 1026T267 1137T446 1202T650 1224Q750 1224 845
1200T1018 1130T1141 1017T1187 863Q1187 814 1169 771T1121 695T1053 640Q1040 633 1034 628T1027 613Q1027 606 1032 600T1055 584Q1107 559 1140 521T1191 434T1208 326Q1208 230 1161 163T1033 54T849 -6T634 -25ZM632 209Q704 209 757 227T839 279T869 361Q869
424 841 462T762 518T644 536Q565 536 506 519T415 463T383 362Q383 311 416 277T507 226T632 209ZM627 721Q676 721 718 732T793 762T843 809T861 868Q861 902 844 931T797 982T726 1015T637 1027Q569 1027 516 1006T431 947T399 864Q399 835 416 810T464 764T537
732T627 721Z" />
<glyph unicode="9" horiz-adv-x="1102" d="M381 -39Q320 -39 286 -24T238 18T224 80Q224 131 253 161T346 209Q379 221 422 241T510 288T591 343T652 403T676 463Q676 479 672 486T656 494Q644 494 616 480Q593 466 547 451T431 435Q320 435 236 476T105 599T57
798Q57 895 97 969T206 1092T364 1167T551 1193Q699 1193 811 1146T987 999T1051 744Q1051 590 1001 460T855 224T623 38Q565 2 504 -18T381 -39ZM537 649Q577 649 613 662T679 699T725 757T742 835Q742 886 716 921T647 975T551 994Q493 994 449 972T379 910T353
811Q353 762 379 726T448 669T537 649Z" />
<glyph unicode=":" horiz-adv-x="456" d="M202 60Q160 60 121 77T58 125T33 196Q33 236 56 267T115 317T192 335Q237 335 278 318T347 269T374 192Q374 148 348 119T283 75T202 60ZM214 649Q176 649 143 663T89 701T68 758Q68 791 86 821T142 870T241 889Q274
889 308 876T365 838T388 780Q388 739 363 710T299 665T214 649Z" />
<glyph unicode=";" horiz-adv-x="510" d="M223 641Q155 641 106 676T56 763Q56 811 98 849T223 887Q297 887 341 850T385 755Q385 715 360 690T297 653T223 641ZM205 -208Q169 -204 162 -185T161 -142Q170 -119 181 -89T200 -31Q209 -9 213 8T214 34Q210 39 203
41T182 43Q161 43 143 48T114 70Q91 88 78 117T83 198Q97 246 129 271T199 301T272 290Q338 266 366 204T383 40Q376 -13 354 -64T303 -149Q281 -177 255 -194T205 -208Z" />
<glyph unicode="&lt;" horiz-adv-x="795" d="M631 203Q585 203 521 223T390 270Q326 296 260 332T139 412T49 502T14 597Q14 644 36 691T97 783T185 872T286 953Q318 977 365 1004T462 1055T559 1095T638 1111Q684 1111 709 1096T735 1033Q735 995 706 960T628
889T521 815Q491 797 459 773T400 724T356 675T339 632Q339 615 356 594T401 552T465 512T533 480Q652 433 703 395T754 315Q754 262 723 233T631 203Z" />
<glyph unicode="=" horiz-adv-x="999" d="M297 717Q220 717 156 730T55 771T17 841Q17 872 48 895T129 934T242 957T366 965Q408 965 462 964T576 961T692 954T792 941Q861 929 901 907T942 849Q942 815 902 792T796 754Q743 743 678 736T544 725T411 719T297
717ZM347 270Q290 270 234 278T132 302T59 343T31 403Q31 456 75 481T191 514T349 522Q392 522 446 522T558 519T669 513T763 499Q839 482 875 459T911 406Q911 370 851 339T682 290Q651 284 608 281T517 275T426 271T347 270Z" />
<glyph unicode="&gt;" horiz-adv-x="796" d="M229 211Q181 211 150 237T119 301Q119 333 145 365T227 433Q254 449 289 473T363 526T433 584T486 641T506 688Q506 711 485 736T428 787T348 836T255 881T163 918Q124 935 94 953T48 996T32 1056Q32 1100 67 1115T147
1130Q185 1130 239 1114T353 1073T466 1020T558 969Q608 940 653 902T727 816T756 712Q756 665 733 616T674 521T601 438Q546 385 479 333T346 246T229 211Z" />
<glyph unicode="?" horiz-adv-x="1060" d="M439 286Q399 286 370 297T324 337T307 422Q307 485 332 538T406 637T523 723Q581 758 627 791T699 858T726 932Q726 974 701 1000T630 1038T523 1050Q479 1050 428 1039T332 1009T259 964Q223 944 192 932T126 920Q95
920 72 937T49 999Q49 1029 65 1056T109 1108Q158 1158 226 1194T374 1249T534 1268Q639 1268 726 1247T876 1184T974 1080T1009 937Q1009 862 978 805T892 705T771 627Q724 602 680 574T605 508T564 421Q549 353 526 320T439 286ZM404 -64Q343 -64 306 -36T269
46Q269 105 310 139T404 173Q444 173 479 163T538 127T561 56Q561 7 525 -28T404 -64Z" />
<glyph unicode="@" horiz-adv-x="1966" d="M848 -80Q680 -80 531 -42T266 74T86 268T20 540Q20 673 69 788T208 997T421 1156T690 1257T1000 1292Q1211 1292 1380 1248T1671 1115T1856 889T1921 567Q1921 463 1883 392T1772 286T1599 250Q1499 250 1432 290T1316
417Q1302 441 1290 456T1266 472Q1252 472 1233 448T1173 391T1057 335T855 310Q764 310 690 340T573 426T530 558Q530 637 571 698T683 802T842 866T1024 888Q1142 888 1226 860T1366 761T1461 563Q1473 505 1501 474T1573 443Q1609 443 1631 458T1664 500T1675
565Q1675 645 1652 721T1580 865T1452 983T1266 1062T1014 1091Q889 1091 782 1066T588 994T441 879T348 726T315 540Q315 434 356 354T470 220T642 139T852 112Q945 112 1015 129T1138 167Q1186 184 1222 194T1284 205Q1324 205 1346 183T1368 119Q1368 89 1344
61T1272 7T1155 -39Q1085 -59 1007 -69T848 -80ZM936 478Q976 478 1012 490T1077 524T1122 574T1139 635Q1139 695 1100 725T978 756Q936 756 897 744T826 712T777 663T758 602Q758 564 779 536T841 493T936 478Z" />
<glyph unicode="A" horiz-adv-x="1555" d="M1298 -40Q1243 -40 1201 -20T1125 47Q1116 68 1107 93T1088 146T1068 199T1042 249Q1025 279 1004 295T947 317Q932 321 903 323T840 328T773 330Q726 330 677 327T591 320Q557 315 538 303T505 266Q492 243 479 211T452
145T424 78Q397 32 357 5T242 -22Q181 -22 140 -4T78 57T58 172Q58 224 71 288T106 424T157 564T214 698T269 812T315 894Q349 950 394 1004T496 1104T625 1176T781 1204Q911 1204 1022 1137T1223 952Q1258 909 1292 846T1356 708T1413 552T1458 394T1487 247T1498
126Q1498 34 1444 -3T1298 -40ZM966 558Q986 565 993 579T1000 624Q1000 649 992 684T970 758T938 829Q913 877 878 908T804 939Q755 939 713 901T641 808Q629 788 617 761T594 706T576 653T569 608Q569 576 596 563T671 549Q746 549 802 550T898 553T966 558Z"
/>
<glyph unicode="B" horiz-adv-x="1317" d="M564 -65Q448 -65 364 -55T224 -15T139 71T100 220Q96 264 94 319T90 435T89 557T90 673T94 772Q99 933 156 1025T327 1157T620 1196Q713 1196 806 1180T977 1128T1101 1031T1148 881Q1148 817 1126 774T1072 706T1007
666Q972 650 948 641T923 624Q923 617 952 611T1026 591Q1097 570 1149 533T1231 441T1261 313Q1261 246 1228 184T1146 79Q1106 45 1041 18T896 -27T731 -55T564 -65ZM569 186Q641 186 705 195T817 225T893 277T921 352Q921 387 895 410T825 447T730 468T627 477T533
479Q518 479 502 474T473 454T451 413T443 344Q443 303 447 274T464 225T502 196T569 186ZM478 706Q531 706 576 709T659 720T733 737Q786 753 817 782T848 865Q848 899 827 924T769 967T690 994T605 1003Q569 1003 537 996T482 974T448 938Q443 927 439 909T433
870T429 827T427 788Q427 748 438 727T478 706Z" />
<glyph unicode="C" horiz-adv-x="1247" d="M667 -69Q530 -69 418 -32T226 78T102 254T58 491Q58 646 105 773T241 993T458 1135T747 1185Q823 1185 890 1170T1008 1127T1087 1062T1116 981Q1116 921 1087 890T1008 859Q978 859 954 867T903 885T838 903T745 911Q694
911 648 889T566 822T508 714T487 567Q487 502 501 445T547 343T629 274T752 248Q801 248 840 261T912 293T974 325T1035 339Q1115 339 1144 302T1174 203Q1174 141 1135 91T1027 6T865 -49T667 -69Z" />
<glyph unicode="D" horiz-adv-x="1402" d="M378 -28Q284 -28 227 -2T140 76T97 211Q86 273 82 353T78 529Q78 657 84 767T112 964Q142 1085 212 1154T419 1224Q575 1224 714 1185T969 1080T1169 931T1299 756T1345 578Q1345 479 1296 389T1159 223T950 91T684
4T378 -28ZM544 329Q624 329 688 346T802 392T884 457T935 533T952 609Q952 642 933 679T877 752T788 817T672 863T531 881Q505 881 489 862T464 807Q457 778 454 741T450 660Q450 574 453 511T466 408Q485 329 544 329Z" />
<glyph unicode="E" horiz-adv-x="1152" d="M528 -54Q407 -54 315 -10T165 125T91 359Q87 391 85 425T81 495T79 570T78 651Q78 829 116 945T229 1129T419 1223T685 1251Q760 1251 828 1244T948 1222T1030 1181T1060 1120Q1060 1080 1037 1056T979 1022Q948 1016
899 1014T794 1012T686 1012Q623 1011 581 1002T514 971T478 914T467 827Q467 798 475 781T512 756T600 749Q622 749 648 749T702 751T755 753T801 754Q875 754 908 726T941 647Q941 570 898 541T793 512Q768 512 741 512T688 512T636 513T592 513Q528 513 496
507T454 486T443 441Q443 398 448 364T466 305T502 264T559 239T644 230Q700 230 756 233T860 238T937 241Q997 241 1026 213T1055 132Q1055 75 1005 39T876 -18T704 -46T528 -54Z" />
<glyph unicode="F" horiz-adv-x="1156" d="M339 -32Q296 -32 264 -12T209 41T167 111Q152 149 139 204T114 323T94 453T82 580T78 686Q78 794 98 881T157 1036T252 1151Q326 1214 428 1243T655 1272Q733 1272 813 1258T960 1219T1068 1157T1109 1075Q1109 1036
1090 1015T1037 984Q996 976 931 978T784 981Q698 981 645 961T562 906Q544 888 534 863T518 805T513 735Q513 713 517 696T531 667T553 649T584 642Q618 642 660 643T743 646T820 646T876 641Q910 632 927 615T945 567Q945 548 939 530T918 494Q897 469 854 455T735
431T546 404Q505 399 491 374T476 309Q476 293 477 267T479 209T480 146T479 89T474 49Q455 3 420 -14T339 -32Z" />
<glyph unicode="G" horiz-adv-x="1527" d="M753 -79Q596 -79 468 -37T248 89T107 300T58 597Q58 745 102 855T225 1041T404 1165T619 1233T847 1254Q921 1254 993 1241T1124 1202T1219 1140T1254 1058Q1254 1000 1217 971T1121 941Q1088 941 1059 948T997 965T922
982T820 989Q738 989 672 962T559 882T487 757T461 592Q461 464 504 379T630 252T831 209Q879 209 921 218T996 245T1047 291T1065 359Q1065 394 1044 420T981 463T873 487Q800 496 755 524T710 616Q710 667 747 697T848 740T992 753Q1098 753 1184 733T1331 669T1426
560T1459 401Q1459 260 1406 167T1256 20T1032 -56T753 -79Z" />
<glyph unicode="H" horiz-adv-x="1460" d="M1136 -31Q1071 -31 1042 -11T1002 55Q1000 81 999 110T997 169T996 228T995 282T994 326Q993 376 985 403T955 442Q932 456 887 463T744 470Q691 470 657 469T601 464T565 457T539 446Q526 440 514 427T495 390Q491
377 488 359T482 320T477 273T472 214T467 144Q459 81 440 46T385 -3T298 -17Q220 -17 177 34T111 166Q102 204 96 253T85 358T80 466T78 567Q78 630 80 689T86 802T97 905T113 997Q131 1073 159 1126T229 1209T329 1238Q395 1238 429 1206T478 1104Q481 1081 484
1057T490 1010T496 965T502 926T508 898Q515 862 526 838T559 802Q588 790 637 786T743 781Q793 781 834 781T906 785T953 799Q972 809 984 832T1001 907Q1004 931 1006 959T1012 1018T1021 1081T1035 1147Q1050 1207 1083 1235T1166 1263Q1240 1263 1281 1221T1344
1093Q1354 1061 1361 1016T1373 914T1380 796T1383 667Q1383 612 1381 554T1374 440T1363 331T1350 234T1333 151Q1310 61 1260 15T1136 -31Z" />
<glyph unicode="I" horiz-adv-x="605" d="M296 -18Q195 -18 147 46T98 216Q98 258 98 314T99 438T103 577T108 721T117 859T129 982Q147 1091 189 1141T325 1191Q401 1191 438 1143T486 1017Q490 979 493 925T498 807T502 677T504 548T505 430T505 338Q505 208
487 130T425 17T296 -18Z" />
<glyph unicode="J" horiz-adv-x="1238" d="M541 -79Q456 -79 379 -65T237 -21T127 55Q88 95 64 146T28 252T16 362Q16 410 31 447T73 510T134 549T209 563Q245 563 272 545T313 484Q322 443 332 408T357 343Q378 299 413 279T496 258Q543 258 571 269T621 306Q645
334 660 376T682 474T689 600Q689 649 687 702T682 807T676 906T671 993T669 1058Q669 1112 684 1152T745 1215T878 1238Q944 1238 992 1212T1074 1137Q1090 1113 1102 1081T1125 1010T1141 924T1151 824T1155 710Q1155 585 1141 490T1103 321T1045 193T972 95Q888
2 774 -38T541 -79Z" />
<glyph unicode="K" horiz-adv-x="1406" d="M315 -20Q211 -20 162 29T94 175Q89 214 86 259T82 351T80 446T82 537Q84 640 95 745T131 949T197 1128Q234 1189 292 1217T430 1245Q499 1245 539 1204T579 1095Q579 1064 577 1027T571 951T564 879T560 820T559 783Q564
765 573 757T605 749Q621 749 641 760T685 795Q736 844 814 914T967 1044Q1042 1105 1102 1136T1224 1167Q1275 1167 1306 1147T1352 1095T1367 1027Q1367 1006 1358 983T1332 936T1290 886T1232 834Q1190 802 1140 768T1038 703T944 649Q901 628 881 614T861 587Q861
575 869 563T901 531Q919 517 948 493T1011 439T1079 382T1139 332T1177 297Q1242 239 1270 197T1298 123Q1298 72 1276 41T1214 -4T1125 -19Q1076 -19 1017 7T885 93Q826 146 785 186T715 259T665 317T623 366Q598 403 583 422T556 448T533 456Q519 456 513 444T507
408Q507 402 507 383T507 337T505 285T503 236T501 201Q490 83 446 32T315 -20Z" />
<glyph unicode="L" horiz-adv-x="1210" d="M352 -49Q196 -18 137 88T78 372Q78 418 81 474T89 592T100 712T114 823T128 910Q157 1058 216 1136T373 1215Q440 1215 472 1189T514 1116T524 1005Q524 977 523 943T521 872T519 794T518 715T517 639T519 568Q522 506
531 463T562 392T620 353T718 338Q797 332 867 325T982 311Q1027 311 1063 306T1119 287Q1139 274 1148 253T1158 195Q1158 135 1125 93T1038 22T916 -26Q852 -43 764 -53T587 -64Q547 -64 504 -63T422 -58T352 -49Z" />
<glyph unicode="M" horiz-adv-x="1791" d="M301 -48Q226 -48 190 -12T128 97Q114 139 105 187T90 289T81 398T79 511Q79 575 84 641T98 771T120 887T149 975Q185 1055 239 1100T360 1163T495 1182Q566 1182 621 1159T713 1089Q732 1064 750 1028T784 949T814 861T839
774Q850 727 864 691T906 655Q935 655 950 688T977 764Q986 807 997 852T1022 939T1051 1020T1083 1088Q1118 1135 1169 1160T1308 1185Q1379 1185 1436 1163T1538 1100T1615 1001Q1646 949 1667 875T1699 713T1712 530Q1712 478 1711 425T1707 320T1698 219T1680
123Q1657 50 1611 18T1484 -15Q1435 -15 1407 6T1368 61Q1365 85 1362 113T1355 172T1348 234T1342 296Q1339 351 1334 405T1322 502T1307 571Q1294 618 1275 643T1220 669Q1186 669 1163 640T1127 561Q1123 543 1118 517T1106 458T1092 392T1079 325T1065 264Q1046
197 1008 162T900 126Q820 126 785 168T718 286Q711 307 703 339T686 408T668 482T650 553T634 611Q621 657 604 678T559 699Q523 699 507 668T481 573Q478 553 475 525T471 462T469 386T467 301Q467 256 466 217T463 143T456 83T443 36Q424 -4 389 -26T301 -48Z"
/>
<glyph unicode="N" horiz-adv-x="1577" d="M309 -48Q251 -48 214 -22T151 50Q138 75 128 121T109 226T95 350T85 478T80 595T78 685Q78 836 99 944T177 1111T338 1169Q405 1169 460 1135T579 1027T735 836Q846 687 923 606T1037 524Q1055 524 1066 530T1084 557T1095
615Q1097 633 1098 666T1101 743T1105 831T1109 917T1114 990T1120 1034Q1140 1102 1179 1129T1290 1157Q1344 1157 1381 1139T1441 1086T1474 998T1486 877Q1486 842 1486 790T1484 675T1480 546T1472 417T1460 301T1443 210Q1423 131 1391 79T1308 2T1185 -24Q1123
-24 1055 23T914 152T763 338Q712 405 672 458T601 547T550 603T516 622Q488 622 476 594T464 478Q464 444 465 405T467 323T470 241T470 162T468 92T462 36Q442 -10 404 -29T309 -48Z" />
<glyph unicode="O" horiz-adv-x="1619" d="M724 -106Q580 -106 458 -64T247 57T108 250T58 507Q58 645 100 755T216 947T389 1084T601 1166T833 1193Q985 1193 1117 1150T1350 1026T1506 829T1562 570Q1562 411 1496 286T1313 73T1045 -60T724 -106ZM796 285Q927
285 1006 327T1120 439T1156 586Q1156 660 1131 718T1061 818T957 882T829 905Q764 905 704 885T596 828T522 738T494 621Q494 547 516 486T579 380T675 310T796 285Z" />
<glyph unicode="P" horiz-adv-x="1296" d="M372 -22Q323 -22 281 0T205 65T144 172Q135 201 127 240T111 327T97 423T87 522T81 617T78 699Q78 886 130 995T296 1151T596 1198Q726 1198 844 1175T1054 1102T1199 971T1252 775Q1252 688 1218 623T1123 513T976
444T791 416Q725 413 669 419T562 426Q531 426 524 404T516 343Q516 327 516 307T518 265T520 220T522 179T523 144Q523 62 487 20T372 -22ZM569 625Q617 625 665 630T756 647T832 678T884 726T903 791Q903 832 886 861T840 909T779 940T714 957T656 962Q611 962
578 955T522 933T489 894T478 836Q478 794 481 760T490 701T507 659T533 634T569 625Z" />
<glyph unicode="Q" horiz-adv-x="1582" d="M1325 -203Q1265 -203 1212 -167Q1182 -141 1147 -98T1079 -7Q1066 15 1051 23T1018 31Q990 31 948 17T841 -13T685 -28Q546 -28 431 14T232 135T103 325T58 573Q58 717 113 834T267 1034T494 1162T769 1207Q908 1207
1030 1167T1244 1052T1389 870T1442 633Q1442 562 1430 499T1392 382T1327 292Q1300 267 1300 246Q1300 232 1324 216T1395 177Q1419 157 1443 134T1487 85T1519 30T1531 -34Q1531 -84 1501 -122T1424 -182T1325 -203ZM744 344Q837 344 909 376T1022 470T1063 619Q1063
708 1031 770T933 866T764 900Q698 900 641 879T540 819T472 727T447 612Q447 549 469 499T531 415T625 362T744 344Z" />
<glyph unicode="R" horiz-adv-x="1265" d="M292 -42Q217 -42 166 -5T87 103Q77 131 70 172T57 262T48 364T43 466T42 557Q42 711 66 826T138 1020T257 1148T422 1219T631 1241Q737 1241 835 1217T1010 1145T1133 1027T1179 865Q1179 788 1151 737T1076 653T975
604T869 576Q841 571 826 563T811 541Q811 531 830 513T878 469T940 414T1001 353Q1022 330 1048 302T1101 243T1148 186T1183 137T1196 105Q1196 63 1170 34T1102 -9T1013 -24Q972 -24 930 -8T847 39T767 112T690 205Q641 269 599 317T528 394T485 423Q477 423
473 417T466 394T464 351T463 286Q463 270 463 247T464 199T464 149T462 104T459 73Q446 8 399 -17T292 -42ZM558 683Q584 683 620 688T693 707T763 742T814 795T834 869Q834 910 815 940T763 989T690 1017T608 1026Q564 1026 535 1014T487 978T459 917Q453 895
449 872T443 825T441 775Q441 741 452 721T490 692T558 683Z" />
<glyph unicode="S" horiz-adv-x="1217" d="M509 -49Q419 -49 333 -37T176 -1T64 61T22 153Q22 206 46 235T110 276T196 288Q211 288 241 279T311 260T401 250Q463 250 509 254T588 272T636 308T652 368Q652 401 634 426T584 472T508 511T413 550Q341 577 278 609T167
683T92 777T65 896Q65 975 103 1034T205 1134T350 1200T515 1236T678 1248Q757 1248 829 1238T957 1206T1046 1154T1079 1080Q1079 1035 1058 1006T1002 964T927 950Q907 950 881 960T818 981T728 992Q692 992 658 987T597 970T553 937T537 884Q537 851 555 826T604
779T679 739T773 700Q842 673 907 637T1026 554T1110 448T1141 314Q1141 216 1091 147T952 34T750 -29T509 -49Z" />
<glyph unicode="T" horiz-adv-x="1404" d="M665 -52Q585 -52 544 -10T494 116Q491 146 490 191T487 290T486 403T486 522T487 637T487 738Q487 808 472 835T402 862Q345 862 289 854T175 845Q135 845 104 861T55 910T37 987Q37 1039 80 1076T197 1138T367 1177T569
1198T779 1204Q863 1204 947 1201T1105 1187T1237 1154T1327 1095T1361 1000Q1361 949 1343 914T1291 860T1205 841Q1150 841 1120 843T1047 845Q986 845 958 833T921 787T908 690Q907 651 904 608T897 520T888 428T877 336T865 250T852 171T838 105Q817 48 797
14T746 -36T665 -52Z" />
<glyph unicode="U" horiz-adv-x="1426" d="M681 -39Q452 -39 304 78T89 392Q77 427 68 465T53 542T43 623T36 708T34 796Q34 927 57 1011T132 1135T272 1176Q331 1176 369 1146T425 1046T444 855Q444 819 445 783T448 713T454 647T464 586T478 529Q501 448 549
399T681 349Q735 349 776 371T846 434T895 528Q907 562 916 600T930 680T937 765T940 851Q940 968 962 1037T1029 1137T1140 1168Q1215 1168 1255 1130T1309 1010T1324 799Q1324 753 1322 710T1315 624T1303 541T1285 462T1262 387Q1216 257 1135 162T941 14T681
-39Z" />
<glyph unicode="V" horiz-adv-x="1544" d="M722 -27Q666 -27 613 4T511 85T420 190Q380 238 336 305T250 448T169 605T101 761T54 905T37 1021Q37 1107 99 1154T254 1201Q334 1201 391 1167T475 1052Q492 995 512 929T553 797T595 670T634 565Q664 493 689 451T734
409Q759 409 790 448T857 559Q879 598 904 649T954 758T1004 875T1051 991Q1080 1069 1119 1108T1206 1160T1313 1174Q1369 1174 1412 1152T1481 1094T1506 1012Q1506 968 1484 904T1423 763T1336 606T1237 448T1136 303T1045 189Q990 127 937 79T831 2T722 -27Z"
/>
<glyph unicode="W" horiz-adv-x="1932" d="M450 -1Q371 -1 311 33T209 131T137 282Q119 333 106 393T84 521T69 659T61 797T58 928Q58 979 64 1030T90 1124T149 1193T254 1219Q356 1219 399 1176T451 1055Q453 1006 455 959T461 868T467 780T474 694T483 608Q492
533 510 492T564 451Q598 451 619 493T657 615Q667 658 677 707T697 806T717 905T735 994Q761 1104 814 1164T965 1225Q1022 1225 1061 1197T1128 1119T1173 1008Q1182 974 1191 937T1208 860T1224 780T1239 702T1252 628Q1266 546 1283 504T1340 462Q1375 462
1394 507T1428 623Q1436 660 1442 704T1455 794T1468 885T1479 972T1488 1047Q1496 1086 1516 1118T1578 1171T1690 1191Q1743 1191 1778 1173T1835 1121T1865 1046T1874 955Q1874 896 1869 823T1852 672T1824 516T1785 370T1734 247Q1678 133 1589 71T1399 8Q1288
8 1217 54T1102 202Q1092 231 1083 262T1065 326T1048 395T1033 468T1019 546Q1006 619 991 666T950 714Q924 714 907 666T875 546Q855 450 834 363T781 203Q744 127 696 83T587 19T450 -1Z" />
<glyph unicode="X" horiz-adv-x="1411" d="M201 -41Q147 -41 106 -21T41 36T17 126Q17 181 35 219T86 290Q104 310 134 338T203 400T280 465T354 521Q407 550 436 573T465 618Q465 637 447 654T383 695Q353 713 317 737T244 786T173 837T110 882Q73 906 52 945T30
1035Q30 1102 59 1142T132 1199T216 1217Q275 1217 316 1200T402 1139Q439 1105 477 1062T552 973T621 880Q648 838 667 818T707 797Q726 797 741 813T772 851Q789 875 811 908T859 978T909 1051T956 1116Q999 1170 1050 1195T1157 1221Q1250 1221 1287 1179T1325
1071Q1325 1034 1306 991T1245 902Q1215 866 1177 826T1100 749T1024 685Q979 654 961 637T942 606Q942 594 958 580T999 549Q1086 491 1150 438T1261 335T1345 234Q1362 211 1370 183T1379 129Q1379 85 1351 50T1279 -6T1188 -26Q1133 -26 1094 -10T1027 32Q1006
55 978 92T919 170T862 248T815 311Q784 356 762 373T717 390Q697 390 672 369T609 292Q574 249 545 213T489 143T431 77T364 8Q338 -12 301 -26T201 -41Z" />
<glyph unicode="Y" horiz-adv-x="1362" d="M656 -20Q574 -20 538 13T486 117Q483 136 481 160T476 210T472 265T468 320Q463 389 452 441T400 519Q352 549 307 574T222 629Q174 663 138 706T78 799T42 901T29 1006Q29 1068 56 1111T129 1177T233 1200Q279 1200
315 1175T382 1088Q398 1048 419 1007T464 928Q490 882 522 845T592 785T672 763Q714 763 753 788T828 851Q874 900 912 960T976 1068Q1014 1125 1048 1153T1126 1181Q1181 1181 1225 1153T1296 1079T1322 977Q1322 940 1312 897T1283 810T1235 723T1171 644Q1116
591 1065 557T958 492Q923 472 903 457T872 425T851 382Q847 366 843 339T834 279T825 209T816 136Q806 64 765 22T656 -20Z" />
<glyph unicode="Z" horiz-adv-x="1207" d="M527 -52Q406 -52 297 -37T118 14Q65 38 38 72T11 151Q11 204 41 259T129 368Q168 403 220 449T330 546T445 648T551 744T635 822Q670 853 687 874T704 910Q704 925 683 931T619 938Q598 938 558 935T468 928T371 920T288
916Q202 916 148 927T67 963T41 1032Q41 1090 79 1127T186 1186T348 1217T551 1226Q652 1226 743 1220T905 1203T1012 1173Q1069 1147 1097 1110T1126 1025Q1126 982 1106 943T1054 867T988 796Q967 773 934 738T859 659T773 569T685 477T603 393Q557 351 537 326T516
285Q516 276 530 270T582 260T687 256Q734 256 786 261T885 272T963 277Q1003 277 1035 267T1088 231T1108 158Q1108 116 1073 82T976 23T839 -18T683 -43T527 -52Z" />
<glyph unicode="[" horiz-adv-x="704" d="M423 -421Q315 -421 234 -391T104 -289Q74 -246 55 -178T26 -13T11 211T7 501Q7 649 13 751T33 925T64 1046T105 1138Q136 1188 187 1217T311 1260T481 1273Q546 1273 595 1265T672 1238T700 1183Q700 1127 663 1103T559
1079Q489 1079 448 1071T385 1040T349 976Q330 921 314 795T297 494Q297 406 301 315T310 140T323 -6T338 -100Q351 -161 382 -190T486 -229Q535 -234 568 -241T618 -262T635 -304Q635 -343 619 -369T558 -408T423 -421Z" />
<glyph unicode="\" horiz-adv-x="1052" d="M822 6Q803 20 772 52T704 127T628 220T552 316T483 405T430 475Q387 518 344 573T263 684T197 785Q168 830 144 879T102 976T75 1066T67 1139Q70 1179 96 1198T168 1213Q191 1203 224 1173T298 1098T380 1002T464 895T541
790T603 701Q654 629 705 553T803 403T884 262T940 144Q950 116 953 95T954 59Q949 35 933 21T889 3T822 6Z" />
<glyph unicode="]" horiz-adv-x="733" d="M374 -434Q274 -434 207 -423T106 -387T72 -318Q72 -280 95 -260T160 -228T258 -210Q320 -201 349 -179T391 -114T411 0Q414 26 416 67T422 158T427 266T430 382T431 499Q431 628 420 727T393 891Q372 978 329 1013T209
1066Q152 1079 118 1091T69 1121T54 1171Q54 1214 83 1237T159 1269T256 1278Q385 1278 464 1242T590 1136Q631 1084 651 994T680 790T688 552Q688 476 687 398T683 244T678 101T670 -22T661 -117Q646 -246 610 -314T514 -408T374 -434Z" />
<glyph unicode="^" horiz-adv-x="941" d="M110 758Q68 758 45 781T21 849Q21 877 33 914T69 994T122 1080Q167 1142 220 1193T334 1274T459 1305Q519 1305 567 1281T668 1214Q712 1179 756 1133T837 1036T896 937T919 852Q919 808 889 788T822 768Q803 768 781
781T739 813T699 854T665 893Q639 924 615 962T567 1035T516 1092T459 1115Q432 1115 405 1090T353 1028T303 951T257 882Q239 858 213 829T159 779T110 758Z" />
<glyph unicode="_" horiz-adv-x="1396" d="M719 -267Q497 -267 359 -263T145 -248T43 -218T15 -170Q15 -137 53 -115T175 -80T392 -62T720 -56Q971 -56 1114 -64T1317 -96T1377 -165Q1377 -209 1319 -231T1118 -260T719 -267Z" />
<glyph unicode="`" horiz-adv-x="660" d="M502 914Q447 914 372 938T227 996Q155 1032 111 1072T66 1160Q66 1204 90 1224T156 1245Q197 1245 256 1222T374 1164Q457 1114 514 1063T572 972Q572 941 552 928T502 914Z" />
<glyph unicode="a" horiz-adv-x="1296" d="M508 -116Q424 -116 345 -101T204 -49T105 46T68 192Q68 282 113 341T236 435T410 483T612 498Q640 498 668 496T721 493T761 491Q784 491 793 499T802 526Q802 551 796 571T777 606T748 633Q719 653 675 662T580 672Q517
672 461 659T354 632T254 618Q175 618 132 644T89 725Q89 778 127 819T231 889T382 931T557 946Q743 946 870 904T1063 764T1129 496Q1129 454 1125 422T1116 367T1106 325T1102 292Q1102 265 1120 240T1162 189T1204 132T1222 63Q1222 6 1186 -20T1103 -46Q1065
-46 1042 -26T1000 15T960 36Q945 36 927 27T882 0Q852 -21 804 -48T683 -96T508 -116ZM539 99Q585 99 628 112T706 150T763 208T784 281Q784 309 766 322T711 340T616 345Q555 345 501 333T412 291T378 209Q378 171 398 147T455 111T539 99Z" />
<glyph unicode="b" horiz-adv-x="1319" d="M602 -36Q418 -36 295 18T108 184T45 473Q45 552 51 630T70 784T99 928T138 1054T183 1154Q220 1210 270 1241T383 1273Q455 1273 493 1236T532 1134Q532 1111 530 1086T526 1032T521 977T516 924T514 875Q514 821 517
796T537 771Q554 771 582 781T644 808Q673 823 716 834T817 846Q947 846 1039 794T1179 647T1228 426Q1228 303 1180 216T1045 73T845 -9T602 -36ZM640 183Q678 183 716 196T788 235T842 300T863 393Q863 463 837 513T761 591T644 618Q583 618 537 594T464 525T437
420Q437 348 457 295T521 213T640 183Z" />
<glyph unicode="c" horiz-adv-x="1206" d="M640 -69Q516 -69 407 -39T213 56T81 218T33 453Q33 595 75 703T199 886T396 999T658 1037Q773 1037 849 1013T965 952T1004 871Q1004 840 988 815T947 776T893 761Q866 761 839 769T775 786T678 794Q616 794 566 774T478
717T420 629T399 516Q399 428 432 370T524 284T661 255Q726 255 778 267T870 297T939 327T987 340Q1035 340 1062 319T1100 266T1111 204Q1111 143 1077 93T979 7T830 -49T640 -69Z" />
<glyph unicode="d" horiz-adv-x="1241" d="M531 -57Q380 -57 268 -11T95 132T33 377Q33 516 83 611T232 754T470 803Q540 803 585 788T660 756Q678 747 692 740T715 732Q730 732 730 758Q730 776 727 810T717 887T705 972T695 1052T691 1114Q691 1284 865 1284Q926
1284 977 1261T1063 1188Q1079 1156 1094 1107T1120 999T1141 879T1154 760T1158 656Q1158 412 1098 254T901 20T531 -57ZM542 156Q614 156 664 182T740 258T767 373Q767 437 744 481T678 548T575 571Q507 571 455 545T372 470T342 353Q342 292 367 248T437 180T542
156Z" />
<glyph unicode="e" horiz-adv-x="1191" d="M616 -79Q443 -79 315 -26T115 136T44 413Q44 551 91 655T220 831T412 937T644 973Q728 973 807 958T949 908T1049 818T1086 683Q1086 613 1059 566T986 490T880 443T753 415Q712 404 651 395T531 380T434 375Q404 375
392 368T380 340Q380 322 390 299T419 254Q452 216 497 203T608 190Q676 190 742 209T871 248T993 267Q1052 267 1087 245T1123 159Q1123 103 1082 59T971 -16T809 -63T616 -79ZM552 523Q610 523 664 536T753 579T788 659Q788 720 744 746T625 773Q580 773 538
758T461 715T407 653T386 578Q386 553 403 542T457 527T552 523Z" />
<glyph unicode="f" horiz-adv-x="1052" d="M560 -57Q485 -57 447 -33T390 41Q384 65 378 100T366 177T354 264T343 349T335 422Q332 451 318 461T282 471Q268 471 247 468T195 458Q163 450 141 445T101 440Q74 440 54 453T24 488T14 536Q14 566 34 594T103 643Q122
651 155 661T227 682T295 699Q310 703 315 715T320 750Q320 777 315 808T304 876T298 952Q298 1061 349 1134T490 1244T697 1281Q745 1281 792 1275T877 1253T939 1215T962 1158Q962 1135 951 1117T915 1087Q896 1080 868 1078T802 1074Q713 1073 675 1031T637
913Q637 901 638 889T640 864T643 840Q648 817 657 807T683 797Q696 797 723 804T788 824Q813 832 838 839T885 851T919 856Q957 856 978 831T999 767Q999 729 984 702T925 648Q898 631 858 614T760 576Q714 558 697 529T679 459Q679 429 681 387T686 298T690 204T692
118T686 51Q674 -4 645 -30T560 -57Z" />
<glyph unicode="g" horiz-adv-x="1342" d="M539 -452Q397 -452 305 -433T159 -385T85 -319T63 -248Q63 -211 87 -187T154 -149T248 -136Q283 -136 326 -143T416 -157T516 -169T624 -170Q676 -168 712 -149T772 -99T805 -33T816 38Q816 46 814 52T809 63T799 67Q788
67 766 54T710 25T627 -5T516 -18Q358 -18 251 33T88 183T33 429Q33 554 85 646T225 799T425 890T657 920Q787 920 893 881T1076 767T1194 583T1236 333Q1236 139 1193 -8T1062 -254T844 -402T539 -452ZM621 220Q676 220 722 236T803 282T856 353T876 445Q876 508
850 555T773 629T651 656Q606 656 560 644T475 605T413 534T390 427Q390 367 417 320T497 247T621 220Z" />
<glyph unicode="h" horiz-adv-x="1318" d="M206 -50Q151 -50 120 -24T72 52Q66 74 61 113T51 207T44 325T42 460Q42 529 47 601T62 743T89 879T127 1004T177 1113Q217 1181 270 1216T392 1252Q462 1252 503 1208T545 1083Q545 1050 541 1013T530 938T518 865T507
803T503 760Q503 736 516 736Q529 736 550 754T606 796T697 838T836 856Q947 856 1021 817T1139 712T1202 563T1221 392Q1221 351 1217 305T1204 215T1185 132T1161 68Q1135 20 1091 -4T979 -28Q925 -28 895 -7T850 51Q845 72 844 104T842 176T843 259T840 346Q838
389 830 429T804 501T756 552T679 571Q626 571 585 553T515 506T469 444T447 379Q438 324 431 279T415 196T398 125T377 61Q353 7 311 -21T206 -50Z" />
<glyph unicode="i" horiz-adv-x="703" d="M262 -34Q189 -34 149 -8T92 71T76 202Q76 234 78 275T82 360T89 450T98 536T109 613T122 671Q152 751 211 792T361 833Q447 833 487 771T527 600Q527 566 525 520T519 423T509 320T495 221T478 136T457 76Q427 18 379
-8T262 -34ZM342 954Q227 954 180 991T133 1078Q133 1141 178 1185T291 1251T427 1274Q477 1274 519 1259T587 1209T613 1121Q613 1060 576 1024T476 971T342 954Z" />
<glyph unicode="j" horiz-adv-x="723" d="M61 -464Q-9 -464 -68 -451T-164 -408T-201 -331Q-201 -281 -173 -253T-102 -213Q-67 -205 -20 -205T78 -206Q140 -206 165 -130T190 83Q190 117 188 159T182 250T175 347T168 442T162 526T160 590Q160 712 214 767T365
822Q437 822 479 794T542 715T568 592T576 433Q578 410 579 378T582 310T585 238T587 170T588 116Q588 -79 527 -207T348 -400T61 -464ZM403 965Q357 965 310 972T222 994T157 1037T132 1107Q132 1161 160 1193T238 1241T355 1256Q398 1256 444 1247T529 1219T593
1169T618 1096Q618 1052 589 1023T511 980T403 965Z" />
<glyph unicode="k" horiz-adv-x="1215" d="M219 -45Q158 -45 125 -16T78 65T65 188Q65 233 71 296T87 437T106 600Q117 687 129 764T155 908T183 1027T213 1118Q243 1190 285 1228T383 1266Q458 1266 483 1215T509 1073Q509 1043 507 1009T502 937T494 863T487
789T482 721T480 662Q480 630 483 608T498 586Q509 586 522 596T552 623Q565 637 588 659T638 709T692 762T742 808T780 838Q809 859 844 870T913 881Q971 881 1006 852T1042 772Q1042 737 1020 698T950 624Q903 581 859 548T779 479Q751 455 751 440Q751 431 759
423T783 406Q807 391 846 366T929 313T1015 256T1086 202Q1109 181 1123 160T1137 113Q1137 78 1118 48T1064 -1T988 -20Q947 -20 912 -4T844 41Q807 69 761 107T665 189T571 272Q548 295 527 310T484 325Q462 325 449 312T431 275Q412 196 396 142T364 52Q338
0 305 -22T219 -45Z" />
<glyph unicode="l" horiz-adv-x="848" d="M465 -55Q353 -55 281 -16T169 110T110 335Q102 378 96 437T87 562T82 693T80 811T82 899Q84 1015 99 1096T154 1218T273 1260Q368 1260 404 1206T440 1029Q440 1003 438 962T434 871T430 767T425 661T421 563T419 483Q419
396 426 338T447 246T481 197T528 182Q562 182 590 195T643 223T697 237Q729 237 748 213T768 149Q768 104 741 67T668 2T570 -40T465 -55Z" />
<glyph unicode="m" horiz-adv-x="1654" d="M189 -26Q132 -26 98 2T49 82T34 201Q34 241 36 287T44 381T59 478T81 571T112 656Q171 781 256 843T460 906Q539 906 590 872T674 782T728 665Q744 618 765 583T815 548Q848 548 876 577T935 662Q973 730 1016 783T1119
866T1261 896Q1380 896 1451 835T1554 666T1586 423Q1586 380 1584 336T1578 248T1566 166T1550 92Q1529 32 1493 3T1396 -26Q1341 -26 1306 0T1252 70Q1248 88 1246 109T1243 157T1241 213T1240 276T1238 348Q1235 400 1226 441T1199 506T1155 530Q1127 530 1103
503T1055 433T1010 342Q969 248 924 205T799 161Q719 161 678 207T616 327Q601 385 586 427T553 492T506 516Q481 516 458 492T415 421Q396 371 384 318T365 214T353 119Q338 39 303 7T189 -26Z" />
<glyph unicode="n" horiz-adv-x="1365" d="M214 -22Q148 -22 107 5T45 94Q39 117 36 146T33 212T34 292Q41 495 118 638T332 856T651 932Q834 932 972 859T1186 642T1263 285Q1263 249 1261 218T1253 159T1241 109Q1218 43 1175 11T1068 -22Q997 -22 959 -2T903
58T879 152Q875 214 871 263T861 351T849 423T834 487Q814 562 775 599T661 637Q591 637 547 598T476 484Q463 451 454 414T438 335T426 243T415 139Q408 75 379 40T308 -8T214 -22Z" />
<glyph unicode="o" horiz-adv-x="1397" d="M664 -56Q542 -56 429 -30T226 54T85 204T33 428Q33 573 83 683T221 869T425 981T675 1019Q801 1019 914 988T1116 892T1255 726T1306 485Q1306 376 1258 278T1123 105T919 -13T664 -56ZM647 266Q722 266 775 289T862
350T912 435T928 527Q928 588 904 631T840 701T750 740T649 753Q580 753 520 725T423 639T386 496Q386 425 417 374T506 294T647 266Z" />
<glyph unicode="p" horiz-adv-x="1304" d="M239 -471Q199 -471 167 -453T112 -399T71 -309Q62 -271 55 -230T43 -144T34 -53T28 38T26 127Q26 350 94 523T303 796T656 895Q784 895 887 861T1064 761T1177 603T1216 395Q1216 285 1182 202T1080 61T911 -25T674
-54Q608 -54 565 -45T496 -26T455 -16Q436 -16 426 -29T410 -74Q405 -95 402 -128T396 -199T392 -271T389 -328Q383 -411 344 -441T239 -471ZM611 201Q717 201 782 230T876 310T906 431Q906 487 884 537T809 618T666 649Q606 649 561 630T487 576T443 490T428 377Q428
313 445 274T503 218T611 201Z" />
<glyph unicode="q" horiz-adv-x="1364" d="M1080 -419Q1031 -419 991 -394T923 -337Q900 -309 880 -274T844 -200T821 -128Q810 -86 799 -56T766 -26Q747 -26 705 -31T580 -36Q489 -36 394 -12T218 66T89 205T39 413Q39 557 89 663T229 838T441 941T704 975Q869
975 998 915T1202 743T1276 477Q1276 342 1241 254T1142 105Q1105 69 1087 45T1069 2Q1069 -10 1082 -30T1116 -77Q1141 -110 1167 -144T1221 -214Q1236 -233 1243 -252T1251 -289Q1251 -333 1225 -362T1160 -405T1080 -419ZM666 250Q742 250 802 277T897 357T933
483Q933 545 912 587T855 655T778 692T692 703Q646 703 599 691T513 651T449 577T425 465Q425 409 446 369T502 303T580 263T666 250Z" />
<glyph unicode="r" horiz-adv-x="1092" d="M346 -34Q304 -34 271 -22T213 12T168 65Q145 103 128 151T98 252T80 360T73 466Q73 632 142 748T336 925T632 986Q710 986 783 974T915 936T1009 872T1044 782Q1044 734 1025 707T974 668T909 657Q854 657 802 671T674
686Q577 686 526 628T474 463Q474 423 477 385T487 311T498 244T508 186T512 139Q512 51 472 9T346 -34Z" />
<glyph unicode="s" horiz-adv-x="1063" d="M507 -38Q434 -38 366 -33T240 -16T139 12Q89 31 57 57T25 134Q25 191 57 223T151 255Q189 255 234 245T333 225T453 214Q505 214 550 221T622 248T649 300Q649 332 631 351T563 386T421 419Q306 440 226 477T103 572T60
711Q60 784 102 836T217 922T381 971T573 987Q638 987 705 980T829 956T921 914T956 852Q956 807 935 780T882 742T814 730Q763 730 709 740T606 750Q565 750 532 743T479 719T459 674Q459 634 510 612T671 569Q775 550 850 514T967 420T1008 274Q1008 193 970
135T864 38T705 -19T507 -38Z" />
<glyph unicode="t" horiz-adv-x="1125" d="M683 -24Q608 -24 539 -3T426 67T376 204Q375 230 374 260T371 324T370 393T369 463T368 533Q367 577 347 590T291 608Q271 610 246 611T194 615T142 620Q94 625 67 657T40 748Q40 788 56 810T99 842T159 860Q206 866
240 871T303 882Q332 887 348 900T369 947Q372 970 374 994T380 1043T388 1085Q405 1140 434 1164T526 1188Q576 1188 605 1176T650 1136T675 1065Q679 1038 681 1018T686 981T690 948T694 915Q698 885 717 871T767 851Q793 848 820 845T872 838T920 832Q968 825
1005 801T1042 719Q1042 668 1012 637T934 601Q883 598 838 597T765 594Q743 592 727 580T708 526Q707 500 707 472T707 416T708 361T711 310T715 264Q720 220 738 202T798 184Q833 184 855 198T896 225T939 239Q974 239 989 221T1004 166Q1004 124 975 89T899
29T796 -10T683 -24Z" />
<glyph unicode="u" horiz-adv-x="1381" d="M650 -70Q496 -70 381 -29T190 92T75 290T37 560Q37 600 40 638T52 711T71 775Q98 849 147 885T267 922Q336 922 369 899T414 842T428 773Q429 751 429 726T431 676T433 626T436 582Q443 479 466 405T537 291T661 251Q735
251 783 282T861 376T907 532Q913 562 916 591T922 650T929 709T939 768Q956 834 996 873T1116 913Q1184 913 1219 874T1270 768Q1274 737 1276 704T1280 636T1281 567T1278 498Q1271 304 1194 178T980 -9T650 -70Z" />
<glyph unicode="v" horiz-adv-x="1431" d="M711 -71Q648 -71 574 -26T422 93Q387 127 347 176T267 282T189 398T121 513T68 613Q48 656 37 694T25 765Q25 810 49 844T115 897T204 916Q271 916 318 888T403 806Q418 785 437 749T480 665T528 568T577 468T621 377Q641
335 661 309T698 283Q714 283 735 309T777 378Q825 475 873 584T977 802Q1015 858 1058 885T1168 912Q1242 912 1288 875T1334 765Q1334 729 1324 689T1293 604Q1275 561 1249 507T1190 394T1123 278T1053 172T983 86Q915 16 844 -27T711 -71Z" />
<glyph unicode="w" horiz-adv-x="1710" d="M396 -9Q307 -9 244 31T137 140Q117 171 101 222T71 334T49 461T35 587T30 697Q30 771 50 829T113 922T218 956Q283 956 314 924T363 832Q368 805 373 769T385 692T397 613T410 541T422 485Q431 451 447 428T486 405Q506
405 520 429T544 490Q554 527 563 572T584 666T608 761T636 846Q660 895 703 927T828 959Q902 959 941 932T1001 865Q1011 840 1022 804T1045 727T1066 644T1084 568T1097 509Q1107 467 1120 440T1153 413Q1178 413 1192 436T1218 499Q1227 526 1236 568T1255 661T1274
760T1294 848Q1314 901 1349 929T1445 958Q1486 958 1523 944T1590 899T1637 815T1655 685Q1655 641 1650 591T1635 487T1613 381T1585 281T1552 195T1516 130Q1465 65 1395 31T1235 -4Q1147 -4 1083 40T991 142Q977 181 964 228T939 324T915 417T896 495Q887 535
875 562T833 589Q801 589 785 559T760 491Q753 466 745 430T728 352T709 269T689 193T668 133Q639 76 565 34T396 -9Z" />
<glyph unicode="x" horiz-adv-x="1370" d="M228 -61Q183 -61 143 -48T77 -3T52 83Q52 116 63 145T96 202Q117 228 152 257T233 314T327 365Q367 386 404 406T465 444T489 476Q489 489 462 505T392 540T306 575Q252 595 205 622T123 680Q92 706 75 740T58 818Q58
862 83 897T150 954T246 976Q282 976 315 965T379 934Q426 904 471 859T554 759Q598 702 630 665T680 628Q690 628 708 645T750 691T797 751Q836 803 871 838T945 901Q982 927 1024 944T1111 961Q1185 961 1229 922T1273 814Q1273 764 1251 724T1190 653Q1162 630
1124 608T1040 566Q981 537 947 521T899 496T884 477Q884 465 933 444T1075 379Q1110 362 1143 342T1203 301T1248 265Q1280 235 1296 200T1312 123Q1312 82 1295 53T1248 7T1185 -19T1118 -27Q1077 -27 1038 -12T962 34Q931 60 894 100T810 201Q767 250 737 286T684
322Q670 322 654 310T613 264T544 168Q519 130 490 94T431 30T377 -16Q346 -36 309 -48T228 -61Z" />
<glyph unicode="y" horiz-adv-x="1318" d="M276 -412Q211 -412 171 -377T131 -292Q131 -239 165 -201T262 -137Q309 -112 360 -82T455 -20T526 43T553 99Q553 120 523 146T416 207Q355 236 299 277T193 368T108 472T52 583T31 695Q31 744 54 784T118 848T211 872Q288
872 341 841T435 736Q474 644 513 566T594 434Q617 404 643 383T688 362Q716 362 740 387T779 443Q818 511 851 597T918 762Q949 815 992 849T1097 884Q1194 884 1232 836T1270 711Q1270 654 1250 584T1197 439T1121 290T1035 151T948 36Q877 -50 795 -130T626
-275T451 -375T276 -412Z" />
<glyph unicode="z" horiz-adv-x="1137" d="M578 -41Q466 -41 357 -34T167 -4Q85 17 48 58T10 168Q10 200 21 237T65 314T159 392Q194 413 237 441T328 501T423 562T512 617T586 660Q642 686 656 701T670 729Q670 744 648 748T590 752Q545 752 492 750T385 743T283
735T197 732Q163 732 136 743T92 775T76 829Q76 868 107 895T193 938T316 964T459 980Q496 983 544 985T645 990T744 994T827 996Q955 996 1014 954T1073 835Q1073 779 1043 725T930 618Q876 582 811 540T682 456T564 380T477 326Q443 308 431 294T419 264Q419
249 437 241T497 231T614 228Q698 228 771 233T918 238Q988 238 1024 210T1060 132Q1060 84 1024 51T923 -3T770 -32T578 -41Z" />
<glyph unicode="{" horiz-adv-x="689" d="M574 -401Q551 -401 526 -397T477 -386T433 -370Q385 -348 348 -310T289 -223T264 -118Q261 -61 257 -9T243 91T216 178T169 252Q149 282 127 299T87 331T57 362T45 408Q45 436 56 455T85 489T121 520T151 555Q175 582
183 619T192 700Q192 719 191 743T189 793T186 844T185 892Q185 996 217 1063T308 1190Q342 1225 388 1247T481 1281T564 1292Q609 1292 637 1271T666 1202Q666 1170 648 1151T604 1115T552 1074T513 1006Q506 985 500 963T491 916T488 865Q488 845 489 812T491
746T492 689Q492 642 482 610T455 556T419 518Q390 493 368 473T345 433Q345 416 358 402T407 369Q457 343 492 295T531 174Q532 142 532 108T530 38T530 -29T535 -90Q543 -150 561 -185T613 -238Q637 -251 653 -267T670 -311Q670 -357 645 -379T574 -401Z" />
<glyph unicode="|" horiz-adv-x="434" d="M171 -369Q127 -369 101 -338T61 -254T42 -134T37 8Q37 60 38 145T42 333T46 542T52 744T58 911T63 1012Q73 1106 93 1176T147 1285T229 1324Q271 1324 294 1296T328 1216T341 1093T344 934Q344 894 343 833T341 696T338
538T334 373T330 217T326 82T323 -17Q320 -104 304 -184T255 -317T171 -369Z" />
<glyph unicode="}" horiz-adv-x="680" d="M160 -388Q134 -388 107 -380T63 -351T45 -298Q45 -271 66 -253T113 -216Q166 -180 195 -140T225 -20Q225 17 223 62T220 153T223 234Q229 303 255 341T312 400T367 435T390 468Q390 483 371 495T327 526T283 577T264
664Q264 689 269 725T280 802T285 883Q285 966 257 1015T161 1087Q120 1098 89 1120T58 1194Q58 1237 93 1255T168 1273Q233 1273 285 1257T392 1204Q437 1176 472 1126T530 1015T552 890Q552 864 549 838T543 784T536 727T533 664Q533 630 549 610T586 574T623
538T639 482Q639 443 621 420T578 376T532 325T506 244Q502 209 502 168T502 88T503 17Q503 -71 470 -151T383 -286Q338 -333 278 -360T160 -388Z" />
<glyph unicode="~" horiz-adv-x="1022" d="M249 937Q227 937 212 950T197 993Q197 1040 223 1084T293 1156T387 1185Q430 1185 460 1165T514 1119T559 1073T606 1053Q635 1053 652 1066T688 1118Q702 1149 716 1160T752 1172Q770 1172 784 1160T799 1114Q799 1067
772 1026T703 959T613 934Q571 934 539 953T483 996T437 1040T393 1059Q370 1059 350 1040T314 986Q300 956 284 947T249 937Z" />
<glyph unicode="&#xa0;" horiz-adv-x="654" />
<glyph unicode="&#xa1;" horiz-adv-x="464" d="M196 553Q229 553 253 544T295 513T325 455T344 365T355 241T360 76T362 -136Q362 -186 361 -227T356 -302T345 -362T327 -407T298 -438T256 -456T198 -462Q166 -462 142 -454T102 -430T75 -389T59 -334T50 -264T47
-180T46 -83Q46 22 49 107T60 258T77 373T99 457T127 513T159 543T196 553ZM212 904Q248 904 285 896T348 865T374 798Q374 756 351 726T289 679T210 662Q178 662 143 673T85 707T61 768Q61 816 83 846T140 890T212 904Z" />
<glyph unicode="&#xa2;" horiz-adv-x="1009" d="M548 924Q505 924 479 938T442 979T430 1039Q430 1095 437 1136T460 1204T497 1244T551 1257Q575 1257 594 1246T626 1211T646 1149T653 1057Q653 1013 644 984T612 939T548 924ZM545 -58Q517 -58 496 -48T459 -17T437
38T429 118Q429 160 435 191T456 245T494 278T553 289Q579 289 599 280T634 253T656 210T664 152Q664 95 657 55T634 -10T597 -46T545 -58ZM561 118Q425 118 311 163T128 305T59 551Q59 668 94 758T197 909T360 1003T576 1035Q671 1035 734 1015T830 964T862 898Q862
873 849 853T816 821T772 809Q750 809 728 816T675 830T593 837Q524 837 471 807T388 724T358 602Q358 529 385 480T463 406T579 382Q634 382 677 392T754 417T811 443T850 454Q889 454 911 437T942 394T951 343Q951 293 923 253T842 182T719 135T561 118Z" />
<glyph unicode="&#xa3;" horiz-adv-x="1034" d="M348 518Q271 518 207 521T95 534T21 562T-5 608Q-5 656 36 678T165 707T390 714Q492 714 571 712T705 700T788 669T816 610Q816 577 785 559T694 531T547 520T348 518ZM175 -58Q119 -58 84 -27T48 51Q48 96 66
128T109 194T152 281T171 421Q171 448 171 485T171 564T173 650T176 736Q183 887 227 1006T371 1194T638 1263Q714 1263 777 1246T886 1197T957 1120T982 1020Q982 980 957 964T897 948Q862 948 836 963T784 999T727 1035T651 1050Q583 1050 543 1009T487 896T470
729Q470 695 470 659T470 587T470 519T468 458T465 410Q463 344 453 301T434 234T425 200Q425 181 445 181Q460 181 486 187T544 199T609 206Q662 206 703 203T780 195T855 189Q920 182 952 159T984 87Q984 26 943 1T853 -25Q801 -25 750 -20T635 -11T480 -6Q417
-6 367 -19T271 -45T175 -58Z" />
<glyph unicode="&#xa4;" horiz-adv-x="1144" d="M586 130Q487 130 397 154T235 227T121 354T79 537Q79 654 118 739T229 879T394 961T595 988Q696 988 787 963T949 885T1062 751T1103 557Q1103 470 1065 393T957 256T793 164T586 130ZM141 59Q110 59 87 83T63
138Q63 165 83 198T148 277Q186 315 219 336T281 357Q313 357 339 334T365 277Q365 252 350 224T306 166Q250 110 210 85T141 59ZM232 747Q210 747 186 763T133 807Q80 860 55 899T30 964Q30 991 53 1011T104 1032Q135 1032 177 1004T276 920Q297 899 308 879T319
839Q319 818 305 797T272 761T232 747ZM1038 35Q1008 35 969 60T873 142Q844 171 829 199T814 252Q814 286 840 309T897 333Q926 333 959 312T1031 253Q1076 208 1096 174T1116 113Q1116 82 1093 59T1038 35ZM573 371Q634 371 677 390T748 440T789 509T802 584Q802
650 769 690T683 749T574 768Q532 768 494 755T425 716T378 651T360 559Q360 501 385 459T458 394T573 371ZM878 793Q858 793 838 807T805 842T791 885Q791 905 802 925T833 966Q890 1023 932 1050T1006 1078Q1034 1078 1056 1058T1079 1010Q1079 984 1055 945T977
853Q948 825 924 809T878 793Z" />
<glyph unicode="&#xa5;" horiz-adv-x="1362" d="M574 213Q470 213 384 215T236 225T139 245T105 279Q105 306 135 321T228 345T391 356T630 359Q768 359 873 357T1050 348T1159 325T1196 281Q1196 257 1156 243T1036 223T841 215T574 213ZM573 426Q462 426 371
428T213 438T110 458T74 492Q74 519 106 534T205 558T379 569T633 572Q780 572 893 570T1082 561T1196 538T1235 494Q1235 470 1193 456T1067 436T860 428T573 426ZM656 -20Q574 -20 538 13T486 117Q483 136 481 160T476 210T472 265T468 320Q463 389 452 441T400
519Q352 549 307 574T222 629Q174 663 138 706T78 799T42 901T29 1006Q29 1068 56 1111T129 1177T233 1200Q279 1200 315 1175T382 1088Q398 1048 419 1007T464 928Q490 882 522 845T592 785T672 763Q714 763 753 788T828 851Q874 900 912 960T976 1068Q1014 1125
1048 1153T1126 1181Q1181 1181 1225 1153T1296 1079T1322 977Q1322 940 1312 897T1283 810T1235 723T1171 644Q1116 591 1065 557T958 492Q923 472 903 457T872 425T851 382Q847 366 843 339T834 279T825 209T816 136Q806 64 765 22T656 -20Z" />
<glyph unicode="&#xa6;" horiz-adv-x="434" d="M183 556Q126 556 97 584T59 655T50 742Q50 770 50 814T52 908T56 1007T60 1093T66 1146Q75 1188 94 1229T145 1297T225 1324Q289 1324 318 1276T347 1150Q347 1125 347 1083T345 990T343 889T339 797T335 731Q332
692 316 652T267 584T183 556ZM185 -382Q142 -382 116 -361T75 -306T55 -237T49 -171Q49 -136 49 -84T49 23T49 127T51 202Q55 287 97 336T209 386Q273 386 302 334T332 206Q332 175 332 130T333 34T335 -60T336 -135Q336 -198 320 -254T270 -346T185 -382Z" />
<glyph unicode="&#xa7;" horiz-adv-x="1056" d="M502 -212Q431 -212 366 -206T246 -188T149 -162Q100 -146 71 -115T42 -44Q42 -8 69 13T143 34Q180 34 231 20T343 -8T467 -23Q532 -23 594 -13T696 21T736 88Q736 116 717 137T659 176T565 207T439 236Q328 259
248 293T124 382T81 517Q81 580 118 630T221 717T372 772T556 791L554 652Q505 652 462 636T391 592T364 526Q364 487 394 462T480 421T611 392Q687 379 757 358T883 304T971 223T1003 105Q1003 35 964 -23T857 -123T697 -189T502 -212ZM501 261L467 400Q532 400
594 410T696 445T736 512Q736 542 712 564T642 604T537 636T406 666Q295 689 223 727T116 819T81 945Q81 1008 120 1059T226 1148T381 1205T567 1225Q631 1225 697 1214T819 1182T909 1130T944 1064Q944 1014 912 997T842 979Q803 979 765 990T680 1013T570 1025Q521
1025 481 1014T418 982T394 931Q394 900 417 876T488 836T611 806Q687 793 757 773T883 720T971 640T1003 522Q1003 452 964 403T856 322T697 276T501 261Z" />
<glyph unicode="&#xa8;" horiz-adv-x="928" d="M274 890Q188 890 151 925T113 1009Q113 1074 158 1106T251 1139Q290 1139 324 1128T380 1089T401 1008Q401 958 374 924T274 890ZM704 893Q642 893 602 927T562 1012Q562 1074 608 1113T721 1152Q782 1152 812 1116T842
1032Q842 975 805 934T704 893Z" />
<glyph unicode="&#xa9;" horiz-adv-x="1605" d="M819 -104Q625 -104 475 -61T224 68T70 286T17 593Q17 769 75 903T239 1128T488 1265T802 1312Q977 1312 1112 1268T1340 1136T1481 914T1529 604Q1529 355 1452 199T1217 -30T819 -104ZM761 93Q955 93 1082 145T1272
313T1335 615Q1335 767 1273 882T1093 1061T804 1126Q687 1126 584 1087T401 978T277 815T231 611Q231 488 270 392T380 229T549 128T761 93ZM815 228Q703 228 609 267T458 386T401 588Q401 717 453 806T601 943T828 991Q905 991 957 975T1037 935T1064 883Q1064
855 1043 836T995 816Q978 816 959 822T913 834T842 840Q779 840 731 813T655 738T628 626Q628 561 653 517T724 450T828 428Q879 428 917 438T984 461T1032 485T1065 496Q1109 496 1125 468T1141 412Q1141 374 1118 341T1052 282T949 243T815 228Z" />
<glyph unicode="&#xaa;" horiz-adv-x="545" d="M207 811Q162 811 122 822T57 860T32 935Q32 985 62 1012T141 1050T247 1061Q265 1061 277 1060T297 1059Q307 1059 310 1062T314 1072Q314 1083 311 1094T297 1111Q285 1120 271 1122T237 1124Q202 1124 168 1112T103
1100Q69 1100 51 1111T32 1146Q32 1178 60 1199T133 1230T228 1241Q343 1241 403 1204T463 1060Q463 1034 460 1018T457 989Q457 974 469 958T493 923T505 884Q505 861 490 849T453 837Q429 837 418 854T394 872Q388 872 381 868T362 857Q343 843 309 827T207 811ZM224
909Q253 909 279 924T305 966Q305 980 292 984T250 988Q220 988 195 979T170 943Q170 924 185 917T224 909Z" />
<glyph unicode="&#xab;" horiz-adv-x="781" d="M694 239Q679 239 646 257T579 301T524 344Q479 385 440 429T375 523T349 626Q349 666 361 704T394 780T441 853T494 924Q517 953 551 986T621 1042T677 1066Q711 1066 728 1046T745 996Q745 971 731 938T690 865T624
782Q605 759 587 733T557 681T546 635Q546 617 559 594T594 546T639 501Q678 466 704 433T744 371T758 317Q758 279 742 259T694 239ZM365 239Q350 239 317 257T250 301T195 344Q150 385 111 429T46 523T20 626Q20 666 32 704T65 780T112 853T165 924Q188 953 222
986T292 1042T348 1066Q382 1066 399 1046T416 996Q416 971 402 938T361 865T295 782Q276 759 258 733T228 681T217 635Q217 617 230 594T265 546T310 501Q349 466 375 433T415 371T429 317Q429 279 413 259T365 239Z" />
<glyph unicode="&#xac;" horiz-adv-x="984" d="M789 241Q730 241 708 272T685 345Q685 355 686 373T688 412T691 451T692 482Q692 507 669 517T592 530Q582 530 544 531T456 532T352 534T254 536T188 537Q141 539 103 550T43 581T20 632Q20 661 36 686T99 730T235
761T471 773Q624 773 719 760T866 725T936 673T955 609Q955 562 953 522T946 448T937 386T925 335Q919 315 905 293T864 256T789 241Z" />
<glyph unicode="&#xad;" horiz-adv-x="925" d="M385 474Q307 474 240 479T123 498T44 539T15 605Q15 674 60 706T198 748T429 758Q536 758 619 755T759 738T846 693T876 607Q876 560 845 533T751 493T598 478T385 474Z" />
<glyph unicode="&#xae;" horiz-adv-x="1631" d="M796 -108Q616 -108 472 -62T227 73T71 293T17 592Q17 765 77 898T247 1123T501 1262T816 1309Q985 1309 1120 1264T1353 1131T1503 913T1556 614Q1556 435 1502 300T1348 74T1108 -62T796 -108ZM766 77Q915 77
1026 113T1212 218T1323 388T1361 621Q1361 784 1302 900T1125 1079T831 1141Q700 1141 590 1108T399 1008T273 842T228 613Q228 481 268 381T381 213T552 112T766 77ZM588 224Q545 224 515 246T470 311Q463 333 458 367T450 441T446 521T444 593Q444 709 465 789T531
918T640 988T793 1010Q879 1010 955 984T1078 908T1125 782Q1125 734 1107 702T1058 651T994 620T926 603Q908 599 899 595T890 582Q890 575 908 559T953 519T1002 471Q1019 452 1041 428T1085 380T1119 336T1133 309Q1133 273 1102 254T1030 235Q1006 235 980
245T928 275T877 320T827 378Q795 418 769 449T725 497T699 515Q695 515 692 507T689 479T688 425Q688 412 688 393T689 354T689 317T686 291Q679 253 652 239T588 224ZM750 672Q770 672 798 677T855 696T901 730T920 784Q920 818 900 839T848 870T782 880Q741
880 721 863T691 813Q686 793 684 772T681 728Q681 697 696 685T750 672Z" />
<glyph unicode="&#xaf;" horiz-adv-x="927" d="M471 942Q360 942 276 947T144 970T96 1026Q96 1063 127 1081T244 1106T495 1113Q612 1113 691 1108T810 1087T851 1040Q851 994 809 973T682 947T471 942Z" />
<glyph unicode="&#xb0;" horiz-adv-x="628" d="M308 808Q215 808 148 838T44 917T8 1023Q8 1102 47 1157T153 1242T303 1272Q387 1272 454 1250T561 1177T601 1038Q601 968 559 916T450 836T308 808ZM315 940Q377 940 412 968T447 1056Q447 1091 428 1112T378
1143T314 1153Q283 1153 253 1141T202 1104T182 1043Q182 1009 201 986T251 952T315 940Z" />
<glyph unicode="&#xb1;" horiz-adv-x="1142" d="M501 54Q404 54 325 58T188 75T101 109T70 167Q70 212 97 238T183 277T333 295T553 299Q683 299 780 297T943 282T1041 244T1074 169Q1074 128 1038 105T929 70T750 57T501 54ZM573 367Q524 367 501 404T461 502Q458
515 456 526T453 549T450 570T447 589Q440 634 428 656T393 684T332 691Q317 691 293 691T242 692T189 695T145 700Q92 710 58 736T24 811Q24 844 48 866T114 901T207 916Q247 919 284 922T350 929T395 939Q415 947 424 965T436 1025Q437 1040 438 1054T440 1084T444
1116T448 1150Q466 1224 495 1250T589 1277Q628 1277 657 1247T697 1183Q702 1164 705 1147T710 1112T712 1078T714 1045Q714 995 727 967T767 938Q790 936 825 934T898 928T971 919T1027 908Q1077 893 1099 868T1121 811Q1121 772 1093 751T1011 720Q973 712 931
708T848 702T775 699Q744 699 724 677T703 595Q703 581 702 567T698 538T694 510T689 485Q678 435 648 401T573 367Z" />
<glyph unicode="&#xb2;" horiz-adv-x="498" d="M135 666Q91 671 60 686T28 742Q28 764 36 784T77 824Q108 844 155 871T241 926Q271 947 289 968T308 1009Q308 1034 290 1044T240 1055Q208 1055 184 1046T145 1025Q127 1010 111 999T78 988Q60 988 45 1000T30
1036Q30 1074 59 1104T137 1154T247 1173Q302 1173 348 1161T423 1118T452 1033Q452 996 433 968T381 911Q358 891 334 875T287 845T246 822Q222 809 222 799Q222 793 236 792T265 791Q293 791 336 797T406 804Q432 804 447 792T463 759Q463 722 438 701T369 672T262
662Q232 662 198 662T135 666Z" />
<glyph unicode="&#xb3;" horiz-adv-x="518" d="M232 646Q175 646 126 657T46 688T15 735Q15 772 35 783T71 794Q102 794 142 778T231 762Q280 762 312 773T344 808Q344 831 320 843T257 863Q223 870 202 883T180 919Q180 940 196 950T238 967Q271 976 294 988T317
1021Q317 1045 291 1054T222 1063Q176 1063 137 1055T79 1046Q53 1046 38 1061T22 1097Q22 1124 53 1141T134 1167T236 1176Q349 1176 404 1141T459 1045Q459 1016 441 994T389 955Q375 947 368 940T360 926Q360 918 372 912T400 900Q434 888 463 864T492 794Q492
748 463 715T377 664T232 646Z" />
<glyph unicode="&#xb4;" horiz-adv-x="653" d="M149 914Q119 914 99 927T79 972Q79 1011 136 1062T276 1164Q334 1198 393 1221T494 1245Q537 1245 560 1225T584 1160Q584 1113 540 1073T424 996Q354 962 279 938T149 914Z" />
<glyph unicode="&#xb5;" horiz-adv-x="1435" d="M273 -460Q235 -460 198 -444T133 -389T91 -283Q87 -254 82 -204T72 -87T61 57T52 218T46 389T43 560Q43 656 68 738T145 871T274 922Q342 922 376 899T421 842T434 773Q434 751 435 726T437 676T439 626T442 582Q450
479 473 405T543 291T668 251Q741 251 796 282T882 376T913 532Q913 568 914 600T918 662T926 719T936 774Q955 839 995 876T1114 913Q1182 913 1218 874T1269 768Q1272 748 1274 727T1278 683T1281 638T1283 593T1284 546T1285 498Q1285 375 1288 300T1298 190T1321
155Q1341 155 1352 160T1379 165Q1392 165 1406 154T1429 119T1439 54Q1439 1 1417 -29T1361 -75T1288 -96T1218 -101Q1147 -101 1096 -70T1013 21T967 168L1032 117Q996 33 907 -18T670 -70Q587 -70 525 -38T423 40T369 128L435 153Q435 103 437 55T440 -38T444
-122T447 -196T450 -255T452 -298Q452 -381 406 -420T273 -460Z" />
<glyph unicode="&#xb6;" horiz-adv-x="1034" d="M594 -190Q532 -190 517 -143T502 -8Q502 11 502 56T503 161T504 284T505 404T506 500T507 548Q507 566 500 575T478 585Q461 585 435 577T374 561T296 553Q227 553 170 589T80 691T47 850Q47 965 94 1036T214 1144T370
1195T521 1209Q563 1209 620 1205T737 1189T843 1151Q906 1116 945 1036T984 795Q984 742 983 667T979 507T973 336T968 175T964 44T962 -36Q962 -117 938 -152T868 -188Q838 -188 819 -161T799 -45Q799 -20 799 32T801 154T804 302T807 460T809 610T811 735T812
817Q812 928 795 973T743 1019Q720 1019 707 996T688 937T680 866T678 802Q678 752 678 694T676 572T674 441T672 306T671 170T670 38Q670 -84 658 -137T594 -190Z" />
<glyph unicode="&#xb7;" horiz-adv-x="361" d="M191 520Q126 520 73 554T20 653Q20 688 44 716T106 760T181 777Q221 777 258 758T318 706T341 631Q341 570 298 545T191 520Z" />
<glyph unicode="&#xb8;" horiz-adv-x="772" d="M350 -448Q295 -448 243 -442T158 -418T124 -362Q124 -326 146 -310T201 -294Q228 -294 248 -301T291 -315T349 -322Q399 -322 437 -314T496 -288T517 -243Q517 -215 503 -205T459 -194Q429 -194 402 -203T348 -223T287
-233Q245 -233 213 -216T181 -140Q181 -115 186 -87T201 -35T218 5Q232 29 257 47T332 65Q368 65 387 48T406 6Q406 -19 396 -50T385 -108Q385 -129 401 -129Q417 -129 437 -117T487 -92T558 -79Q595 -79 627 -94T680 -142T700 -230Q700 -339 608 -393T350 -448Z"
/>
<glyph unicode="&#xb9;" horiz-adv-x="325" d="M176 653Q140 653 119 673T97 727Q97 745 99 775T105 842T113 912T119 975T122 1019Q122 1040 105 1045Q89 1048 71 1047T47 1047Q36 1052 30 1060T24 1080Q24 1103 53 1125T121 1162T188 1177Q228 1177 247 1146T271
1067T277 972Q277 950 276 924T273 869T268 814T262 763T255 720Q239 653 176 653Z" />
<glyph unicode="&#xba;" horiz-adv-x="623" d="M295 831Q216 831 156 856T61 925T27 1021Q27 1081 60 1129T157 1206T313 1235Q398 1235 454 1205T539 1125T568 1015Q568 957 526 916T420 853T295 831ZM302 954Q359 954 392 979T425 1043Q425 1079 391 1106T297
1133Q257 1133 222 1112T186 1046Q186 1015 203 995T247 964T302 954Z" />
<glyph unicode="&#xbb;" horiz-adv-x="781" d="M448 235Q414 235 397 255T379 305Q379 330 393 363T435 436T501 519Q521 542 539 568T568 620T579 666Q579 684 566 707T531 755T486 800Q428 853 398 900T367 984Q367 1062 431 1062Q447 1062 479 1044T546 1001T601
957Q645 917 685 872T751 779T776 675Q776 635 764 597T731 521T684 448T631 377Q608 349 573 316T504 259T448 235ZM358 235Q324 235 307 255T289 305Q289 330 303 363T345 436T411 519Q431 542 449 568T478 620T489 666Q489 684 476 707T441 755T396 800Q338
853 308 900T277 984Q277 1062 341 1062Q357 1062 389 1044T456 1001T511 957Q555 917 595 872T661 779T686 675Q686 635 674 597T641 521T594 448T541 377Q518 349 483 316T414 259T358 235Z" />
<glyph unicode="&#xbc;" horiz-adv-x="1125" d="M176 653Q140 653 119 673T97 727Q97 745 99 775T105 842T113 912T119 975T122 1019Q122 1040 105 1045Q89 1048 71 1047T47 1047Q36 1052 30 1060T24 1080Q24 1103 53 1125T121 1162T188 1177Q228 1177 247 1146T271
1067T277 972Q277 950 276 924T273 869T268 814T262 763T255 720Q239 653 176 653ZM-44 1Q-57 1 -69 6T-88 21T-96 49Q-96 72 -68 109T8 194T111 298Q148 331 195 377T296 479T407 593T521 711T630 826T728 928T806 1009Q840 1044 878 1079T952 1140T1015 1165Q1024
1165 1030 1163T1041 1157T1048 1146T1051 1129Q1051 1106 1025 1068T960 987T887 909Q831 851 767 783T632 641T490 491T346 342T207 199Q170 162 121 115T27 35T-44 1ZM941 -17Q917 -17 900 -6T883 34Q883 43 883 54T883 75T882 94Q881 110 871 118T827 128Q791
129 763 130T709 137Q676 142 663 169T650 235Q650 273 663 323T690 405Q702 433 718 453T766 474Q785 474 795 465T806 436Q806 421 802 403T791 365T780 324T775 283Q775 257 780 249T798 237Q811 233 829 233T863 232Q882 232 890 238T898 264Q898 274 899 297T901
346T905 396T908 428Q912 454 925 469T960 485Q986 485 997 471T1012 427Q1014 413 1015 394T1016 350T1017 301T1017 249Q1017 225 1040 225Q1053 225 1065 225T1087 223Q1100 220 1106 211T1113 186Q1113 164 1105 154T1075 139Q1068 138 1055 136T1029 131Q1017
130 1013 122T1008 99Q1006 84 1005 64T999 27Q988 -17 941 -17Z" />
<glyph unicode="&#xbd;" horiz-adv-x="1122" d="M176 653Q140 653 119 673T97 727Q97 745 99 775T105 842T113 912T119 975T122 1019Q122 1040 105 1045Q89 1048 71 1047T47 1047Q36 1052 30 1060T24 1080Q24 1103 53 1125T121 1162T188 1177Q228 1177 247 1146T271
1067T277 972Q277 950 276 924T273 869T268 814T262 763T255 720Q239 653 176 653ZM-44 1Q-57 1 -69 6T-88 21T-96 49Q-96 72 -68 109T8 194T111 298Q148 331 195 377T296 479T407 593T521 711T630 826T728 928T806 1009Q840 1044 878 1079T952 1140T1015 1165Q1024
1165 1030 1163T1041 1157T1048 1146T1051 1129Q1051 1106 1025 1068T960 987T887 909Q831 851 767 783T632 641T490 491T346 342T207 199Q170 162 121 115T27 35T-44 1ZM759 -14Q715 -9 684 6T652 62Q652 84 660 104T701 144Q732 164 779 191T865 246Q895 267
913 288T932 329Q932 354 914 364T864 375Q832 375 808 366T769 345Q751 330 735 319T702 308Q684 308 669 320T654 356Q654 394 683 424T761 474T871 493Q926 493 972 481T1047 438T1076 353Q1076 316 1057 288T1005 231Q982 211 958 195T911 165T870 142Q846
129 846 119Q846 113 860 112T889 111Q917 111 960 117T1030 124Q1056 124 1071 112T1087 79Q1087 42 1062 21T993 -8T886 -18Q856 -18 822 -18T759 -14Z" />
<glyph unicode="&#xbe;" horiz-adv-x="1318" d="M232 646Q175 646 126 657T46 688T15 735Q15 772 35 783T71 794Q102 794 142 778T231 762Q280 762 312 773T344 808Q344 831 320 843T257 863Q223 870 202 883T180 919Q180 940 196 950T238 967Q271 976 294 988T317
1021Q317 1045 291 1054T222 1063Q176 1063 137 1055T79 1046Q53 1046 38 1061T22 1097Q22 1124 53 1141T134 1167T236 1176Q349 1176 404 1141T459 1045Q459 1016 441 994T389 955Q375 947 368 940T360 926Q360 918 372 912T400 900Q434 888 463 864T492 794Q492
748 463 715T377 664T232 646ZM149 1Q136 1 124 6T105 21T97 49Q97 72 125 109T201 194T304 298Q341 331 388 377T489 479T600 593T714 711T823 826T921 928T999 1009Q1033 1044 1071 1079T1145 1140T1208 1165Q1217 1165 1223 1163T1234 1157T1241 1146T1244 1129Q1244
1106 1218 1068T1153 987T1080 909Q1024 851 960 783T825 641T683 491T539 342T400 199Q363 162 314 115T220 35T149 1ZM1133 -17Q1109 -17 1092 -6T1075 34Q1075 43 1075 54T1075 75T1074 94Q1073 110 1063 118T1019 128Q983 129 955 130T901 137Q868 142 855
169T842 235Q842 273 855 323T882 405Q894 433 910 453T958 474Q977 474 987 465T998 436Q998 421 994 403T983 365T972 324T967 283Q967 257 972 249T990 237Q1003 233 1021 233T1055 232Q1074 232 1082 238T1090 264Q1090 274 1091 297T1093 346T1097 396T1100
428Q1104 454 1117 469T1152 485Q1178 485 1189 471T1204 427Q1206 413 1207 394T1208 350T1209 301T1209 249Q1209 225 1232 225Q1245 225 1257 225T1279 223Q1292 220 1298 211T1305 186Q1305 164 1297 154T1267 139Q1260 138 1247 136T1221 131Q1209 130 1205
122T1200 99Q1198 84 1197 64T1191 27Q1180 -17 1133 -17Z" />
<glyph unicode="&#xbf;" horiz-adv-x="1054" d="M622 525Q662 525 691 514T737 474T754 389Q754 326 729 273T655 175T537 88Q480 53 434 20T361 -47T334 -121Q334 -163 359 -189T431 -227T538 -239Q581 -239 632 -228T729 -198T802 -153Q838 -133 869 -121T935
-109Q966 -109 989 -125T1012 -188Q1012 -218 996 -245T951 -297Q903 -346 834 -382T686 -438T527 -457Q422 -457 335 -436T185 -373T87 -269T52 -126Q52 -51 83 6T168 107T290 184Q337 210 381 238T456 303T496 390Q512 458 535 491T622 525ZM657 875Q718 875
755 847T792 765Q792 706 751 672T656 638Q618 638 582 648T523 684T500 755Q500 804 535 839T657 875Z" />
<glyph unicode="&#xc0;" horiz-adv-x="1555" d="M1298 -40Q1243 -40 1201 -20T1125 47Q1116 68 1107 93T1088 146T1068 199T1042 249Q1025 279 1004 295T947 317Q932 321 903 323T840 328T773 330Q726 330 677 327T591 320Q557 315 538 303T505 266Q492 243 479
211T452 145T424 78Q397 32 357 5T242 -22Q181 -22 140 -4T78 57T58 172Q58 224 71 288T106 424T157 564T214 698T269 812T315 894Q349 950 394 1004T496 1104T625 1176T781 1204Q911 1204 1022 1137T1223 952Q1258 909 1292 846T1356 708T1413 552T1458 394T1487
247T1498 126Q1498 34 1444 -3T1298 -40ZM966 558Q986 565 993 579T1000 624Q1000 649 992 684T970 758T938 829Q913 877 878 908T804 939Q755 939 713 901T641 808Q629 788 617 761T594 706T576 653T569 608Q569 576 596 563T671 549Q746 549 802 550T898 553T966
558ZM823 1283Q768 1283 693 1307T548 1365Q476 1401 432 1441T387 1529Q387 1573 411 1593T477 1614Q518 1614 577 1591T695 1533Q778 1483 835 1432T893 1341Q893 1310 873 1297T823 1283Z" />
<glyph unicode="&#xc1;" horiz-adv-x="1576" d="M1298 -40Q1243 -40 1201 -20T1125 47Q1116 68 1107 93T1088 146T1068 199T1042 249Q1025 279 1004 295T947 317Q932 321 903 323T840 328T773 330Q726 330 677 327T591 320Q557 315 538 303T505 266Q492 243 479
211T452 145T424 78Q397 32 357 5T242 -22Q181 -22 140 -4T78 57T58 172Q58 224 71 288T106 424T157 564T214 698T269 812T315 894Q349 950 394 1004T496 1104T625 1176T781 1204Q911 1204 1022 1137T1223 952Q1258 909 1292 846T1356 708T1413 552T1458 394T1487
247T1498 126Q1498 34 1444 -3T1298 -40ZM966 558Q986 565 993 579T1000 624Q1000 649 992 684T970 758T938 829Q913 877 878 908T804 939Q755 939 713 901T641 808Q629 788 617 761T594 706T576 653T569 608Q569 576 596 563T671 549Q746 549 802 550T898 553T966
558ZM627 1319Q597 1319 577 1332T557 1377Q557 1416 614 1467T754 1569Q812 1603 871 1626T972 1650Q1015 1650 1038 1630T1062 1565Q1062 1518 1018 1478T902 1401Q832 1367 757 1343T627 1319Z" />
<glyph unicode="&#xc2;" horiz-adv-x="1555" d="M1298 -40Q1243 -40 1201 -20T1125 47Q1116 68 1107 93T1088 146T1068 199T1042 249Q1025 279 1004 295T947 317Q932 321 903 323T840 328T773 330Q726 330 677 327T591 320Q557 315 538 303T505 266Q492 243 479
211T452 145T424 78Q397 32 357 5T242 -22Q181 -22 140 -4T78 57T58 172Q58 224 71 288T106 424T157 564T214 698T269 812T315 894Q349 950 394 1004T496 1104T625 1176T781 1204Q911 1204 1022 1137T1223 952Q1258 909 1292 846T1356 708T1413 552T1458 394T1487
247T1498 126Q1498 34 1444 -3T1298 -40ZM966 558Q986 565 993 579T1000 624Q1000 649 992 684T970 758T938 829Q913 877 878 908T804 939Q755 939 713 901T641 808Q629 788 617 761T594 706T576 653T569 608Q569 576 596 563T671 549Q746 549 802 550T898 553T966
558ZM506 1273Q435 1273 435 1344Q435 1381 473 1431T569 1530T690 1610T800 1642Q843 1642 900 1610T1011 1530T1099 1433T1134 1350Q1134 1317 1116 1298T1067 1279Q1025 1279 999 1303T943 1373Q925 1401 898 1429T844 1477T797 1496Q779 1496 751 1475T691
1422T635 1360Q600 1319 573 1296T506 1273Z" />
<glyph unicode="&#xc3;" horiz-adv-x="1555" d="M1298 -40Q1243 -40 1201 -20T1125 47Q1116 68 1107 93T1088 146T1068 199T1042 249Q1025 279 1004 295T947 317Q932 321 903 323T840 328T773 330Q726 330 677 327T591 320Q557 315 538 303T505 266Q492 243 479
211T452 145T424 78Q397 32 357 5T242 -22Q181 -22 140 -4T78 57T58 172Q58 224 71 288T106 424T157 564T214 698T269 812T315 894Q349 950 394 1004T496 1104T625 1176T781 1204Q911 1204 1022 1137T1223 952Q1258 909 1292 846T1356 708T1413 552T1458 394T1487
247T1498 126Q1498 34 1444 -3T1298 -40ZM966 558Q986 565 993 579T1000 624Q1000 649 992 684T970 758T938 829Q913 877 878 908T804 939Q755 939 713 901T641 808Q629 788 617 761T594 706T576 653T569 608Q569 576 596 563T671 549Q746 549 802 550T898 553T966
558ZM553 1286Q531 1286 516 1299T501 1342Q501 1389 527 1433T597 1505T691 1534Q734 1534 764 1514T818 1468T863 1422T910 1402Q939 1402 956 1415T992 1467Q1006 1498 1020 1509T1056 1521Q1074 1521 1088 1509T1103 1463Q1103 1416 1076 1375T1007 1308T917
1283Q875 1283 843 1302T787 1345T741 1389T697 1408Q674 1408 654 1389T618 1335Q604 1305 588 1296T553 1286Z" />
<glyph unicode="&#xc4;" horiz-adv-x="1555" d="M1298 -40Q1243 -40 1201 -20T1125 47Q1116 68 1107 93T1088 146T1068 199T1042 249Q1025 279 1004 295T947 317Q932 321 903 323T840 328T773 330Q726 330 677 327T591 320Q557 315 538 303T505 266Q492 243 479
211T452 145T424 78Q397 32 357 5T242 -22Q181 -22 140 -4T78 57T58 172Q58 224 71 288T106 424T157 564T214 698T269 812T315 894Q349 950 394 1004T496 1104T625 1176T781 1204Q911 1204 1022 1137T1223 952Q1258 909 1292 846T1356 708T1413 552T1458 394T1487
247T1498 126Q1498 34 1444 -3T1298 -40ZM966 558Q986 565 993 579T1000 624Q1000 649 992 684T970 758T938 829Q913 877 878 908T804 939Q755 939 713 901T641 808Q629 788 617 761T594 706T576 653T569 608Q569 576 596 563T671 549Q746 549 802 550T898 553T966
558ZM595 1259Q509 1259 472 1294T434 1378Q434 1443 479 1475T572 1508Q611 1508 645 1497T701 1458T722 1377Q722 1327 695 1293T595 1259ZM1025 1262Q963 1262 923 1296T883 1381Q883 1443 929 1482T1042 1521Q1103 1521 1133 1485T1163 1401Q1163 1344 1126
1303T1025 1262Z" />
<glyph unicode="&#xc5;" horiz-adv-x="1555" d="M1298 -40Q1243 -40 1201 -20T1125 47Q1116 68 1107 93T1088 146T1068 199T1042 249Q1025 279 1004 295T947 317Q932 321 903 323T840 328T773 330Q726 330 677 327T591 320Q557 315 538 303T505 266Q492 243 479
211T452 145T424 78Q397 32 357 5T242 -22Q181 -22 140 -4T78 57T58 172Q58 224 71 288T106 424T157 564T214 698T269 812T315 894Q349 950 394 1004T496 1104T625 1176T781 1204Q911 1204 1022 1137T1223 952Q1258 909 1292 846T1356 708T1413 552T1458 394T1487
247T1498 126Q1498 34 1444 -3T1298 -40ZM966 558Q986 565 993 579T1000 624Q1000 649 992 684T970 758T938 829Q913 877 878 908T804 939Q755 939 713 901T641 808Q629 788 617 761T594 706T576 653T569 608Q569 576 596 563T671 549Q746 549 802 550T898 553T966
558ZM779 1267Q681 1267 620 1310T558 1430Q558 1504 618 1552T793 1601Q898 1601 951 1558T1005 1442Q1005 1381 971 1343T884 1286T779 1267ZM784 1374Q828 1374 848 1395T868 1445Q868 1473 845 1492T780 1511Q748 1511 725 1495T701 1444Q701 1409 726 1392T784
1374Z" />
<glyph unicode="&#xc6;" horiz-adv-x="2111" d="M169 -22Q134 -22 109 -11T71 28T58 99Q58 141 71 199T109 326T164 464T229 600T297 720Q380 854 479 963T688 1138T915 1204Q1020 1204 1092 1164T1211 1053T1281 892T1315 696T1324 483Q1324 442 1304 407T1233
350T1094 328Q1022 328 933 332T757 339T608 343Q572 343 534 307T459 222T386 131Q340 70 303 37T233 -9T169 -22ZM805 554Q868 554 911 555T980 559T1019 570T1031 592Q1031 641 1026 698T1007 805T965 888T891 921Q859 921 826 904T762 858T705 794T659 723T628
654T617 599Q617 583 624 574T652 561T709 556T805 554ZM1486 -21Q1365 -21 1273 23T1124 158T1049 392Q1046 424 1044 458T1039 528T1037 603T1036 684Q1036 862 1074 978T1188 1162T1378 1256T1643 1284Q1719 1284 1787 1277T1907 1255T1989 1214T2019 1153Q2019
1113 1996 1089T1938 1055Q1906 1049 1857 1047T1752 1045T1644 1045Q1582 1044 1540 1035T1473 1004T1437 947T1426 860Q1426 831 1434 814T1471 789T1559 782Q1581 782 1607 782T1661 784T1714 786T1759 787Q1834 787 1866 759T1899 680Q1899 603 1857 574T1751
545Q1727 545 1700 545T1647 545T1595 546T1550 546Q1487 546 1455 540T1412 519T1401 474Q1401 431 1406 397T1425 338T1461 297T1518 272T1602 263Q1659 263 1715 266T1818 271T1895 274Q1956 274 1984 246T2013 165Q2013 108 1964 72T1835 15T1663 -13T1486
-21Z" />
<glyph unicode="&#xc7;" horiz-adv-x="1247" d="M667 -56Q530 -56 418 -21T226 84T102 256T58 491Q58 646 105 773T241 993T458 1135T747 1185Q823 1185 890 1170T1008 1127T1087 1062T1116 981Q1116 921 1087 890T1008 859Q978 859 954 867T903 885T838 903T745
911Q694 911 648 889T566 822T508 714T487 567Q487 502 501 445T547 343T629 274T752 248Q801 248 840 261T912 293T974 325T1035 339Q1115 339 1144 302T1174 203Q1174 141 1135 93T1027 12T865 -38T667 -56ZM734 -465Q679 -465 627 -460T542 -436T508 -379Q508
-343 530 -327T584 -311Q612 -311 632 -318T675 -332T732 -340Q783 -340 821 -332T880 -306T901 -260Q901 -232 887 -222T843 -211Q812 -211 786 -221T732 -240T671 -250Q628 -250 596 -233T564 -158Q564 -132 569 -105T584 -52T601 -13Q616 11 641 29T716 48Q752
48 770 30T789 -11Q789 -37 779 -67T768 -126Q768 -147 784 -147Q800 -147 820 -135T870 -110T942 -97Q979 -97 1011 -112T1063 -160T1083 -247Q1083 -357 991 -411T734 -465Z" />
<glyph unicode="&#xc8;" horiz-adv-x="1152" d="M528 -54Q407 -54 315 -10T165 125T91 359Q87 391 85 425T81 495T79 570T78 651Q78 829 116 945T229 1129T419 1223T685 1251Q760 1251 828 1244T948 1222T1030 1181T1060 1120Q1060 1080 1037 1056T979 1022Q948
1016 899 1014T794 1012T686 1012Q623 1011 581 1002T514 971T478 914T467 827Q467 798 475 781T512 756T600 749Q622 749 648 749T702 751T755 753T801 754Q875 754 908 726T941 647Q941 570 898 541T793 512Q768 512 741 512T688 512T636 513T592 513Q528 513
496 507T454 486T443 441Q443 398 448 364T466 305T502 264T559 239T644 230Q700 230 756 233T860 238T937 241Q997 241 1026 213T1055 132Q1055 75 1005 39T876 -18T704 -46T528 -54ZM622 1342Q567 1342 492 1366T347 1424Q275 1460 231 1500T186 1588Q186 1632
210 1652T276 1673Q317 1673 376 1650T494 1592Q577 1542 634 1491T692 1400Q692 1369 672 1356T622 1342Z" />
<glyph unicode="&#xc9;" horiz-adv-x="1152" d="M528 -54Q407 -54 315 -10T165 125T91 359Q87 391 85 425T81 495T79 570T78 651Q78 829 116 945T229 1129T419 1223T685 1251Q760 1251 828 1244T948 1222T1030 1181T1060 1120Q1060 1080 1037 1056T979 1022Q948
1016 899 1014T794 1012T686 1012Q623 1011 581 1002T514 971T478 914T467 827Q467 798 475 781T512 756T600 749Q622 749 648 749T702 751T755 753T801 754Q875 754 908 726T941 647Q941 570 898 541T793 512Q768 512 741 512T688 512T636 513T592 513Q528 513
496 507T454 486T443 441Q443 398 448 364T466 305T502 264T559 239T644 230Q700 230 756 233T860 238T937 241Q997 241 1026 213T1055 132Q1055 75 1005 39T876 -18T704 -46T528 -54ZM531 1310Q501 1310 481 1323T461 1368Q461 1406 518 1458T658 1560Q716 1594
775 1617T876 1640Q919 1640 942 1620T966 1556Q966 1509 922 1469T806 1392Q736 1357 661 1334T531 1310Z" />
<glyph unicode="&#xca;" horiz-adv-x="1152" d="M528 -54Q407 -54 315 -10T165 125T91 359Q87 391 85 425T81 495T79 570T78 651Q78 829 116 945T229 1129T419 1223T685 1251Q760 1251 828 1244T948 1222T1030 1181T1060 1120Q1060 1080 1037 1056T979 1022Q948
1016 899 1014T794 1012T686 1012Q623 1011 581 1002T514 971T478 914T467 827Q467 798 475 781T512 756T600 749Q622 749 648 749T702 751T755 753T801 754Q875 754 908 726T941 647Q941 570 898 541T793 512Q768 512 741 512T688 512T636 513T592 513Q528 513
496 507T454 486T443 441Q443 398 448 364T466 305T502 264T559 239T644 230Q700 230 756 233T860 238T937 241Q997 241 1026 213T1055 132Q1055 75 1005 39T876 -18T704 -46T528 -54ZM305 1332Q234 1332 234 1403Q234 1440 272 1490T368 1589T489 1669T599 1701Q642
1701 699 1669T810 1589T898 1492T933 1409Q933 1376 915 1357T866 1338Q824 1338 798 1362T742 1432Q724 1460 697 1488T643 1536T596 1555Q578 1555 550 1534T490 1481T434 1419Q399 1378 372 1355T305 1332Z" />
<glyph unicode="&#xcb;" horiz-adv-x="1152" d="M528 -54Q407 -54 315 -10T165 125T91 359Q87 391 85 425T81 495T79 570T78 651Q78 829 116 945T229 1129T419 1223T685 1251Q760 1251 828 1244T948 1222T1030 1181T1060 1120Q1060 1080 1037 1056T979 1022Q948
1016 899 1014T794 1012T686 1012Q623 1011 581 1002T514 971T478 914T467 827Q467 798 475 781T512 756T600 749Q622 749 648 749T702 751T755 753T801 754Q875 754 908 726T941 647Q941 570 898 541T793 512Q768 512 741 512T688 512T636 513T592 513Q528 513
496 507T454 486T443 441Q443 398 448 364T466 305T502 264T559 239T644 230Q700 230 756 233T860 238T937 241Q997 241 1026 213T1055 132Q1055 75 1005 39T876 -18T704 -46T528 -54ZM394 1318Q308 1318 271 1353T233 1437Q233 1502 278 1534T371 1567Q410 1567
444 1556T500 1517T521 1436Q521 1386 494 1352T394 1318ZM824 1321Q762 1321 722 1355T682 1440Q682 1502 728 1541T841 1580Q902 1580 932 1544T962 1460Q962 1403 925 1362T824 1321Z" />
<glyph unicode="&#xcc;" horiz-adv-x="605" d="M296 -18Q195 -18 147 46T98 216Q98 258 98 314T99 438T103 577T108 721T117 859T129 982Q147 1091 189 1141T325 1191Q401 1191 438 1143T486 1017Q490 979 493 925T498 807T502 677T504 548T505 430T505 338Q505
208 487 130T425 17T296 -18ZM358 1229Q304 1229 229 1252T84 1311Q12 1347 -32 1387T-77 1475Q-77 1519 -53 1539T13 1559Q54 1559 113 1536T231 1479Q314 1429 371 1378T428 1287Q428 1256 409 1243T358 1229Z" />
<glyph unicode="&#xcd;" horiz-adv-x="605" d="M296 -18Q195 -18 147 46T98 216Q98 258 98 314T99 438T103 577T108 721T117 859T129 982Q147 1091 189 1141T325 1191Q401 1191 438 1143T486 1017Q490 979 493 925T498 807T502 677T504 548T505 430T505 338Q505
208 487 130T425 17T296 -18ZM294 1206Q264 1206 244 1219T224 1264Q224 1302 281 1354T421 1456Q479 1490 538 1513T639 1536Q682 1536 705 1516T729 1452Q729 1405 685 1365T569 1288Q499 1253 424 1230T294 1206Z" />
<glyph unicode="&#xce;" horiz-adv-x="605" d="M296 -18Q195 -18 147 46T98 216Q98 258 98 314T99 438T103 577T108 721T117 859T129 982Q147 1091 189 1141T325 1191Q401 1191 438 1143T486 1017Q490 979 493 925T498 807T502 677T504 548T505 430T505 338Q505
208 487 130T425 17T296 -18ZM46 1227Q-24 1227 -24 1298Q-24 1336 13 1386T109 1484T230 1564T340 1596Q384 1596 441 1564T551 1484T639 1387T674 1304Q674 1271 656 1253T607 1234Q566 1234 540 1258T484 1327Q465 1356 438 1384T384 1431T337 1450Q320 1450
291 1429T231 1376T175 1315Q141 1273 114 1250T46 1227Z" />
<glyph unicode="&#xcf;" horiz-adv-x="605" d="M296 -18Q195 -18 147 46T98 216Q98 258 98 314T99 438T103 577T108 721T117 859T129 982Q147 1091 189 1141T325 1191Q401 1191 438 1143T486 1017Q490 979 493 925T498 807T502 677T504 548T505 430T505 338Q505
208 487 130T425 17T296 -18ZM118 1212Q32 1212 -5 1247T-43 1331Q-43 1396 2 1428T95 1461Q134 1461 168 1450T224 1411T245 1330Q245 1280 218 1246T118 1212ZM548 1215Q486 1215 446 1249T406 1334Q406 1396 452 1435T565 1474Q626 1474 656 1438T686 1354Q686
1297 649 1256T548 1215Z" />
<glyph unicode="&#xd0;" horiz-adv-x="1402" d="M236 546Q135 546 75 550T-11 569T-38 609Q-38 643 -9 659T89 681T279 686Q380 686 458 684T591 676T672 654T700 611Q700 589 670 576T580 556T434 548T236 546ZM378 -28Q284 -28 227 -2T140 76T97 211Q86 273
82 353T78 529Q78 657 84 767T112 964Q142 1085 212 1154T419 1224Q575 1224 714 1185T969 1080T1169 931T1299 756T1345 578Q1345 479 1296 389T1159 223T950 91T684 4T378 -28ZM544 329Q624 329 688 346T802 392T884 457T935 533T952 609Q952 642 933 679T877
752T788 817T672 863T531 881Q505 881 489 862T464 807Q457 778 454 741T450 660Q450 574 453 511T466 408Q485 329 544 329Z" />
<glyph unicode="&#xd1;" horiz-adv-x="1577" d="M309 -48Q251 -48 214 -22T151 50Q138 75 128 121T109 226T95 350T85 478T80 595T78 685Q78 836 99 944T177 1111T338 1169Q405 1169 460 1135T579 1027T735 836Q846 687 923 606T1037 524Q1055 524 1066 530T1084
557T1095 615Q1097 633 1098 666T1101 743T1105 831T1109 917T1114 990T1120 1034Q1140 1102 1179 1129T1290 1157Q1344 1157 1381 1139T1441 1086T1474 998T1486 877Q1486 842 1486 790T1484 675T1480 546T1472 417T1460 301T1443 210Q1423 131 1391 79T1308 2T1185
-24Q1123 -24 1055 23T914 152T763 338Q712 405 672 458T601 547T550 603T516 622Q488 622 476 594T464 478Q464 444 465 405T467 323T470 241T470 162T468 92T462 36Q442 -10 404 -29T309 -48ZM555 1261Q533 1261 518 1274T503 1317Q503 1364 529 1408T599 1480T693
1509Q736 1509 766 1489T820 1443T865 1397T912 1377Q941 1377 958 1390T994 1442Q1008 1473 1022 1484T1058 1496Q1076 1496 1090 1484T1105 1438Q1105 1391 1078 1350T1009 1283T919 1258Q877 1258 845 1277T789 1320T743 1364T699 1383Q676 1383 656 1364T620
1310Q606 1280 590 1271T555 1261Z" />
<glyph unicode="&#xd2;" horiz-adv-x="1619" d="M724 -106Q580 -106 458 -64T247 57T108 250T58 507Q58 645 100 755T216 947T389 1084T601 1166T833 1193Q985 1193 1117 1150T1350 1026T1506 829T1562 570Q1562 411 1496 286T1313 73T1045 -60T724 -106ZM796
285Q927 285 1006 327T1120 439T1156 586Q1156 660 1131 718T1061 818T957 882T829 905Q764 905 704 885T596 828T522 738T494 621Q494 547 516 486T579 380T675 310T796 285ZM871 1284Q816 1284 741 1308T596 1366Q524 1402 480 1442T435 1530Q435 1574 459 1594T525
1615Q566 1615 625 1592T743 1534Q826 1484 883 1433T941 1342Q941 1311 921 1298T871 1284Z" />
<glyph unicode="&#xd3;" horiz-adv-x="1619" d="M724 -106Q580 -106 458 -64T247 57T108 250T58 507Q58 645 100 755T216 947T389 1084T601 1166T833 1193Q985 1193 1117 1150T1350 1026T1506 829T1562 570Q1562 411 1496 286T1313 73T1045 -60T724 -106ZM796
285Q927 285 1006 327T1120 439T1156 586Q1156 660 1131 718T1061 818T957 882T829 905Q764 905 704 885T596 828T522 738T494 621Q494 547 516 486T579 380T675 310T796 285ZM780 1252Q750 1252 730 1265T710 1310Q710 1348 767 1400T907 1502Q965 1536 1024 1559T1125
1582Q1168 1582 1191 1562T1215 1498Q1215 1451 1171 1411T1055 1334Q985 1299 910 1276T780 1252Z" />
<glyph unicode="&#xd4;" horiz-adv-x="1619" d="M724 -106Q580 -106 458 -64T247 57T108 250T58 507Q58 645 100 755T216 947T389 1084T601 1166T833 1193Q985 1193 1117 1150T1350 1026T1506 829T1562 570Q1562 411 1496 286T1313 73T1045 -60T724 -106ZM796
285Q927 285 1006 327T1120 439T1156 586Q1156 660 1131 718T1061 818T957 882T829 905Q764 905 704 885T596 828T522 738T494 621Q494 547 516 486T579 380T675 310T796 285ZM554 1274Q483 1274 483 1345Q483 1382 521 1432T617 1531T738 1611T848 1643Q891 1643
948 1611T1059 1531T1147 1434T1182 1351Q1182 1318 1164 1299T1115 1280Q1073 1280 1047 1304T991 1374Q973 1402 946 1430T892 1478T845 1497Q827 1497 799 1476T739 1423T683 1361Q648 1320 621 1297T554 1274Z" />
<glyph unicode="&#xd5;" horiz-adv-x="1619" d="M724 -106Q580 -106 458 -64T247 57T108 250T58 507Q58 645 100 755T216 947T389 1084T601 1166T833 1193Q985 1193 1117 1150T1350 1026T1506 829T1562 570Q1562 411 1496 286T1313 73T1045 -60T724 -106ZM796
285Q927 285 1006 327T1120 439T1156 586Q1156 660 1131 718T1061 818T957 882T829 905Q764 905 704 885T596 828T522 738T494 621Q494 547 516 486T579 380T675 310T796 285ZM601 1287Q579 1287 564 1300T549 1343Q549 1390 575 1434T645 1506T739 1535Q782 1535
812 1515T866 1469T911 1423T958 1403Q987 1403 1004 1416T1040 1468Q1054 1499 1068 1510T1104 1522Q1122 1522 1136 1510T1151 1464Q1151 1417 1124 1376T1055 1309T965 1284Q923 1284 891 1303T835 1346T789 1390T745 1409Q722 1409 702 1390T666 1336Q652 1306
636 1297T601 1287Z" />
<glyph unicode="&#xd6;" horiz-adv-x="1619" d="M724 -106Q580 -106 458 -64T247 57T108 250T58 507Q58 645 100 755T216 947T389 1084T601 1166T833 1193Q985 1193 1117 1150T1350 1026T1506 829T1562 570Q1562 411 1496 286T1313 73T1045 -60T724 -106ZM796
285Q927 285 1006 327T1120 439T1156 586Q1156 660 1131 718T1061 818T957 882T829 905Q764 905 704 885T596 828T522 738T494 621Q494 547 516 486T579 380T675 310T796 285ZM643 1260Q557 1260 520 1295T482 1379Q482 1444 527 1476T620 1509Q659 1509 693 1498T749
1459T770 1378Q770 1328 743 1294T643 1260ZM1073 1263Q1011 1263 971 1297T931 1382Q931 1444 977 1483T1090 1522Q1151 1522 1181 1486T1211 1402Q1211 1345 1174 1304T1073 1263Z" />
<glyph unicode="&#xd7;" horiz-adv-x="979" d="M60 210Q29 244 29 289Q29 312 42 340T88 404Q133 453 189 509T304 624T421 739T529 845T614 930Q672 989 714 1016T790 1044Q833 1044 875 1003Q913 965 913 917Q913 878 884 832T799 731Q766 700 714 650T603 541T485
425T379 318T306 241Q268 199 234 179T166 159Q139 159 113 172T60 210ZM885 197Q866 173 845 162T800 150Q766 150 724 178T629 259Q597 292 546 343T434 453T314 570T206 677T130 757Q90 803 69 842T47 916Q47 940 57 964T92 1012Q106 1025 122 1031T159 1038Q184
1038 218 1020T292 964Q341 919 397 866T510 755T623 644T726 541T811 458Q870 402 896 363T922 288Q922 266 913 244T885 197Z" />
<glyph unicode="&#xd8;" horiz-adv-x="1623" d="M82 -196Q54 -196 30 -185T-10 -152T-25 -103Q-25 -65 9 -14T97 92T213 200T331 295T424 362L582 163Q556 132 509 87T405 -8T288 -100T174 -169T82 -196ZM1213 785L1040 954Q1060 978 1100 1020T1192 1111T1297
1204T1396 1277T1471 1306Q1500 1306 1525 1290T1565 1247T1581 1189Q1581 1145 1542 1085T1443 965T1321 856T1213 785ZM724 -106Q580 -106 458 -64T247 57T108 250T58 507Q58 645 100 755T216 947T389 1084T601 1166T833 1193Q985 1193 1117 1150T1350 1026T1506
829T1562 570Q1562 411 1496 286T1313 73T1045 -60T724 -106ZM796 285Q927 285 1006 327T1120 439T1156 586Q1156 660 1131 718T1061 818T957 882T829 905Q764 905 704 885T596 828T522 738T494 621Q494 547 516 486T579 380T675 310T796 285Z" />
<glyph unicode="&#xd9;" horiz-adv-x="1426" d="M681 -39Q452 -39 304 78T89 392Q77 427 68 465T53 542T43 623T36 708T34 796Q34 927 57 1011T132 1135T272 1176Q331 1176 369 1146T425 1046T444 855Q444 819 445 783T448 713T454 647T464 586T478 529Q501 448
549 399T681 349Q735 349 776 371T846 434T895 528Q907 562 916 600T930 680T937 765T940 851Q940 968 962 1037T1029 1137T1140 1168Q1215 1168 1255 1130T1309 1010T1324 799Q1324 753 1322 710T1315 624T1303 541T1285 462T1262 387Q1216 257 1135 162T941 14T681
-39ZM761 1292Q706 1292 631 1316T486 1374Q414 1410 370 1450T325 1538Q325 1582 349 1602T415 1623Q456 1623 515 1600T633 1542Q716 1492 773 1441T831 1350Q831 1319 811 1306T761 1292Z" />
<glyph unicode="&#xda;" horiz-adv-x="1426" d="M681 -39Q452 -39 304 78T89 392Q77 427 68 465T53 542T43 623T36 708T34 796Q34 927 57 1011T132 1135T272 1176Q331 1176 369 1146T425 1046T444 855Q444 819 445 783T448 713T454 647T464 586T478 529Q501 448
549 399T681 349Q735 349 776 371T846 434T895 528Q907 562 916 600T930 680T937 765T940 851Q940 968 962 1037T1029 1137T1140 1168Q1215 1168 1255 1130T1309 1010T1324 799Q1324 753 1322 710T1315 624T1303 541T1285 462T1262 387Q1216 257 1135 162T941 14T681
-39ZM670 1260Q640 1260 620 1273T600 1318Q600 1356 657 1408T797 1510Q855 1544 914 1567T1015 1590Q1058 1590 1081 1570T1105 1506Q1105 1459 1061 1419T945 1342Q875 1307 800 1284T670 1260Z" />
<glyph unicode="&#xdb;" horiz-adv-x="1426" d="M681 -39Q452 -39 304 78T89 392Q77 427 68 465T53 542T43 623T36 708T34 796Q34 927 57 1011T132 1135T272 1176Q331 1176 369 1146T425 1046T444 855Q444 819 445 783T448 713T454 647T464 586T478 529Q501 448
549 399T681 349Q735 349 776 371T846 434T895 528Q907 562 916 600T930 680T937 765T940 851Q940 968 962 1037T1029 1137T1140 1168Q1215 1168 1255 1130T1309 1010T1324 799Q1324 753 1322 710T1315 624T1303 541T1285 462T1262 387Q1216 257 1135 162T941 14T681
-39ZM444 1282Q373 1282 373 1353Q373 1390 411 1440T507 1539T628 1619T738 1651Q781 1651 838 1619T949 1539T1037 1442T1072 1359Q1072 1326 1054 1307T1005 1288Q963 1288 937 1312T881 1382Q863 1410 836 1438T782 1486T735 1505Q717 1505 689 1484T629 1431T573
1369Q538 1328 511 1305T444 1282Z" />
<glyph unicode="&#xdc;" horiz-adv-x="1426" d="M681 -39Q452 -39 304 78T89 392Q77 427 68 465T53 542T43 623T36 708T34 796Q34 927 57 1011T132 1135T272 1176Q331 1176 369 1146T425 1046T444 855Q444 819 445 783T448 713T454 647T464 586T478 529Q501 448
549 399T681 349Q735 349 776 371T846 434T895 528Q907 562 916 600T930 680T937 765T940 851Q940 968 962 1037T1029 1137T1140 1168Q1215 1168 1255 1130T1309 1010T1324 799Q1324 753 1322 710T1315 624T1303 541T1285 462T1262 387Q1216 257 1135 162T941 14T681
-39ZM533 1268Q447 1268 410 1303T372 1387Q372 1452 417 1484T510 1517Q549 1517 583 1506T639 1467T660 1386Q660 1336 633 1302T533 1268ZM963 1271Q901 1271 861 1305T821 1390Q821 1452 867 1491T980 1530Q1041 1530 1071 1494T1101 1410Q1101 1353 1064 1312T963
1271Z" />
<glyph unicode="&#xdd;" horiz-adv-x="1362" d="M656 -20Q574 -20 538 13T486 117Q483 136 481 160T476 210T472 265T468 320Q463 389 452 441T400 519Q352 549 307 574T222 629Q174 663 138 706T78 799T42 901T29 1006Q29 1068 56 1111T129 1177T233 1200Q279
1200 315 1175T382 1088Q398 1048 419 1007T464 928Q490 882 522 845T592 785T672 763Q714 763 753 788T828 851Q874 900 912 960T976 1068Q1014 1125 1048 1153T1126 1181Q1181 1181 1225 1153T1296 1079T1322 977Q1322 940 1312 897T1283 810T1235 723T1171 644Q1116
591 1065 557T958 492Q923 472 903 457T872 425T851 382Q847 366 843 339T834 279T825 209T816 136Q806 64 765 22T656 -20ZM640 1247Q610 1247 590 1260T570 1305Q570 1343 627 1395T767 1497Q825 1531 884 1554T985 1577Q1028 1577 1051 1557T1075 1493Q1075
1446 1031 1406T915 1329Q845 1294 770 1271T640 1247Z" />
<glyph unicode="&#xde;" horiz-adv-x="1146" d="M232 -48Q199 -48 162 -27T94 33T52 122Q38 178 30 246T19 387T16 522Q16 607 19 703T27 882T42 1007Q54 1065 82 1104T147 1162T224 1182Q278 1182 319 1162T384 1084T410 917Q411 890 435 887T497 890T574 900Q720
911 814 890T966 826T1055 725Q1076 689 1084 630T1086 512T1058 413Q1019 340 951 299T794 241T601 223Q545 223 502 226T433 223T408 189Q408 90 392 40T337 -29T232 -48ZM531 408Q615 409 680 423T782 471T819 563Q819 646 746 685T546 720Q521 719 494 717T447
706T420 679Q412 659 407 627T399 560T398 493T408 444Q412 431 426 424T459 413T497 408T531 408Z" />
<glyph unicode="&#xdf;" horiz-adv-x="1211" d="M235 -48Q171 -48 132 -24T72 47T44 161T36 315Q36 390 40 459T52 592T74 713T104 822T142 917T191 999Q262 1108 368 1163T626 1219Q703 1219 774 1200T902 1140T992 1038T1025 892Q1025 804 990 748T922 655Q904
635 896 622T887 597Q887 583 903 571T960 543Q1016 522 1059 484T1126 393T1150 280Q1150 204 1115 142T1018 36T882 -33T728 -57Q682 -57 633 -49T550 -16T517 59Q517 96 535 114T587 143T664 160Q710 168 749 187T813 234T838 292Q838 341 800 365T707 407Q649
426 617 455T585 534Q585 580 606 610T668 673Q699 699 711 728T724 791Q724 834 706 865T655 914T579 932Q532 932 496 895T437 788T409 623Q408 564 406 508T402 397T395 286T383 170T364 44Q349 -7 319 -27T235 -48Z" />
<glyph unicode="&#xe0;" horiz-adv-x="1296" d="M508 -116Q424 -116 345 -101T204 -49T105 46T68 192Q68 282 113 341T236 435T410 483T612 498Q640 498 668 496T721 493T761 491Q784 491 793 499T802 526Q802 551 796 571T777 606T748 633Q719 653 675 662T580
672Q517 672 461 659T354 632T254 618Q175 618 132 644T89 725Q89 778 127 819T231 889T382 931T557 946Q743 946 870 904T1063 764T1129 496Q1129 454 1125 422T1116 367T1106 325T1102 292Q1102 265 1120 240T1162 189T1204 132T1222 63Q1222 6 1186 -20T1103
-46Q1065 -46 1042 -26T1000 15T960 36Q945 36 927 27T882 0Q852 -21 804 -48T683 -96T508 -116ZM539 99Q585 99 628 112T706 150T763 208T784 281Q784 309 766 322T711 340T616 345Q555 345 501 333T412 291T378 209Q378 171 398 147T455 111T539 99ZM623 1020Q568
1020 493 1044T348 1102Q276 1138 232 1178T187 1266Q187 1310 211 1330T277 1351Q318 1351 377 1328T495 1270Q578 1220 635 1169T693 1078Q693 1047 673 1034T623 1020Z" />
<glyph unicode="&#xe1;" horiz-adv-x="1296" d="M508 -116Q424 -116 345 -101T204 -49T105 46T68 192Q68 282 113 341T236 435T410 483T612 498Q640 498 668 496T721 493T761 491Q784 491 793 499T802 526Q802 551 796 571T777 606T748 633Q719 653 675 662T580
672Q517 672 461 659T354 632T254 618Q175 618 132 644T89 725Q89 778 127 819T231 889T382 931T557 946Q743 946 870 904T1063 764T1129 496Q1129 454 1125 422T1116 367T1106 325T1102 292Q1102 265 1120 240T1162 189T1204 132T1222 63Q1222 6 1186 -20T1103
-46Q1065 -46 1042 -26T1000 15T960 36Q945 36 927 27T882 0Q852 -21 804 -48T683 -96T508 -116ZM539 99Q585 99 628 112T706 150T763 208T784 281Q784 309 766 322T711 340T616 345Q555 345 501 333T412 291T378 209Q378 171 398 147T455 111T539 99ZM532 988Q502
988 482 1001T462 1046Q462 1084 519 1136T659 1238Q717 1272 776 1295T877 1318Q920 1318 943 1298T967 1234Q967 1187 923 1147T807 1070Q737 1035 662 1012T532 988Z" />
<glyph unicode="&#xe2;" horiz-adv-x="1296" d="M508 -116Q424 -116 345 -101T204 -49T105 46T68 192Q68 282 113 341T236 435T410 483T612 498Q640 498 668 496T721 493T761 491Q784 491 793 499T802 526Q802 551 796 571T777 606T748 633Q719 653 675 662T580
672Q517 672 461 659T354 632T254 618Q175 618 132 644T89 725Q89 778 127 819T231 889T382 931T557 946Q743 946 870 904T1063 764T1129 496Q1129 454 1125 422T1116 367T1106 325T1102 292Q1102 265 1120 240T1162 189T1204 132T1222 63Q1222 6 1186 -20T1103
-46Q1065 -46 1042 -26T1000 15T960 36Q945 36 927 27T882 0Q852 -21 804 -48T683 -96T508 -116ZM539 99Q585 99 628 112T706 150T763 208T784 281Q784 309 766 322T711 340T616 345Q555 345 501 333T412 291T378 209Q378 171 398 147T455 111T539 99ZM306 1010Q235
1010 235 1081Q235 1118 273 1168T369 1267T490 1347T600 1379Q643 1379 700 1347T811 1267T899 1170T934 1087Q934 1054 916 1035T867 1016Q825 1016 799 1040T743 1110Q725 1138 698 1166T644 1214T597 1233Q579 1233 551 1212T491 1159T435 1097Q400 1056 373
1033T306 1010Z" />
<glyph unicode="&#xe3;" horiz-adv-x="1296" d="M508 -116Q424 -116 345 -101T204 -49T105 46T68 192Q68 282 113 341T236 435T410 483T612 498Q640 498 668 496T721 493T761 491Q784 491 793 499T802 526Q802 551 796 571T777 606T748 633Q719 653 675 662T580
672Q517 672 461 659T354 632T254 618Q175 618 132 644T89 725Q89 778 127 819T231 889T382 931T557 946Q743 946 870 904T1063 764T1129 496Q1129 454 1125 422T1116 367T1106 325T1102 292Q1102 265 1120 240T1162 189T1204 132T1222 63Q1222 6 1186 -20T1103
-46Q1065 -46 1042 -26T1000 15T960 36Q945 36 927 27T882 0Q852 -21 804 -48T683 -96T508 -116ZM539 99Q585 99 628 112T706 150T763 208T784 281Q784 309 766 322T711 340T616 345Q555 345 501 333T412 291T378 209Q378 171 398 147T455 111T539 99ZM353 1023Q331
1023 316 1036T301 1079Q301 1126 327 1170T397 1242T491 1271Q534 1271 564 1251T618 1205T663 1159T710 1139Q739 1139 756 1152T792 1204Q806 1235 820 1246T856 1258Q874 1258 888 1246T903 1200Q903 1153 876 1112T807 1045T717 1020Q675 1020 643 1039T587
1082T541 1126T497 1145Q474 1145 454 1126T418 1072Q404 1042 388 1033T353 1023Z" />
<glyph unicode="&#xe4;" horiz-adv-x="1296" d="M508 -116Q424 -116 345 -101T204 -49T105 46T68 192Q68 282 113 341T236 435T410 483T612 498Q640 498 668 496T721 493T761 491Q784 491 793 499T802 526Q802 551 796 571T777 606T748 633Q719 653 675 662T580
672Q517 672 461 659T354 632T254 618Q175 618 132 644T89 725Q89 778 127 819T231 889T382 931T557 946Q743 946 870 904T1063 764T1129 496Q1129 454 1125 422T1116 367T1106 325T1102 292Q1102 265 1120 240T1162 189T1204 132T1222 63Q1222 6 1186 -20T1103
-46Q1065 -46 1042 -26T1000 15T960 36Q945 36 927 27T882 0Q852 -21 804 -48T683 -96T508 -116ZM539 99Q585 99 628 112T706 150T763 208T784 281Q784 309 766 322T711 340T616 345Q555 345 501 333T412 291T378 209Q378 171 398 147T455 111T539 99ZM395 996Q309
996 272 1031T234 1115Q234 1180 279 1212T372 1245Q411 1245 445 1234T501 1195T522 1114Q522 1064 495 1030T395 996ZM825 999Q763 999 723 1033T683 1118Q683 1180 729 1219T842 1258Q903 1258 933 1222T963 1138Q963 1081 926 1040T825 999Z" />
<glyph unicode="&#xe5;" horiz-adv-x="1296" d="M508 -116Q424 -116 345 -101T204 -49T105 46T68 192Q68 282 113 341T236 435T410 483T612 498Q640 498 668 496T721 493T761 491Q784 491 793 499T802 526Q802 551 796 571T777 606T748 633Q719 653 675 662T580
672Q517 672 461 659T354 632T254 618Q175 618 132 644T89 725Q89 778 127 819T231 889T382 931T557 946Q743 946 870 904T1063 764T1129 496Q1129 454 1125 422T1116 367T1106 325T1102 292Q1102 265 1120 240T1162 189T1204 132T1222 63Q1222 6 1186 -20T1103
-46Q1065 -46 1042 -26T1000 15T960 36Q945 36 927 27T882 0Q852 -21 804 -48T683 -96T508 -116ZM539 99Q585 99 628 112T706 150T763 208T784 281Q784 309 766 322T711 340T616 345Q555 345 501 333T412 291T378 209Q378 171 398 147T455 111T539 99ZM578 1004Q480
1004 419 1047T357 1167Q357 1241 417 1289T592 1338Q697 1338 750 1295T804 1179Q804 1118 770 1080T683 1023T578 1004ZM583 1111Q627 1111 647 1132T667 1182Q667 1210 644 1229T579 1248Q547 1248 524 1232T500 1181Q500 1146 525 1129T583 1111Z" />
<glyph unicode="&#xe6;" horiz-adv-x="1983" d="M582 1026Q755 1026 883 973T1083 811T1154 534Q1154 396 1107 292T977 117T786 10T553 -26Q469 -26 390 -10T248 40T149 129T112 264Q112 334 138 381T211 457T318 504T444 532Q486 543 546 552T666 566T763 572Q794
572 805 580T817 607Q817 626 807 649T778 693Q745 731 700 744T590 757Q521 757 455 738T327 700T204 680Q145 680 110 702T75 788Q75 844 115 888T226 963T388 1010T582 1026ZM646 424Q588 424 534 411T444 368T409 288Q409 227 454 201T572 174Q617 174 660
189T737 232T791 294T811 369Q811 395 794 406T741 421T646 424ZM1407 7Q1235 7 1106 60T906 222T835 499Q835 637 882 741T1012 916T1204 1023T1436 1059Q1520 1059 1599 1044T1741 994T1841 904T1878 769Q1878 698 1851 652T1778 576T1671 529T1545 501Q1503
490 1443 481T1323 466T1226 461Q1195 461 1184 454T1172 426Q1172 407 1182 384T1211 340Q1244 301 1289 289T1399 276Q1468 276 1534 295T1662 334T1785 353Q1844 353 1879 331T1914 245Q1914 189 1874 145T1763 70T1601 23T1407 7ZM1344 609Q1401 609 1455 622T1545
665T1580 745Q1580 806 1535 832T1417 859Q1372 859 1329 844T1252 801T1198 738T1178 664Q1178 639 1195 628T1249 613T1344 609Z" />
<glyph unicode="&#xe7;" horiz-adv-x="1206" d="M640 -45Q516 -45 407 -15T213 77T81 236T33 466Q33 604 75 710T199 889T396 999T658 1037Q773 1037 849 1014T965 954T1004 875Q1004 845 988 822T947 784T893 770Q866 770 839 778T775 794T678 802Q616 802 566
782T478 726T420 639T399 527Q399 440 432 383T524 298T661 269Q726 269 778 281T870 311T939 340T987 353Q1035 353 1062 333T1100 282T1111 221Q1111 163 1077 114T979 30T830 -25T640 -45ZM644 -455Q589 -455 537 -449T452 -425T418 -368Q418 -333 440 -317T494
-300Q522 -300 542 -307T585 -322T642 -329Q693 -329 731 -321T790 -295T811 -250Q811 -221 797 -211T753 -201Q722 -201 696 -210T642 -230T581 -240Q538 -240 506 -223T474 -147Q474 -122 479 -94T494 -42T512 -2Q526 22 551 40T626 59Q662 59 681 41T700 0Q700
-26 689 -56T678 -115Q678 -136 694 -136Q710 -136 730 -124T780 -99T852 -86Q889 -86 921 -101T973 -149T993 -237Q993 -346 901 -400T644 -455Z" />
<glyph unicode="&#xe8;" horiz-adv-x="1191" d="M616 -79Q443 -79 315 -26T115 136T44 413Q44 551 91 655T220 831T412 937T644 973Q728 973 807 958T949 908T1049 818T1086 683Q1086 613 1059 566T986 490T880 443T753 415Q712 404 651 395T531 380T434 375Q404
375 392 368T380 340Q380 322 390 299T419 254Q452 216 497 203T608 190Q676 190 742 209T871 248T993 267Q1052 267 1087 245T1123 159Q1123 103 1082 59T971 -16T809 -63T616 -79ZM552 523Q610 523 664 536T753 579T788 659Q788 720 744 746T625 773Q580 773
538 758T461 715T407 653T386 578Q386 553 403 542T457 527T552 523ZM680 1117Q625 1117 550 1141T405 1199Q333 1235 289 1275T244 1363Q244 1407 268 1427T334 1448Q375 1448 434 1425T552 1367Q635 1317 692 1266T750 1175Q750 1144 730 1131T680 1117Z" />
<glyph unicode="&#xe9;" horiz-adv-x="1191" d="M616 -79Q443 -79 315 -26T115 136T44 413Q44 551 91 655T220 831T412 937T644 973Q728 973 807 958T949 908T1049 818T1086 683Q1086 613 1059 566T986 490T880 443T753 415Q712 404 651 395T531 380T434 375Q404
375 392 368T380 340Q380 322 390 299T419 254Q452 216 497 203T608 190Q676 190 742 209T871 248T993 267Q1052 267 1087 245T1123 159Q1123 103 1082 59T971 -16T809 -63T616 -79ZM552 523Q610 523 664 536T753 579T788 659Q788 720 744 746T625 773Q580 773
538 758T461 715T407 653T386 578Q386 553 403 542T457 527T552 523ZM589 1085Q559 1085 539 1098T519 1143Q519 1181 576 1233T716 1335Q774 1369 833 1392T934 1415Q977 1415 1000 1395T1024 1331Q1024 1284 980 1244T864 1167Q794 1132 719 1109T589 1085Z"
/>
<glyph unicode="&#xea;" horiz-adv-x="1191" d="M616 -79Q443 -79 315 -26T115 136T44 413Q44 551 91 655T220 831T412 937T644 973Q728 973 807 958T949 908T1049 818T1086 683Q1086 613 1059 566T986 490T880 443T753 415Q712 404 651 395T531 380T434 375Q404
375 392 368T380 340Q380 322 390 299T419 254Q452 216 497 203T608 190Q676 190 742 209T871 248T993 267Q1052 267 1087 245T1123 159Q1123 103 1082 59T971 -16T809 -63T616 -79ZM552 523Q610 523 664 536T753 579T788 659Q788 720 744 746T625 773Q580 773
538 758T461 715T407 653T386 578Q386 553 403 542T457 527T552 523ZM362 1107Q291 1107 291 1178Q291 1215 329 1265T425 1364T546 1444T656 1476Q699 1476 756 1444T867 1364T955 1267T990 1184Q990 1151 972 1132T923 1113Q881 1113 855 1137T799 1207Q781 1235
754 1263T700 1311T653 1330Q635 1330 607 1309T547 1256T491 1194Q456 1153 429 1130T362 1107Z" />
<glyph unicode="&#xeb;" horiz-adv-x="1191" d="M616 -79Q443 -79 315 -26T115 136T44 413Q44 551 91 655T220 831T412 937T644 973Q728 973 807 958T949 908T1049 818T1086 683Q1086 613 1059 566T986 490T880 443T753 415Q712 404 651 395T531 380T434 375Q404
375 392 368T380 340Q380 322 390 299T419 254Q452 216 497 203T608 190Q676 190 742 209T871 248T993 267Q1052 267 1087 245T1123 159Q1123 103 1082 59T971 -16T809 -63T616 -79ZM552 523Q610 523 664 536T753 579T788 659Q788 720 744 746T625 773Q580 773
538 758T461 715T407 653T386 578Q386 553 403 542T457 527T552 523ZM452 1093Q366 1093 329 1128T291 1212Q291 1277 336 1309T429 1342Q468 1342 502 1331T558 1292T579 1211Q579 1161 552 1127T452 1093ZM882 1096Q820 1096 780 1130T740 1215Q740 1277 786
1316T899 1355Q960 1355 990 1319T1020 1235Q1020 1178 983 1137T882 1096Z" />
<glyph unicode="&#xec;" horiz-adv-x="617" d="M251 -45Q176 -45 135 -14T78 72T62 201Q62 229 63 259T66 322T71 387T78 453T87 519T98 584Q128 714 187 783T343 852Q402 852 439 811T493 695T510 518Q510 474 509 431T504 348T495 269T482 196T466 131T446 77Q417
21 369 -12T251 -45ZM367 928Q312 928 237 952T92 1010Q20 1046 -24 1086T-69 1174Q-69 1218 -45 1238T21 1259Q62 1259 121 1236T239 1178Q322 1128 379 1077T437 986Q437 955 417 942T367 928Z" />
<glyph unicode="&#xed;" horiz-adv-x="617" d="M251 -45Q176 -45 135 -14T78 72T62 201Q62 229 63 259T66 322T71 387T78 453T87 519T98 584Q128 714 187 783T343 852Q402 852 439 811T493 695T510 518Q510 474 509 431T504 348T495 269T482 196T466 131T446 77Q417
21 369 -12T251 -45ZM276 896Q246 896 226 909T206 954Q206 992 263 1044T403 1146Q461 1180 520 1203T621 1226Q664 1226 687 1206T711 1142Q711 1095 667 1055T551 978Q481 943 406 920T276 896Z" />
<glyph unicode="&#xee;" horiz-adv-x="617" d="M251 -45Q176 -45 135 -14T78 72T62 201Q62 229 63 259T66 322T71 387T78 453T87 519T98 584Q128 714 187 783T343 852Q402 852 439 811T493 695T510 518Q510 474 509 431T504 348T495 269T482 196T466 131T446 77Q417
21 369 -12T251 -45ZM50 918Q-21 918 -21 989Q-21 1026 17 1076T113 1175T234 1255T344 1287Q387 1287 444 1255T555 1175T643 1078T678 995Q678 962 660 943T611 924Q569 924 543 948T487 1018Q469 1046 442 1074T388 1122T341 1141Q323 1141 295 1120T235 1067T179
1005Q144 964 117 941T50 918Z" />
<glyph unicode="&#xef;" horiz-adv-x="617" d="M251 -45Q176 -45 135 -14T78 72T62 201Q62 229 63 259T66 322T71 387T78 453T87 519T98 584Q128 714 187 783T343 852Q402 852 439 811T493 695T510 518Q510 474 509 431T504 348T495 269T482 196T466 131T446 77Q417
21 369 -12T251 -45ZM139 904Q53 904 16 939T-22 1023Q-22 1088 23 1120T116 1153Q155 1153 189 1142T245 1103T266 1022Q266 972 239 938T139 904ZM569 907Q507 907 467 941T427 1026Q427 1088 473 1127T586 1166Q647 1166 677 1130T707 1046Q707 989 670 948T569
907Z" />
<glyph unicode="&#xf0;" horiz-adv-x="1133" d="M511 -52Q419 -52 333 -24T180 58T74 189T35 366Q35 447 66 513T154 625T286 697T446 723Q501 723 541 712T612 685T663 654Q677 645 685 645Q693 645 693 654Q693 662 690 669Q683 682 663 712T610 780T537 855T449
918Q434 905 409 887T356 850T302 820T260 808Q220 808 206 825T191 868Q191 878 195 888T206 910Q220 929 246 952T298 996T340 1026Q293 1055 257 1070T189 1095Q157 1108 128 1126T98 1179Q98 1211 120 1227T183 1243Q206 1243 246 1232T331 1204T415 1169T473
1139Q496 1161 534 1191T607 1247Q627 1261 646 1268T684 1276Q726 1276 753 1259T780 1207Q780 1193 768 1173T737 1129T694 1082T647 1039Q738 974 811 895T935 728T1014 549T1042 369Q1042 224 971 131T780 -7T511 -52ZM522 167Q579 167 622 183T696 226T741
287T757 356Q757 391 738 422T686 478T611 517T524 531Q463 531 417 505T345 436T319 345Q319 294 345 254T418 191T522 167Z" />
<glyph unicode="&#xf1;" horiz-adv-x="1365" d="M214 -22Q148 -22 107 5T45 94Q39 117 36 146T33 212T34 292Q41 495 118 638T332 856T651 932Q834 932 972 859T1186 642T1263 285Q1263 249 1261 218T1253 159T1241 109Q1218 43 1175 11T1068 -22Q997 -22 959
-2T903 58T879 152Q875 214 871 263T861 351T849 423T834 487Q814 562 775 599T661 637Q591 637 547 598T476 484Q463 451 454 414T438 335T426 243T415 139Q408 75 379 40T308 -8T214 -22ZM430 1045Q408 1045 393 1058T378 1101Q378 1148 404 1192T474 1264T568
1293Q611 1293 641 1273T695 1227T740 1181T787 1161Q816 1161 833 1174T869 1226Q883 1257 897 1268T933 1280Q951 1280 965 1268T980 1222Q980 1175 953 1134T884 1067T794 1042Q752 1042 720 1061T664 1104T618 1148T574 1167Q551 1167 531 1148T495 1094Q481
1064 465 1055T430 1045Z" />
<glyph unicode="&#xf2;" horiz-adv-x="1397" d="M664 -56Q542 -56 429 -30T226 54T85 204T33 428Q33 573 83 683T221 869T425 981T675 1019Q801 1019 914 988T1116 892T1255 726T1306 485Q1306 376 1258 278T1123 105T919 -13T664 -56ZM647 266Q722 266 775 289T862
350T912 435T928 527Q928 588 904 631T840 701T750 740T649 753Q580 753 520 725T423 639T386 496Q386 425 417 374T506 294T647 266ZM731 1109Q676 1109 601 1133T456 1191Q384 1227 340 1267T295 1355Q295 1399 319 1419T385 1440Q426 1440 485 1417T603 1359Q686
1309 743 1258T801 1167Q801 1136 781 1123T731 1109Z" />
<glyph unicode="&#xf3;" horiz-adv-x="1397" d="M664 -56Q542 -56 429 -30T226 54T85 204T33 428Q33 573 83 683T221 869T425 981T675 1019Q801 1019 914 988T1116 892T1255 726T1306 485Q1306 376 1258 278T1123 105T919 -13T664 -56ZM647 266Q722 266 775 289T862
350T912 435T928 527Q928 588 904 631T840 701T750 740T649 753Q580 753 520 725T423 639T386 496Q386 425 417 374T506 294T647 266ZM640 1077Q610 1077 590 1090T570 1135Q570 1173 627 1225T767 1327Q825 1361 884 1384T985 1407Q1028 1407 1051 1387T1075 1323Q1075
1276 1031 1236T915 1159Q845 1124 770 1101T640 1077Z" />
<glyph unicode="&#xf4;" horiz-adv-x="1397" d="M664 -56Q542 -56 429 -30T226 54T85 204T33 428Q33 573 83 683T221 869T425 981T675 1019Q801 1019 914 988T1116 892T1255 726T1306 485Q1306 376 1258 278T1123 105T919 -13T664 -56ZM647 266Q722 266 775 289T862
350T912 435T928 527Q928 588 904 631T840 701T750 740T649 753Q580 753 520 725T423 639T386 496Q386 425 417 374T506 294T647 266ZM414 1099Q343 1099 343 1170Q343 1207 381 1257T477 1356T598 1436T708 1468Q751 1468 808 1436T919 1356T1007 1259T1042 1176Q1042
1143 1024 1124T975 1105Q933 1105 907 1129T851 1199Q833 1227 806 1255T752 1303T705 1322Q687 1322 659 1301T599 1248T543 1186Q508 1145 481 1122T414 1099Z" />
<glyph unicode="&#xf5;" horiz-adv-x="1397" d="M664 -56Q542 -56 429 -30T226 54T85 204T33 428Q33 573 83 683T221 869T425 981T675 1019Q801 1019 914 988T1116 892T1255 726T1306 485Q1306 376 1258 278T1123 105T919 -13T664 -56ZM647 266Q722 266 775 289T862
350T912 435T928 527Q928 588 904 631T840 701T750 740T649 753Q580 753 520 725T423 639T386 496Q386 425 417 374T506 294T647 266ZM461 1112Q439 1112 424 1125T409 1168Q409 1215 435 1259T505 1331T599 1360Q642 1360 672 1340T726 1294T771 1248T818 1228Q847
1228 864 1241T900 1293Q914 1324 928 1335T964 1347Q982 1347 996 1335T1011 1289Q1011 1242 984 1201T915 1134T825 1109Q783 1109 751 1128T695 1171T649 1215T605 1234Q582 1234 562 1215T526 1161Q512 1131 496 1122T461 1112Z" />
<glyph unicode="&#xf6;" horiz-adv-x="1397" d="M664 -56Q542 -56 429 -30T226 54T85 204T33 428Q33 573 83 683T221 869T425 981T675 1019Q801 1019 914 988T1116 892T1255 726T1306 485Q1306 376 1258 278T1123 105T919 -13T664 -56ZM647 266Q722 266 775 289T862
350T912 435T928 527Q928 588 904 631T840 701T750 740T649 753Q580 753 520 725T423 639T386 496Q386 425 417 374T506 294T647 266ZM503 1085Q417 1085 380 1120T342 1204Q342 1269 387 1301T480 1334Q519 1334 553 1323T609 1284T630 1203Q630 1153 603 1119T503
1085ZM933 1088Q871 1088 831 1122T791 1207Q791 1269 837 1308T950 1347Q1011 1347 1041 1311T1071 1227Q1071 1170 1034 1129T933 1088Z" />
<glyph unicode="&#xf7;" horiz-adv-x="1137" d="M549 162Q482 162 429 194T375 289Q375 323 399 350T460 393T539 409Q580 409 617 392T679 344T703 274Q703 235 683 211T628 174T549 162ZM468 506Q371 506 292 510T155 525T67 556T36 608Q36 647 64 671T150 706T299
722T520 726Q649 726 746 724T909 710T1008 676T1041 609Q1041 573 1005 552T896 522T717 509T468 506ZM542 836Q475 836 421 868T367 963Q367 997 392 1024T455 1066T532 1082Q573 1082 610 1064T672 1014T696 943Q696 884 652 860T542 836Z" />
<glyph unicode="&#xf8;" horiz-adv-x="1397" d="M36 -184Q-3 -186 -34 -169T-65 -125Q-65 -100 -37 -57T36 37Q78 86 131 138T237 233Q288 273 321 292T382 309T443 278Q494 234 483 189T411 72Q365 18 308 -33T191 -124Q150 -150 111 -166T36 -184ZM1044 706Q1002
686 963 690T899 716T872 771T900 844Q934 887 976 931T1061 1013Q1105 1051 1143 1076T1206 1103Q1276 1106 1313 1088T1350 1033Q1350 1012 1338 988T1302 935Q1282 907 1252 874T1190 810Q1156 778 1120 751T1044 706ZM664 -56Q542 -56 429 -30T226 54T85 204T33
428Q33 573 83 683T221 869T425 981T675 1019Q801 1019 914 988T1116 892T1255 726T1306 485Q1306 376 1258 278T1123 105T919 -13T664 -56ZM647 266Q722 266 775 289T862 350T912 435T928 527Q928 588 904 631T840 701T750 740T649 753Q580 753 520 725T423 639T386
496Q386 425 417 374T506 294T647 266Z" />
<glyph unicode="&#xf9;" horiz-adv-x="1381" d="M650 -70Q496 -70 381 -29T190 92T75 290T37 560Q37 600 40 638T52 711T71 775Q98 849 147 885T267 922Q336 922 369 899T414 842T428 773Q429 751 429 726T431 676T433 626T436 582Q443 479 466 405T537 291T661
251Q735 251 783 282T861 376T907 532Q913 562 916 591T922 650T929 709T939 768Q956 834 996 873T1116 913Q1184 913 1219 874T1270 768Q1274 737 1276 704T1280 636T1281 567T1278 498Q1271 304 1194 178T980 -9T650 -70ZM735 993Q680 993 605 1017T460 1075Q388
1111 344 1151T299 1239Q299 1283 323 1303T389 1324Q430 1324 489 1301T607 1243Q690 1193 747 1142T805 1051Q805 1020 785 1007T735 993Z" />
<glyph unicode="&#xfa;" horiz-adv-x="1381" d="M650 -70Q496 -70 381 -29T190 92T75 290T37 560Q37 600 40 638T52 711T71 775Q98 849 147 885T267 922Q336 922 369 899T414 842T428 773Q429 751 429 726T431 676T433 626T436 582Q443 479 466 405T537 291T661
251Q735 251 783 282T861 376T907 532Q913 562 916 591T922 650T929 709T939 768Q956 834 996 873T1116 913Q1184 913 1219 874T1270 768Q1274 737 1276 704T1280 636T1281 567T1278 498Q1271 304 1194 178T980 -9T650 -70ZM644 961Q614 961 594 974T574 1019Q574
1057 631 1109T771 1211Q829 1245 888 1268T989 1291Q1032 1291 1055 1271T1079 1207Q1079 1160 1035 1120T919 1043Q849 1008 774 985T644 961Z" />
<glyph unicode="&#xfb;" horiz-adv-x="1381" d="M650 -70Q496 -70 381 -29T190 92T75 290T37 560Q37 600 40 638T52 711T71 775Q98 849 147 885T267 922Q336 922 369 899T414 842T428 773Q429 751 429 726T431 676T433 626T436 582Q443 479 466 405T537 291T661
251Q735 251 783 282T861 376T907 532Q913 562 916 591T922 650T929 709T939 768Q956 834 996 873T1116 913Q1184 913 1219 874T1270 768Q1274 737 1276 704T1280 636T1281 567T1278 498Q1271 304 1194 178T980 -9T650 -70ZM417 983Q346 983 346 1054Q346 1091
384 1141T480 1240T601 1320T711 1352Q754 1352 811 1320T922 1240T1010 1143T1045 1060Q1045 1027 1027 1008T978 989Q936 989 910 1013T854 1083Q836 1111 809 1139T755 1187T708 1206Q690 1206 662 1185T602 1132T546 1070Q511 1029 484 1006T417 983Z" />
<glyph unicode="&#xfc;" horiz-adv-x="1381" d="M650 -70Q496 -70 381 -29T190 92T75 290T37 560Q37 600 40 638T52 711T71 775Q98 849 147 885T267 922Q336 922 369 899T414 842T428 773Q429 751 429 726T431 676T433 626T436 582Q443 479 466 405T537 291T661
251Q735 251 783 282T861 376T907 532Q913 562 916 591T922 650T929 709T939 768Q956 834 996 873T1116 913Q1184 913 1219 874T1270 768Q1274 737 1276 704T1280 636T1281 567T1278 498Q1271 304 1194 178T980 -9T650 -70ZM507 969Q421 969 384 1004T346 1088Q346
1153 391 1185T484 1218Q523 1218 557 1207T613 1168T634 1087Q634 1037 607 1003T507 969ZM937 972Q875 972 835 1006T795 1091Q795 1153 841 1192T954 1231Q1015 1231 1045 1195T1075 1111Q1075 1054 1038 1013T937 972Z" />
<glyph unicode="&#xfd;" horiz-adv-x="1318" d="M276 -412Q211 -412 171 -377T131 -292Q131 -239 165 -201T262 -137Q309 -112 360 -82T455 -20T526 43T553 99Q553 120 523 146T416 207Q355 236 299 277T193 368T108 472T52 583T31 695Q31 744 54 784T118 848T211
872Q288 872 341 841T435 736Q474 644 513 566T594 434Q617 404 643 383T688 362Q716 362 740 387T779 443Q818 511 851 597T918 762Q949 815 992 849T1097 884Q1194 884 1232 836T1270 711Q1270 654 1250 584T1197 439T1121 290T1035 151T948 36Q877 -50 795 -130T626
-275T451 -375T276 -412ZM593 948Q563 948 543 961T523 1006Q523 1044 580 1096T720 1198Q778 1232 837 1255T938 1278Q981 1278 1004 1258T1028 1194Q1028 1147 984 1107T868 1030Q798 995 723 972T593 948Z" />
<glyph unicode="&#xfe;" horiz-adv-x="1306" d="M288 -463Q213 -463 168 -414T105 -274Q92 -214 83 -141T65 12T52 174T45 331T42 473Q42 553 46 634T61 792T87 938T127 1062Q156 1121 192 1163T271 1227T361 1250Q439 1250 470 1214T502 1105Q502 1079 500 1049T493
986T485 923T478 864T475 814Q475 773 492 773Q512 773 537 787T599 820T688 853T812 868Q913 868 988 835T1114 741T1190 598T1216 416Q1216 311 1191 226T1114 81T987 -12T810 -45Q723 -45 669 -33T580 -10T520 2Q476 2 463 -35T449 -134Q449 -150 449 -175T447
-228T444 -283T440 -327Q427 -394 392 -428T288 -463ZM622 179Q659 179 698 190T771 226T826 294T847 401Q847 477 824 524T754 595T641 618Q547 618 484 576T421 444Q421 432 422 411T424 365T427 321T431 290Q437 262 461 237T526 195T622 179Z" />
<glyph unicode="&#xff;" horiz-adv-x="1318" d="M276 -412Q211 -412 171 -377T131 -292Q131 -239 165 -201T262 -137Q309 -112 360 -82T455 -20T526 43T553 99Q553 120 523 146T416 207Q355 236 299 277T193 368T108 472T52 583T31 695Q31 744 54 784T118 848T211
872Q288 872 341 841T435 736Q474 644 513 566T594 434Q617 404 643 383T688 362Q716 362 740 387T779 443Q818 511 851 597T918 762Q949 815 992 849T1097 884Q1194 884 1232 836T1270 711Q1270 654 1250 584T1197 439T1121 290T1035 151T948 36Q877 -50 795 -130T626
-275T451 -375T276 -412ZM456 956Q370 956 333 991T295 1075Q295 1140 340 1172T433 1205Q472 1205 506 1194T562 1155T583 1074Q583 1024 556 990T456 956ZM886 959Q824 959 784 993T744 1078Q744 1140 790 1179T903 1218Q964 1218 994 1182T1024 1098Q1024 1041
987 1000T886 959Z" />
<glyph unicode="&#x2013;" horiz-adv-x="1213" d="M616 504Q426 504 305 511T118 533T25 571T-2 625Q-2 660 41 686T166 730T362 757T616 766Q701 766 785 763T943 751T1073 727T1162 688T1195 630Q1195 575 1131 548T939 513T616 504Z" />
<glyph unicode="&#x2014;" horiz-adv-x="1613" d="M831 504Q578 504 418 511T169 533T46 571T11 625Q11 660 69 686T236 730T495 757T831 766Q946 766 1057 763T1266 751T1438 727T1555 688T1598 630Q1598 575 1514 548T1260 513T831 504Z" />
<glyph unicode="&#x2018;" horiz-adv-x="409" d="M170 779Q131 779 108 804T74 867T63 945Q63 988 75 1037T109 1129Q143 1187 190 1219T296 1251Q326 1251 343 1234T360 1191Q360 1173 352 1156T332 1123T309 1092Q295 1074 287 1044T275 983T271 926Q271 850
249 815T170 779Z" />
<glyph unicode="&#x2019;" horiz-adv-x="445" d="M254 769Q199 769 179 803T159 910Q159 947 151 996T117 1073Q104 1088 92 1103T72 1136T64 1171Q64 1196 81 1213T128 1231Q168 1231 201 1217T261 1175T311 1109Q335 1067 348 1020T361 929Q361 890 351 853T317
793T254 769Z" />
<glyph unicode="&#x201a;" horiz-adv-x="419" d="M248 -359Q193 -359 173 -325T153 -218Q153 -181 145 -132T111 -55Q98 -40 86 -25T66 8T58 43Q58 68 75 85T122 103Q162 103 195 89T255 47T305 -19Q329 -61 342 -108T355 -199Q355 -238 345 -275T311 -335T248 -359Z" />
<glyph unicode="&#x201c;" horiz-adv-x="664" d="M140 834Q87 834 63 873T38 962Q38 997 45 1038T65 1119T98 1187Q131 1231 172 1255T256 1280Q270 1280 288 1277T319 1262T332 1225Q332 1211 327 1199T312 1176T289 1150Q257 1115 245 1064T229 961Q226 905
205 870T140 834ZM440 779Q401 779 378 804T344 867T333 945Q333 988 344 1037T379 1129Q412 1187 459 1219T566 1251Q595 1251 612 1234T630 1191Q630 1173 622 1156T602 1123T579 1092Q564 1074 556 1044T544 983T541 926Q541 850 518 815T440 779Z" />
<glyph unicode="&#x201d;" horiz-adv-x="609" d="M498 798Q450 798 428 833T402 924Q398 977 386 1025T342 1114Q331 1129 323 1140T310 1163T305 1189Q305 1214 318 1225T350 1240T382 1243Q423 1243 465 1219T539 1151Q559 1122 572 1083T592 1002T599 926Q599
877 575 838T498 798ZM198 769Q143 769 123 803T103 910Q103 947 95 996T61 1073Q48 1088 36 1103T16 1136T8 1171Q8 1196 25 1213T72 1231Q112 1231 144 1217T204 1175T254 1109Q279 1067 292 1020T305 929Q305 890 295 853T261 793T198 769Z" />
<glyph unicode="&#x201e;" horiz-adv-x="647" d="M518 -331Q470 -331 448 -296T422 -205Q418 -152 406 -104T362 -15Q351 0 343 11T330 34T325 60Q325 85 338 96T370 111T402 114Q443 114 485 90T559 22Q579 -7 592 -46T612 -127T619 -203Q619 -252 595 -291T518
-331ZM218 -360Q163 -360 143 -326T123 -219Q123 -182 115 -133T81 -56Q68 -41 56 -26T36 7T28 42Q28 67 45 84T92 102Q132 102 164 88T224 46T274 -20Q299 -62 312 -109T325 -200Q325 -239 315 -276T281 -336T218 -360Z" />
<glyph unicode="&#x2022;" horiz-adv-x="521" d="M265 450Q208 450 156 465T70 520T36 633Q36 700 70 743T154 807T256 828Q312 828 362 810T445 753T477 652Q477 585 447 541T369 473T265 450Z" />
<glyph unicode="&#x2039;" horiz-adv-x="450" d="M365 239Q350 239 317 257T250 301T195 344Q150 385 111 429T46 523T20 626Q20 666 32 704T65 780T112 853T165 924Q188 953 222 986T292 1042T348 1066Q382 1066 399 1046T416 996Q416 971 402 938T361 865T295
782Q276 759 258 733T228 681T217 635Q217 617 230 594T265 546T310 501Q349 466 375 433T415 371T429 317Q429 279 413 259T365 239Z" />
<glyph unicode="&#x203a;" horiz-adv-x="450" d="M108 235Q74 235 57 255T39 305Q39 330 53 363T95 436T161 519Q181 542 199 568T228 620T239 666Q239 684 226 707T191 755T146 800Q88 853 58 900T27 984Q27 1062 91 1062Q107 1062 139 1044T206 1001T261 957Q305
917 345 872T411 779T436 675Q436 635 424 597T391 521T344 448T291 377Q268 349 233 316T164 259T108 235Z" />
</font>
</defs>
</svg>
