<?xml version="1.0" standalone="no"?>
<!DOCTYPE svg PUBLIC "-//W3C//DTD SVG 20010904//EN"
 "http://www.w3.org/TR/2001/REC-SVG-20010904/DTD/svg10.dtd">
<svg version="1.0" xmlns="http://www.w3.org/2000/svg"
 width="700.000000pt" height="700.000000pt" viewBox="0 0 700.000000 700.000000"
 preserveAspectRatio="xMidYMid meet">
<metadata>
Created by potrace 1.14, written by Peter Selinger 2001-2017
</metadata>
<g transform="translate(0.000000,700.000000) scale(0.100000,-0.100000)"
fill="#000000" stroke="none">
<path d="M1550 5323 c-698 -71 -1165 -361 -1321 -819 -43 -127 -59 -236 -59
-403 0 -221 36 -421 122 -678 l40 -123 69 0 c38 0 69 4 69 9 0 5 -15 49 -34
98 -127 336 -157 688 -80 973 77 289 305 576 567 715 179 95 562 204 792 225
l80 7 -105 0 c-58 0 -121 -2 -140 -4z"/>
<path d="M1600 5194 c-58 -8 -111 -16 -118 -19 -9 -3 11 -32 60 -86 40 -44 87
-96 103 -115 l30 -34 85 16 c187 35 513 30 757 -13 l92 -16 31 -58 c17 -32 35
-61 40 -64 6 -4 10 51 10 144 l0 150 -52 15 c-92 26 -300 65 -434 81 -159 19
-461 18 -604 -1z"/>
<path d="M1305 5131 c-269 -84 -456 -199 -620 -382 -58 -66 -165 -230 -165
-254 0 -12 320 -175 344 -175 7 0 18 15 24 34 21 58 111 187 181 259 103 107
228 191 377 253 l83 34 112 -60 c61 -34 113 -59 115 -58 6 7 -338 378 -350
377 -6 0 -51 -13 -101 -28z"/>
<path d="M2730 4992 l0 -98 68 -18 c169 -45 432 -154 621 -256 l92 -50 140 0
c76 0 139 3 139 8 0 10 -221 147 -358 222 -183 99 -475 222 -649 273 l-53 16
0 -97z"/>
<path d="M2540 4544 c-258 -45 -540 -150 -950 -354 -111 -55 -239 -111 -285
-125 -47 -14 -87 -31 -91 -37 -4 -5 3 -19 14 -31 l21 -20 -77 -48 c-42 -26
-93 -63 -113 -82 -42 -41 -49 -73 -49 -241 0 -93 3 -116 20 -143 11 -18 22
-33 25 -33 3 0 3 58 -1 128 -9 173 -6 187 64 257 100 100 134 119 232 125 71
4 85 8 88 23 2 15 -6 17 -58 17 -44 0 -60 4 -60 14 0 9 18 15 53 19 40 4 108
33 292 124 368 181 586 269 805 324 93 23 105 24 500 23 399 0 604 -11 797
-39 90 -14 248 -54 240 -61 -2 -2 -48 7 -102 19 -95 20 -124 21 -597 22 -273
0 -500 -4 -505 -8 -4 -5 26 -39 67 -75 119 -105 300 -284 318 -315 l17 -28
175 1 c161 2 187 -1 320 -29 80 -17 156 -33 170 -36 41 -8 -32 23 -149 65
l-103 37 218 6 c121 4 329 7 464 8 135 1 274 4 310 8 l65 6 -55 42 c-222 167
-572 325 -875 392 -173 39 -247 44 -715 46 -256 2 -476 1 -490 -1z"/>
<path d="M486 4416 c-71 -169 -85 -471 -32 -696 28 -121 64 -232 112 -340 l33
-75 170 -3 c94 -1 171 -1 171 0 0 2 -14 37 -31 78 -73 179 -109 358 -109 542
0 102 20 261 35 276 3 3 48 0 101 -7 53 -7 98 -11 100 -9 2 3 -118 64 -266
136 l-270 131 -14 -33z"/>
<path d="M2410 4395 c-118 -29 -461 -168 -562 -228 l-53 -32 -3 -69 c-3 -60 0
-72 19 -92 l22 -24 399 0 c219 0 398 3 398 6 0 4 -13 22 -30 41 -16 18 -30 38
-30 43 0 5 19 22 41 37 103 68 303 23 286 -65 -4 -22 -1 -31 16 -42 25 -15
177 -21 177 -6 0 13 -145 190 -222 272 -96 101 -162 144 -245 160 -85 16 -142
16 -213 -1z"/>
<path d="M5050 4001 c0 -11 10 -13 180 -41 332 -56 550 -140 638 -246 27 -32
58 -102 49 -110 -5 -5 -725 -25 -796 -22 -71 3 -76 2 -79 -18 -2 -15 20 -48
67 -105 39 -46 71 -87 71 -92 0 -5 -39 -6 -87 -3 -49 3 -153 8 -233 11 -148 6
-396 29 -447 41 -15 4 -25 4 -22 0 20 -21 314 -70 508 -86 263 -20 944 -10
1047 16 19 5 23 1 26 -23 2 -22 9 -29 29 -31 25 -3 26 -1 33 61 13 129 -29
304 -90 375 -73 86 -218 176 -354 220 -105 34 -295 62 -424 62 -64 0 -116 -4
-116 -9z"/>
<path d="M3410 3774 c-93 -34 -164 -102 -200 -192 -15 -38 -7 -54 10 -22 23
43 85 102 134 128 44 24 62 27 136 26 66 -1 94 -6 125 -22 101 -54 182 -163
261 -352 29 -69 31 -39 4 65 -41 158 -128 294 -227 352 -58 34 -174 42 -243
17z"/>
<path d="M1240 3709 c-49 -20 -96 -76 -115 -139 -8 -24 -7 -23 29 8 129 113
252 82 335 -83 13 -25 25 -44 28 -41 11 10 -40 147 -69 187 -16 22 -43 48 -61
59 -35 22 -105 26 -147 9z"/>
<path d="M4105 3679 c53 -93 161 -210 209 -229 56 -21 735 -73 785 -60 24 6
24 6 -10 34 -87 71 -111 138 -63 174 27 19 27 19 -215 26 -338 9 -594 32 -695
63 -14 4 -16 2 -11 -8z"/>
<path d="M901 3216 c-7 -8 -11 -25 -9 -38 2 -19 9 -23 38 -23 33 0 35 2 35 35
0 30 -4 35 -26 38 -14 2 -31 -4 -38 -12z"/>
<path d="M1010 3216 c-6 -8 -10 -25 -8 -38 2 -18 10 -24 35 -26 28 -3 33 1 39
22 3 14 4 33 0 41 -7 19 -50 19 -66 1z"/>
<path d="M170 3105 c0 -22 4 -25 35 -25 23 0 35 -5 35 -13 0 -8 -11 -65 -25
-127 -14 -62 -25 -119 -25 -127 0 -11 13 -13 57 -11 l57 3 29 138 30 137 43 0
c40 0 44 2 44 25 l0 25 -140 0 -140 0 0 -25z"/>
<path d="M477 3108 c-4 -13 -18 -79 -32 -148 -14 -69 -28 -133 -31 -142 -5
-16 2 -18 55 -18 59 0 59 0 66 33 19 95 25 107 50 107 29 0 29 -5 11 -82 l-13
-58 58 0 c46 0 59 3 63 18 7 24 66 295 66 304 0 5 -26 8 -58 8 l-59 0 -14 -67
c-13 -63 -16 -68 -41 -71 -31 -4 -32 -2 -19 48 5 19 12 47 15 63 l6 27 -59 0
c-53 0 -59 -2 -64 -22z"/>
<path d="M815 3118 c-12 -37 -45 -212 -45 -241 0 -55 36 -81 113 -81 116 0
149 34 183 186 30 135 30 148 0 148 -22 0 -25 -7 -46 -107 -32 -156 -41 -173
-85 -173 -23 0 -38 5 -42 15 -4 13 21 158 44 243 5 21 2 22 -56 22 -40 0 -63
-4 -66 -12z"/>
<path d="M1140 3125 c0 -8 -60 -289 -66 -307 -5 -16 2 -18 55 -18 l60 0 13 60
c6 33 15 60 18 60 4 0 15 -27 25 -60 l18 -60 59 0 c32 0 58 4 58 8 0 5 -11 36
-25 70 -31 76 -31 76 -1 90 16 7 29 25 37 51 10 34 9 44 -5 66 -9 14 -28 30
-42 35 -25 10 -204 14 -204 5z m148 -68 c4 -32 -21 -77 -43 -77 -18 0 -18 -3
-4 60 8 39 15 50 27 48 10 -2 18 -15 20 -31z"/>
<path d="M1432 2978 c-18 -84 -32 -159 -32 -166 0 -9 15 -12 57 -10 l57 3 33
150 c18 83 32 156 33 163 0 8 -18 12 -58 12 l-57 0 -33 -152z"/>
<path d="M1630 3125 c0 -6 -60 -287 -66 -307 -4 -14 1 -18 23 -18 29 0 29 1
48 96 10 52 22 97 25 99 4 2 17 -41 30 -95 l24 -100 62 0 c51 0 64 3 68 18 6
19 66 300 66 308 0 3 -12 4 -27 2 -26 -3 -29 -7 -48 -100 -10 -54 -22 -98 -26
-98 -3 0 -16 45 -28 100 l-22 100 -65 0 c-35 0 -64 -2 -64 -5z"/>
<path d="M2015 3116 c-69 -30 -110 -112 -103 -203 4 -44 11 -60 36 -85 25 -26
39 -31 76 -31 30 0 53 6 66 18 18 16 20 16 20 2 0 -13 9 -17 35 -17 28 0 36 4
40 23 14 63 25 113 25 120 0 4 -31 7 -69 7 -60 0 -69 -2 -74 -20 -4 -15 0 -20
14 -20 24 0 24 -21 1 -51 -13 -15 -25 -20 -37 -15 -16 6 -17 15 -12 74 8 77
23 129 45 155 27 31 42 21 42 -28 l0 -45 44 0 44 0 11 51 c6 29 10 53 9 53
-51 29 -161 35 -213 12z"/>
<path d="M2285 3118 c-6 -20 -65 -298 -65 -308 0 -6 47 -10 109 -10 100 0 109
2 114 20 5 18 0 20 -48 20 l-53 0 12 53 11 52 45 5 c32 4 46 10 48 23 3 14 -4
17 -37 17 -44 0 -46 3 -35 59 6 30 8 31 60 31 30 0 54 4 54 9 0 5 3 16 6 25 5
14 -8 16 -105 16 -80 0 -113 -3 -116 -12z"/>
<path d="M2509 2968 l-35 -163 55 -3 c61 -3 66 1 76 64 3 24 10 46 14 48 4 3
16 -22 26 -54 l18 -60 59 0 c32 0 58 4 58 8 0 5 -11 37 -25 72 l-25 64 30 27
c36 33 46 70 30 109 -16 38 -53 50 -160 50 l-87 0 -34 -162z m179 85 c4 -41
-13 -73 -39 -73 -18 0 -20 4 -15 26 4 15 10 40 13 56 8 40 37 34 41 -9z"/>
<path d="M2920 3121 c0 -5 -3 -16 -6 -25 -5 -13 2 -16 35 -16 23 0 41 -2 41
-4 0 -8 -50 -240 -56 -258 -5 -16 2 -18 55 -18 34 0 61 2 61 3 0 4 46 214 55
255 4 18 12 22 44 22 37 0 51 12 51 41 0 5 -62 9 -140 9 -78 0 -140 -4 -140
-9z"/>
<path d="M3202 3027 c-36 -171 -29 -209 39 -227 70 -19 163 6 194 53 12 19 65
235 65 267 0 5 -11 10 -24 10 -28 0 -26 4 -56 -140 -12 -58 -29 -113 -38 -122
-20 -23 -70 -24 -79 -1 -4 10 3 65 15 123 31 148 33 140 -36 140 l-59 0 -21
-103z"/>
<path d="M3546 3113 c-5 -18 -66 -303 -66 -310 0 -2 12 -3 27 -1 25 3 28 8 48
103 11 55 23 95 26 90 4 -6 16 -52 29 -102 l22 -93 64 0 c35 0 64 2 64 5 0 6
60 287 66 308 4 13 -1 17 -23 17 -29 0 -29 -2 -48 -92 -27 -138 -28 -139 -54
-18 l-24 110 -63 0 c-51 0 -64 -3 -68 -17z"/>
<path d="M3875 3118 c-6 -20 -65 -298 -65 -308 0 -6 26 -10 58 -10 l57 0 33
153 c18 83 32 158 32 165 0 8 -18 12 -55 12 -36 0 -57 -5 -60 -12z"/>
<path d="M4031 3073 c-6 -32 -22 -106 -35 -165 l-23 -108 27 0 c26 0 28 3 45
88 28 135 29 135 56 18 l24 -107 64 3 65 3 33 150 c18 83 33 156 33 163 0 6
-11 12 -25 12 -17 0 -26 -7 -30 -22 -3 -13 -14 -61 -24 -108 -19 -89 -22 -89
-41 0 -7 30 -16 72 -21 93 l-10 37 -63 0 -63 0 -12 -57z"/>
<path d="M4420 3111 c-66 -35 -99 -95 -100 -181 0 -107 110 -175 183 -112 15
14 17 13 17 -2 0 -14 8 -17 37 -14 37 3 37 4 50 63 18 90 21 85 -57 85 -63 0
-70 -2 -70 -20 0 -13 7 -20 20 -20 22 0 18 -22 -8 -52 -40 -47 -60 -2 -42 100
20 118 80 183 80 87 l0 -45 44 0 c48 0 49 1 61 71 6 34 5 37 -26 48 -50 17
-149 13 -189 -8z"/>
<path d="M4795 3118 c-6 -18 -65 -296 -65 -308 0 -6 26 -10 58 -10 l58 0 15
73 14 72 45 5 c37 4 46 9 48 28 3 20 -1 22 -39 22 -41 0 -41 0 -35 31 3 17 6
35 6 40 0 5 25 9 55 9 30 0 55 4 55 9 0 5 3 16 6 25 5 14 -8 16 -105 16 -80 0
-113 -4 -116 -12z"/>
<path d="M5045 3118 c-6 -18 -65 -296 -65 -308 0 -6 27 -10 60 -10 46 0 60 3
60 15 0 7 5 38 12 67 l11 53 22 -65 22 -65 61 -3 62 -3 -21 53 c-12 29 -24 62
-29 73 -5 14 1 27 27 51 53 50 44 121 -18 143 -45 16 -198 15 -204 -1z m148
-49 c14 -22 -17 -89 -41 -89 -18 0 -19 4 -11 43 5 23 12 48 14 55 6 16 25 12
38 -9z"/>
<path d="M5365 3108 c-9 -42 -65 -302 -65 -305 0 -2 49 -3 109 -3 107 0 121 4
121 36 0 2 -23 4 -51 4 l-51 0 6 38 c13 71 14 72 62 72 37 0 44 3 44 20 0 17
-7 20 -40 20 l-41 0 7 38 c9 52 10 52 64 52 46 0 60 9 60 41 0 5 -49 9 -110 9
-105 0 -110 -1 -115 -22z"/>
<path d="M5600 3023 c-37 -175 -31 -204 42 -224 76 -20 166 9 194 62 12 25 64
237 64 265 0 3 -12 4 -27 2 -26 -3 -28 -7 -50 -117 -27 -133 -41 -161 -83
-161 -46 0 -50 20 -24 139 33 149 35 141 -35 141 l-58 0 -23 -107z"/>
<path d="M5945 3118 c-5 -18 -65 -301 -65 -311 0 -4 11 -7 25 -7 27 0 25 -6
54 130 19 89 21 89 41 -5 6 -27 15 -67 21 -87 l10 -38 63 0 63 0 33 153 c18
83 35 158 37 165 4 8 -5 12 -24 12 -30 0 -30 0 -53 -110 -13 -60 -24 -110 -25
-110 -1 0 -12 50 -25 110 l-23 110 -64 0 c-42 0 -65 -4 -68 -12z"/>
<path d="M6275 3118 c-7 -18 -65 -295 -65 -309 0 -7 36 -10 113 -7 98 3 116 6
145 26 46 33 73 92 74 161 1 71 -20 115 -63 130 -45 16 -198 15 -204 -1z m152
-44 c9 -25 -12 -148 -34 -191 -11 -23 -26 -39 -39 -41 l-21 -3 26 125 c21 105
29 126 44 126 10 0 20 -7 24 -16z"/>
<path d="M6601 3073 c-6 -32 -22 -106 -35 -165 l-23 -108 113 0 c107 0 114 1
114 20 0 17 -7 20 -51 20 -50 0 -51 1 -45 26 4 15 10 39 13 55 5 27 9 29 48
29 30 0 45 5 49 16 9 24 9 24 -40 24 -38 0 -45 3 -40 18 3 9 8 29 12 45 6 25
10 27 60 27 51 0 54 1 54 25 l0 25 -109 0 -108 0 -12 -57z"/>
<path d="M600 2671 c0 -22 463 -383 645 -504 299 -197 904 -418 1307 -477 91
-14 177 -19 273 -18 77 1 111 3 75 5 -395 17 -754 115 -1150 312 -318 159
-674 391 -907 592 l-114 99 -65 0 c-35 0 -64 -4 -64 -9z"/>
<path d="M880 2675 c0 -18 240 -205 384 -300 61 -40 158 -100 216 -133 l105
-60 60 56 c33 30 60 59 60 63 0 4 -67 52 -150 107 -82 55 -198 139 -257 186
l-107 86 -155 0 c-86 0 -156 -2 -156 -5z"/>
<path d="M4205 2670 c-11 -4 -38 -6 -61 -3 -42 5 -104 -17 -104 -38 0 -5 -12
-21 -27 -35 -21 -20 -24 -27 -14 -34 13 -7 12 -35 -6 -107 -5 -21 -2 -23 35
-23 l40 0 14 62 c10 47 18 64 32 66 15 3 18 0 13 -20 -3 -12 -9 -42 -13 -66
l-7 -43 39 3 39 3 13 63 c11 50 17 62 33 62 10 0 19 7 19 15 0 8 -7 15 -15 15
-8 0 -15 6 -15 13 0 20 22 37 47 37 30 0 30 26 1 34 -29 7 -38 7 -63 -4z m-62
-60 c-3 -11 -14 -20 -24 -20 -22 0 -24 11 -7 28 19 19 37 14 31 -8z"/>
<path d="M3160 2665 c0 -8 -40 -197 -46 -217 -5 -15 1 -18 35 -18 37 0 41 3
49 32 l8 32 13 -32 c12 -29 17 -32 58 -32 l45 0 -28 47 -27 47 31 26 c18 15
32 30 32 33 0 18 -46 4 -82 -25 -33 -25 -39 -28 -35 -12 8 24 26 107 27 117 0
4 -18 7 -40 7 -22 0 -40 -2 -40 -5z"/>
<path d="M6370 2665 c0 -8 -40 -197 -46 -217 -5 -15 1 -18 35 -18 34 0 41 4
46 23 14 64 45 207 45 212 0 3 -18 5 -40 5 -22 0 -40 -2 -40 -5z"/>
<path d="M6676 2653 c-5 -17 -46 -211 -46 -219 0 -2 16 -4 35 -4 21 0 35 5 35
12 0 9 3 9 12 0 13 -13 67 -16 84 -4 34 22 47 119 19 142 -9 7 -26 9 -45 5
-33 -7 -33 -6 -21 48 l9 37 -38 0 c-28 0 -40 -5 -44 -17z m70 -159 c-7 -26
-26 -33 -26 -10 0 8 5 27 12 43 9 23 12 25 15 10 3 -10 2 -29 -1 -43z"/>
<path d="M2505 2648 c-6 -17 -45 -200 -45 -210 0 -4 8 -8 19 -8 15 0 21 13 32
68 8 40 15 57 16 42 14 -113 13 -110 42 -110 22 0 31 7 40 28 16 39 54 93 47
67 -3 -11 -8 -37 -12 -57 l-6 -38 40 0 c30 0 42 5 46 18 5 16 46 203 46 209 0
2 -21 3 -47 3 -48 0 -48 0 -78 -55 -16 -31 -31 -52 -32 -48 -1 4 -4 29 -8 56
l-6 47 -45 0 c-27 0 -46 -5 -49 -12z"/>
<path d="M5077 2646 c-7 -18 1 -26 25 -26 22 0 22 -15 3 -95 -22 -92 -21 -95
24 -95 l40 0 11 58 c24 121 28 130 58 134 16 2 28 10 30 21 3 15 -6 17 -91 17
-72 0 -96 -3 -100 -14z"/>
<path d="M5679 2644 c-10 -12 -10 -20 -1 -35 10 -15 9 -19 -2 -19 -9 0 -18
-22 -25 -62 -7 -35 -14 -71 -17 -80 -4 -15 1 -18 34 -18 l40 0 17 76 c13 58
14 78 5 84 -8 5 -7 9 4 13 21 8 21 43 0 51 -25 10 -41 7 -55 -10z"/>
<path d="M2790 2570 c-22 -22 -19 -40 8 -40 9 -1 2 -7 -15 -15 -24 -10 -33
-20 -33 -38 0 -36 18 -45 97 -45 80 0 78 -1 89 77 6 43 4 50 -17 65 -34 23
-104 21 -129 -4z m75 -20 c3 -6 -1 -13 -10 -16 -19 -8 -30 0 -20 15 8 14 22
14 30 1z m-11 -65 c-6 -16 -34 -21 -34 -7 0 13 11 22 26 22 8 0 11 -6 8 -15z"/>
<path d="M2977 2583 c-3 -5 -10 -35 -17 -68 -7 -33 -15 -65 -17 -72 -4 -9 7
-13 35 -13 44 0 45 2 58 73 7 41 19 48 27 17 8 -31 45 -26 53 8 3 15 7 33 10
40 6 19 -25 27 -57 15 -16 -7 -29 -7 -29 -2 0 11 -57 12 -63 2z"/>
<path d="M3367 2574 c-47 -26 -61 -90 -27 -124 15 -15 33 -20 73 -20 59 0 71
6 81 38 7 20 4 22 -27 22 -22 0 -37 -6 -41 -15 -8 -22 -26 -18 -26 4 0 17 8
20 53 23 49 3 52 4 55 33 3 19 -2 33 -14 42 -24 17 -92 16 -127 -3z m73 -34
c0 -11 -7 -20 -15 -20 -17 0 -18 2 -9 24 9 23 24 20 24 -4z"/>
<path d="M3534 2563 c-3 -16 -10 -44 -15 -63 -16 -63 -13 -70 30 -70 38 0 39
0 46 46 8 58 14 74 27 74 10 0 6 -35 -9 -97 -5 -21 -2 -23 35 -23 l41 0 11 55
c13 65 11 84 -12 99 -13 8 -26 7 -50 -2 -21 -8 -34 -9 -36 -2 -2 5 -17 10 -33
10 -23 0 -30 -5 -35 -27z"/>
<path d="M3828 2574 c-32 -17 -49 -67 -36 -104 13 -34 25 -40 81 -40 40 0 53
5 78 29 35 35 39 81 9 111 -24 24 -92 26 -132 4z m63 -87 c-6 -15 -16 -27 -22
-27 -14 0 -3 68 14 89 10 12 13 10 15 -10 2 -14 -2 -37 -7 -52z"/>
<path d="M4300 2583 c-36 -13 -60 -47 -60 -83 0 -51 24 -70 88 -70 52 0 82 17
82 46 0 19 -59 19 -66 -1 -9 -22 -34 -18 -34 5 0 18 7 20 54 20 50 0 54 2 59
26 9 49 -58 81 -123 57z m50 -43 c0 -11 -7 -20 -15 -20 -18 0 -19 12 -3 28 16
16 18 15 18 -8z"/>
<path d="M4441 2533 c-6 -32 -14 -68 -17 -80 -6 -21 -3 -23 34 -23 l41 0 11
55 c12 57 30 83 30 43 0 -13 -4 -40 -9 -61 l-9 -38 41 3 41 3 12 59 c7 33 10
66 7 73 -8 19 -51 27 -78 15 -15 -7 -26 -8 -30 -2 -4 6 -19 10 -34 10 -27 0
-29 -4 -40 -57z"/>
<path d="M4674 2571 c-34 -21 -48 -56 -38 -96 8 -33 32 -45 91 -45 55 0 68 6
77 38 7 20 4 22 -27 22 -22 0 -37 -6 -41 -15 -8 -22 -26 -18 -26 4 0 17 8 20
53 23 49 3 52 4 55 33 3 19 -2 33 -14 42 -26 19 -94 16 -130 -6z m76 -31 c0
-11 -7 -20 -15 -20 -17 0 -18 2 -9 24 9 23 24 20 24 -4z"/>
<path d="M4844 2563 c-3 -16 -10 -44 -15 -63 -16 -63 -13 -70 30 -70 l38 0 9
52 c9 51 34 80 34 38 0 -34 42 -22 52 15 11 40 4 55 -25 55 -13 0 -29 -6 -36
-12 -11 -10 -14 -10 -18 0 -3 6 -18 12 -34 12 -23 0 -30 -5 -35 -27z"/>
<path d="M5240 2531 c-19 -93 -14 -99 80 -99 l80 0 10 37 c5 20 12 55 16 79
l7 43 -39 -3 c-30 -2 -40 -8 -42 -23 -9 -53 -24 -95 -33 -95 -11 0 -8 33 8 98
5 20 2 22 -35 22 l-39 0 -13 -59z"/>
<path d="M5454 2563 c-3 -16 -10 -44 -15 -63 -16 -63 -13 -70 30 -70 38 0 39
0 46 46 8 58 14 74 27 74 10 0 6 -35 -9 -97 -5 -21 -2 -23 35 -23 l41 0 11 55
c13 65 11 84 -12 99 -13 8 -26 7 -50 -2 -21 -8 -34 -9 -36 -2 -2 5 -17 10 -33
10 -23 0 -30 -5 -35 -27z"/>
<path d="M5765 2578 c-3 -7 -11 -43 -19 -80 l-14 -68 39 0 c36 0 39 2 48 38 5
20 11 46 13 56 2 11 9 21 17 24 10 3 12 -2 8 -19 -3 -13 -9 -41 -12 -61 l-7
-38 39 0 39 0 13 65 c11 52 11 68 1 80 -15 18 -43 19 -73 4 -16 -9 -22 -9 -25
0 -5 15 -61 14 -67 -1z"/>
<path d="M5983 2575 c-25 -18 -45 -78 -37 -112 7 -26 35 -37 70 -29 23 6 24 5
14 -14 -8 -14 -21 -20 -45 -20 -26 0 -35 -4 -35 -16 0 -26 114 -15 142 13 20
21 62 176 50 187 -10 10 -62 6 -62 -4 0 -7 -6 -7 -19 0 -27 14 -53 13 -78 -5z
m72 -57 c-9 -40 -13 -48 -26 -48 -10 0 -4 53 8 73 12 20 24 4 18 -25z"/>
<path d="M6204 2580 c-51 -20 -72 -101 -35 -134 14 -13 33 -16 77 -14 53 3 58
5 65 31 7 25 5 27 -21 27 -17 0 -33 -7 -38 -16 -16 -29 -31 -7 -22 32 11 49
29 66 36 36 8 -30 50 -30 60 0 12 40 -61 63 -122 38z"/>
<path d="M6457 2583 c-3 -5 -10 -34 -17 -66 -9 -45 -9 -61 0 -72 15 -18 71
-20 88 -3 9 9 12 9 12 0 0 -7 14 -12 33 -12 l33 0 15 75 c8 42 13 78 10 80 -2
3 -19 5 -37 5 -28 0 -35 -4 -40 -27 -17 -77 -21 -87 -33 -91 -10 -3 -12 2 -8
19 4 13 10 41 13 62 7 37 7 37 -29 37 -20 0 -38 -3 -40 -7z"/>
<path d="M1820 2337 c-25 -23 -78 -73 -118 -110 l-73 -68 125 -59 c69 -33 185
-82 258 -109 208 -78 501 -159 531 -148 12 4 44 105 36 111 -2 2 -61 19 -130
39 -69 19 -171 52 -225 72 -91 34 -359 153 -394 175 -13 8 -10 19 18 75 17 36
28 65 24 65 -4 0 -27 -19 -52 -43z"/>
<path d="M4160 2254 c-83 -83 -207 -171 -317 -223 l-71 -34 -69 50 c-37 27
-74 53 -81 57 -7 4 14 -46 47 -113 l61 -120 53 18 c185 64 344 165 490 311 59
60 107 113 107 119 0 7 -27 11 -73 11 l-73 0 -74 -76z"/>
<path d="M2638 1975 c-25 -77 -44 -143 -42 -146 2 -4 63 -15 136 -25 164 -23
558 -26 683 -6 108 18 258 52 268 62 10 9 -29 90 -43 90 -6 0 -50 -9 -98 -19
-226 -50 -507 -54 -774 -10 l-66 10 -9 92 -9 92 -46 -140z"/>
</g>
</svg>
